# Blender 3.3.0
# www.blender.org
mtllib s_komodin.mtl
g cabinet.014_Cylinder.134
v 0.006875 -3.310483 -3.916474
v 0.006875 3.881387 -3.916472
v -0.379492 -2.754848 4.449571
v -0.379492 3.325749 4.449573
v -16.103048 -3.310483 -3.948249
v -16.103048 3.881387 -3.948246
v -15.749674 -2.754848 4.419255
v -15.749674 3.325749 4.419257
v -0.009627 3.881385 4.450302
v -0.009627 -3.310485 4.450300
v -16.119551 -3.310485 4.418526
v -16.119551 3.881385 4.418528
v -0.364673 3.325751 -3.063890
v -0.364673 -2.754846 -3.063892
v -15.734855 -2.754846 -3.094208
v -15.734855 3.325751 -3.094206
v 16.116812 -3.310483 -3.884711
v 16.116812 3.881387 -3.884709
v 15.730444 -2.754848 4.481345
v 15.730444 3.325749 4.481347
v 0.006875 -3.310483 -3.916486
v 0.006875 3.881387 -3.916483
v 0.360250 -2.754848 4.451029
v 0.360250 3.325749 4.451031
v 16.100309 3.881385 4.482076
v 16.100309 -3.310485 4.482074
v -0.009627 -3.310485 4.450300
v -0.009627 3.881385 4.450302
v 15.745263 3.325751 -3.032116
v 15.745263 -2.754846 -3.032118
v 0.375069 -2.754846 -3.062433
v 0.375069 3.325751 -3.062431
v 7.506118 -0.180688 4.416701
v 7.506118 0.635916 4.416701
v 7.505413 -0.180688 4.774458
v 7.505413 0.635916 4.774458
v 6.144397 -0.180688 4.414015
v 6.144397 0.635916 4.414015
v 6.143692 -0.180688 4.771772
v 6.143692 0.635916 4.771772
v 6.610961 -0.180688 4.772694
v 6.610961 0.635916 4.772694
v 6.611666 -0.180688 4.414937
v 6.611666 0.635916 4.414937
v 7.504533 0.635916 5.220055
v 7.504533 -0.180688 5.220055
v 6.610082 -0.180688 5.218291
v 6.610082 0.635916 5.218291
v 7.504832 0.635916 5.068574
v 7.504832 -0.180688 5.068574
v 6.610381 -0.180688 5.066810
v 6.610381 0.635916 5.066810
v 9.825131 0.635916 5.224632
v 9.825131 -0.180688 5.224632
v 9.825430 0.635916 5.073151
v 9.825430 -0.180688 5.073151
v 8.932251 0.635916 4.419514
v 8.932251 -0.180690 4.419514
v 8.931545 0.635916 4.777271
v 8.931545 -0.180690 4.777271
v 10.293972 0.635918 4.422199
v 10.293972 -0.180688 4.422199
v 10.293266 0.635918 4.779956
v 10.293266 -0.180688 4.779956
v 9.826010 0.635916 4.779035
v 9.826010 -0.180688 4.779035
v 9.826715 0.635916 4.421278
v 9.826715 -0.180688 4.421278
v 8.930965 -0.180690 5.071387
v 8.930965 0.635916 5.071387
v 9.825430 0.635916 5.073151
v 9.825430 -0.180688 5.073151
v -8.603806 -0.180688 4.384926
v -8.603806 0.635916 4.384926
v -8.604511 -0.180688 4.742683
v -8.604511 0.635916 4.742683
v -9.965539 -0.180688 4.382240
v -9.965539 0.635916 4.382240
v -9.966245 -0.180688 4.739997
v -9.966245 0.635916 4.739997
v -9.498976 -0.180688 4.740919
v -9.498976 0.635916 4.740919
v -9.498270 -0.180688 4.383162
v -9.498270 0.635916 4.383162
v -8.605390 0.635916 5.188292
v -8.605390 -0.180688 5.188292
v -9.499854 -0.180688 5.186528
v -9.499854 0.635916 5.186528
v -8.605091 0.635916 5.036811
v -8.605091 -0.180688 5.036811
v -9.499556 -0.180688 5.035047
v -9.499556 0.635916 5.035047
v -6.284793 0.635916 5.192869
v -6.284793 -0.180688 5.192869
v -6.284494 0.635916 5.041388
v -6.284494 -0.180688 5.041388
v -7.177672 0.635916 4.387739
v -7.177672 -0.180688 4.387739
v -7.178378 0.635916 4.745496
v -7.178378 -0.180688 4.745496
v -5.815965 0.635918 4.390425
v -5.815965 -0.180688 4.390425
v -5.816670 0.635918 4.748182
v -5.816670 -0.180688 4.748182
v -6.283914 0.635916 4.747261
v -6.283914 -0.180688 4.747261
v -6.283208 0.635916 4.389503
v -6.283208 -0.180688 4.389503
v -7.178958 -0.180688 5.039624
v -7.178958 0.635916 5.039624
v -6.284494 0.635916 5.041388
v -6.284494 -0.180688 5.041388
v 15.730539 -2.754852 4.432921
v 15.742499 -2.754850 -1.630830
v 15.270169 3.325745 3.963539
v 15.280281 3.325747 -1.163260
v 0.360346 -2.754846 4.402606
v 0.372305 -2.754844 -1.661153
v 0.822564 3.325749 3.935044
v 0.832676 3.325751 -1.191756
v 15.742499 3.325747 -1.630828
v 15.730539 3.325745 4.432923
v 0.360346 3.325749 4.402607
v 0.372305 3.325751 -1.661151
v 15.280281 -2.150202 -1.163262
v 15.270169 -2.150203 3.963538
v 0.822564 -2.150201 3.935042
v 0.832676 -2.150200 -1.191758
v -0.379397 -2.754846 4.401147
v -0.367437 -2.754844 -1.662612
v -0.839767 3.325749 3.931765
v -0.829655 3.325751 -1.195035
v -15.749578 -2.754846 4.370831
v -15.737618 -2.754844 -1.692928
v -15.287360 3.325751 3.903258
v -15.277248 3.325752 -1.223542
v -0.367437 3.325751 -1.662611
v -0.379397 3.325749 4.401149
v -15.749578 3.325751 4.370833
v -15.737618 3.325753 -1.692926
v -0.829655 -2.150198 -1.195036
v -0.839767 -2.150199 3.931763
v -15.287360 -2.150199 3.903256
v -15.277248 -2.150198 -1.223543
v 5.230004 3.901091 -0.535441
v 5.230004 6.708925 -0.535441
v 4.490264 3.901091 -1.527214
v 4.490264 6.708925 -1.527214
v 4.979300 3.901091 -2.663757
v 4.979300 6.708925 -2.663757
v 6.208067 3.901091 -2.808505
v 6.208067 6.708925 -2.808505
v 6.947832 3.901091 -1.816729
v 6.947832 6.708925 -1.816729
v 6.458796 3.901091 -0.680187
v 6.458796 6.708925 -0.680187
v 5.230004 6.287750 -0.535441
v 4.490264 6.287750 -1.527214
v 4.979300 6.287750 -2.663757
v 6.208067 6.287750 -2.808505
v 6.947832 6.287750 -1.816729
v 6.458796 6.287750 -0.680187
v 5.199231 6.807430 -0.463922
v 4.412937 6.807430 -1.518119
v 4.932737 6.807430 -2.726159
v 6.238835 6.807430 -2.880009
v 7.025146 6.807430 -1.825830
v 6.505344 6.807430 -0.617790
v 5.199231 6.359755 -0.463922
v 4.412937 6.359755 -1.518119
v 4.932737 6.359755 -2.726159
v 6.238835 6.359753 -2.880009
v 7.025146 6.359755 -1.825830
v 6.505344 6.359755 -0.617790
v 9.536362 3.901091 1.578763
v 9.536362 4.822248 1.578763
v 9.878366 3.901091 2.037277
v 9.878366 4.822248 2.037277
v 9.652273 3.901090 2.562729
v 9.652273 4.822248 2.562729
v 9.084175 3.901091 2.629666
v 9.084175 4.822248 2.629666
v 8.742165 3.901090 2.171124
v 8.742165 4.822248 2.171124
v 8.968258 3.901091 1.645672
v 8.968258 4.822248 1.645672
v 10.153208 4.822248 2.004913
v 9.645746 4.822248 1.324548
v 9.817736 4.822248 2.784565
v 8.974793 4.822248 2.883873
v 8.467325 4.822248 2.203505
v 8.802795 4.822248 1.423853
v 10.153208 6.676950 2.004913
v 9.645746 6.676950 1.324548
v 9.817736 6.676950 2.784565
v 8.974793 6.676950 2.883873
v 8.467325 6.676950 2.203505
v 8.802795 6.676950 1.423853
v 11.578141 3.901094 1.544247
v 11.724747 8.937094 1.203531
v 11.048600 3.901094 0.834339
v 11.416995 8.937094 0.790935
v 11.398658 3.901094 0.020789
v 11.620439 8.937094 0.318122
v 12.278245 3.901094 -0.082825
v 12.131640 8.937094 0.257891
v 12.807761 3.901094 0.627104
v 12.439379 8.937094 0.670498
v 12.457704 3.901094 1.440654
v 12.235934 8.937094 1.143311
v 11.404603 4.796368 1.947560
v 10.612575 4.796367 0.885688
v 11.136159 4.796368 -0.331147
v 12.451780 4.796368 -0.486131
v 13.243802 4.796368 0.575738
v 12.720213 4.796368 1.792587
v 11.404603 5.736406 1.947560
v 10.612575 5.736406 0.885688
v 11.136159 5.736406 -0.331147
v 12.451780 5.736406 -0.486131
v 13.243802 5.736407 0.575738
v 12.720213 5.736406 1.792587
v 11.684541 6.758663 1.296971
v 11.315978 6.758663 0.802834
v 11.559627 6.758663 0.236581
v 12.171838 6.758663 0.164472
v 12.540406 6.758663 0.658595
v 12.296756 6.758663 1.224847
vn 1.0000 -0.0000 0.0020
vn -0.0000 1.0000 -0.0000
vn -1.0000 -0.0000 -0.0020
vn 0.0020 -0.0000 -1.0000
vn -0.0000 -1.0000 -0.0000
vn -0.0020 -0.0000 1.0000
vn -0.8016 -0.0000 0.5979
vn -0.9186 -0.0000 -0.3952
vn -0.1170 -0.0000 -0.9931
vn 0.8016 -0.0000 -0.5979
vn 0.9186 -0.0000 0.3952
vn 0.1170 -0.0000 0.9931
vn -0.8009 0.0404 0.5974
vn -0.9178 0.0404 -0.3949
vn -0.1169 0.0404 -0.9923
vn 0.8009 0.0404 -0.5974
vn 0.9178 0.0404 0.3949
vn 0.1169 0.0404 0.9923
vn 0.1077 -0.3909 0.9141
vn 0.8455 -0.3909 0.3638
vn 0.7378 -0.3909 -0.5503
vn -0.1077 -0.3909 -0.9141
vn -0.8455 -0.3909 -0.3638
vn -0.7378 -0.3909 0.5503
vn 0.1003 0.5145 0.8516
vn 0.7877 0.5145 0.3389
vn 0.6873 0.5145 -0.5127
vn -0.1003 0.5145 -0.8516
vn -0.7877 0.5145 -0.3389
vn -0.6873 0.5145 0.5127
s 1
g cabinet.014_m_yellow
usemtl m_yellow
f 1//1 2//1 9//1 10//1
f 7//2 3//2 14//2 15//2
f 11//3 12//3 6//3 5//3
f 5//4 6//4 2//4 1//4
f 10//5 11//5 5//5 1//5
f 14//6 13//6 16//6 15//6
f 4//5 8//5 16//5 13//5
f 8//1 7//1 15//1 16//1
f 3//3 4//3 13//3 14//3
f 17//1 18//1 25//1 26//1
f 23//2 19//2 30//2 31//2
f 27//3 28//3 22//3 21//3
f 21//4 22//4 18//4 17//4
f 26//5 27//5 21//5 17//5
f 30//6 29//6 32//6 31//6
f 20//5 24//5 32//5 29//5
f 24//1 23//1 31//1 32//1
f 19//3 20//3 29//3 30//3
f 33//1 34//1 36//1 35//1
f 43//4 44//4 34//4 33//4
f 41//5 39//5 37//5 43//5
f 35//5 41//5 43//5 33//5
f 37//4 38//4 44//4 43//4
f 50//4 49//4 55//4 56//4
f 51//5 50//5 46//5 47//5
f 41//5 35//5 50//5 51//5
f 35//1 36//1 49//1 50//1
f 56//1 55//1 53//1 54//1
f 46//5 50//5 56//5 54//5
f 63//1 64//1 62//1 61//1
f 66//5 60//5 58//5 68//5
f 64//5 66//5 68//5 62//5
f 60//5 66//5 72//5 69//5
f 66//1 65//1 71//1 72//1
f 73//1 74//1 76//1 75//1
f 83//4 84//4 74//4 73//4
f 81//5 79//5 77//5 83//5
f 75//5 81//5 83//5 73//5
f 77//4 78//4 84//4 83//4
f 90//4 89//4 95//4 96//4
f 91//5 90//5 86//5 87//5
f 81//5 75//5 90//5 91//5
f 75//1 76//1 89//1 90//1
f 96//1 95//1 93//1 94//1
f 86//5 90//5 96//5 94//5
f 103//1 104//1 102//1 101//1
f 106//5 100//5 98//5 108//5
f 104//5 106//5 108//5 102//5
f 100//5 106//5 112//5 109//5
f 106//1 105//1 111//1 112//1
f 113//1 114//1 121//1 122//1
f 119//4 115//4 126//4 127//4
f 123//3 124//3 118//3 117//3
f 117//5 118//5 114//5 113//5
f 122//6 123//6 117//6 113//6
f 124//4 121//4 114//4 118//4
f 116//2 115//2 122//2 121//2
f 115//2 119//2 123//2 122//2
f 120//2 116//2 121//2 124//2
f 119//2 120//2 124//2 123//2
f 126//2 125//2 128//2 127//2
f 116//6 120//6 128//6 125//6
f 120//1 119//1 127//1 128//1
f 115//3 116//3 125//3 126//3
f 129//1 130//1 137//1 138//1
f 135//4 131//4 142//4 143//4
f 139//3 140//3 134//3 133//3
f 133//5 134//5 130//5 129//5
f 138//6 139//6 133//6 129//6
f 140//4 137//4 130//4 134//4
f 132//2 131//2 138//2 137//2
f 131//2 135//2 139//2 138//2
f 136//2 132//2 137//2 140//2
f 135//2 136//2 140//2 139//2
f 142//2 141//2 144//2 143//2
f 132//6 136//6 144//6 141//6
f 136//1 135//1 143//1 144//1
f 131//3 132//3 141//3 142//3
f 169//7 163//7 164//7 170//7
f 170//8 164//8 165//8 171//8
f 171//9 165//9 166//9 172//9
f 172//10 166//10 167//10 173//10
f 164//2 163//2 168//2 167//2 166//2 165//2
f 173//11 167//11 168//11 174//11
f 174//12 168//12 163//12 169//12
f 175//10 176//10 178//10 177//10
f 177//11 178//11 180//11 179//11
f 179//12 180//12 182//12 181//12
f 181//7 182//7 184//7 183//7
f 183//8 184//8 186//8 185//8
f 185//9 186//9 176//9 175//9
g cabinet.014_m_white
usemtl m_white
f 12//2 9//2 2//2 6//2
f 4//6 3//6 10//6 9//6
f 3//6 7//6 11//6 10//6
f 8//6 4//6 9//6 12//6
f 7//6 8//6 12//6 11//6
f 28//2 25//2 18//2 22//2
f 20//6 19//6 26//6 25//6
f 19//6 23//6 27//6 26//6
f 24//6 20//6 25//6 28//6
f 23//6 24//6 28//6 27//6
f 41//6 42//6 40//6 39//6
f 39//3 40//3 38//3 37//3
f 42//2 36//2 34//2 44//2
f 40//2 42//2 44//2 38//2
f 46//6 45//6 48//6 47//6
f 52//3 51//3 47//3 48//3
f 49//2 52//2 48//2 45//2
f 36//2 42//2 52//2 49//2
f 42//3 41//3 51//3 52//3
f 49//2 45//2 53//2 55//2
f 45//6 46//6 54//6 53//6
f 57//3 58//3 60//3 59//3
f 65//6 66//6 64//6 63//6
f 65//2 63//2 61//2 67//2
f 59//2 65//2 67//2 57//2
f 65//2 59//2 70//2 71//2
f 59//3 60//3 69//3 70//3
f 81//6 82//6 80//6 79//6
f 79//3 80//3 78//3 77//3
f 82//2 76//2 74//2 84//2
f 80//2 82//2 84//2 78//2
f 86//6 85//6 88//6 87//6
f 92//3 91//3 87//3 88//3
f 89//2 92//2 88//2 85//2
f 76//2 82//2 92//2 89//2
f 82//3 81//3 91//3 92//3
f 89//2 85//2 93//2 95//2
f 85//6 86//6 94//6 93//6
f 97//3 98//3 100//3 99//3
f 105//6 106//6 104//6 103//6
f 105//2 103//2 101//2 107//2
f 99//2 105//2 107//2 97//2
f 105//2 99//2 110//2 111//2
f 99//3 100//3 109//3 110//3
f 157//7 146//7 148//7 158//7
f 158//8 148//8 150//8 159//8
f 159//9 150//9 152//9 160//9
f 160//10 152//10 154//10 161//10
f 148//2 146//2 156//2 154//2 152//2 150//2
f 161//11 154//11 156//11 162//11
f 162//12 156//12 146//12 157//12
f 145//5 147//5 149//5 151//5 153//5 155//5
f 155//12 162//12 157//12 145//12
f 153//11 161//11 162//11 155//11
f 151//10 160//10 161//10 153//10
f 149//9 159//9 160//9 151//9
f 147//8 158//8 159//8 149//8
f 145//7 157//7 158//7 147//7
f 182//5 180//5 189//5 190//5
f 175//5 177//5 179//5 181//5 183//5 185//5
f 190//12 189//12 195//12 196//12
f 176//5 186//5 192//5 188//5
f 180//5 178//5 187//5 189//5
f 178//5 176//5 188//5 187//5
f 186//5 184//5 191//5 192//5
f 184//5 182//5 190//5 191//5
f 193//2 194//2 198//2 197//2 196//2 195//2
f 191//7 190//7 196//7 197//7
f 192//8 191//8 197//8 198//8
f 187//10 188//10 194//10 193//10
f 188//9 192//9 198//9 194//9
f 189//11 187//11 193//11 195//11
f 223//13 200//13 202//13 224//13
f 224//14 202//14 204//14 225//14
f 225//15 204//15 206//15 226//15
f 226//16 206//16 208//16 227//16
f 202//2 200//2 210//2 208//2 206//2 204//2
f 227//17 208//17 210//17 228//17
f 228//18 210//18 200//18 223//18
f 199//5 201//5 203//5 205//5 207//5 209//5
f 209//19 216//19 211//19 199//19
f 207//20 215//20 216//20 209//20
f 205//21 214//21 215//21 207//21
f 203//22 213//22 214//22 205//22
f 201//23 212//23 213//23 203//23
f 199//24 211//24 212//24 201//24
f 216//12 222//12 217//12 211//12
f 215//11 221//11 222//11 216//11
f 214//10 220//10 221//10 215//10
f 213//9 219//9 220//9 214//9
f 212//8 218//8 219//8 213//8
f 211//7 217//7 218//7 212//7
f 222//25 228//25 223//25 217//25
f 221//26 227//26 228//26 222//26
f 220//27 226//27 227//27 221//27
f 219//28 225//28 226//28 220//28
f 218//29 224//29 225//29 219//29
f 217//30 223//30 224//30 218//30
