# Blender 3.3.0
# www.blender.org
mtllib s_tabure.mtl
g liquid_soap.012_Cube.175
v 0.226796 1.976300 -1.455665
v 0.226796 4.623753 -1.455665
v 1.192896 1.976300 -0.193700
v 1.192896 4.623753 -0.193700
v -1.035172 1.976300 -0.489562
v -1.035172 4.623753 -0.489562
v -0.069071 1.976300 0.772403
v -0.069072 4.623753 0.772402
v 0.238183 5.785025 -0.908787
v 0.238183 5.928044 -0.908787
v 0.495754 5.785025 -0.012746
v 0.495754 5.928044 -0.012746
v -0.451074 5.785025 -0.381124
v -0.451074 5.928044 -0.381124
v 0.346688 5.785025 0.101372
v 0.346688 5.928044 0.101372
v 0.069428 5.406054 -0.415225
v 0.069428 5.828928 -0.415225
v -0.013550 5.406054 -0.404394
v -0.013551 5.828928 -0.404394
v -0.064408 5.406054 -0.470826
v -0.064408 5.828928 -0.470826
v -0.032296 5.406054 -0.548101
v -0.032296 5.828928 -0.548101
v 0.050673 5.406054 -0.558926
v 0.050673 5.828928 -0.558926
v 0.101530 5.406054 -0.492494
v 0.101530 5.828928 -0.492494
v 0.155893 4.623749 -0.302280
v 0.155893 5.406054 -0.302280
v -0.068121 4.623749 -0.273048
v -0.068121 5.406054 -0.273048
v -0.205444 4.623749 -0.452425
v -0.205444 5.406054 -0.452425
v -0.118752 4.623749 -0.661034
v -0.118752 5.406054 -0.661034
v 0.105256 4.623749 -0.690281
v 0.105256 5.406054 -0.690281
v 0.242578 4.623749 -0.510904
v 0.242578 5.406054 -0.510904
v -0.085841 -8.287637 4.200131
v -0.274461 1.410921 1.700992
v 0.094184 -8.402291 3.766649
v 0.002131 1.234771 1.035020
v 0.362544 -8.240588 4.373905
v 0.414420 1.483198 1.967985
v 0.542580 -8.355250 3.940413
v 0.691014 1.307046 1.301998
v -3.292185 -8.286939 -1.436217
v -1.136140 1.470595 -0.739582
v -2.854653 -8.402141 -1.266646
v -0.463926 1.293599 -0.479082
v -3.466794 -8.286935 -0.985682
v -1.404393 1.470594 -0.047422
v -3.029244 -8.402143 -0.816119
v -0.732190 1.293603 0.213106
v 3.191772 -8.240583 -2.926199
v 1.608752 1.483205 -1.113686
v 3.032662 -8.355242 -2.484610
v 1.364305 1.307052 -0.435260
v 2.743381 -8.287628 -3.099976
v 0.919872 1.410926 -1.380680
v 2.584271 -8.402283 -2.658388
v 0.675417 1.234781 -0.702224
v 1.293791 1.213337 -3.509866
v 1.293793 1.974302 -3.509871
v 3.671141 1.213336 -0.554697
v 3.671138 1.974306 -0.554689
v 2.300558 1.213337 2.981742
v 2.300555 1.974305 2.981751
v -1.447374 1.213338 3.563013
v -1.447372 1.974304 3.563008
v -3.824718 1.213338 0.607830
v -3.824722 1.974306 0.607839
v -2.454135 1.213336 -2.928610
v -2.454139 1.974306 -2.928601
vn 0.7940 -0.0000 -0.6079
vn 0.6079 -0.0000 0.7940
vn -0.7940 -0.0000 0.6079
vn -0.6079 -0.0000 -0.7940
vn -0.0000 -1.0000 -0.0000
vn -0.0000 1.0000 -0.0000
vn 0.9611 -0.0000 -0.2763
vn -0.5175 -0.0000 0.8557
vn 0.1294 -0.0000 0.9916
vn -0.9234 -0.0000 -0.3837
vn -0.1294 -0.0000 -0.9916
vn 0.9235 -0.0000 0.3837
vn -0.9234 -0.0000 -0.3838
vn -0.1295 -0.0000 -0.9916
vn -0.9279 -0.1099 -0.3563
vn 0.3726 -0.2498 -0.8938
vn 0.9279 0.0849 0.3629
vn -0.3725 0.2248 0.9004
vn 0.0020 -0.9665 0.2565
vn -0.0020 0.9665 -0.2565
vn 0.3584 -0.0126 -0.9335
vn 0.9026 -0.2510 0.3498
vn -0.3642 -0.0126 0.9312
vn -0.9083 0.2258 -0.3520
vn -0.2223 -0.9712 -0.0862
vn 0.2223 0.9712 0.0862
vn 0.9302 0.0849 0.3572
vn -0.3270 -0.2498 0.9114
vn -0.9257 -0.1099 -0.3620
vn 0.3315 0.2248 -0.9163
vn 0.1743 -0.9665 -0.1881
vn -0.1743 0.9665 0.1881
vn 0.7792 -0.0000 -0.6268
vn 0.9324 -0.0000 0.3614
vn 0.1533 -0.0000 0.9882
vn -0.7792 -0.0000 0.6268
vn -0.9324 -0.0000 -0.3614
vn -0.1533 -0.0000 -0.9882
s 1
g liquid_soap.012_m_white
usemtl m_white
f 9//7 10//7 12//7 11//7
f 11//2 12//2 16//2 15//2
f 15//8 16//8 14//8 13//8
f 13//4 14//4 10//4 9//4
f 11//5 15//5 13//5 9//5
f 16//6 12//6 10//6 14//6
f 17//9 18//9 20//9 19//9
f 19//3 20//3 22//3 21//3
f 21//10 22//10 24//10 23//10
f 23//11 24//11 26//11 25//11
f 20//6 18//6 28//6 26//6 24//6 22//6
f 25//1 26//1 28//1 27//1
f 27//12 28//12 18//12 17//12
f 17//5 19//5 21//5 23//5 25//5 27//5
f 29//9 30//9 32//9 31//9
f 31//3 32//3 34//3 33//3
f 33//13 34//13 36//13 35//13
f 35//14 36//14 38//14 37//14
f 32//6 30//6 40//6 38//6 36//6 34//6
f 37//1 38//1 40//1 39//1
f 39//12 40//12 30//12 29//12
f 29//5 31//5 33//5 35//5 37//5 39//5
g liquid_soap.012_m_yellow
usemtl m_yellow
f 1//1 2//1 4//1 3//1
f 3//2 4//2 8//2 7//2
f 7//3 8//3 6//3 5//3
f 5//4 6//4 2//4 1//4
f 3//5 7//5 5//5 1//5
f 8//6 4//6 2//6 6//6
g liquid_soap.012_m_babyblue
usemtl m_babyblue
f 41//15 42//15 44//15 43//15
f 43//16 44//16 48//16 47//16
f 47//17 48//17 46//17 45//17
f 45//18 46//18 42//18 41//18
f 43//19 47//19 45//19 41//19
f 48//20 44//20 42//20 46//20
f 49//21 50//21 52//21 51//21
f 51//22 52//22 56//22 55//22
f 55//23 56//23 54//23 53//23
f 53//24 54//24 50//24 49//24
f 51//25 55//25 53//25 49//25
f 56//26 52//26 50//26 54//26
f 57//27 58//27 60//27 59//27
f 59//28 60//28 64//28 63//28
f 63//29 64//29 62//29 61//29
f 61//30 62//30 58//30 57//30
f 59//31 63//31 61//31 57//31
f 64//32 60//32 58//32 62//32
f 65//33 66//33 68//33 67//33
f 67//34 68//34 70//34 69//34
f 69//35 70//35 72//35 71//35
f 71//36 72//36 74//36 73//36
f 68//6 66//6 76//6 74//6 72//6 70//6
f 73//37 74//37 76//37 75//37
f 75//38 76//38 66//38 65//38
f 65//5 67//5 69//5 71//5 73//5 75//5
