# Blender 3.3.0
# www.blender.org
mtllib p_ayna.mtl
g Circle.021_Circle.021
v -4.214417 -13.331451 -1.554647
v 3.428897 4.724164 2.385306
v 2.706422 8.465732 1.300546
v 0.496751 10.009111 -0.722760
v -1.905721 8.450213 -2.499385
v -3.093658 4.702218 -2.988608
v 2.308138 -13.309505 3.819267
v -4.411633 -13.300171 -1.315405
v -3.290874 4.733498 -2.749365
v 2.509205 8.497012 1.539788
v 3.231680 4.755444 2.624549
v 0.299534 10.040392 -0.483517
v -2.102938 8.481494 -2.260143
v 2.110921 -13.278225 4.058509
v 1.082423 -0.537471 5.020874
v 4.030564 -13.096704 1.727808
v 4.184361 -13.028584 1.540860
v 3.194742 3.119239 2.676056
v 3.348538 3.187360 2.489109
v -2.450306 -13.118509 -3.611765
v -2.296510 -13.050389 -3.798713
v -3.286128 3.097433 -2.663517
v -3.132332 3.165554 -2.850464
v 2.944025 2.744726 2.431778
v -2.361841 -12.755351 -3.502258
v -3.159707 2.724189 -2.597071
v 3.741890 -12.734814 1.526592
v 3.097821 2.812847 2.244831
v 3.895687 -12.666695 1.339644
v -2.208045 -12.687232 -3.689205
v -3.005911 2.792310 -2.784019
v -4.214417 -13.331451 -1.554647
v -3.093658 4.702218 -2.988608
v 2.706422 8.465732 1.300546
v 3.428897 4.724164 2.385306
v 0.496751 10.009111 -0.722760
v -1.905721 8.450213 -2.499385
v 2.308138 -13.309505 3.819267
v -4.411633 -13.300171 -1.315405
v -3.290874 4.733498 -2.749365
v 2.509205 8.497012 1.539788
v 3.231680 4.755444 2.624549
v 0.299534 10.040392 -0.483517
v -2.102938 8.481494 -2.260143
v 2.110921 -13.278225 4.058509
v -4.214417 -13.331451 -1.554647
v -3.093658 4.702218 -2.988608
v 2.706422 8.465732 1.300546
v 3.428897 4.724164 2.385306
v 0.496751 10.009111 -0.722760
v -1.905721 8.450213 -2.499385
v 2.308138 -13.309505 3.819267
v -4.411633 -13.300171 -1.315405
v -3.290874 4.733498 -2.749365
v 2.509205 8.497012 1.539788
v 3.231680 4.755444 2.624549
v 0.299534 10.040392 -0.483517
v -2.102938 8.481494 -2.260143
v 2.110921 -13.278225 4.058509
v -4.468297 -13.706705 -1.714867
v -3.407098 4.804460 -3.260356
v 2.960302 8.840985 1.460765
v 3.755179 4.828558 2.640624
v 0.529664 10.538703 -0.764871
v -2.113055 8.823915 -2.719159
v 2.515472 -13.683208 4.039041
v -4.665514 -13.675425 -1.475624
v -3.604315 4.835740 -3.021113
v 2.763085 8.872266 1.700008
v 3.557962 4.859838 2.879866
v 0.332447 10.569983 -0.525628
v -2.310271 8.855196 -2.479916
v 2.318255 -13.651927 4.278283
vn 0.6329 -0.1004 -0.7677
vn -0.6329 0.1004 0.7677
vn -0.7718 -0.0026 -0.6359
vn 0.1742 -0.9626 -0.2075
vn 0.7718 0.0026 0.6359
vn -0.1742 0.9626 0.2075
vn 0.6338 0.0777 -0.7696
vn -0.6338 -0.0777 0.7696
vn -0.0618 -0.9949 0.0791
vn -0.7121 0.3138 -0.6280
vn 0.4118 0.8833 0.2240
vn -0.7722 -0.0088 -0.6354
vn 0.7714 -0.0036 0.6364
vn -0.3022 0.8809 -0.3643
vn 0.7514 0.3187 0.5777
vt 0.000000 0.000000
vt 0.000000 0.000000
vt 0.000000 0.000000
vt 0.000000 0.000000
vt 0.000000 0.000000
vt 0.000000 0.000000
vt 0.000000 0.000000
vt 0.000000 0.000000
vt 0.000000 0.000000
vt 0.000000 0.000000
vt 0.000000 0.000000
vt 0.000000 0.000000
vt 0.000000 0.000000
vt 0.000000 0.000000
vt 0.375000 0.000000
vt 0.375000 1.000000
vt 0.125000 0.750000
vt 0.625000 0.000000
vt 0.625000 1.000000
vt 0.875000 0.750000
vt 0.375000 0.250000
vt 0.125000 0.500000
vt 0.625000 0.250000
vt 0.875000 0.500000
vt 0.375000 0.750000
vt 0.625000 0.750000
vt 0.375000 0.500000
vt 0.625000 0.500000
vt 0.135414 0.505760
vt 0.451803 0.250000
vt 0.370866 0.744407
vt 0.451803 0.750000
vt 0.370866 0.505760
vt 0.451803 0.500000
vt 0.135414 0.744407
vt 0.451803 0.000000
vt 0.451803 1.000000
vt 0.864586 0.505760
vt 0.486463 0.250000
vt 0.864586 0.744407
vt 0.486463 0.000000
vt 0.486463 1.000000
vt 0.629134 0.744407
vt 0.486463 0.750000
vt 0.629134 0.505760
vt 0.486463 0.500000
vt 0.000000 0.000000
vt 0.000000 0.000000
vt 0.000000 0.000000
vt 0.000000 0.000000
vt 0.000000 0.000000
vt 0.000000 0.000000
vt 0.000000 0.000000
vt 0.000000 0.000000
vt 0.000000 0.000000
vt 0.000000 0.000000
vt 0.000000 0.000000
vt 0.000000 0.000000
vt 0.000000 0.000000
vt 0.000000 0.000000
vt 0.000000 0.000000
vt 0.000000 0.000000
vt 0.000000 0.000000
vt 0.000000 0.000000
vt 0.000000 0.000000
vt 0.000000 0.000000
vt 0.000000 0.000000
vt 0.000000 0.000000
vt 0.000000 0.000000
vt 0.000000 0.000000
vt 0.000000 0.000000
vt 0.000000 0.000000
vt 0.000000 0.000000
vt 0.000000 0.000000
vt 0.000000 0.000000
vt 0.000000 0.000000
vt 0.000000 0.000000
vt 0.000000 0.000000
vt 0.000000 0.000000
vt 0.000000 0.000000
vt 0.000000 0.000000
vt 0.000000 0.000000
vt 0.000000 0.000000
vt 0.000000 0.000000
vt 0.000000 0.000000
vt 0.000000 0.000000
vt 0.000000 0.000000
vt 0.000000 0.000000
s 0
g Circle.021_wall_pembe
usemtl wall_pembe
f 6/6/1 5/5/1 4/4/1 3/3/1 2/2/1 7/7/1 1/1/1
f 9/9/2 8/8/2 14/14/2 11/11/2 10/10/2 12/12/2 13/13/2
f 13/13/1 44/59/1 40/55/1 9/9/1
f 5/5/1 37/52/1 36/51/1 4/4/1
f 12/12/1 43/58/1 44/59/1 13/13/1
f 4/4/1 36/51/1 34/49/1 3/3/1
f 10/10/1 41/56/1 43/58/1 12/12/1
f 3/3/1 34/49/1 35/50/1 2/2/1
f 11/11/1 42/57/1 41/56/1 10/10/1
f 38/53/1 52/67/1 46/61/1 32/47/1
f 39/54/1 53/68/1 59/74/1 45/60/1
f 35/50/1 49/64/1 52/67/1 38/53/1
f 45/60/1 59/74/1 56/71/1 42/57/1
f 33/48/1 47/62/1 51/66/1 37/52/1
f 44/59/1 58/73/1 54/69/1 40/55/1
f 37/52/1 51/66/1 50/65/1 36/51/1
f 6/6/1 33/48/1 37/52/1 5/5/1
f 14/14/1 45/60/1 42/57/1 11/11/1
f 2/2/1 35/50/1 38/53/1 7/7/1
f 8/8/1 39/54/1 45/60/1 14/14/1
f 7/7/1 38/53/1 32/47/1 1/1/1
f 9/9/1 40/55/1 39/54/1 8/8/1
f 1/1/1 32/47/1 33/48/1 6/6/1
f 46/61/1 60/75/1 61/76/1 47/62/1
f 52/67/1 66/81/1 60/75/1 46/61/1
f 49/64/1 63/78/1 66/81/1 52/67/1
f 40/55/1 54/69/1 53/68/1 39/54/1
f 32/47/1 46/61/1 47/62/1 33/48/1
f 42/57/1 56/71/1 55/70/1 41/56/1
f 34/49/1 48/63/1 49/64/1 35/50/1
f 41/56/1 55/70/1 57/72/1 43/58/1
f 36/51/1 50/65/1 48/63/1 34/49/1
f 43/58/1 57/72/1 58/73/1 44/59/1
f 48/63/1 62/77/1 63/78/1 49/64/1
f 50/65/1 64/79/1 62/77/1 48/63/1
f 51/66/1 65/80/1 64/79/1 50/65/1
f 47/62/1 61/76/1 65/80/1 51/66/1
g Circle.021_m_çingenepembe
usemtl m_çingenepembe
f 16/15/3 18/21/3 19/23/3 17/18/3
f 22/27/5 20/25/5 21/26/5 23/28/5
f 22/27/7 26/33/7 25/31/7 20/25/7
f 20/25/7 25/31/7 27/35/7 24/29/7 26/33/7 22/27/7 18/22/7 16/17/7
f 31/45/8 28/38/8 29/40/8 30/43/8 21/26/8 17/20/8 19/24/8 23/28/8
f 29/41/5 28/39/5 24/30/5 27/36/5
f 25/32/4 30/44/4 29/42/4 27/37/4
f 56/71/2 70/85/2 69/84/2 55/70/2
f 54/69/2 68/83/2 67/82/2 53/68/2
f 53/68/2 67/82/2 73/88/2 59/74/2
f 59/74/2 73/88/2 70/85/2 56/71/2
f 66/81/9 73/88/9 67/82/9 60/75/9
f 61/76/10 68/83/10 72/87/10 65/80/10
f 64/79/11 71/86/11 69/84/11 62/77/11
f 60/75/12 67/82/12 68/83/12 61/76/12
f 63/78/13 70/85/13 73/88/13 66/81/13
f 65/80/14 72/87/14 71/86/14 64/79/14
f 62/77/15 69/84/15 70/85/15 63/78/15
f 55/70/2 69/84/2 71/86/2 57/72/2
f 57/72/2 71/86/2 72/87/2 58/73/2
f 58/73/2 72/87/2 68/83/2 54/69/2
g Circle.021_m_yeşil
usemtl m_yeşil
f 18/21/4 22/27/4 23/28/4 19/23/4
f 20/25/6 16/16/6 17/19/6 21/26/6
f 30/43/8 31/45/8 23/28/8 21/26/8
f 28/39/6 31/46/6 26/34/6 24/30/6
f 26/34/3 31/46/3 30/44/3 25/32/3
