# Blender 3.3.0
# www.blender.org
mtllib p_tabure.mtl
g liquid_soap.011_Cube.161
v 0.246603 1.976295 -1.452774
v 0.246603 4.623749 -1.452775
v 1.189867 1.976296 -0.173650
v 1.189866 4.623749 -0.173650
v -1.032524 1.976295 -0.509509
v -1.032525 4.623749 -0.509509
v -0.089261 1.976296 0.769616
v -0.089261 4.623749 0.769615
v 0.248160 5.785021 -0.905780
v 0.248160 5.928040 -0.905780
v 0.489585 5.785021 -0.005254
v 0.489585 5.928040 -0.005255
v -0.450470 5.785021 -0.390590
v -0.450470 5.928040 -0.390590
v 0.338492 5.785021 0.106166
v 0.338492 5.928040 0.106166
v 0.070561 5.406050 -0.415331
v 0.070561 5.828924 -0.415331
v -0.012599 5.406050 -0.405993
v -0.012599 5.828924 -0.405993
v -0.062254 5.406050 -0.473328
v -0.062254 5.828924 -0.473328
v -0.028758 5.406050 -0.550014
v -0.028758 5.828924 -0.550014
v 0.054392 5.406050 -0.559346
v 0.054392 5.828924 -0.559346
v 0.104047 5.406050 -0.492011
v 0.104047 5.828924 -0.492011
v 0.154983 4.623745 -0.300850
v 0.154982 5.406050 -0.300850
v -0.069521 4.623745 -0.275649
v -0.069521 5.406050 -0.275649
v -0.203597 4.623745 -0.457465
v -0.203597 5.406050 -0.457465
v -0.113171 4.623745 -0.664483
v -0.113171 5.406050 -0.664483
v 0.111327 4.623745 -0.689699
v 0.111327 5.406050 -0.689699
v 0.245403 4.623745 -0.507883
v 0.245403 5.406050 -0.507883
v -0.085841 -8.287638 4.200130
v -0.274461 1.410920 1.700991
v 0.094183 -8.402291 3.766649
v 0.002130 1.234770 1.035020
v 0.362543 -8.240590 4.373904
v 0.414419 1.483197 1.967985
v 0.542580 -8.355252 3.940412
v 0.691013 1.307045 1.301998
v -3.292186 -8.286939 -1.436218
v -1.136140 1.470594 -0.739583
v -2.854654 -8.402141 -1.266647
v -0.463926 1.293599 -0.479083
v -3.466795 -8.286936 -0.985683
v -1.404394 1.470593 -0.047422
v -3.029244 -8.402144 -0.816120
v -0.732191 1.293602 0.213106
v 3.191772 -8.240584 -2.926200
v 1.608752 1.483204 -1.113687
v 3.032662 -8.355242 -2.484611
v 1.364305 1.307051 -0.435260
v 2.743380 -8.287630 -3.099976
v 0.919871 1.410925 -1.380680
v 2.584270 -8.402285 -2.658388
v 0.675417 1.234780 -0.702224
v 1.293791 1.213336 -3.509867
v 1.293792 1.974301 -3.509871
v 3.671140 1.213335 -0.554698
v 3.671137 1.974305 -0.554690
v 2.300558 1.213336 2.981741
v 2.300554 1.974304 2.981750
v -1.447374 1.213337 3.563012
v -1.447372 1.974304 3.563007
v -3.824718 1.213337 0.607829
v -3.824722 1.974305 0.607838
v -2.454136 1.213335 -2.928611
v -2.454139 1.974305 -2.928602
vn 0.8048 -0.0000 -0.5935
vn 0.5935 -0.0000 0.8048
vn -0.8048 -0.0000 0.5935
vn -0.5935 -0.0000 -0.8048
vn -0.0000 -1.0000 -0.0000
vn -0.0000 1.0000 -0.0000
vn 0.9659 -0.0000 -0.2589
vn -0.5328 -0.0000 0.8462
vn 0.1116 -0.0000 0.9938
vn -0.9164 -0.0000 -0.4003
vn -0.1115 -0.0000 -0.9938
vn 0.9164 -0.0000 0.4002
vn -0.1116 -0.0000 -0.9938
vn -0.9279 -0.1099 -0.3563
vn 0.3726 -0.2498 -0.8938
vn 0.9279 0.0849 0.3629
vn -0.3725 0.2248 0.9004
vn 0.0020 -0.9665 0.2565
vn -0.0020 0.9665 -0.2565
vn 0.3584 -0.0126 -0.9335
vn 0.9026 -0.2510 0.3498
vn -0.3642 -0.0126 0.9312
vn -0.9083 0.2258 -0.3520
vn -0.2223 -0.9712 -0.0862
vn 0.2223 0.9712 0.0862
vn 0.9302 0.0849 0.3572
vn -0.3270 -0.2498 0.9114
vn -0.9257 -0.1099 -0.3620
vn 0.3315 0.2248 -0.9163
vn 0.1743 -0.9665 -0.1881
vn -0.1743 0.9665 0.1881
vn 0.7792 -0.0000 -0.6268
vn 0.9324 -0.0000 0.3614
vn 0.1533 -0.0000 0.9882
vn -0.7792 -0.0000 0.6268
vn -0.9324 -0.0000 -0.3614
vn -0.1533 -0.0000 -0.9882
s 1
g liquid_soap.011_m_white
usemtl m_white
f 9//7 10//7 12//7 11//7
f 11//2 12//2 16//2 15//2
f 15//8 16//8 14//8 13//8
f 13//4 14//4 10//4 9//4
f 11//5 15//5 13//5 9//5
f 16//6 12//6 10//6 14//6
f 17//9 18//9 20//9 19//9
f 19//3 20//3 22//3 21//3
f 21//10 22//10 24//10 23//10
f 23//11 24//11 26//11 25//11
f 20//6 18//6 28//6 26//6 24//6 22//6
f 25//1 26//1 28//1 27//1
f 27//12 28//12 18//12 17//12
f 17//5 19//5 21//5 23//5 25//5 27//5
f 29//9 30//9 32//9 31//9
f 31//3 32//3 34//3 33//3
f 33//10 34//10 36//10 35//10
f 35//13 36//13 38//13 37//13
f 32//6 30//6 40//6 38//6 36//6 34//6
f 37//1 38//1 40//1 39//1
f 39//12 40//12 30//12 29//12
f 29//5 31//5 33//5 35//5 37//5 39//5
f 41//14 42//14 44//14 43//14
f 43//15 44//15 48//15 47//15
f 47//16 48//16 46//16 45//16
f 45//17 46//17 42//17 41//17
f 43//18 47//18 45//18 41//18
f 48//19 44//19 42//19 46//19
f 49//20 50//20 52//20 51//20
f 51//21 52//21 56//21 55//21
f 55//22 56//22 54//22 53//22
f 53//23 54//23 50//23 49//23
f 51//24 55//24 53//24 49//24
f 56//25 52//25 50//25 54//25
f 57//26 58//26 60//26 59//26
f 59//27 60//27 64//27 63//27
f 63//28 64//28 62//28 61//28
f 61//29 62//29 58//29 57//29
f 59//30 63//30 61//30 57//30
f 64//31 60//31 58//31 62//31
f 65//32 66//32 68//32 67//32
f 67//33 68//33 70//33 69//33
f 69//34 70//34 72//34 71//34
f 71//35 72//35 74//35 73//35
f 68//6 66//6 76//6 74//6 72//6 70//6
f 73//36 74//36 76//36 75//36
f 75//37 76//37 66//37 65//37
f 65//5 67//5 69//5 71//5 73//5 75//5
g liquid_soap.011_m_çingenepembe
usemtl m_çingenepembe
f 1//1 2//1 4//1 3//1
f 3//2 4//2 8//2 7//2
f 7//3 8//3 6//3 5//3
f 5//4 6//4 2//4 1//4
f 3//5 7//5 5//5 1//5
f 8//6 4//6 2//6 6//6
