# Blender 3.3.0
# www.blender.org
mtllib s_koltuk.mtl
g Cube.135_Cube.182
v -105.646530 7.824475 445.696289
v -99.719406 12.911995 446.478333
v -98.501808 12.844389 445.769958
v -100.091599 6.529438 451.012085
v -100.143555 6.396077 448.013611
v -98.366608 12.910425 452.905212
v -99.912186 6.541718 445.499512
v -106.407104 5.759349 446.674072
v -99.392937 4.137743 445.488495
v -106.405563 7.302496 452.376648
v -99.944565 4.127612 452.365692
v -99.944565 4.127612 452.102295
v -105.992393 6.242002 450.891663
v -99.833878 6.983447 445.684387
v -105.954262 6.107915 448.789429
v -98.595367 6.159852 446.120667
v -99.928749 12.387793 446.464996
v -105.766884 7.327085 453.301605
v -99.969414 8.057082 445.831329
v -105.411018 8.080840 452.018005
v -105.360046 7.908144 446.655579
v -106.077400 7.715614 446.431793
v -106.043320 6.491473 447.167175
v -105.771843 6.907724 451.606018
v -106.056709 7.864855 452.121979
v -99.971085 7.963078 453.193390
v -105.995712 6.940628 445.658264
v -99.313156 13.041051 446.057404
v -99.720879 12.862684 453.081940
v -98.372452 12.909229 446.431030
v -98.888153 13.073859 446.482910
v -98.612015 4.127613 446.129517
v -99.201004 4.130074 453.301575
v -106.393356 4.127613 446.151855
v -105.486595 4.127107 453.301544
v -99.664658 12.763344 445.767365
v -99.838470 6.718658 453.270294
v -98.794739 12.737478 453.290436
v -98.223160 12.406857 446.134705
v -105.068718 4.127042 445.487335
v -105.042877 6.500717 450.996185
v -105.034470 6.501036 447.704803
v -104.622780 8.264932 452.285248
v -105.059189 8.180756 446.276855
v -105.055099 8.122257 445.930969
v -105.136101 6.228816 449.350769
v -105.061844 6.300357 448.451904
v -105.044228 6.997357 445.490479
v -99.944893 6.961171 451.615417
v -99.959206 8.044494 452.000336
v -100.068245 7.510399 445.557251
v -100.307350 6.239761 449.351257
v -106.329811 7.094439 453.011566
v -106.135246 7.853199 452.919220
v -99.944565 4.127612 452.563843
v -105.011650 8.269180 452.815125
v -105.734421 8.123469 452.898438
v -99.188904 13.071723 452.945068
v -106.395218 5.840483 451.770782
v -105.992432 4.127614 445.652863
v -106.214417 4.127612 453.131744
v -98.745140 4.127634 453.137024
v -99.951378 6.934994 447.089417
v -100.125755 6.312862 450.174530
v -99.989731 8.067214 446.533813
v -100.027176 8.182756 446.177917
v -100.126114 8.266218 452.257263
v -106.276772 7.356464 445.989349
v -98.190781 12.371384 452.925568
v -99.923462 12.380295 452.848877
v -98.886017 12.650427 445.563477
v -99.958382 8.243008 452.824829
v -98.591995 5.868607 452.945526
v -105.529617 8.201429 452.311951
v -105.847427 8.024934 446.164307
v -105.058830 6.300397 450.250061
v -105.021950 6.896564 447.140442
v -99.945641 4.127705 445.574707
v -99.944565 4.127612 452.365692
v -99.944565 4.127612 452.102295
v -99.944565 4.127612 452.102295
v -105.076805 8.041581 453.161713
v -98.713348 13.043228 452.900726
v -106.417702 4.127612 452.837738
v -98.593216 4.127612 452.840881
v -99.944565 4.127612 452.003113
v -98.911736 4.127596 445.640289
v -98.935165 2.819954 445.723969
v -98.911873 5.826474 446.174042
v -98.936752 2.764027 446.297028
v -98.913055 5.739889 446.748352
v -99.503792 2.824508 445.722870
v -99.480507 5.831013 446.173553
v -99.505386 2.768582 446.295929
v -99.481689 5.744428 446.747864
v -105.881432 2.819957 445.739960
v -105.431343 5.826472 445.716675
v -105.308372 2.764025 445.741547
v -104.857018 5.739881 445.717834
v -105.882530 2.824512 446.308594
v -105.431824 5.831011 446.285309
v -105.309464 2.768579 446.310181
v -104.857498 5.744420 446.286469
v -98.919197 2.819953 451.925781
v -99.369247 5.826475 451.949066
v -99.492256 2.764028 451.924194
v -99.943573 5.739891 451.947906
v -98.918098 2.824508 451.357147
v -99.368759 5.831014 451.380432
v -99.491158 2.768583 451.355560
v -99.943092 5.744429 451.379272
v -105.865532 2.819954 453.339233
v -105.888817 5.826474 452.889160
v -105.863937 2.764027 452.766174
v -105.887634 5.739889 452.314850
v -105.296898 2.824508 453.340332
v -105.320183 5.831013 452.889648
v -105.295311 2.768582 452.767273
v -105.319008 5.744428 452.315338
vn 0.2331 0.1527 -0.9604
vn 0.0488 -0.9315 -0.3606
vn 0.3921 0.1005 -0.9144
vn -0.3204 0.5174 -0.7935
vn -0.5839 0.6755 -0.4503
vn -0.1742 0.7606 -0.6254
vn 0.9424 0.0656 -0.3281
vn 0.3680 0.8059 -0.4638
vn 0.5050 0.8585 -0.0886
vn -0.2398 0.9610 -0.1374
vn -0.2632 0.9363 0.2327
vn -0.1358 0.9906 0.0156
vn -0.3176 0.8874 -0.3342
vn -0.5702 0.5776 -0.5841
vn 0.4515 0.7652 -0.4589
vn 0.4238 0.7826 0.4561
vn -0.5358 0.6419 0.5485
vn -0.8192 0.0743 0.5687
vn -0.2660 0.1666 0.9495
vn -0.6148 0.6836 0.3934
vn -0.9848 0.1720 -0.0233
vn -0.5710 0.7001 0.4286
vn -0.6926 0.5995 0.4011
vn -0.9029 0.2876 -0.3194
vn -0.3482 0.9374 -0.0029
vn -0.3406 0.5822 -0.7383
vn -0.4945 0.0396 -0.8683
vn 0.0908 0.9942 -0.0578
vn -0.5360 0.8414 -0.0690
vn -0.1075 0.9762 -0.1886
vn -0.5324 0.6244 -0.5715
vn -0.0874 0.9823 0.1655
vn -0.4886 0.7695 0.4113
vn 0.1763 0.9686 0.1752
vn 0.5313 0.7924 0.2998
vn 0.1043 0.2809 -0.9541
vn 0.0455 -0.9598 0.2769
vn 0.2075 0.3538 0.9120
vn -0.0161 0.0190 0.9997
vn 0.1951 -0.9544 0.2260
vn -0.9422 0.1333 0.3075
vn 0.9727 -0.0373 -0.2290
vn 0.8995 0.0752 0.4304
vn 0.8996 -0.0287 0.4357
vn -0.9771 0.1458 -0.1548
vn 0.4128 0.2441 -0.8775
vn -0.0846 0.0898 -0.9924
vn -0.0836 0.6326 0.7699
vn -0.1865 0.7228 0.6654
vn -0.0234 -0.9649 -0.2617
vn -0.1530 -0.9540 -0.2577
vn -0.2357 0.9718 -0.0000
vn 0.2724 0.9622 -0.0000
vn 0.0001 1.0000 -0.0000
vn -0.0000 -1.0000 -0.0000
vn -0.0000 -1.0000 0.0014
vn -0.9999 -0.0128 -0.0000
vn 0.0011 -0.9987 -0.0501
vn 0.5552 0.4903 0.6718
vn -0.0985 0.6340 0.7671
vn -0.0212 0.9837 -0.1783
vn 0.1444 0.9757 -0.1650
vn 0.1574 0.9875 -0.0058
vn -0.0866 0.9415 -0.3257
vn -0.0774 0.9940 0.0778
vn -0.0930 0.9290 0.3583
vn -0.0711 0.9836 0.1658
vn -0.4410 0.8631 0.2463
vn -0.0671 0.9874 0.1433
vn -0.3443 0.9010 0.2640
vn -0.9463 0.2547 -0.1989
vn -0.9660 0.2531 -0.0529
vn -0.4533 0.8739 -0.1754
vn 0.5884 0.5325 -0.6085
vn -0.2789 -0.9565 0.0860
vn -0.1686 -0.9543 0.2466
vn -0.0300 -0.9642 0.2633
vn -0.2793 -0.9551 -0.0989
vn 0.2767 -0.9578 -0.0783
vn 0.2748 -0.9593 0.0653
vn -0.0746 0.8993 -0.4309
vn -0.3899 0.9195 0.0491
vn -0.2101 0.9667 -0.1461
vn 0.1816 -0.9548 -0.2352
vn -0.0701 0.9975 -0.0128
vn -0.0734 0.9875 -0.1395
vn 1.0000 -0.0081 0.0014
vn -0.0026 -0.1500 0.9887
vn -1.0000 0.0081 -0.0014
vn 0.0026 0.1481 -0.9890
vn -0.0078 -0.9952 -0.0971
vn 0.0078 0.9888 0.1491
vn 0.0014 -0.0081 -1.0000
vn 0.9887 -0.1500 0.0026
vn -0.0014 0.0081 1.0000
vn -0.9890 0.1481 -0.0026
vn -0.0972 -0.9952 0.0078
vn 0.1491 0.9888 -0.0078
vn -0.0014 -0.0081 1.0000
vn -0.9887 -0.1500 -0.0026
vn 0.0014 0.0081 -1.0000
vn 0.9890 0.1481 0.0026
vn 0.0971 -0.9952 -0.0078
vn -0.1491 0.9888 0.0078
vn -1.0000 -0.0081 -0.0014
vn 0.0026 -0.1500 -0.9887
vn 1.0000 0.0081 0.0014
vn -0.0026 0.1481 0.9890
vn 0.0078 -0.9952 0.0971
vn -0.0078 0.9888 -0.1491
vt 0.624988 0.772348
vt 0.646914 0.750297
vt 0.837562 0.718947
vt 0.868998 0.743509
vt 0.625000 0.996906
vt 0.625000 0.003582
vt 0.825647 0.573400
vt 0.824203 0.666648
vt 0.875000 0.513278
vt 0.625000 0.237003
vt 0.611426 0.956271
vt 0.831786 0.750454
vt 0.564986 0.696023
vt 0.378997 0.974270
vt 0.624729 0.530268
vt 0.168214 0.530239
vt 0.168214 0.538649
vt 0.628662 0.581672
vt 0.618964 0.963942
vt 0.831786 0.734866
vt 0.625566 0.643868
vt 0.555974 0.024956
vt 0.832397 0.715301
vt 0.631228 0.498704
vt 0.621468 0.479774
vt 0.624999 0.956784
vt 0.829861 0.742373
vt 0.663340 0.540657
vt 0.660751 0.713618
vt 0.637811 0.719542
vt 0.630678 0.692174
vt 0.644888 0.553199
vt 0.637169 0.535460
vt 0.624870 0.293558
vt 0.830403 0.504278
vt 0.618138 0.756600
vt 0.848291 0.732440
vt 0.625000 0.978393
vt 0.625000 0.291257
vt 0.836552 0.509381
vt 0.625000 0.025910
vt 0.875000 0.724591
vt 0.858235 0.720239
vt 0.375000 0.018711
vt 0.134180 0.726519
vt 0.375000 1.000000
vt 0.377744 0.270269
vt 0.168214 0.499916
vt 0.375000 0.731126
vt 0.375000 0.471936
vt 0.341982 0.500000
vt 0.168214 0.500000
vt 0.625000 0.961536
vt 0.835750 0.746088
vt 0.611006 0.292778
vt 0.831786 0.502021
vt 0.625000 0.259772
vt 0.871274 0.500000
vt 0.625000 0.018569
vt 0.375100 0.792560
vt 0.323524 0.686677
vt 0.668105 0.573333
vt 0.668405 0.679778
vt 0.682589 0.532195
vt 0.668760 0.726648
vt 0.666897 0.738909
vt 0.664278 0.626513
vt 0.667103 0.655720
vt 0.618143 0.798939
vt 0.829766 0.555826
vt 0.829203 0.536799
vt 0.624081 0.953536
vt 0.820079 0.626483
vt 0.621307 0.512845
vt 0.633736 0.514193
vt 0.375000 0.287960
vt 0.375000 0.319375
vt 0.168214 0.523913
vt 0.671130 0.515723
vt 0.645806 0.515121
vt 0.625000 0.271607
vt 0.850408 0.513218
vt 0.575724 0.556281
vt 0.375000 0.757806
vt 0.375000 0.499403
vt 0.375005 0.248927
vt 0.829332 0.698323
vt 0.824097 0.601926
vt 0.826752 0.718474
vt 0.827067 0.728873
vt 0.823726 0.531624
vt 0.625635 0.733049
vt 0.625000 0.232673
vt 0.832424 0.514287
vt 0.625000 0.983724
vt 0.827375 0.514504
vt 0.550730 0.234095
vt 0.655337 0.531691
vt 0.643958 0.730411
vt 0.667199 0.597338
vt 0.669074 0.696652
vt 0.168214 0.686391
vt 0.375253 0.957251
vt 0.168214 0.530239
vt 0.168214 0.538649
vt 0.168214 0.538649
vt 0.624927 0.460220
vt 0.665906 0.504022
vt 0.864289 0.513598
vt 0.375000 0.514481
vt 0.375000 0.235432
vt 0.138532 0.519203
vt 0.375000 0.381182
vt 0.169952 0.540446
vt 0.375003 0.000000
vt 0.374997 0.995714
vt 0.375000 0.000000
vt 0.375000 1.000000
vt 0.625000 0.000000
vt 0.625000 1.000000
vt 0.875000 0.750000
vt 0.375000 0.250000
vt 0.625000 0.250000
vt 0.875000 0.500000
vt 0.375000 0.750000
vt 0.625000 0.750000
vt 0.375000 0.500000
vt 0.625000 0.500000
vt 0.375000 0.000000
vt 0.375000 1.000000
vt 0.625000 0.000000
vt 0.625000 1.000000
vt 0.875000 0.750000
vt 0.375000 0.250000
vt 0.625000 0.250000
vt 0.875000 0.500000
vt 0.375000 0.750000
vt 0.625000 0.750000
vt 0.375000 0.500000
vt 0.625000 0.500000
vt 0.375000 0.000000
vt 0.375000 1.000000
vt 0.625000 0.000000
vt 0.625000 1.000000
vt 0.875000 0.750000
vt 0.375000 0.250000
vt 0.625000 0.250000
vt 0.875000 0.500000
vt 0.375000 0.750000
vt 0.625000 0.750000
vt 0.375000 0.500000
vt 0.625000 0.500000
vt 0.375000 0.000000
vt 0.375000 1.000000
vt 0.625000 0.000000
vt 0.625000 1.000000
vt 0.875000 0.750000
vt 0.375000 0.250000
vt 0.625000 0.250000
vt 0.875000 0.500000
vt 0.375000 0.750000
vt 0.625000 0.750000
vt 0.375000 0.500000
vt 0.625000 0.500000
s 1
g Cube.135_m_yellow
usemtl m_yellow
f 14/19/1 9/14/2 7/11/3
f 24/32/4 25/33/5 20/28/6
f 39/59/7 3/6/8 30/41/9
f 64/88/10 5/8/11 52/73/12
f 4/7/13 49/70/14 64/88/10
f 19/27/15 65/89/16 63/87/17
f 53/74/18 18/25/19 54/75/20
f 8/13/21 23/31/22 22/30/23
f 68/92/24 22/30/23 75/99/25
f 68/92/24 1/1/26 27/36/27
f 30/42/9 3/4/8 31/43/28
f 2/3/29 28/37/30 36/54/31
f 58/82/32 2/3/29 29/40/33
f 58/82/32 83/109/34 31/43/28
f 6/9/35 31/43/28 83/109/34
f 71/95/36 36/53/31 28/38/30
f 9/14/2 14/19/1 71/95/36
f 33/47/37 38/57/38 37/55/39
f 62/86/40 38/57/38 33/47/37
f 38/57/38 29/39/33 37/55/39
f 37/56/39 29/40/33 70/94/41
f 16/22/42 69/93/43 73/97/44
f 16/22/42 3/6/8 39/59/7
f 63/87/17 49/70/14 17/23/45
f 1/1/26 19/26/15 51/72/46
f 48/69/47 51/72/46 7/11/3
f 77/101/48 21/29/49 23/31/22
f 27/36/27 40/60/50 60/84/51
f 37/55/39 18/25/19 33/47/37
f 79/104/52 81/106/53 80/105/54
f 86/114/55 81/106/53 55/78/56
f 55/78/56 79/104/52 11/16/57
f 11/16/57 80/105/54 12/17/55
f 51/72/46 19/26/15 7/11/3
f 40/60/50 9/14/2 78/103/58
f 26/34/59 82/107/60 18/25/19
f 43/64/61 67/91/62 20/28/6
f 66/90/63 45/66/64 44/65/65
f 21/29/49 65/89/16 44/65/65
f 65/89/16 66/90/63 44/65/65
f 5/8/11 42/63/66 47/68/67
f 48/69/47 7/11/3 9/14/2
f 72/96/68 67/91/62 56/79/69
f 82/108/60 57/80/70 18/24/19
f 70/94/41 17/23/45 49/70/14
f 38/58/38 6/9/35 83/109/34
f 5/8/11 64/88/10 49/70/14 63/87/17
f 10/15/71 25/33/5 59/83/72
f 59/83/72 24/32/4 13/18/73
f 54/75/20 25/33/5 10/15/71
f 59/83/72 25/33/5 24/32/4
f 72/96/68 50/71/74 67/91/62
f 53/74/18 84/110/75 61/85/76
f 18/25/19 35/50/77 33/47/37
f 8/13/21 34/49/78 84/110/75
f 16/22/42 73/97/44 32/44/79
f 73/97/44 85/111/80 32/44/79
f 68/92/24 60/84/51 34/49/78
f 73/97/44 62/86/40 85/111/80
f 40/61/50 34/49/78 60/84/51
f 12/17/55 85/112/80 11/16/57
f 78/102/58 85/112/80 86/114/55
f 62/86/40 55/76/56 85/111/80
f 33/47/37 55/76/56 62/86/40
f 35/50/77 86/113/55 55/77/56
f 84/110/75 34/49/78 40/61/50
f 35/50/77 18/25/19 61/85/76
f 68/92/24 27/36/27 60/84/51
f 41/62/81 13/18/73 24/32/4
f 84/110/75 10/15/71 59/83/72
f 15/21/82 8/13/21 59/83/72 13/18/73
f 17/23/45 2/3/29 36/54/31
f 30/41/9 6/10/35 69/93/43 39/59/7
f 15/21/82 23/31/22 8/13/21
f 65/89/16 19/27/15 66/90/63
f 14/20/1 19/27/15 63/87/17
f 14/20/1 7/12/3 19/27/15
f 10/15/71 53/74/18 54/75/20
f 68/92/24 8/13/21 22/30/23
f 68/92/24 75/99/25 1/1/26
f 48/69/47 27/36/27 1/1/26
f 72/96/68 49/70/14 50/71/74
f 31/43/28 3/4/8 28/37/30
f 58/82/32 28/37/30 2/3/29
f 58/82/32 31/43/28 28/37/30
f 31/43/28 6/9/35 30/42/9
f 74/98/83 25/33/5 54/75/20 57/80/70
f 38/57/38 58/81/32 29/39/33
f 71/95/36 14/19/1 36/53/31
f 71/95/36 28/38/30 3/5/8
f 87/116/84 9/14/2 71/95/36
f 3/5/8 87/116/84 71/95/36
f 72/96/68 37/56/39 70/94/41
f 16/22/42 39/59/7 69/93/43
f 14/20/1 63/87/17 17/23/45
f 14/20/1 17/23/45 36/54/31
f 16/22/42 87/115/84 3/6/8
f 48/69/47 1/1/26 51/72/46
f 74/98/83 43/64/61 20/28/6
f 46/67/85 15/21/82 13/18/73 76/100/86
f 74/98/83 56/79/69 43/64/61
f 25/33/5 74/98/83 20/28/6
f 75/99/25 44/65/65 45/66/64
f 21/29/49 75/99/25 22/30/23
f 21/29/49 44/65/65 75/99/25
f 75/99/25 45/66/64 1/2/26
f 23/31/22 15/21/82 47/68/67 42/63/66
f 46/67/85 47/68/67 15/21/82
f 13/18/73 41/62/81 76/100/86
f 49/70/14 4/7/13 41/62/81 24/32/4
f 42/63/66 77/101/48 23/31/22
f 23/31/22 21/29/49 22/30/23
f 27/36/27 48/69/47 40/60/50
f 50/71/74 49/70/14 24/32/4 20/28/6
f 64/88/10 76/100/86 41/62/81 4/7/13
f 79/104/52 55/78/56 81/106/53
f 80/105/54 81/106/53 86/114/55
f 12/17/55 80/105/54 86/114/55
f 11/16/57 79/104/52 80/105/54
f 40/60/50 48/69/47 9/14/2
f 18/25/19 37/55/39 26/34/59
f 56/79/69 67/91/62 43/64/61
f 20/28/6 67/91/62 50/71/74
f 66/90/63 19/27/15 45/66/64
f 45/66/64 19/27/15 1/2/26
f 77/101/48 42/63/66 5/8/11 63/87/17
f 76/100/86 64/88/10 52/73/12
f 52/73/12 5/8/11 47/68/67
f 46/67/85 52/73/12 47/68/67
f 76/100/86 52/73/12 46/67/85
f 21/29/49 77/101/48 63/87/17 65/89/16
f 72/96/68 56/79/69 82/108/60 26/35/59
f 38/57/38 62/86/40 73/97/44 69/93/43
f 82/108/60 56/79/69 57/80/70
f 18/24/19 57/80/70 54/75/20
f 56/79/69 74/98/83 57/80/70
f 72/96/68 70/94/41 49/70/14
f 29/40/33 2/3/29 17/23/45 70/94/41
f 69/93/43 6/10/35 38/57/38
f 35/51/77 61/85/76 84/110/75 86/114/55
f 58/82/32 38/58/38 83/109/34
f 37/56/39 72/96/68 26/35/59
f 18/25/19 53/74/18 61/85/76
f 53/74/18 10/15/71 84/110/75
f 59/83/72 8/13/21 84/110/75
f 87/115/84 16/22/42 32/44/79
f 8/13/21 68/92/24 34/49/78
f 32/45/79 85/112/80 78/102/58
f 40/61/50 86/114/55 84/110/75
f 78/102/58 86/114/55 40/61/50
f 11/16/57 85/112/80 55/78/56
f 12/17/55 86/114/55 85/112/80
f 33/48/37 35/52/77 55/78/56
f 9/14/2 87/116/84 78/103/58
f 87/116/84 32/46/79 78/103/58
g Cube.135_m_babyblue
usemtl m_babyblue
f 88/117/87 89/119/87 91/123/87 90/122/87
f 90/122/88 91/123/88 95/128/88 94/127/88
f 94/127/89 95/128/89 93/126/89 92/125/89
f 92/125/90 93/126/90 89/120/90 88/118/90
f 90/122/91 94/127/91 92/125/91 88/118/91
f 95/128/92 91/124/92 89/121/92 93/126/92
f 96/129/93 97/131/93 99/135/93 98/134/93
f 98/134/94 99/135/94 103/140/94 102/139/94
f 102/139/95 103/140/95 101/138/95 100/137/95
f 100/137/96 101/138/96 97/132/96 96/130/96
f 98/134/97 102/139/97 100/137/97 96/130/97
f 103/140/98 99/136/98 97/133/98 101/138/98
f 104/141/99 105/143/99 107/147/99 106/146/99
f 106/146/100 107/147/100 111/152/100 110/151/100
f 110/151/101 111/152/101 109/150/101 108/149/101
f 108/149/102 109/150/102 105/144/102 104/142/102
f 106/146/103 110/151/103 108/149/103 104/142/103
f 111/152/104 107/148/104 105/145/104 109/150/104
f 112/153/105 113/155/105 115/159/105 114/158/105
f 114/158/106 115/159/106 119/164/106 118/163/106
f 118/163/107 119/164/107 117/162/107 116/161/107
f 116/161/108 117/162/108 113/156/108 112/154/108
f 114/158/109 118/163/109 116/161/109 112/154/109
f 119/164/110 115/160/110 113/157/110 117/162/110
