# Blender 3.3.0
# www.blender.org
mtllib s_komodin.mtl
g cabinet.014_Cylinder.134
v -110.174644 3.002812 417.443512
v -110.174644 10.194681 417.443512
v -110.561012 3.558447 425.809570
v -110.561012 9.639044 425.809570
v -126.284569 3.002812 417.411743
v -126.284569 10.194681 417.411743
v -125.931190 3.558447 425.779236
v -125.931190 9.639044 425.779236
v -110.191147 10.194679 425.810272
v -110.191147 3.002809 425.810272
v -126.301071 3.002809 425.778503
v -126.301071 10.194679 425.778503
v -110.546188 9.639046 418.296082
v -110.546188 3.558449 418.296082
v -125.916374 3.558449 418.265778
v -125.916374 9.639046 418.265778
v -94.064705 3.002812 417.475281
v -94.064705 10.194681 417.475281
v -94.451073 3.558447 425.841339
v -94.451073 9.639044 425.841339
v -110.174644 3.002812 417.443512
v -110.174644 10.194681 417.443512
v -109.821266 3.558447 425.811005
v -109.821266 9.639044 425.811005
v -94.081207 10.194679 425.842072
v -94.081207 3.002809 425.842072
v -110.191147 3.002809 425.810272
v -110.191147 10.194679 425.810272
v -94.436256 9.639046 418.327881
v -94.436256 3.558449 418.327881
v -109.806450 3.558449 418.297546
v -109.806450 9.639046 418.297546
v -102.675400 6.132606 425.776672
v -102.675400 6.949211 425.776672
v -102.676109 6.132606 426.134430
v -102.676109 6.949211 426.134430
v -104.037125 6.132606 425.773987
v -104.037125 6.949211 425.773987
v -104.037827 6.132606 426.131744
v -104.037827 6.949211 426.131744
v -103.570557 6.132606 426.132690
v -103.570557 6.949211 426.132690
v -103.569855 6.132606 425.774933
v -103.569855 6.949211 425.774933
v -102.676987 6.949211 426.580048
v -102.676987 6.132606 426.580048
v -103.571434 6.132606 426.578278
v -103.571434 6.949211 426.578278
v -102.676689 6.949211 426.428558
v -102.676689 6.132606 426.428558
v -103.571136 6.132606 426.426788
v -103.571136 6.949211 426.426788
v -100.356384 6.949211 426.584625
v -100.356384 6.132606 426.584625
v -100.356087 6.949211 426.433136
v -100.356087 6.132606 426.433136
v -101.249268 6.949211 425.779510
v -101.249268 6.132604 425.779510
v -101.249969 6.949211 426.137268
v -101.249969 6.132604 426.137268
v -99.887543 6.949213 425.782196
v -99.887543 6.132606 425.782196
v -99.888252 6.949213 426.139954
v -99.888252 6.132606 426.139954
v -100.355507 6.949211 426.139008
v -100.355507 6.132606 426.139008
v -100.354805 6.949211 425.781250
v -100.354805 6.132606 425.781250
v -101.250549 6.132604 426.431366
v -101.250549 6.949211 426.431366
v -100.356087 6.949211 426.433136
v -100.356087 6.132606 426.433136
v -118.785324 6.132606 425.744904
v -118.785324 6.949211 425.744904
v -118.786026 6.132606 426.102661
v -118.786026 6.949211 426.102661
v -120.147057 6.132606 425.742218
v -120.147057 6.949211 425.742218
v -120.147766 6.132606 426.099976
v -120.147766 6.949211 426.099976
v -119.680496 6.132606 426.100891
v -119.680496 6.949211 426.100891
v -119.679787 6.132606 425.743134
v -119.679787 6.949211 425.743134
v -118.786911 6.949211 426.548279
v -118.786911 6.132606 426.548279
v -119.681374 6.132606 426.546509
v -119.681374 6.949211 426.546509
v -118.786606 6.949211 426.396790
v -118.786606 6.132606 426.396790
v -119.681076 6.132606 426.395020
v -119.681076 6.949211 426.395020
v -116.466309 6.949211 426.552856
v -116.466309 6.132606 426.552856
v -116.466011 6.949211 426.401367
v -116.466011 6.132606 426.401367
v -117.359192 6.949211 425.747711
v -117.359192 6.132606 425.747711
v -117.359894 6.949211 426.105469
v -117.359894 6.132606 426.105469
v -115.997482 6.949213 425.750397
v -115.997482 6.132606 425.750397
v -115.998192 6.949213 426.108154
v -115.998192 6.132606 426.108154
v -116.465431 6.949211 426.107239
v -116.465431 6.132606 426.107239
v -116.464729 6.949211 425.749481
v -116.464729 6.132606 425.749481
v -117.360474 6.132606 426.399597
v -117.360474 6.949211 426.399597
v -116.466011 6.949211 426.401367
v -116.466011 6.132606 426.401367
v -94.450981 3.558443 425.792908
v -94.439018 3.558444 419.729156
v -94.911346 9.639040 425.323517
v -94.901237 9.639041 420.196716
v -109.821175 3.558449 425.762604
v -109.809212 3.558450 419.698822
v -109.358955 9.639044 425.295044
v -109.348846 9.639045 420.168243
v -94.439018 9.639042 419.729156
v -94.450981 9.639040 425.792908
v -109.821175 9.639044 425.762604
v -109.809212 9.639046 419.698822
v -94.901237 4.163093 420.196716
v -94.911346 4.163092 425.323517
v -109.358955 4.163094 425.295013
v -109.348846 4.163095 420.168213
v -110.560913 3.558449 425.761139
v -110.548958 3.558450 419.697388
v -111.021286 9.639044 425.291748
v -111.011177 9.639045 420.164948
v -125.931099 3.558449 425.730804
v -125.919136 3.558450 419.667053
v -125.468880 9.639046 425.263245
v -125.458771 9.639047 420.136444
v -110.548958 9.639046 419.697388
v -110.560913 9.639044 425.761139
v -125.931099 9.639046 425.730804
v -125.919136 9.639048 419.667053
v -111.011177 4.163096 420.164948
v -111.021286 4.163095 425.291748
v -125.468880 4.163095 425.263245
v -125.458771 4.163096 420.136444
v -104.951515 10.214385 420.824554
v -104.951515 13.022220 420.824554
v -105.691254 10.214385 419.832764
v -105.691254 13.022220 419.832764
v -105.202217 10.214385 418.696228
v -105.202217 13.022220 418.696228
v -103.973450 10.214385 418.551483
v -103.973450 13.022220 418.551483
v -103.233688 10.214385 419.543243
v -103.233688 13.022220 419.543243
v -103.722725 10.214385 420.679810
v -103.722725 13.022220 420.679810
v -104.951515 12.601045 420.824554
v -105.691254 12.601045 419.832764
v -105.202217 12.601045 418.696228
v -103.973450 12.601045 418.551483
v -103.233688 12.601045 419.543243
v -103.722725 12.601045 420.679810
v -104.982285 13.120725 420.896057
v -105.768585 13.120725 419.841858
v -105.248779 13.120725 418.633820
v -103.942680 13.120725 418.479980
v -103.156372 13.120725 419.534149
v -103.676178 13.120725 420.742188
v -104.982285 12.673049 420.896057
v -105.768585 12.673049 419.841858
v -105.248779 12.673049 418.633820
v -103.942680 12.673047 418.479980
v -103.156372 12.673049 419.534149
v -103.676178 12.673049 420.742188
v -100.645157 10.214385 422.938751
v -100.645157 11.135543 422.938751
v -100.303154 10.214385 423.397278
v -100.303154 11.135543 423.397278
v -100.529243 10.214385 423.922699
v -100.529243 11.135542 423.922699
v -101.097343 10.214385 423.989655
v -101.097343 11.135542 423.989655
v -101.439354 10.214385 423.531097
v -101.439354 11.135543 423.531097
v -101.213257 10.214385 423.005646
v -101.213257 11.135543 423.005646
v -100.028313 11.135543 423.364899
v -100.535774 11.135543 422.684540
v -100.363785 11.135543 424.144562
v -101.206726 11.135543 424.243866
v -101.714195 11.135543 423.563477
v -101.378723 11.135543 422.783844
v -100.028313 12.990245 423.364899
v -100.535774 12.990245 422.684540
v -100.363785 12.990245 424.144562
v -101.206726 12.990245 424.243866
v -101.714195 12.990245 423.563477
v -101.378723 12.990245 422.783844
v -98.603378 10.214389 422.904236
v -98.456772 15.250388 422.563507
v -99.132919 10.214389 422.194336
v -98.764526 15.250388 422.150909
v -98.782860 10.214389 421.380768
v -98.561081 15.250388 421.678101
v -97.903275 10.214389 421.277161
v -98.049881 15.250388 421.617889
v -97.373756 10.214389 421.987091
v -97.742142 15.250388 422.030487
v -97.723816 10.214389 422.800629
v -97.945587 15.250388 422.503296
v -98.776917 11.109662 423.307556
v -99.568947 11.109661 422.245667
v -99.045357 11.109662 421.028839
v -97.729736 11.109662 420.873840
v -96.937714 11.109662 421.935730
v -97.461304 11.109662 423.152557
v -98.776917 12.049701 423.307556
v -99.568947 12.049701 422.245667
v -99.045357 12.049701 421.028839
v -97.729736 12.049701 420.873840
v -96.937714 12.049702 421.935730
v -97.461304 12.049701 423.152557
v -98.496979 13.071958 422.656952
v -98.865540 13.071958 422.162811
v -98.621895 13.071958 421.596558
v -98.009682 13.071958 421.524445
v -97.641113 13.071958 422.018585
v -97.884766 13.071958 422.584839
vn 1.0000 -0.0000 0.0020
vn -0.0000 1.0000 -0.0000
vn -1.0000 -0.0000 -0.0020
vn 0.0020 -0.0000 -1.0000
vn -0.0000 -1.0000 -0.0000
vn -0.0020 -0.0000 1.0000
vn -0.8016 -0.0000 0.5979
vn -0.9186 -0.0000 -0.3952
vn -0.1170 -0.0000 -0.9931
vn 0.8016 -0.0000 -0.5979
vn 0.9186 -0.0000 0.3952
vn 0.1170 -0.0000 0.9931
vn -0.8009 0.0404 0.5974
vn -0.9178 0.0404 -0.3949
vn -0.1169 0.0404 -0.9923
vn 0.8009 0.0404 -0.5974
vn 0.9178 0.0404 0.3949
vn 0.1169 0.0404 0.9923
vn 0.1077 -0.3909 0.9141
vn 0.8455 -0.3909 0.3638
vn 0.7378 -0.3909 -0.5503
vn -0.1077 -0.3909 -0.9141
vn -0.8455 -0.3909 -0.3638
vn -0.7378 -0.3909 0.5503
vn 0.1003 0.5145 0.8516
vn 0.7877 0.5145 0.3389
vn 0.6873 0.5145 -0.5127
vn -0.1003 0.5145 -0.8516
vn -0.7877 0.5145 -0.3389
vn -0.6873 0.5145 0.5127
s 1
g cabinet.014_m_yellow
usemtl m_yellow
f 1//1 2//1 9//1 10//1
f 7//2 3//2 14//2 15//2
f 11//3 12//3 6//3 5//3
f 5//4 6//4 2//4 1//4
f 10//5 11//5 5//5 1//5
f 14//6 13//6 16//6 15//6
f 4//5 8//5 16//5 13//5
f 8//1 7//1 15//1 16//1
f 3//3 4//3 13//3 14//3
f 17//1 18//1 25//1 26//1
f 23//2 19//2 30//2 31//2
f 27//3 28//3 22//3 21//3
f 21//4 22//4 18//4 17//4
f 26//5 27//5 21//5 17//5
f 30//6 29//6 32//6 31//6
f 20//5 24//5 32//5 29//5
f 24//1 23//1 31//1 32//1
f 19//3 20//3 29//3 30//3
f 33//1 34//1 36//1 35//1
f 43//4 44//4 34//4 33//4
f 41//5 39//5 37//5 43//5
f 35//5 41//5 43//5 33//5
f 37//4 38//4 44//4 43//4
f 50//4 49//4 55//4 56//4
f 51//5 50//5 46//5 47//5
f 41//5 35//5 50//5 51//5
f 35//1 36//1 49//1 50//1
f 56//1 55//1 53//1 54//1
f 46//5 50//5 56//5 54//5
f 63//1 64//1 62//1 61//1
f 66//5 60//5 58//5 68//5
f 64//5 66//5 68//5 62//5
f 60//5 66//5 72//5 69//5
f 66//1 65//1 71//1 72//1
f 73//1 74//1 76//1 75//1
f 83//4 84//4 74//4 73//4
f 81//5 79//5 77//5 83//5
f 75//5 81//5 83//5 73//5
f 77//4 78//4 84//4 83//4
f 90//4 89//4 95//4 96//4
f 91//5 90//5 86//5 87//5
f 81//5 75//5 90//5 91//5
f 75//1 76//1 89//1 90//1
f 96//1 95//1 93//1 94//1
f 86//5 90//5 96//5 94//5
f 103//1 104//1 102//1 101//1
f 106//5 100//5 98//5 108//5
f 104//5 106//5 108//5 102//5
f 100//5 106//5 112//5 109//5
f 106//1 105//1 111//1 112//1
f 113//1 114//1 121//1 122//1
f 119//4 115//4 126//4 127//4
f 123//3 124//3 118//3 117//3
f 117//5 118//5 114//5 113//5
f 122//6 123//6 117//6 113//6
f 124//4 121//4 114//4 118//4
f 116//2 115//2 122//2 121//2
f 115//2 119//2 123//2 122//2
f 120//2 116//2 121//2 124//2
f 119//2 120//2 124//2 123//2
f 126//2 125//2 128//2 127//2
f 116//6 120//6 128//6 125//6
f 120//1 119//1 127//1 128//1
f 115//3 116//3 125//3 126//3
f 129//1 130//1 137//1 138//1
f 135//4 131//4 142//4 143//4
f 139//3 140//3 134//3 133//3
f 133//5 134//5 130//5 129//5
f 138//6 139//6 133//6 129//6
f 140//4 137//4 130//4 134//4
f 132//2 131//2 138//2 137//2
f 131//2 135//2 139//2 138//2
f 136//2 132//2 137//2 140//2
f 135//2 136//2 140//2 139//2
f 142//2 141//2 144//2 143//2
f 132//6 136//6 144//6 141//6
f 136//1 135//1 143//1 144//1
f 131//3 132//3 141//3 142//3
f 169//7 163//7 164//7 170//7
f 170//8 164//8 165//8 171//8
f 171//9 165//9 166//9 172//9
f 172//10 166//10 167//10 173//10
f 164//2 163//2 168//2 167//2 166//2 165//2
f 173//11 167//11 168//11 174//11
f 174//12 168//12 163//12 169//12
f 175//10 176//10 178//10 177//10
f 177//11 178//11 180//11 179//11
f 179//12 180//12 182//12 181//12
f 181//7 182//7 184//7 183//7
f 183//8 184//8 186//8 185//8
f 185//9 186//9 176//9 175//9
g cabinet.014_m_white
usemtl m_white
f 12//2 9//2 2//2 6//2
f 4//6 3//6 10//6 9//6
f 3//6 7//6 11//6 10//6
f 8//6 4//6 9//6 12//6
f 7//6 8//6 12//6 11//6
f 28//2 25//2 18//2 22//2
f 20//6 19//6 26//6 25//6
f 19//6 23//6 27//6 26//6
f 24//6 20//6 25//6 28//6
f 23//6 24//6 28//6 27//6
f 41//6 42//6 40//6 39//6
f 39//3 40//3 38//3 37//3
f 42//2 36//2 34//2 44//2
f 40//2 42//2 44//2 38//2
f 46//6 45//6 48//6 47//6
f 52//3 51//3 47//3 48//3
f 49//2 52//2 48//2 45//2
f 36//2 42//2 52//2 49//2
f 42//3 41//3 51//3 52//3
f 49//2 45//2 53//2 55//2
f 45//6 46//6 54//6 53//6
f 57//3 58//3 60//3 59//3
f 65//6 66//6 64//6 63//6
f 65//2 63//2 61//2 67//2
f 59//2 65//2 67//2 57//2
f 65//2 59//2 70//2 71//2
f 59//3 60//3 69//3 70//3
f 81//6 82//6 80//6 79//6
f 79//3 80//3 78//3 77//3
f 82//2 76//2 74//2 84//2
f 80//2 82//2 84//2 78//2
f 86//6 85//6 88//6 87//6
f 92//3 91//3 87//3 88//3
f 89//2 92//2 88//2 85//2
f 76//2 82//2 92//2 89//2
f 82//3 81//3 91//3 92//3
f 89//2 85//2 93//2 95//2
f 85//6 86//6 94//6 93//6
f 97//3 98//3 100//3 99//3
f 105//6 106//6 104//6 103//6
f 105//2 103//2 101//2 107//2
f 99//2 105//2 107//2 97//2
f 105//2 99//2 110//2 111//2
f 99//3 100//3 109//3 110//3
f 157//7 146//7 148//7 158//7
f 158//8 148//8 150//8 159//8
f 159//9 150//9 152//9 160//9
f 160//10 152//10 154//10 161//10
f 148//2 146//2 156//2 154//2 152//2 150//2
f 161//11 154//11 156//11 162//11
f 162//12 156//12 146//12 157//12
f 145//5 147//5 149//5 151//5 153//5 155//5
f 155//12 162//12 157//12 145//12
f 153//11 161//11 162//11 155//11
f 151//10 160//10 161//10 153//10
f 149//9 159//9 160//9 151//9
f 147//8 158//8 159//8 149//8
f 145//7 157//7 158//7 147//7
f 182//5 180//5 189//5 190//5
f 175//5 177//5 179//5 181//5 183//5 185//5
f 190//12 189//12 195//12 196//12
f 176//5 186//5 192//5 188//5
f 180//5 178//5 187//5 189//5
f 178//5 176//5 188//5 187//5
f 186//5 184//5 191//5 192//5
f 184//5 182//5 190//5 191//5
f 193//2 194//2 198//2 197//2 196//2 195//2
f 191//7 190//7 196//7 197//7
f 192//8 191//8 197//8 198//8
f 187//10 188//10 194//10 193//10
f 188//9 192//9 198//9 194//9
f 189//11 187//11 193//11 195//11
f 223//13 200//13 202//13 224//13
f 224//14 202//14 204//14 225//14
f 225//15 204//15 206//15 226//15
f 226//16 206//16 208//16 227//16
f 202//2 200//2 210//2 208//2 206//2 204//2
f 227//17 208//17 210//17 228//17
f 228//18 210//18 200//18 223//18
f 199//5 201//5 203//5 205//5 207//5 209//5
f 209//19 216//19 211//19 199//19
f 207//20 215//20 216//20 209//20
f 205//21 214//21 215//21 207//21
f 203//22 213//22 214//22 205//22
f 201//23 212//23 213//23 203//23
f 199//24 211//24 212//24 201//24
f 216//12 222//12 217//12 211//12
f 215//11 221//11 222//11 216//11
f 214//10 220//10 221//10 215//10
f 213//9 219//9 220//9 214//9
f 212//8 218//8 219//8 213//8
f 211//7 217//7 218//7 212//7
f 222//25 228//25 223//25 217//25
f 221//26 227//26 228//26 222//26
f 220//27 226//27 227//27 221//27
f 219//28 225//28 226//28 220//28
f 218//29 224//29 225//29 219//29
f 217//30 223//30 224//30 218//30
