# Blender v3.0.1 OBJ File: 'hand.blend'
# www.blender.org
mtllib kucuk-badem.mtl
o 5._finger__badem_Female_Hand.018
v 0.006594 0.005336 -0.034630
v 0.013467 0.003869 -0.077669
v 0.032854 -0.010602 -0.021374
v -0.022484 -0.010376 -0.028715
v 0.034476 -0.004126 -0.061949
v -0.011524 -0.003940 -0.068745
v -0.025804 -0.001001 0.012351
v 0.020310 -0.001189 0.018469
v -0.006052 0.007680 0.030124
v 0.038694 -0.002545 -0.065938
v 0.014133 0.006646 -0.082465
v -0.024714 -0.011336 -0.036876
v 0.010137 0.004525 -0.056562
v 0.028642 -0.011337 -0.012909
v -0.019715 -0.011139 -0.019324
v -0.007652 0.000947 -0.033835
v 0.020005 0.000834 -0.030094
v 0.035737 -0.007949 -0.043706
v -0.018368 -0.007729 -0.051361
v 0.026241 0.001057 -0.072995
v -0.000196 0.001164 -0.076979
v -0.014489 -0.002331 -0.073960
v 0.037317 -0.011569 -0.028199
v 0.019319 -0.004808 0.019507
v -0.006054 0.002233 0.030009
v -0.024932 -0.004627 0.013637
v -0.025089 -0.006153 -0.010486
v 0.029096 -0.006374 -0.003298
v 0.002697 0.006406 -0.011322
v 0.008446 0.004684 0.027789
v -0.018070 0.004792 0.024272
v -0.001462 0.003734 -0.082093
v -0.021779 -0.007562 -0.056414
v 0.028823 0.003612 -0.077447
v -0.004015 0.000729 -0.055830
v 0.023419 0.000617 -0.051931
v 0.040349 -0.007811 -0.047379
v 0.008297 -0.000271 0.027785
v -0.017923 -0.000163 0.024306
v -0.011276 0.002522 -0.011674
v 0.016199 0.002410 -0.008022
v 0.026651 -0.008602 0.000963
v -0.023362 -0.008398 -0.005672
v -0.025447 -0.003577 0.000933
v -0.014673 0.003657 0.006299
v -0.001678 0.007043 0.009401
v 0.012323 0.003547 0.009883
v 0.024703 -0.003782 0.007585
v 0.022985 -0.006705 0.010235
v -0.024147 -0.006512 0.003983
vt 0.127161 0.639676
vt 0.121391 0.640775
vt 0.121533 0.641101
vt 0.126519 0.638420
vt 0.131844 0.636105
vt 0.131504 0.635739
vt 0.114932 0.637859
vt 0.109015 0.633823
vt 0.108201 0.630533
vt 0.114867 0.635817
vt 0.134979 0.631139
vt 0.133731 0.630573
vt 0.135563 0.625362
vt 0.135958 0.625407
vt 0.132122 0.619338
vt 0.130142 0.619463
vt 0.127648 0.613940
vt 0.124327 0.613519
vt 0.373086 0.080798
vt 0.354722 0.082090
vt 0.358434 0.069199
vt 0.376279 0.068552
vt 0.336357 0.083382
vt 0.340851 0.069319
vt 0.342465 0.056618
vt 0.360225 0.056447
vt 0.379471 0.056306
vt 0.358545 0.043701
vt 0.376241 0.044136
vt 0.341080 0.043880
vt 0.336895 0.029652
vt 0.354953 0.030809
vt 0.373011 0.031965
vt 0.309017 0.037943
vt 0.306999 0.047596
vt 0.304279 0.048503
vt 0.304286 0.041543
vt 0.306004 0.057178
vt 0.303484 0.057106
vt 0.306713 0.066644
vt 0.304079 0.065548
vt 0.308445 0.076039
vt 0.303966 0.072091
vt 0.323740 0.068243
vt 0.324384 0.056873
vt 0.322401 0.079710
vt 0.315227 0.067444
vt 0.315423 0.077875
vt 0.315194 0.057025
vt 0.324013 0.045430
vt 0.322956 0.033798
vt 0.315506 0.046513
vt 0.315986 0.035871
vt 0.295556 0.033255
vt 0.302286 0.035599
vt 0.300756 0.037737
vt 0.295307 0.035253
vt 0.305651 0.036771
vt 0.302521 0.039640
vt 0.302237 0.073687
vt 0.305315 0.076909
vt 0.295191 0.077013
vt 0.300508 0.075284
vt 0.302185 0.077779
vt 0.295924 0.079518
vn -0.2561 0.9292 0.2665
vn -0.3653 0.9134 0.1798
vn -0.2670 0.9499 0.1626
vn -0.2170 0.9430 0.2524
vn -0.0476 0.9408 0.3355
vn -0.0395 0.9561 0.2903
vn -0.4210 0.9000 0.1130
vn -0.5447 0.8327 0.0990
vn -0.6787 0.7339 0.0286
vn -0.4020 0.9146 0.0445
vn 0.1734 0.9265 0.3340
vn 0.1394 0.9404 0.3102
vn 0.3052 0.9084 0.2859
vn 0.2126 0.9470 0.2407
vn 0.3806 0.8934 0.2388
vn 0.3754 0.9115 0.1681
vn 0.5095 0.8207 0.2587
vn 0.6384 0.7391 0.2151
vn -0.3917 0.9187 -0.0512
vn -0.4383 0.8931 -0.1012
vn 0.0092 0.9993 -0.0374
vn 0.0065 0.9999 -0.0141
vn 0.3951 0.9157 0.0736
vn 0.4503 0.8918 0.0435
vn 0.7986 0.4322 0.4187
vn 0.4383 0.6140 0.6564
vn 0.3782 -0.0702 0.9231
vn 0.6748 -0.3783 0.6337
vn -0.1118 0.6990 0.7063
vn -0.1477 -0.0280 0.9886
vn -0.6273 0.6104 0.4836
vn -0.6441 -0.0886 0.7598
vn -0.9189 0.3810 0.1019
vn -0.8237 -0.4469 0.3489
vn -0.4153 0.8980 -0.1454
vn 0.0121 0.9987 -0.0488
vn -0.9894 0.0906 -0.1134
vn -0.3597 0.9237 -0.1317
vn -0.9487 0.3028 -0.0910
vn 0.0050 0.9991 -0.0432
vn 0.4378 0.8990 0.0131
vn 0.9530 0.2063 0.2217
vn 0.3788 0.9252 0.0208
vn 0.8696 0.4145 0.2682
vn 0.5762 -0.7508 0.3230
vn 0.8754 0.0356 0.4821
vn 0.8053 -0.4391 0.3983
vn -0.6861 -0.7257 0.0512
vn -0.9550 -0.0499 0.2924
vn -0.5054 -0.8577 0.0945
usemtl Skin_Female.001
s 1
f 32/1/1 22/2/2 6/3/3 21/4/4
f 11/5/5 32/1/1 21/4/4 2/6/6
f 33/7/7 12/8/8 4/9/9 19/10/10
f 22/2/2 33/7/7 19/10/10 6/3/3
f 34/11/11 11/5/5 2/6/6 20/12/12
f 10/13/13 34/11/11 20/12/12 5/14/14
f 37/15/15 10/13/13 5/14/14 18/16/16
f 23/17/17 37/15/15 18/16/16 3/18/18
usemtl Material
f 6/19/3 19/20/10 35/21/19 21/22/4
f 19/20/10 4/23/9 16/24/20 35/21/19
f 35/21/19 16/24/20 1/25/21 13/26/22
f 21/22/4 35/21/19 13/26/22 2/27/6
f 2/27/6 13/26/22 36/28/23 20/29/12
f 13/26/22 1/25/21 17/30/24 36/28/23
f 36/28/23 17/30/24 3/31/18 18/32/16
f 20/29/12 36/28/23 18/32/16 5/33/14
f 8/34/25 30/35/26 38/36/27 24/37/28
f 30/35/26 9/38/29 25/39/30 38/36/27
f 9/38/29 31/40/31 39/41/32 25/39/30
f 31/40/31 7/42/33 26/43/34 39/41/32
f 1/25/21 16/24/20 40/44/35 29/45/36
f 16/24/20 4/23/9 27/46/37 40/44/35
f 45/47/38 44/48/39 7/42/33 31/40/31
f 46/49/40 45/47/38 31/40/31 9/38/29
f 3/31/18 17/30/24 41/50/41 28/51/42
f 17/30/24 1/25/21 29/45/36 41/50/41
f 47/52/43 46/49/40 9/38/29 30/35/26
f 48/53/44 47/52/43 30/35/26 8/34/25
f 3/54/18 28/55/42 42/56/45 14/57/46
f 48/58/44 8/34/25 24/37/28 49/59/47
f 50/60/48 26/43/34 7/42/33 44/61/39
f 15/62/49 43/63/50 27/64/37 4/65/9
f 43/63/50 50/60/48 44/61/39 27/64/37
f 28/55/42 48/58/44 49/59/47 42/56/45
f 28/51/42 41/50/41 47/52/43 48/53/44
f 41/50/41 29/45/36 46/49/40 47/52/43
f 29/45/36 40/44/35 45/47/38 46/49/40
f 40/44/35 27/46/37 44/48/39 45/47/38
