# Blender 3.3.0
# www.blender.org
mtllib k_tabure.mtl
g liquid_soap.014_Cube.209
v 11.641644 12.150055 442.480164
v 11.641644 14.797508 442.480164
v 12.215973 12.150055 440.998230
v 12.215973 14.797508 440.998260
v 13.123556 12.150055 443.054474
v 13.123556 14.797508 443.054474
v 13.697885 12.150055 441.572571
v 13.697885 14.797508 441.572571
v 12.102604 15.958780 442.185669
v 12.102604 16.101799 442.185669
v 12.733466 15.958780 441.499207
v 12.733466 16.101799 441.499207
v 12.911989 15.958780 442.499359
v 12.911989 16.101799 442.499359
v 12.908513 15.958780 441.567047
v 12.908513 16.101799 441.567047
v 12.611847 15.579809 442.072754
v 12.611847 16.002684 442.072754
v 12.664302 15.579809 442.137939
v 12.664302 16.002684 442.137939
v 12.634068 15.579809 442.215942
v 12.634068 16.002684 442.215942
v 12.551374 15.579809 442.228760
v 12.551374 16.002684 442.228760
v 12.498930 15.579809 442.163574
v 12.498930 16.002684 442.163574
v 12.529163 15.579809 442.085571
v 12.529163 16.002684 442.085571
v 12.663249 14.797504 441.940125
v 12.663249 15.579809 441.940125
v 12.804852 14.797504 442.116150
v 12.804852 15.579809 442.116150
v 12.723216 14.797504 442.326782
v 12.723216 15.579809 442.326782
v 12.499977 14.797504 442.361389
v 12.499977 15.579809 442.361389
v 12.358366 14.797504 442.185364
v 12.358366 15.579809 442.185364
v 12.440001 14.797504 441.974731
v 12.440001 15.579809 441.974731
vn -0.9324 -0.0000 -0.3614
vn 0.3614 -0.0000 -0.9324
vn 0.9324 -0.0000 0.3614
vn -0.3614 -0.0000 0.9324
vn -0.0000 -1.0000 -0.0000
vn -0.0000 1.0000 -0.0000
vn -0.7363 -0.0000 -0.6767
vn 1.0000 -0.0000 -0.0037
vn 0.7792 -0.0000 -0.6268
vn 0.1532 -0.0000 0.9882
vn -0.7792 -0.0000 0.6268
vn -0.1533 -0.0000 -0.9882
vn -0.7791 -0.0000 0.6269
s 1
g liquid_soap.014_m_white
usemtl m_white
f 9//7 10//7 12//7 11//7
f 11//2 12//2 16//2 15//2
f 15//8 16//8 14//8 13//8
f 13//4 14//4 10//4 9//4
f 11//5 15//5 13//5 9//5
f 16//6 12//6 10//6 14//6
f 17//9 18//9 20//9 19//9
f 19//3 20//3 22//3 21//3
f 21//10 22//10 24//10 23//10
f 23//11 24//11 26//11 25//11
f 20//6 18//6 28//6 26//6 24//6 22//6
f 25//1 26//1 28//1 27//1
f 27//12 28//12 18//12 17//12
f 17//5 19//5 21//5 23//5 25//5 27//5
f 29//9 30//9 32//9 31//9
f 31//3 32//3 34//3 33//3
f 33//10 34//10 36//10 35//10
f 35//13 36//13 38//13 37//13
f 32//6 30//6 40//6 38//6 36//6 34//6
f 37//1 38//1 40//1 39//1
f 39//12 40//12 30//12 29//12
f 29//5 31//5 33//5 35//5 37//5 39//5
g liquid_soap.014_m_red
usemtl m_red
f 1//1 2//1 4//1 3//1
f 3//2 4//2 8//2 7//2
f 7//3 8//3 6//3 5//3
f 5//4 6//4 2//4 1//4
f 3//5 7//5 5//5 1//5
f 8//6 4//6 2//6 6//6
g chair.016_Cube.215
v 12.392521 1.886115 445.999023
v 12.203900 11.584674 443.499878
v 12.572545 1.771461 445.565521
v 12.480493 11.408524 442.833893
v 12.840905 1.933163 446.172791
v 12.892781 11.656950 443.766876
v 13.020942 1.818501 445.739288
v 13.169375 11.480798 443.100891
v 9.186176 1.886815 440.362671
v 11.342222 11.644348 441.059296
v 9.623708 1.771613 440.532227
v 12.014436 11.467352 441.319794
v 9.011567 1.886817 440.813202
v 11.073968 11.644346 441.751465
v 9.449118 1.771609 440.982758
v 11.746172 11.467356 442.011993
v 15.670134 1.933169 438.872681
v 14.087114 11.656958 440.685181
v 15.511024 1.818511 439.314270
v 13.842667 11.480804 441.363617
v 15.221743 1.886124 438.698914
v 13.398233 11.584679 440.418213
v 15.062633 1.771469 439.140503
v 13.153779 11.408533 441.096649
v 13.772153 11.387090 438.289001
v 13.772155 12.148054 438.289001
v 16.149502 11.387089 441.244171
v 16.149498 12.148058 441.244202
v 14.778919 11.387090 444.780609
v 14.778916 12.148058 444.780640
v 11.030988 11.387091 445.361908
v 11.030990 12.148057 445.361877
v 8.653644 11.387090 442.406708
v 8.653641 12.148058 442.406708
v 10.024226 11.387089 438.870270
v 10.024223 12.148058 438.870270
vn -0.9279 -0.1099 -0.3563
vn 0.3726 -0.2498 -0.8938
vn 0.9279 0.0849 0.3629
vn -0.3725 0.2248 0.9004
vn 0.0020 -0.9665 0.2565
vn -0.0020 0.9665 -0.2565
vn 0.3584 -0.0126 -0.9335
vn 0.9026 -0.2510 0.3498
vn -0.3642 -0.0126 0.9312
vn -0.9083 0.2258 -0.3520
vn -0.2223 -0.9712 -0.0862
vn 0.2223 0.9712 0.0862
vn 0.9302 0.0849 0.3572
vn -0.3270 -0.2498 0.9114
vn -0.9257 -0.1099 -0.3620
vn 0.3315 0.2248 -0.9163
vn 0.1743 -0.9665 -0.1881
vn -0.1743 0.9665 0.1881
vn 0.7792 -0.0000 -0.6268
vn 0.9324 -0.0000 0.3614
vn 0.1533 -0.0000 0.9882
vn -0.7792 -0.0000 0.6268
vn -0.0000 1.0000 -0.0000
vn -0.9324 -0.0000 -0.3614
vn -0.1533 -0.0000 -0.9882
vn -0.0000 -1.0000 -0.0000
s 1
g chair.016_m_white
usemtl m_white
f 41//14 42//14 44//14 43//14
f 43//15 44//15 48//15 47//15
f 47//16 48//16 46//16 45//16
f 43//18 47//18 45//18 41//18
f 48//19 44//19 42//19 46//19
f 49//20 50//20 52//20 51//20
f 55//22 56//22 54//22 53//22
f 53//23 54//23 50//23 49//23
f 51//24 55//24 53//24 49//24
f 56//25 52//25 50//25 54//25
f 59//27 60//27 64//27 63//27
f 63//28 64//28 62//28 61//28
f 61//29 62//29 58//29 57//29
f 59//30 63//30 61//30 57//30
f 64//31 60//31 58//31 62//31
f 68//36 66//36 76//36 74//36 72//36 70//36
f 65//39 67//39 69//39 71//39 73//39 75//39
g chair.016_m_softired
usemtl m_softired
f 45//17 46//17 42//17 41//17
f 51//21 52//21 56//21 55//21
f 57//26 58//26 60//26 59//26
f 65//32 66//32 68//32 67//32
f 67//33 68//33 70//33 69//33
f 69//34 70//34 72//34 71//34
f 71//35 72//35 74//35 73//35
f 73//37 74//37 76//37 75//37
f 75//38 76//38 66//38 65//38
