# Blender 3.3.0
# www.blender.org
mtllib k_zemin.mtl
g Cube.005_Cube.002
v 5.617149 0.778067 482.362488
v 73.598267 0.778062 482.362457
v 5.617153 2.041156 482.362488
v 73.598267 2.041150 482.362457
v 73.598259 0.778062 429.727142
v 5.617149 2.041156 430.979950
v 22.496216 2.041154 414.178528
v 22.704918 0.778066 414.178528
v 5.617146 0.778067 431.336243
v 73.598267 2.041150 429.716187
v 58.012081 2.041152 414.178497
v 58.070953 0.778063 414.178497
v 58.092438 2.041152 414.178497
v 55.129784 0.778064 416.460175
vn -0.0000 -1.0000 -0.0000
vn 0.7067 0.0134 -0.7074
vn -0.0000 1.0000 -0.0000
vn -1.0000 -0.0000 -0.0000
vn -0.0000 -0.0000 1.0000
vn 1.0000 -0.0000 -0.0000
vn -0.6983 -0.1562 -0.6985
vn -0.0000 -0.0000 -1.0000
vt 0.890586 0.077489
vt 0.491047 0.940918
vt 0.977845 0.986559
vt 0.968526 0.077489
vt 0.491047 0.986559
vt 0.868038 0.971346
vt 0.983239 0.802049
vt 0.491047 0.934523
vt 0.977845 0.980165
vt 0.077323 0.802049
vt 0.491047 0.980165
vt 0.868038 0.964951
vt 0.968526 0.034827
vt 0.602659 0.925704
vt 0.491129 0.971346
vt 0.983239 0.317980
vt 0.858986 0.934523
vt 0.866814 0.956132
vt 0.758313 0.159695
vt 0.745947 0.956132
vt 0.910177 0.022225
vt 0.744452 0.949737
vt 0.890586 0.036132
vt 0.856434 0.940918
vt 0.866814 0.949737
vt 0.602659 0.919310
vt 0.077323 0.306075
vt 0.491049 0.964951
vt 0.491049 0.919310
vt 0.285027 0.159695
vt 0.491625 0.956132
vt 0.491471 0.925704
vt 0.950724 0.022225
vt 0.491204 0.949737
vt 0.491049 0.956132
vt 0.947352 0.024074
s 0
g Cube.005_zemin_red.001
usemtl zemin_red.001
f 1/1/1 9/23/1 8/21/1 14/36/1 12/33/1 5/13/1 2/4/1
f 11/29/2 10/26/2 5/14/2 12/32/2
f 4/10/3 10/27/3 11/30/3 7/19/3 6/16/3 3/7/3
f 3/8/4 6/17/4 9/24/4 1/2/4
f 2/5/5 4/11/5 3/9/5 1/3/5
f 10/28/6 4/12/6 2/6/6 5/15/6
f 8/22/7 9/25/7 6/18/7 7/20/7
f 12/33/1 14/36/1 8/21/1
f 13/35/8 12/34/8 8/22/8 7/20/8 11/31/8
