# Blender 3.3.0
# www.blender.org
mtllib 1kapı-2.mtl
g Circle.006_Circle.003
v -9.908033 28.285412 -0.401769
v -9.908033 28.285412 0.401771
v -4.774518 27.913122 -0.401769
v -1.139868 26.810564 -0.401769
v 2.209841 25.020107 -0.401769
v 5.145889 22.610556 -0.401769
v 7.555440 19.674509 -0.401769
v 9.345900 16.324799 -0.401769
v 10.448457 12.690150 -0.401769
v 10.830241 8.813827 -0.401769
v 10.830241 -24.668242 -0.401771
v 10.830241 -24.668242 0.401769
v 10.830241 8.813827 0.401770
v 10.448457 12.690150 0.401770
v 9.345900 16.324799 0.401770
v 7.555440 19.674509 0.401771
v 5.145889 22.610556 0.401771
v 2.209841 25.020107 0.401771
v -1.139868 26.810564 0.401771
v -4.774518 27.913122 0.401771
v -9.827097 -24.668242 -0.401771
v -9.827097 -24.668242 0.401769
v -9.827097 28.270191 -0.401769
v -9.827097 28.270191 0.401771
vn 0.7730 0.6344 -0.0000
vn -0.0000 -1.0000 -0.0000
vn 0.6344 0.7730 -0.0000
vn -0.1848 -0.9828 -0.0000
vn 0.4714 0.8819 -0.0000
vn 1.0000 -0.0000 -0.0000
vn 0.2903 0.9569 -0.0000
vn 0.0723 0.9974 -0.0000
vn 0.9952 0.0980 -0.0000
vn 0.9569 0.2903 -0.0000
vn 0.8819 0.4714 -0.0000
vn -0.0000 -0.0000 1.0000
vn -0.0000 -0.0000 -1.0000
vn -1.0000 -0.0000 -0.0000
vt 0.000000 0.000000
vt 0.000000 0.000000
vt 0.000000 0.000000
vt 0.000000 0.000000
vt 0.000000 0.000000
vt 0.000000 0.000000
vt 0.000000 0.000000
vt 0.000000 0.000000
vt 0.000000 0.000000
vt 0.000000 0.000000
vt 0.000000 0.000000
vt 0.000000 0.000000
vt 0.000000 0.000000
vt 0.000000 0.000000
vt 0.000000 0.000000
vt 0.000000 0.000000
vt 0.000000 0.000000
vt 0.000000 0.000000
vt 0.000000 0.000000
vt 0.000000 0.000000
vt 0.000000 0.000000
vt 0.390486 0.168925
vt 0.000000 0.000000
vt 0.390486 0.163348
vt 0.000000 0.000000
vt 0.597088 0.168925
vt 0.000000 0.000000
vt 0.597088 0.163348
s 0
g Circle.006_m_koyupembe.001
usemtl m_koyupembe.001
f 7/7/1 6/6/1 17/17/1 16/16/1
f 12/12/2 22/23/2 21/21/2 11/11/2
f 6/6/3 5/5/3 18/18/3 17/17/3
f 1/1/4 23/25/4 24/27/4 2/2/4
f 5/5/5 4/4/5 19/19/5 18/18/5
f 11/11/6 10/10/6 13/13/6 12/12/6
f 4/4/7 3/3/7 20/20/7 19/19/7
f 3/3/8 1/1/8 2/2/8 20/20/8
f 10/10/9 9/9/9 14/14/9 13/13/9
f 9/9/10 8/8/10 15/15/10 14/14/10
f 8/8/11 7/7/11 16/16/11 15/15/11
f 24/27/12 22/23/12 12/12/12 13/13/12 14/14/12 15/15/12 16/16/12 17/17/12 18/18/12 19/19/12 20/20/12 2/2/12
f 7/7/13 8/8/13 9/9/13 10/10/13 11/11/13 21/21/13 23/25/13 1/1/13 3/3/13 4/4/13 5/5/13 6/6/13
f 23/26/14 21/22/14 22/24/14 24/28/14
