# Blender 3.3.0
# www.blender.org
mtllib 3kapı.mtl
g Cube.006_Mesh
v -31.388729 -37.801979 0.954596
v -31.388729 37.801979 0.954596
v 31.388729 -37.801979 0.954596
v 31.388729 37.801979 0.954596
v -31.388729 -37.801979 -0.954606
v -31.388729 37.801979 -0.954606
v 31.388729 -37.801979 -0.954606
v 31.388729 37.801979 -0.954606
vn -0.0000 -0.0000 -1.0000
vn -0.0000 -0.0000 1.0000
vn -0.0000 -1.0000 -0.0000
vn -0.0000 1.0000 -0.0000
vn -1.0000 -0.0000 -0.0000
vn 1.0000 -0.0000 -0.0000
vt 0.000000 0.000000
vt 0.000000 0.000000
vt 0.000000 0.000000
vt 0.000000 0.000000
vt 0.000000 0.000000
vt 0.000000 0.000000
vt 0.000000 0.000000
vt 0.000000 0.000000
s 0
g Cube.006_nerenk
usemtl nerenk
f 2/2/1 3/3/1 1/1/1
f 7/7/2 6/6/2 5/5/2
f 2/2/3 8/8/3 4/4/3
f 3/3/4 5/5/4 1/1/4
f 4/4/5 7/7/5 3/3/5
f 1/1/6 6/6/6 2/2/6
f 2/2/1 4/4/1 3/3/1
f 7/7/2 8/8/2 6/6/2
f 2/2/3 6/6/3 8/8/3
f 3/3/4 7/7/4 5/5/4
f 4/4/5 8/8/5 7/7/5
f 1/1/6 5/5/6 6/6/6
