# Blender 3.3.0
# www.blender.org
mtllib 4kapı-1.mtl
g Circle.013_Circle.012
v -3.779881 29.235262 -0.933943
v -1.353635 29.607552 -0.933943
v -7.414530 28.132702 -0.933943
v -10.764239 26.342245 -0.933943
v -13.700288 23.932693 -0.933943
v -16.109838 20.996649 -0.933943
v -17.900299 17.646936 -0.933943
v -19.002855 14.012289 -0.933943
v -19.384640 10.135965 -0.933943
v -19.384640 -23.346102 -0.933945
v -19.384640 -23.346102 -0.130405
v -19.384640 10.135965 -0.130404
v -19.002855 14.012289 -0.130404
v -17.900299 17.646936 -0.130404
v -16.109838 20.996649 -0.130403
v -13.700288 23.932693 -0.130403
v -10.764239 26.342245 -0.130403
v -7.414530 28.132702 -0.130403
v -1.353635 29.607552 -0.130403
v -3.779881 29.235262 -0.130403
v -1.292959 -23.346102 -0.933945
v -1.292959 -23.346102 -0.130405
v -1.292959 29.592331 -0.933943
v -1.292959 29.592331 -0.130403
vn -0.7730 0.6344 -0.0000
vn -0.0000 -1.0000 -0.0000
vn -0.6344 0.7730 -0.0000
vn 0.2433 0.9699 -0.0000
vn -0.4714 0.8819 -0.0000
vn -1.0000 -0.0000 -0.0000
vn -0.2903 0.9569 -0.0000
vn -0.1517 0.9884 -0.0000
vn -0.9952 0.0980 -0.0000
vn -0.9569 0.2903 -0.0000
vn -0.8819 0.4714 -0.0000
vn -0.0000 -0.0000 1.0000
vn -0.0000 -0.0000 -1.0000
vn 1.0000 -0.0000 -0.0000
vt 0.000000 0.000000
vt 0.000000 0.000000
vt 0.000000 0.000000
vt 0.000000 0.000000
vt 0.000000 0.000000
vt 0.000000 0.000000
vt 0.000000 0.000000
vt 0.000000 0.000000
vt 0.000000 0.000000
vt 0.000000 0.000000
vt 0.000000 0.000000
vt 0.000000 0.000000
vt 0.000000 0.000000
vt 0.000000 0.000000
vt 0.000000 0.000000
vt 0.000000 0.000000
vt 0.000000 0.000000
vt 0.000000 0.000000
vt 0.000000 0.000000
vt 0.000000 0.000000
vt 0.000000 0.000000
vt 0.000000 0.000000
vt 0.000000 0.000000
vt 0.000000 0.000000
s 0
g Circle.013_m_koyupembe
usemtl m_koyupembe
f 6/6/1 15/15/1 16/16/1 5/5/1
f 11/11/2 10/10/2 21/21/2 22/22/2
f 5/5/3 16/16/3 17/17/3 4/4/3
f 2/2/4 19/19/4 24/24/4 23/23/4
f 4/4/5 17/17/5 18/18/5 3/3/5
f 10/10/6 11/11/6 12/12/6 9/9/6
f 3/3/7 18/18/7 20/20/7 1/1/7
f 1/1/8 20/20/8 19/19/8 2/2/8
f 9/9/9 12/12/9 13/13/9 8/8/9
f 8/8/10 13/13/10 14/14/10 7/7/10
f 7/7/11 14/14/11 15/15/11 6/6/11
f 24/24/12 19/19/12 20/20/12 18/18/12 17/17/12 16/16/12 15/15/12 14/14/12 13/13/12 12/12/12 11/11/12 22/22/12
f 6/6/13 5/5/13 4/4/13 3/3/13 1/1/13 2/2/13 23/23/13 21/21/13 10/10/13 9/9/13 8/8/13 7/7/13
f 23/23/14 24/24/14 22/22/14 21/21/14
