# Blender 3.3.0
# www.blender.org
mtllib 7kapı-1.mtl
g Cube_Cube.005_Cube_Cube.005
v 11.896091 -29.127857 0.789800
v 11.896091 29.127851 0.789809
v 11.896091 29.127851 -0.789824
v 11.896091 -29.127857 -0.789834
v -11.896094 -29.127857 0.789800
v -11.896094 29.127851 0.789809
v -11.896094 -29.127857 -0.789834
v -11.896094 29.127851 -0.789824
vn -0.0000 -0.0000 1.0000
vn -0.0000 -0.0000 -1.0000
vn -0.0000 -1.0000 -0.0000
vn 1.0000 -0.0000 -0.0000
vn -0.0000 1.0000 -0.0000
vn -1.0000 -0.0000 -0.0000
vt 0.000000 0.000000
vt 0.000000 0.000000
vt 0.000000 0.000000
vt 0.000000 0.000000
vt 0.000000 0.000000
vt 0.404525 0.160148
vt 0.000000 0.000000
vt 0.536620 0.160148
vt 0.000000 0.000000
vt 0.404525 0.167460
vt 0.000000 0.000000
vt 0.536620 0.167460
s 0
g Cube_Cube.005_Material.001
usemtl Material.001
f 2/2/1 6/7/1 5/5/1 1/1/1
f 4/4/2 7/9/2 8/11/2 3/3/2
f 1/1/3 5/5/3 7/9/3 4/4/3
f 2/2/4 1/1/4 4/4/4 3/3/4
f 3/3/5 8/11/5 6/7/5 2/2/5
f 5/6/6 6/8/6 8/12/6 7/10/6
