# Blender 3.3.0
# www.blender.org
mtllib y_duvar.mtl
g Cube.141_Cube.188
v 52.067822 -20.656025 57.609703
v 52.067822 18.334126 57.609699
v -16.014147 -20.656025 57.609722
v -16.014147 18.334126 57.609718
v -16.014164 -20.656034 6.454874
v 1.044642 -20.656038 -10.603943
v 1.044644 18.334112 -10.603947
v -16.014164 18.334116 6.454870
v 36.506680 -20.656038 -10.603954
v 52.067802 -20.656034 4.957159
v 52.067802 18.334116 4.957156
v 36.506680 18.334112 -10.603958
v -14.066759 18.334126 57.609718
v 50.120434 18.334126 57.609699
v -14.066759 -20.656025 57.609722
v 50.120434 -20.656025 57.609703
v 50.120415 18.334116 5.801902
v 2.016145 18.334112 -8.868997
v 35.449501 18.334112 -8.869007
v -14.066776 18.334116 7.213937
v -14.066776 -20.656034 7.213939
v 35.449501 -20.656038 -8.869003
v 50.120415 -20.656034 5.801906
v 2.016143 -20.656038 -8.868993
v -3.519922 4.460158 -6.039377
v -3.519924 -19.314968 -6.039374
v -3.519922 -7.844029 -6.039377
v -3.519922 -7.010781 -6.039377
v -3.701845 5.263780 -5.857456
v -7.971797 -7.844028 -1.587501
v -7.388445 -7.844028 -2.170853
v -7.971795 -7.010780 -1.587499
v -7.388443 -7.010780 -2.170851
v -11.840318 -19.314966 2.281025
v -7.971797 -19.314966 -1.587499
v -7.388445 -19.314966 -2.170850
v -4.871486 9.777028 -4.687813
v -7.971795 4.460159 -1.587502
v -7.388443 4.460159 -2.170853
v -7.477986 5.263780 -2.081311
v -7.707394 11.654516 -1.851904
v -10.593645 5.263781 1.034348
v -11.840318 -7.844028 2.281024
v -11.840318 -7.010779 2.281024
v -11.840316 4.460160 2.281022
v -11.712945 5.263781 2.153651
v -10.543303 9.777029 0.984007
v -3.518258 9.777028 -3.334588
v -6.618568 4.460159 -0.234276
v -6.035218 4.460159 -0.817628
v -7.649545 5.263781 0.796703
v -6.354166 11.654516 -0.498677
v -10.487090 -7.010779 3.634250
v -10.487090 4.460160 3.634247
v -10.487090 -7.844028 3.634250
v -10.359719 5.263781 3.506876
v -9.190076 9.777029 2.337234
v -2.166698 -19.314966 -4.686149
v -2.166696 -7.844029 -4.686150
v -2.166696 -7.010781 -4.686150
v -2.166696 4.460158 -4.686152
v -2.348617 5.263780 -4.504229
v -6.035220 -19.314966 -0.817625
v -6.618568 -7.844028 -0.234274
v -6.035218 -7.844028 -0.817625
v -6.035218 -7.010780 -0.817626
v -6.618568 -7.010780 -0.234274
v -10.487092 -19.314966 3.634252
v -6.618570 -19.314966 -0.234274
v 11.010311 -2.465896 -10.603950
v 11.010311 14.252424 -10.603950
v 5.706894 -2.465896 -10.603948
v 5.706894 14.252424 -10.603948
v 11.010312 -2.465895 -8.868999
v 11.010312 14.252424 -8.868999
v 5.706895 -2.465895 -8.868997
v 5.706895 14.252424 -8.868997
v 17.152737 -2.465896 -10.603951
v 11.849319 -2.465896 -10.603950
v 17.152737 14.252424 -10.603951
v 11.849319 14.252424 -10.603950
v 17.152737 14.252424 -8.869000
v 11.849320 14.252424 -8.868999
v 17.152737 -2.465895 -8.869000
v 11.849320 -2.465895 -8.868999
v 5.989737 13.969582 -10.603948
v 5.989737 -2.183053 -10.603949
v 10.727468 13.969582 -10.603950
v 10.727468 -2.183053 -10.603951
v 12.132162 -2.183053 -10.603951
v 16.869894 -2.183053 -10.603952
v 16.869894 13.969582 -10.603951
v 12.132162 13.969582 -10.603950
v 5.989738 -2.183053 -8.868998
v 5.989738 13.969582 -8.868997
v 10.727469 13.969582 -8.868999
v 12.132163 13.969582 -8.868999
v 16.869894 13.969582 -8.869000
v 16.869894 -2.183053 -8.869001
v 12.132163 -2.183053 -8.868999
v 10.727469 -2.183053 -8.868999
v -7.188445 -19.032124 -2.370851
v -3.719925 -19.032125 -5.839373
v -11.640317 -19.032124 2.081024
v -8.171797 -19.032124 -1.387498
v -8.171797 -8.126871 -1.387500
v -11.640317 -8.126871 2.081024
v -11.640317 -6.727937 2.081023
v -8.171795 -6.727938 -1.387499
v -8.171795 4.177316 -1.387501
v -11.640315 4.177317 2.081022
v -7.188443 4.177316 -2.370854
v -7.188443 -6.727938 -2.370852
v -3.719923 -6.727938 -5.839375
v -3.719923 -8.126872 -5.839375
v -7.188445 -8.126871 -2.370853
v -3.719923 4.177316 -5.839376
v -10.287089 4.177317 3.434247
v -6.818569 4.177317 -0.034276
v -5.835217 4.177317 -1.017629
v -2.366697 4.177316 -4.486151
v -5.835217 -8.126871 -1.017626
v -2.366697 -8.126872 -4.486148
v -2.366699 -19.032124 -4.486148
v -10.287091 -19.032124 3.434251
v -10.287089 -8.126870 3.434249
v -10.287089 -6.727937 3.434249
v -2.366697 -6.727938 -4.486148
v -5.835217 -6.727937 -1.017626
v -6.818569 -6.727937 -0.034273
v -6.818571 -19.032124 -0.034273
v -5.835219 -19.032124 -1.017626
v -6.818569 -8.126871 -0.034273
v -11.712945 5.263781 2.153651
v -10.593645 5.263781 1.034348
v -7.477986 5.263780 -2.081311
v -3.701845 5.263780 -5.857456
v -7.649545 5.263781 0.796703
v -10.359719 5.263781 3.506876
v -2.348617 5.263780 -4.504229
v -11.712945 5.263781 2.153651
v -10.593645 5.263781 1.034348
v -7.477986 5.263780 -2.081311
v -3.701845 5.263780 -5.857456
v -7.649545 5.263781 0.796703
v -10.359719 5.263781 3.506876
v -2.348617 5.263780 -4.504229
v -3.921272 5.150046 -5.638029
v -5.043729 9.553655 -4.515570
v -7.707394 11.324015 -1.851904
v -10.371059 9.553656 0.811763
v -11.493518 5.150048 1.934224
v -10.140292 5.150048 3.287449
v -9.017833 9.553656 2.164990
v -6.354166 11.324015 -0.498676
v -3.690501 9.553655 -3.162345
v -2.568044 5.150046 -4.284801
v -10.359719 5.263781 3.506876
v -2.348617 5.263780 -4.504229
v -3.701845 5.263780 -5.857456
v -2.348617 5.594281 -4.504229
v -11.712945 5.263781 2.153651
v -11.712945 5.594283 2.153651
v -10.593645 5.594282 1.034348
v -7.477986 5.594282 -2.081311
v -3.701845 5.594281 -5.857456
v -7.649545 5.594282 0.796703
v -10.359719 5.594283 3.506876
vn -0.0000 -0.0000 -1.0000
vn -0.0000 -0.0000 1.0000
vn -0.0000 1.0000 -0.0000
vn -1.0000 -0.0000 -0.0000
vn -0.7071 -0.0000 -0.7071
vn 1.0000 -0.0000 -0.0000
vn 0.7071 -0.0000 -0.7071
vn -0.0000 -1.0000 -0.0000
vn 0.7071 -0.0000 0.7071
vn -0.7071 -0.0000 0.7071
vn -0.0000 -0.0000 -0.0000
vn -0.5000 0.7071 0.5000
vn 0.2434 -0.9389 -0.2434
vn 0.6962 0.1748 -0.6962
vn -0.6962 0.1748 0.6962
vn -0.2434 -0.9389 0.2434
vn 0.5000 0.7071 -0.5000
vn 0.6652 -0.3391 -0.6652
vn -0.6652 -0.3391 0.6652
vn -0.3008 -0.9050 0.3008
vn 0.3008 -0.9050 -0.3008
vt 0.959085 0.024758
vt 0.892341 0.919761
vt 0.937495 0.987101
vt 0.959085 0.221986
vt 0.965481 0.944699
vt 0.919950 0.919761
vt 0.898834 0.485197
vt 0.892341 0.925269
vt 0.937495 0.944699
vt 0.898834 0.682424
vt 0.965481 0.987100
vt 0.919950 0.925269
vt 0.892341 0.985549
vt 0.880989 0.605540
vt 0.956640 0.944699
vt 0.880989 0.559087
vt 0.963024 0.955324
vt 0.991010 0.976477
vt 0.817186 0.559087
vt 0.984626 0.987100
vt 0.919950 0.985549
vt 0.817186 0.605540
vt 0.880989 0.462517
vt 0.892341 0.839380
vt 0.963024 0.977409
vt 0.892341 0.857717
vt 0.957201 0.987101
vt 0.985187 0.944699
vt 0.919950 0.857717
vt 0.817186 0.462517
vt 0.991010 0.954390
vt 0.919950 0.839380
vt 0.907146 0.682424
vt 0.965481 0.985888
vt 0.286425 0.947242
vt 0.950770 0.221986
vt 0.965481 0.945912
vt 0.540582 0.423314
vt 0.907147 0.485197
vt 0.937495 0.945912
vt 0.044087 0.947242
vt 0.950770 0.024758
vt 0.937495 0.985888
vt 0.304779 0.423314
vt 0.984870 0.945912
vt 0.540582 0.947202
vt 0.876765 0.617967
vt 0.990361 0.975871
vt 0.624458 0.037303
vt 0.541881 0.100312
vt 0.990361 0.955049
vt 0.624458 0.434747
vt 0.876765 0.817239
vt 0.984342 0.985888
vt 0.286425 0.425988
vt 0.541881 0.313806
vt 0.956356 0.945912
vt 0.044087 0.425988
vt 0.230861 0.313806
vt 0.048427 0.371491
vt 0.962375 0.976751
vt 0.936092 0.434747
vt 0.558531 0.817239
vt 0.956885 0.985888
vt 0.304779 0.947202
vt 0.558531 0.617967
vt 0.962375 0.955929
vt 0.936092 0.037303
vt 0.230861 0.100312
vt 0.048427 0.275085
vt 0.839889 0.571516
vt 0.920353 0.767239
vt 0.878795 0.571516
vt 0.868113 0.857472
vt 0.868113 0.915495
vt 0.860024 0.571516
vt 0.858660 0.571516
vt 0.920353 0.709215
vt 0.838574 0.572012
vt 0.158148 0.022904
vt 0.770212 0.935782
vt 0.860024 0.583640
vt 0.810779 0.935782
vt 0.884626 0.915495
vt 0.860024 0.582051
vt 0.858660 0.583640
vt 0.920352 0.623172
vt 0.858660 0.582051
vt 0.936866 0.709215
vt 0.878795 0.594175
vt 0.794266 0.993806
vt 0.878795 0.583640
vt 0.810779 0.993806
vt 0.878795 0.582051
vt 0.884626 0.857472
vt 0.831188 0.575197
vt 0.753955 0.942793
vt 0.839889 0.583640
vt 0.920352 0.681196
vt 0.839889 0.582051
vt 0.936866 0.767239
vt 0.838574 0.582296
vt 0.158148 0.022904
vt 0.828117 0.582919
vt 0.747193 0.959792
vt 0.838574 0.590780
vt 0.158148 0.022904
vt 0.860024 0.594175
vt 0.794266 0.935782
vt 0.858660 0.594175
vt 0.936865 0.623172
vt 0.839889 0.594175
vt 0.936865 0.681196
vt 0.838574 0.593829
vt 0.770212 0.983803
vt 0.158148 0.022904
vt 0.831188 0.590643
vt 0.753955 0.976791
vt 0.473624 0.173778
vt 0.158050 0.308260
vt 0.167472 0.332708
vt 0.431211 0.214933
vt 0.138898 0.326844
vt 0.167472 0.326142
vt 0.431211 0.207191
vt 0.138898 0.323348
vt 0.172907 0.344315
vt 0.181792 0.022904
vt 0.488601 0.211425
vt 0.956590 0.893395
vt 0.164813 0.325260
vt 0.339706 0.266287
vt 0.040529 0.372362
vt 0.097578 0.350034
vt 0.167472 0.376256
vt 0.431211 0.266287
vt 0.138898 0.350034
vt 0.333062 0.266287
vt 0.034895 0.372362
vt 0.094577 0.350034
vt 0.172907 0.374822
vt 0.437620 0.264596
vt 0.181792 0.022904
vt 0.956292 0.853129
vt 0.473624 0.249071
vt 0.950773 0.875718
vt 0.241558 0.155837
vt 0.053257 0.300158
vt 0.333062 0.155837
vt 0.094577 0.300158
vt 0.339706 0.155837
vt 0.097578 0.300158
vt 0.167472 0.282594
vt 0.431211 0.155837
vt 0.138898 0.300158
vt 0.172907 0.284643
vt 0.437620 0.158253
vt 0.181792 0.022904
vt 0.141792 0.301249
vt 0.053257 0.323348
vt 0.333062 0.214933
vt 0.034895 0.328814
vt 0.094577 0.326844
vt 0.333062 0.207191
vt 0.094577 0.323348
vt 0.339706 0.207191
vt 0.097578 0.323348
vt 0.339706 0.214933
vt 0.040529 0.328814
vt 0.097578 0.326844
vt 0.241558 0.266287
vt 0.053257 0.350034
vt 0.053257 0.326844
vt 0.851223 0.531949
vt 0.823865 0.531949
vt 0.851223 0.546391
vt 0.823865 0.546391
vt 0.790707 0.144222
vt 0.882340 0.954657
vt 0.657082 0.144222
vt 0.822120 0.954657
vt 0.790707 0.081177
vt 0.882340 0.922867
vt 0.657082 0.081177
vt 0.822120 0.922867
vt 0.851223 0.515222
vt 0.851223 0.529663
vt 0.823865 0.515222
vt 0.823865 0.529663
vt 0.657082 0.217241
vt 0.822120 0.991477
vt 0.657082 0.154196
vt 0.822120 0.959687
vt 0.790707 0.217241
vt 0.882340 0.991477
vt 0.790707 0.154196
vt 0.882340 0.959687
vt 0.958179 0.660884
vt 0.982730 0.053158
vt 0.824328 0.545620
vt 0.850760 0.545620
vt 0.981868 0.745321
vt 0.958179 0.579178
vt 0.950773 0.441435
vt 0.982730 0.024758
vt 0.824328 0.532718
vt 0.950773 0.359729
vt 0.981868 0.773721
vt 0.850760 0.532718
vt 0.981823 0.592054
vt 0.958179 0.469454
vt 0.850760 0.528894
vt 0.850760 0.515991
vt 0.950773 0.250004
vt 0.981823 0.620454
vt 0.950773 0.331710
vt 0.981867 0.688903
vt 0.824328 0.515991
vt 0.958179 0.551160
vt 0.981867 0.717301
vt 0.824328 0.528894
vt 0.881322 0.924562
vt 0.988117 0.745321
vt 0.950773 0.579178
vt 0.950773 0.660884
vt 0.988979 0.053158
vt 0.823138 0.924562
vt 0.958179 0.441435
vt 0.988979 0.024758
vt 0.823138 0.952962
vt 0.950773 0.551160
vt 0.988116 0.717301
vt 0.823138 0.961382
vt 0.958179 0.331710
vt 0.988116 0.688903
vt 0.823138 0.989782
vt 0.958179 0.250004
vt 0.988072 0.620454
vt 0.881322 0.989782
vt 0.988072 0.592054
vt 0.950773 0.469454
vt 0.881322 0.961382
vt 0.881322 0.952962
vt 0.958179 0.359729
vt 0.988117 0.773721
vt 0.989273 0.564036
vt 0.054276 0.314037
vt 0.883772 0.858902
vt 0.989273 0.536831
vt 0.868967 0.858902
vt 0.795119 0.992375
vt 0.981823 0.364021
vt 0.054276 0.340723
vt 0.809925 0.992375
vt 0.981823 0.391226
vt 0.809925 0.937212
vt 0.927803 0.822463
vt 0.795119 0.937212
vt 0.093559 0.340723
vt 0.927803 0.795258
vt 0.858198 0.593631
vt 0.989273 0.278994
vt 0.907567 0.725417
vt 0.936012 0.624602
vt 0.858198 0.584184
vt 0.989273 0.251788
vt 0.921206 0.624602
vt 0.989273 0.505242
vt 0.921206 0.679765
vt 0.907567 0.780579
vt 0.989273 0.478038
vt 0.936012 0.679765
vt 0.137879 0.314037
vt 0.989273 0.421029
vt 0.936012 0.765809
vt 0.989273 0.336002
vt 0.098596 0.314037
vt 0.936012 0.710645
vt 0.989273 0.308797
vt 0.921207 0.710645
vt 0.860487 0.572062
vt 0.868967 0.914064
vt 0.988385 0.880334
vt 0.883772 0.914064
vt 0.860487 0.581507
vt 0.093559 0.314037
vt 0.988385 0.853129
vt 0.989273 0.448234
vt 0.921207 0.765809
vt 0.901791 0.780579
vt 0.981823 0.479822
vt 0.137879 0.348835
vt 0.926983 0.679765
vt 0.981823 0.507027
vt 0.137879 0.328044
vt 0.137879 0.322149
vt 0.981823 0.422814
vt 0.137879 0.301357
vt 0.926983 0.765809
vt 0.981823 0.450019
vt 0.980934 0.854914
vt 0.093559 0.322149
vt 0.093559 0.301357
vt 0.874742 0.914064
vt 0.980934 0.882119
vt 0.874742 0.858902
vt 0.981823 0.535046
vt 0.054276 0.301357
vt 0.989274 0.365805
vt 0.054276 0.348835
vt 0.920352 0.797043
vt 0.093559 0.348835
vt 0.981823 0.277209
vt 0.901791 0.725417
vt 0.098596 0.348835
vt 0.098596 0.301357
vt 0.926983 0.710645
vt 0.981823 0.307012
vt 0.981823 0.334217
vt 0.098596 0.322149
vt 0.926983 0.624602
vt 0.981823 0.250004
vt 0.098596 0.328044
vt 0.804149 0.992375
vt 0.989274 0.393011
vt 0.054276 0.328043
vt 0.981823 0.562251
vt 0.054276 0.322149
vt 0.804149 0.937212
vt 0.920352 0.824248
vt 0.093559 0.328044
vt 0.158148 0.022904
vt 0.158148 0.022904
vt 0.158148 0.022904
vt 0.158148 0.022904
vt 0.181792 0.022904
vt 0.181792 0.022904
vt 0.181792 0.022904
vt 0.158148 0.022904
vt 0.133314 0.022905
vt 0.158148 0.022904
vt 0.133314 0.029614
vt 0.738017 0.981361
vt 0.981868 0.801739
vt 0.158148 0.022904
vt 0.738017 0.962685
vt 0.158148 0.022904
vt 0.981868 0.824375
vt 0.901791 0.808599
vt 0.181792 0.022904
vt 0.983920 0.188443
vt 0.901791 0.824844
vt 0.181792 0.022904
vt 0.983920 0.220218
vt 0.181792 0.022904
vt 0.158148 0.022904
vt 0.981823 0.648472
vt 0.982730 0.083522
vt 0.770622 0.937097
vt 0.982730 0.106791
vt 0.958224 0.823325
vt 0.754760 0.943825
vt 0.958224 0.802433
vt 0.748383 0.959792
vt 0.754760 0.975759
vt 0.982730 0.134809
vt 0.958224 0.781541
vt 0.770622 0.982487
vt 0.060001 0.023193
vt 0.982730 0.158078
vt 0.158148 0.022904
vt 0.181792 0.022904
vt 0.060001 0.033808
vt 0.988259 0.160424
vt 0.957290 0.853436
vt 0.988259 0.137154
vt 0.950773 0.783325
vt 0.951841 0.875411
vt 0.950773 0.804217
vt 0.957290 0.892042
vt 0.163622 0.325260
vt 0.988259 0.104445
vt 0.950773 0.825110
vt 0.157245 0.309293
vt 0.181792 0.022904
vt 0.141383 0.302565
vt 0.981823 0.659086
vt 0.988259 0.081176
vt 0.058793 0.033518
vt 0.109670 0.031016
vt 0.181792 0.022904
vt 0.983031 0.659376
vt 0.084836 0.022904
vt 0.181792 0.022904
vt 0.158148 0.022904
vt 0.983031 0.648761
vt 0.084836 0.031016
vt 0.950773 0.688903
vt 0.083645 0.022904
vt 0.982730 0.220218
vt 0.181792 0.022904
vt 0.058793 0.022904
vt 0.109670 0.022904
vt 0.158148 0.022904
vt 0.158148 0.022904
vt 0.958224 0.753522
vt 0.108480 0.022904
vt 0.134504 0.022905
vt 0.958224 0.744743
vt 0.134504 0.029614
vt 0.736827 0.981361
vt 0.983058 0.801739
vt 0.958224 0.720306
vt 0.736827 0.962685
vt 0.158148 0.022904
vt 0.983058 0.824375
vt 0.958224 0.690688
vt 0.083645 0.031016
vt 0.902981 0.808599
vt 0.950773 0.730480
vt 0.982730 0.188443
vt 0.902981 0.824844
vt 0.950773 0.751737
vt 0.108480 0.031016
vt 0.181792 0.022904
s 1
g Cube.141_m_yeşil
usemtl m_yeşil
f 6/16/1 7/19/1 73/177/1 72/176/1
f 71/175/1 73/177/1 7/19/1 12/30/1 9/23/1 6/16/1 72/176/1 70/174/1 79/187/1 78/186/1 80/188/1 81/189/1
f 79/187/1 70/174/1 71/175/1 81/189/1
f 4/10/2 3/7/2 15/39/2 13/33/2
f 1/1/2 2/4/2 14/36/2 16/42/2
f 17/45/3 14/37/3 2/5/3 11/28/3 12/31/3 7/18/3 8/20/3 4/11/3 13/34/3 20/54/3 18/48/3 19/51/3
f 3/8/4 4/12/4 8/21/4 5/13/4
f 36/94/5 26/73/5 6/16/5 5/14/5 34/90/5 35/92/5 30/82/5 43/108/5 44/110/5 32/86/5 38/98/5 45/112/5 46/114/5 42/106/5 40/102/5 39/100/5 33/88/5 28/77/5 27/76/5 31/85/5
f 43/108/5 34/90/5 5/14/5 8/22/5 7/19/5 6/16/5 26/73/5 27/76/5 28/77/5 25/71/5 39/100/5 40/102/5 29/79/5 37/96/5 41/104/5 47/117/5 46/114/5 45/112/5 44/110/5
f 10/26/6 11/29/6 2/6/6 1/2/6
f 9/24/7 12/32/7 11/29/7 10/26/7
f 58/148/9 59/150/9 123/303/9 124/308/9
f 67/170/9 49/123/9 119/295/9 130/323/9
f 59/150/9 65/165/9 122/302/9 123/303/9
f 50/126/9 66/167/9 129/320/9 120/296/9
f 66/167/9 60/152/9 128/316/9 129/320/9
f 60/152/9 61/155/9 121/298/9 128/316/9
f 61/155/9 50/126/9 120/296/9 121/298/9
f 146/352/9 145/349/9 167/419/9 168/422/9
f 74/179/2 75/181/2 96/230/2 101/243/2
f 76/183/2 74/179/2 101/243/2 94/222/2
f 77/185/2 76/183/2 94/222/2 95/227/2
f 85/197/2 84/195/2 99/239/2 100/242/2
f 88/204/4 89/207/4 101/244/4 96/228/4
f 101/245/3 89/208/3 87/202/3 94/223/3
f 86/198/6 95/225/6 94/224/6 87/203/6
f 86/199/8 88/205/8 96/229/8 95/226/8
f 92/216/4 91/214/4 99/237/4 98/234/4
f 99/238/3 91/215/3 90/210/3 100/240/3
f 93/219/6 97/231/6 100/241/6 90/211/6
f 93/220/8 92/217/8 98/235/8 97/232/8
f 75/181/2 77/185/2 95/227/2 96/230/2
f 83/193/2 85/197/2 100/242/2 97/233/2
f 82/191/2 83/193/2 97/233/2 98/236/2
f 84/195/2 82/191/2 98/236/2 99/239/2
f 105/254/10 131/324/10 133/329/10 106/256/10
f 105/255/3 104/252/3 125/309/3 131/325/3
f 107/259/7 126/312/7 125/310/7 104/253/7
f 107/260/8 106/257/8 133/330/8 126/311/8
f 103/250/10 124/306/10 123/304/10 115/282/10
f 103/249/3 102/246/3 132/327/3 124/307/3
f 116/286/7 122/302/7 132/328/7 102/247/7
f 116/287/8 115/283/8 123/305/8 122/301/8
f 109/267/10 130/321/10 119/293/10 110/269/10
f 109/266/3 108/262/3 127/313/3 130/322/3
f 111/270/7 118/290/7 127/314/7 108/263/7
f 111/271/8 110/268/8 119/294/8 118/291/8
f 114/280/10 128/317/10 121/299/10 117/289/10
f 114/279/3 113/276/3 129/319/3 128/318/3
f 112/273/7 120/296/7 129/320/7 113/277/7
f 120/297/8 112/274/8 117/288/8 121/300/8
f 68/172/9 69/173/9 131/326/9 125/310/9
f 63/160/9 58/148/9 124/308/9 132/328/9
f 55/140/9 68/172/9 125/310/9 126/312/9
f 65/165/9 63/160/9 132/328/9 122/302/9
f 69/173/9 64/163/9 133/331/9 131/326/9
f 54/137/9 53/134/9 127/315/9 118/292/9
f 64/163/9 55/140/9 126/312/9 133/331/9
f 49/123/9 54/137/9 118/292/9 119/295/9
f 53/134/9 67/170/9 130/323/9 127/315/9
f 62/159/9 48/120/9 156/384/9 157/386/9
f 157/387/13 148/357/13 160/396/14 159/392/14
f 152/369/16 153/373/16 158/389/15 162/402/15
f 151/366/18 154/376/18 153/374/18 152/370/18
f 156/382/19 149/360/19 148/358/19 157/388/19
f 155/379/20 150/363/20 149/361/20 156/383/20
f 154/377/21 151/367/21 150/363/21 155/379/21
f 167/420/3 161/398/3 166/417/3 165/413/3 164/409/3
f 167/420/3 164/409/3 163/406/3 168/423/3
f 162/403/12 158/390/12 168/424/10 163/407/10
f 159/393/17 160/397/17 166/418/7 161/399/7
f 145/351/9 147/354/9 161/400/9 167/421/9
f 57/146/9 56/144/9 153/375/9 154/378/9
f 52/130/9 57/146/9 154/378/9 155/380/9
f 48/120/9 52/131/9 155/381/9 156/384/9
g Cube.141_w_zümrüğt
usemtl w_zümrüğt
f 21/57/8 15/40/8 3/9/8 5/15/8 6/17/8 9/25/8 10/27/8 1/3/8 16/43/8 23/64/8 22/61/8 24/67/8
f 18/49/2 24/68/2 76/182/2 77/184/2
f 76/182/2 24/68/2 22/62/2 19/52/2 18/49/2 77/184/2 75/180/2 83/192/2 82/190/2 84/194/2 85/196/2 74/178/2
f 75/181/2 74/179/2 85/197/2 83/193/2
f 13/35/6 15/41/6 21/58/6 20/55/6
f 51/127/9 56/141/9 54/135/9 49/121/9 50/124/9 61/153/9 62/156/9
f 64/161/9 65/164/9 59/149/9 58/147/9 24/69/9 18/50/9 20/56/9 21/59/9 68/171/9 55/138/9 53/132/9 54/136/9 56/142/9 57/145/9 52/129/9 48/119/9 62/157/9 61/154/9 60/151/9 66/166/9 50/125/9 49/122/9 67/168/9
f 69/173/9 68/172/9 21/60/9 24/70/9 58/148/9 63/160/9 65/165/9 64/163/9
f 53/133/9 55/139/9 64/162/9 67/169/9
f 16/44/4 14/38/4 17/46/4 23/65/4
f 23/66/10 17/47/10 19/53/10 22/63/10
f 25/72/5 28/78/5 114/280/5 117/289/5
f 32/86/5 44/110/5 108/261/5 109/265/5
f 27/75/5 26/74/5 103/250/5 115/282/5
f 34/91/5 43/109/5 107/258/5 104/251/5
f 43/109/5 30/83/5 106/256/5 107/258/5
f 36/95/5 31/84/5 116/284/5 102/248/5
f 30/83/5 35/93/5 105/254/5 106/256/5
f 31/85/5 27/76/5 115/281/5 116/285/5
f 35/93/5 34/91/5 104/251/5 105/254/5
f 46/115/5 47/118/5 151/365/5 152/368/5
f 141/339/11 134/332/3 162/404/12 163/405/10
f 140/338/3 62/158/3 157/385/13 159/394/14
f 47/118/5 41/105/5 150/364/5 151/365/5
f 56/143/3 139/337/3 158/391/15 153/372/16
f 80/188/1 78/186/1 91/213/1 92/218/1
f 78/186/1 79/187/1 90/212/1 91/213/1
f 72/176/1 73/177/1 86/200/1 87/201/1
f 70/174/1 72/176/1 87/201/1 89/209/1
f 73/177/1 71/175/1 88/206/1 86/200/1
f 81/189/1 80/188/1 92/218/1 93/221/1
f 71/175/1 70/174/1 89/209/1 88/206/1
f 79/187/1 81/189/1 93/221/1 90/212/1
f 38/99/5 32/87/5 109/267/5 110/269/5
f 39/101/5 25/72/5 117/289/5 112/275/5
f 45/113/5 38/99/5 110/269/5 111/272/5
f 26/74/5 36/95/5 102/248/5 103/250/5
f 33/89/5 39/101/5 112/275/5 113/278/5
f 44/111/5 45/113/5 111/272/5 108/264/5
f 28/78/5 33/89/5 113/278/5 114/280/5
f 137/335/3 136/334/3 143/345/3 144/347/11
f 138/336/3 140/338/3 147/355/11 145/350/3
f 42/107/3 46/116/3 134/332/3 135/333/3
f 51/128/3 62/158/3 140/338/3 138/336/3
f 40/103/3 42/107/3 135/333/3 136/334/3
f 29/80/3 40/103/3 136/334/3 137/335/3
f 56/143/3 51/128/3 138/336/3 139/337/3
f 137/335/3 144/347/11 166/415/7 160/395/17
f 135/333/3 134/332/3 141/339/11 142/341/3
f 29/80/3 137/335/3 160/395/14 148/356/13
f 144/348/5 143/344/5 165/412/5 166/416/5
f 139/337/3 138/336/3 145/350/3 146/353/11
f 136/334/3 135/333/3 142/341/3 143/345/3
f 139/337/3 146/353/11 168/425/10 158/391/12
f 147/355/11 140/338/3 159/394/17 161/401/7
f 142/342/5 141/340/5 163/408/5 164/410/5
f 37/97/5 29/81/5 148/359/5 149/362/5
f 143/346/5 142/343/5 164/411/5 165/414/5
f 134/332/3 46/116/3 152/371/16 162/404/15
f 41/105/5 37/97/5 149/362/5 150/364/5
