# Blender 3.3.0
# www.blender.org
mtllib y_tablo.mtl
g Plane.015_Plane.014
v -4.730316 -8.105694 -0.310511
v 4.735838 -8.105694 -0.145836
v -4.730316 8.105694 -0.310510
v 4.735838 8.105694 -0.145835
v -4.735838 8.105694 0.145836
v -4.735838 -8.105694 0.145835
v 4.730316 -8.105694 0.310510
v 4.730316 8.105694 0.310511
v -4.730316 8.105694 -0.310510
v 4.735838 8.105694 -0.145835
v 4.730316 8.105694 0.310511
v -4.735838 8.105694 0.145836
v -4.730316 -8.105694 -0.310511
v -4.730316 8.105694 -0.310510
v 4.735838 8.105694 -0.145835
v 4.735838 -8.105694 -0.145836
v -4.735838 -8.105694 0.145835
v 4.730316 -8.105694 0.310510
v 4.730316 8.105694 0.310511
v -4.735838 8.105694 0.145836
v -4.730316 8.105694 -0.310510
v 4.735838 8.105694 -0.145835
v 4.730316 8.105694 0.310511
v -4.735838 8.105694 0.145836
v -4.730316 -8.105694 -0.310511
v -4.730316 8.105694 -0.310510
v 4.735838 8.105694 -0.145835
v 4.735838 -8.105694 -0.145836
v -4.735838 -8.105694 0.145835
v 4.730316 -8.105694 0.310510
v 4.730316 8.105694 0.310511
v -4.735838 8.105694 0.145836
v -4.730316 8.105694 -0.310510
v 4.735838 8.105694 -0.145835
v 4.730316 8.105694 0.310511
v -4.735838 8.105694 0.145836
v -4.730316 -8.105694 -0.310511
v -4.730316 8.105694 -0.310510
v 4.735838 8.105694 -0.145835
v 4.735838 -8.105694 -0.145836
v -4.735838 -8.105694 0.145835
v 4.730316 -8.105694 0.310510
v 4.730316 8.105694 0.310511
v -4.735838 8.105694 0.145836
v -4.730316 8.105694 -0.310510
v 4.735838 8.105694 -0.145835
v 4.730316 8.105694 0.310511
v -4.735838 8.105694 0.145836
v -5.006670 -8.373229 -0.313855
v -5.120481 8.105694 -0.315231
v 5.126004 8.105694 -0.141114
v 5.011262 -8.374133 -0.142503
v -5.011262 -8.374133 0.142502
v 5.006670 -8.373229 0.313854
v 5.120481 8.105694 0.315232
v -5.126004 8.105694 0.141114
v -4.730316 8.484686 -0.310510
v 4.735838 8.484686 -0.145835
v 4.730316 8.484686 0.310511
v -4.735838 8.484686 0.145836
vn 0.0174 -0.0000 -0.9998
vn -0.0174 -0.0000 0.9998
vn -0.0121 -0.0000 0.9999
vn -0.9921 -0.1251 -0.0120
vn 0.9999 -0.0000 0.0148
vn 0.0172 -0.0000 -0.9999
vn -0.6303 0.6435 0.4343
vn 0.0121 -0.0000 -0.9999
vn -0.0120 -0.1015 0.9948
vn 0.9999 -0.0069 0.0111
vn -0.9999 -0.0069 -0.0111
vn -0.0000 -1.0000 -0.0000
vn -0.0000 1.0000 -0.0000
vn -0.6196 0.6435 -0.4495
vn 0.6196 0.6435 0.4495
vn 0.6303 0.6435 -0.4343
vn -0.0172 -0.0000 0.9999
vt 0.507570 0.402748
vt 0.168450 0.809794
vt 0.949957 0.402839
vt 0.168450 0.809794
vt 0.507570 0.174289
vt 0.168450 0.809794
vt 0.949957 0.174380
vt 0.168450 0.809794
vt 0.462551 0.538507
vt 0.187595 0.809794
vt 0.999453 0.538507
vt 0.187595 0.809794
vt 0.999241 0.997074
vt 0.187595 0.809794
vt 0.462340 0.997074
vt 0.187595 0.809794
vt 0.168450 0.809794
vt 0.168450 0.809794
vt 0.187595 0.809794
vt 0.187595 0.809794
vt 0.168450 0.809794
vt 0.168450 0.809794
vt 0.168450 0.809794
vt 0.168450 0.809794
vt 0.187595 0.809794
vt 0.187595 0.809794
vt 0.187595 0.809794
vt 0.187595 0.809794
vt 0.168450 0.809794
vt 0.168450 0.809794
vt 0.187595 0.809794
vt 0.187595 0.809794
vt 0.168450 0.809794
vt 0.168450 0.809794
vt 0.168450 0.809794
vt 0.168450 0.809794
vt 0.187595 0.809794
vt 0.187595 0.809794
vt 0.187595 0.809794
vt 0.187595 0.809794
vt 0.168450 0.809794
vt 0.168450 0.809794
vt 0.187595 0.809794
vt 0.187595 0.809794
vt 0.168450 0.809794
vt 0.025945 0.252293
vt 0.168450 0.809794
vt 0.025672 0.023834
vt 0.168450 0.809794
vt 0.468060 0.023822
vt 0.168450 0.809794
vt 0.468332 0.252281
vt 0.187595 0.809794
vt 0.468331 0.502579
vt 0.187595 0.809794
vt 0.025944 0.502591
vt 0.187595 0.809794
vt 0.025672 0.274132
vt 0.187595 0.809794
vt 0.468060 0.274120
vt 0.168450 0.809794
vt 0.025672 0.023834
vt 0.168450 0.809794
vt 0.468060 0.023822
vt 0.187595 0.809794
vt 0.025672 0.274132
vt 0.187595 0.809794
vt 0.468060 0.274120
vt 0.969102 0.174302
vt 0.127981 0.947025
vt 0.013035 0.256064
vt 0.969102 0.406537
vt 0.087511 0.809794
vt 0.007440 0.023834
vt 0.143729 0.542482
vt 0.087418 0.950070
vt 0.486292 0.023821
vt 0.481208 0.256064
vt 0.143729 0.774729
vt 0.127981 0.809878
vt 0.990427 0.174289
vt 0.149305 0.946941
vt 0.481206 0.506362
vt 0.165054 0.774717
vt 0.149305 0.809794
vt 0.013034 0.506362
vt 0.165054 0.542482
vt 0.108743 0.950142
vt 0.007440 0.274132
vt 0.486292 0.274119
vt 0.990427 0.406537
vt 0.108836 0.809866
vt 0.087418 0.815135
vt 0.025666 0.018493
vt 0.087511 0.944729
vt 0.468053 0.018481
vt 0.108836 0.944801
vt 0.025666 0.268791
vt 0.468053 0.268779
vt 0.108743 0.815207
s 1
g Plane.015_tablo_yeşil
usemtl tablo_yeşil
f 1/1/1 3/5/1 4/7/1 2/3/1
f 6/11/2 7/13/2 8/15/2 5/9/2
f 2/4/3 4/8/3 15/23/3 16/24/3
f 4/8/3 10/18/3 22/30/3 15/23/3
f 5/10/3 8/16/3 11/19/3 12/20/3
f 10/18/3 9/17/3 21/29/3 22/30/3
f 8/16/3 7/14/3 18/26/3 19/27/3
f 9/17/3 3/6/3 14/22/3 21/29/3
f 4/8/3 3/6/3 9/17/3 10/18/3
f 7/14/3 6/12/3 17/25/3 18/26/3
f 18/26/3 17/25/3 29/37/3 30/38/3
f 21/29/3 14/22/3 26/34/3 33/41/3
f 13/21/3 16/24/3 28/36/3 25/33/3
f 17/25/3 20/28/3 32/40/3 29/37/3
f 20/28/3 24/32/3 36/44/3 32/40/3
f 16/24/3 15/23/3 27/35/3 28/36/3
f 11/19/3 8/16/3 19/27/3 23/31/3
f 12/20/3 11/19/3 23/31/3 24/32/3
f 1/2/3 2/4/3 16/24/3 13/21/3
f 5/10/3 12/20/3 24/32/3 20/28/3
f 3/6/3 1/2/3 13/21/3 14/22/3
f 6/12/3 5/10/3 20/28/3 17/25/3
f 33/41/3 26/34/3 38/47/4 45/61/5
f 25/33/3 28/36/3 40/51/3 37/45/3
f 29/37/3 32/40/3 44/59/3 41/53/3
f 32/40/3 36/44/3 48/67/3 44/59/3
f 28/36/3 27/35/3 39/49/3 40/51/3
f 36/44/3 35/43/3 47/65/3 48/67/3
f 22/30/3 21/29/3 33/41/3 34/42/3
f 15/23/3 22/30/3 34/42/3 27/35/3
f 14/22/3 13/21/3 25/33/3 26/34/3
f 23/31/3 19/27/3 31/39/3 35/43/3
f 19/27/3 18/26/3 30/38/3 31/39/3
f 24/32/3 23/31/3 35/43/3 36/44/3
f 37/46/6 40/52/6 52/78/6 49/71/6
f 40/52/8 39/50/8 51/77/8 52/78/8
f 30/38/3 29/37/3 41/53/3 42/55/3
f 34/42/3 33/41/3 45/61/3 46/63/3
f 27/35/3 34/42/3 46/63/5 39/49/9
f 26/34/3 25/33/3 37/45/3 38/47/3
f 35/43/3 31/39/3 43/57/3 47/65/3
f 31/39/3 30/38/3 42/55/3 43/57/3
f 45/62/5 38/48/4 50/74/14 57/94/14
f 46/64/1 45/62/1 57/94/1 58/96/1
f 39/50/9 46/64/5 58/96/16 51/77/16
f 38/48/8 37/46/8 49/71/8 50/74/8
g Plane.015_m_yeşil
usemtl m_yeşil
f 41/54/3 44/60/3 56/90/3 53/83/3
f 44/60/3 48/68/3 60/99/7 56/90/7
f 48/68/2 47/66/2 59/98/2 60/99/2
f 43/58/3 42/56/3 54/86/3 55/89/3
f 52/79/10 51/75/10 55/87/10 54/84/10
f 50/72/11 49/69/11 53/81/11 56/91/11
f 49/70/12 52/80/12 54/85/12 53/82/12
f 58/95/13 57/93/13 60/100/13 59/97/13
f 50/73/14 56/92/7 60/100/7 57/93/14
f 55/88/15 51/76/16 58/95/16 59/97/15
f 42/56/17 41/54/17 53/83/17 54/86/17
f 47/66/3 43/58/3 55/89/15 59/98/15
