# Blender 3.3.0
# www.blender.org
mtllib y_tabure.mtl
g chair.014_Cube.190
v -0.074612 -7.763619 4.148153
v -0.263232 1.934939 1.649013
v 0.105412 -7.878273 3.714671
v 0.013360 1.758789 0.983042
v 0.373773 -7.716571 4.321926
v 0.425649 2.007216 1.916007
v 0.553809 -7.831234 3.888434
v 0.702243 1.831064 1.250020
v -3.280956 -7.762920 -1.488196
v -1.124910 1.994613 -0.791561
v -2.843425 -7.878122 -1.318625
v -0.452697 1.817617 -0.531060
v -3.455565 -7.762917 -1.037661
v -1.393164 1.994612 -0.099400
v -3.018014 -7.878125 -0.868098
v -0.720961 1.817621 0.161128
v 3.203001 -7.716566 -2.978177
v 1.619982 2.007223 -1.165665
v 3.043891 -7.831223 -2.536588
v 1.375534 1.831070 -0.487238
v 2.754610 -7.763611 -3.151954
v 0.931101 1.934944 -1.432658
v 2.595500 -7.878266 -2.710366
v 0.686646 1.758798 -0.754202
v 1.305020 1.737355 -3.561844
v 1.305022 2.498320 -3.561849
v 3.682370 1.737354 -0.606676
v 3.682366 2.498324 -0.606667
v 2.311787 1.737355 2.929763
v 2.311784 2.498323 2.929772
v -1.436145 1.737356 3.511034
v -1.436143 2.498322 3.511029
v -3.813489 1.737355 0.555851
v -3.813492 2.498323 0.555860
v -2.442906 1.737354 -2.980588
v -2.442909 2.498324 -2.980579
v -0.933094 2.500322 0.041363
v -0.933095 5.147776 0.041363
v -0.358766 2.500323 -1.440546
v -0.358766 5.147776 -1.440545
v 0.548817 2.500322 0.615693
v 0.548817 5.147776 0.615693
v 1.123146 2.500323 -0.866216
v 1.123146 5.147776 -0.866215
v -0.472135 6.309048 -0.253123
v -0.472135 6.452067 -0.253122
v 0.158728 6.309048 -0.939595
v 0.158728 6.452067 -0.939595
v 0.337251 6.309048 0.060563
v 0.337251 6.452067 0.060563
v 0.333774 6.309048 -0.871754
v 0.333774 6.452067 -0.871754
v 0.037108 5.930077 -0.366051
v 0.037108 6.352951 -0.366050
v 0.089563 5.930077 -0.300849
v 0.089563 6.352951 -0.300849
v 0.059329 5.930077 -0.222839
v 0.059329 6.352951 -0.222839
v -0.023365 5.930077 -0.210016
v -0.023365 6.352952 -0.210016
v -0.075808 5.930077 -0.275213
v -0.075808 6.352951 -0.275213
v -0.045575 5.930077 -0.353223
v -0.045575 6.352951 -0.353223
v 0.088510 5.147772 -0.498681
v 0.088510 5.930077 -0.498681
v 0.230113 5.147772 -0.322654
v 0.230113 5.930077 -0.322653
v 0.148477 5.147772 -0.112014
v 0.148477 5.930077 -0.112013
v -0.074761 5.147772 -0.077400
v -0.074761 5.930077 -0.077400
v -0.216373 5.147772 -0.253415
v -0.216373 5.930077 -0.253415
v -0.134737 5.147772 -0.464055
v -0.134737 5.930077 -0.464055
vn -0.9279 -0.1099 -0.3563
vn 0.3726 -0.2498 -0.8938
vn 0.9279 0.0849 0.3629
vn -0.3725 0.2248 0.9004
vn 0.0020 -0.9665 0.2565
vn -0.0020 0.9665 -0.2565
vn 0.3584 -0.0126 -0.9335
vn 0.9026 -0.2510 0.3498
vn -0.3642 -0.0126 0.9312
vn -0.9083 0.2258 -0.3520
vn -0.2223 -0.9712 -0.0862
vn 0.2223 0.9712 0.0862
vn 0.9302 0.0849 0.3572
vn -0.3270 -0.2498 0.9114
vn -0.9257 -0.1099 -0.3620
vn 0.3315 0.2248 -0.9163
vn 0.1743 -0.9665 -0.1881
vn -0.1743 0.9665 0.1881
vn 0.7792 -0.0000 -0.6268
vn 0.9324 -0.0000 0.3614
vn 0.1533 -0.0000 0.9882
vn -0.7792 -0.0000 0.6268
vn -0.0000 1.0000 -0.0000
vn -0.9324 -0.0000 -0.3614
vn -0.1533 -0.0000 -0.9882
vn -0.0000 -1.0000 -0.0000
vn 0.3614 -0.0000 -0.9324
vn -0.3614 -0.0000 0.9324
vn -0.7363 -0.0000 -0.6767
vn 1.0000 -0.0000 -0.0037
vn 0.1532 -0.0000 0.9882
vn -0.7791 -0.0000 0.6269
s 1
g chair.014_m_beyaz
usemtl m_beyaz
f 1//1 2//1 4//1 3//1
f 3//2 4//2 8//2 7//2
f 7//3 8//3 6//3 5//3
f 3//5 7//5 5//5 1//5
f 8//6 4//6 2//6 6//6
f 9//7 10//7 12//7 11//7
f 15//9 16//9 14//9 13//9
f 13//10 14//10 10//10 9//10
f 11//11 15//11 13//11 9//11
f 16//12 12//12 10//12 14//12
f 19//14 20//14 24//14 23//14
f 23//15 24//15 22//15 21//15
f 21//16 22//16 18//16 17//16
f 19//17 23//17 21//17 17//17
f 24//18 20//18 18//18 22//18
f 28//23 26//23 36//23 34//23 32//23 30//23
f 25//26 27//26 29//26 31//26 33//26 35//26
g chair.014_m_yeşil
usemtl m_yeşil
f 5//4 6//4 2//4 1//4
f 11//8 12//8 16//8 15//8
f 17//13 18//13 20//13 19//13
f 25//19 26//19 28//19 27//19
f 27//20 28//20 30//20 29//20
f 29//21 30//21 32//21 31//21
f 31//22 32//22 34//22 33//22
f 33//24 34//24 36//24 35//24
f 35//25 36//25 26//25 25//25
f 37//24 38//24 40//24 39//24
f 39//27 40//27 44//27 43//27
f 43//20 44//20 42//20 41//20
f 41//28 42//28 38//28 37//28
f 39//26 43//26 41//26 37//26
f 44//23 40//23 38//23 42//23
g chair.014_m_white
usemtl m_white
f 45//29 46//29 48//29 47//29
f 47//27 48//27 52//27 51//27
f 51//30 52//30 50//30 49//30
f 49//28 50//28 46//28 45//28
f 47//26 51//26 49//26 45//26
f 52//23 48//23 46//23 50//23
f 53//19 54//19 56//19 55//19
f 55//20 56//20 58//20 57//20
f 57//31 58//31 60//31 59//31
f 59//22 60//22 62//22 61//22
f 56//23 54//23 64//23 62//23 60//23 58//23
f 61//24 62//24 64//24 63//24
f 63//25 64//25 54//25 53//25
f 53//26 55//26 57//26 59//26 61//26 63//26
f 65//19 66//19 68//19 67//19
f 67//20 68//20 70//20 69//20
f 69//31 70//31 72//31 71//31
f 71//32 72//32 74//32 73//32
f 68//23 66//23 76//23 74//23 72//23 70//23
f 73//24 74//24 76//24 75//24
f 75//25 76//25 66//25 65//25
f 65//26 67//26 69//26 71//26 73//26 75//26
