# Blender 3.3.0
# www.blender.org
mtllib p_platform.mtl
g Circle.018_Circle.018
v 0.000006 -0.000003 18.666170
v 13.198980 -0.000002 13.198971
v 18.666170 0.000000 -0.000006
v 13.198971 0.000002 -13.198980
v -0.000006 0.000003 -18.666170
v -13.198980 0.000002 -13.198971
v -18.666170 0.000000 0.000006
v -13.198971 -0.000002 13.198980
v 13.198980 0.597630 13.198971
v 0.000006 0.597629 18.666170
v 18.666170 0.597632 -0.000006
v 13.198971 0.597634 -13.198980
v -0.000006 0.597635 -18.666170
v -13.198980 0.597634 -13.198971
v -18.666170 0.597632 0.000006
v -13.198971 0.597630 13.198980
v -0.000004 0.595693 14.890630
v 10.529261 0.595694 10.529262
v 14.890621 0.595695 -0.000005
v 10.529253 0.595697 -10.529269
v -0.000014 0.595698 -14.890630
v -10.529278 0.595697 -10.529262
v -14.890639 0.595695 0.000005
v -10.529270 0.595694 10.529269
v 10.529261 1.072445 10.529262
v -0.000004 1.072444 14.890630
v 14.890621 1.072446 -0.000005
v 10.529253 1.072448 -10.529269
v -0.000014 1.072449 -14.890630
v -10.529278 1.072448 -10.529262
v -14.890639 1.072446 0.000005
v -10.529270 1.072445 10.529269
vn -0.0000 -1.0000 -0.0000
vn -0.0000 1.0000 -0.0000
vn -0.9239 -0.0000 0.3827
vn -0.3827 -0.0000 -0.9239
vn 0.9239 -0.0000 -0.3827
vn 0.3827 -0.0000 0.9239
vn -0.3827 -0.0000 0.9239
vn -0.9239 -0.0000 -0.3827
vn 0.3827 -0.0000 -0.9239
vn 0.9239 -0.0000 0.3827
vt 0.000000 0.000000
vt 0.000000 0.000000
vt 0.000000 0.000000
vt 0.000000 0.000000
vt 0.000000 0.000000
vt 0.000000 0.000000
vt 0.000000 0.000000
vt 0.000000 0.000000
vt 0.000000 0.000000
vt 0.000000 0.000000
vt 0.000000 0.000000
vt 0.000000 0.000000
vt 0.000000 0.000000
vt 0.000000 0.000000
vt 0.000000 0.000000
vt 0.000000 0.000000
vt 0.000000 0.000000
vt 0.000000 0.000000
vt 0.000000 0.000000
vt 0.000000 0.000000
vt 0.000000 0.000000
vt 0.000000 0.000000
vt 0.000000 0.000000
vt 0.000000 0.000000
vt 0.000000 0.000000
vt 0.000000 0.000000
vt 0.000000 0.000000
vt 0.000000 0.000000
vt 0.000000 0.000000
vt 0.000000 0.000000
vt 0.000000 0.000000
vt 0.000000 0.000000
s 1
g Circle.018_m_pembe
usemtl m_pembe
f 2/2/1 1/1/1 8/8/1 7/7/1 6/6/1 5/5/1 4/4/1 3/3/1
f 9/9/2 11/11/2 12/12/2 13/13/2 14/14/2 15/15/2 16/16/2 10/10/2
f 18/18/1 17/17/1 24/24/1 23/23/1 22/22/1 21/21/1 20/20/1 19/19/1
f 25/25/2 27/27/2 28/28/2 29/29/2 30/30/2 31/31/2 32/32/2 26/26/2
f 23/23/3 24/24/3 32/32/3 31/31/3
f 21/21/4 22/22/4 30/30/4 29/29/4
f 19/19/5 20/20/5 28/28/5 27/27/5
f 17/17/6 18/18/6 25/25/6 26/26/6
f 24/24/7 17/17/7 26/26/7 32/32/7
f 22/22/8 23/23/8 31/31/8 30/30/8
f 20/20/9 21/21/9 29/29/9 28/28/9
f 18/18/10 19/19/10 27/27/10 25/25/10
g Circle.018_
usemtl 
f 7/7/3 8/8/3 16/16/3 15/15/3
f 5/5/4 6/6/4 14/14/4 13/13/4
f 3/3/5 4/4/5 12/12/5 11/11/5
f 1/1/6 2/2/6 9/9/6 10/10/6
f 8/8/7 1/1/7 10/10/7 16/16/7
f 6/6/8 7/7/8 15/15/8 14/14/8
f 4/4/9 5/5/9 13/13/9 12/12/9
f 2/2/10 3/3/10 11/11/10 9/9/10
