# Blender 3.3.0
# www.blender.org
mtllib p_tablo.mtl
g Plane.014_Plane.013
v -4.730316 -8.345268 -0.310511
v 4.735838 -8.345268 -0.145836
v -4.730316 8.345268 -0.310510
v 4.735838 8.345268 -0.145835
v -4.735838 8.345268 0.145836
v -4.735838 -8.345268 0.145835
v 4.730316 -8.345268 0.310510
v 4.730316 8.345268 0.310511
v -4.730316 8.345268 -0.310510
v 4.735838 8.345268 -0.145835
v 4.730316 8.345268 0.310511
v -4.735838 8.345268 0.145836
v -4.730316 -8.345268 -0.310511
v -4.730316 8.345268 -0.310510
v 4.735838 8.345268 -0.145835
v 4.735838 -8.345268 -0.145836
v -4.735838 -8.345268 0.145835
v 4.730316 -8.345268 0.310510
v 4.730316 8.345268 0.310511
v -4.735838 8.345268 0.145836
v -4.730316 8.345268 -0.310510
v 4.735838 8.345268 -0.145835
v 4.730316 8.345268 0.310511
v -4.735838 8.345268 0.145836
v -4.730316 -8.345268 -0.310511
v -4.730316 8.345268 -0.310510
v 4.735838 8.345268 -0.145835
v 4.735838 -8.345268 -0.145836
v -4.735838 -8.345268 0.145835
v 4.730316 -8.345268 0.310510
v 4.730316 8.345268 0.310511
v -4.735838 8.345268 0.145836
v -4.730316 8.345268 -0.310510
v 4.735838 8.345268 -0.145835
v 4.730316 8.345268 0.310511
v -4.735838 8.345268 0.145836
v -4.730316 -8.345268 -0.310511
v -4.730316 8.345268 -0.310510
v 4.735838 8.345268 -0.145835
v 4.735838 -8.345268 -0.145836
v -4.735838 -8.345268 0.145835
v 4.730316 -8.345268 0.310510
v 4.730316 8.345268 0.310511
v -4.735838 8.345268 0.145836
v -4.730316 8.345268 -0.310510
v 4.735838 8.345268 -0.145835
v 4.730316 8.345268 0.310511
v -4.735838 8.345268 0.145836
v -5.006670 -8.620711 -0.313855
v -5.120481 8.345268 -0.315231
v 5.126004 8.345268 -0.141114
v 5.011262 -8.621641 -0.142503
v -5.011262 -8.621641 0.142502
v 5.006670 -8.620711 0.313854
v 5.120481 8.345268 0.315232
v -5.126004 8.345268 0.141114
v -4.730316 8.735462 -0.310510
v 4.735838 8.735462 -0.145835
v 4.730316 8.735462 0.310511
v -4.735838 8.735462 0.145836
vn 0.0174 -0.0000 -0.9998
vn -0.0174 -0.0000 0.9998
vn -0.0121 -0.0000 0.9999
vn -0.9925 -0.1215 -0.0120
vn 0.9999 -0.0000 0.0148
vn 0.0172 -0.0000 -0.9999
vn -0.6378 0.6325 0.4395
vn 0.0121 -0.0000 -0.9999
vn -0.0120 -0.0986 0.9951
vn 0.9999 -0.0067 0.0111
vn -0.9999 -0.0067 -0.0111
vn -0.0000 -1.0000 -0.0000
vn -0.0000 1.0000 -0.0000
vn -0.6270 0.6325 -0.4548
vn 0.6270 0.6325 0.4548
vn 0.6378 0.6325 -0.4395
vn -0.0172 -0.0000 0.9999
vt 0.000000 0.000000
vt 1.000000 0.000000
vt 0.000000 1.000000
vt 1.000000 1.000000
vt 0.000000 1.000000
vt 0.000000 0.000000
vt 1.000000 0.000000
vt 1.000000 1.000000
vt 0.000000 1.000000
vt 1.000000 1.000000
vt 1.000000 1.000000
vt 0.000000 1.000000
vt 0.000000 0.000000
vt 0.000000 1.000000
vt 1.000000 1.000000
vt 1.000000 0.000000
vt 0.000000 0.000000
vt 1.000000 0.000000
vt 1.000000 1.000000
vt 0.000000 1.000000
vt 0.000000 1.000000
vt 1.000000 1.000000
vt 1.000000 1.000000
vt 0.000000 1.000000
vt 0.000000 0.000000
vt 0.000000 1.000000
vt 1.000000 1.000000
vt 1.000000 0.000000
vt 0.000000 0.000000
vt 1.000000 0.000000
vt 1.000000 1.000000
vt 0.000000 1.000000
vt 0.000000 1.000000
vt 1.000000 1.000000
vt 1.000000 1.000000
vt 0.000000 1.000000
vt 0.000000 0.000000
vt 0.000000 1.000000
vt 1.000000 1.000000
vt 1.000000 0.000000
vt 0.000000 0.000000
vt 1.000000 0.000000
vt 1.000000 1.000000
vt 0.000000 1.000000
vt 0.000000 1.000000
vt 1.000000 1.000000
vt 1.000000 1.000000
vt 0.000000 1.000000
vt 0.000000 0.000000
vt 0.000000 1.000000
vt 1.000000 1.000000
vt 1.000000 0.000000
vt 0.000000 0.000000
vt 1.000000 0.000000
vt 1.000000 1.000000
vt 0.000000 1.000000
vt 0.000000 1.000000
vt 1.000000 1.000000
vt 1.000000 1.000000
vt 0.000000 1.000000
s 1
g Plane.014_tablo_pembe
usemtl tablo_pembe
f 1/1/1 3/3/1 4/4/1 2/2/1
f 6/6/2 7/7/2 8/8/2 5/5/2
f 2/2/3 4/4/3 15/15/3 16/16/3
f 4/4/3 10/10/3 22/22/3 15/15/3
f 5/5/3 8/8/3 11/11/3 12/12/3
f 10/10/3 9/9/3 21/21/3 22/22/3
f 8/8/3 7/7/3 18/18/3 19/19/3
f 9/9/3 3/3/3 14/14/3 21/21/3
f 4/4/3 3/3/3 9/9/3 10/10/3
f 7/7/3 6/6/3 17/17/3 18/18/3
f 18/18/3 17/17/3 29/29/3 30/30/3
f 21/21/3 14/14/3 26/26/3 33/33/3
f 13/13/3 16/16/3 28/28/3 25/25/3
f 17/17/3 20/20/3 32/32/3 29/29/3
f 20/20/3 24/24/3 36/36/3 32/32/3
f 16/16/3 15/15/3 27/27/3 28/28/3
f 11/11/3 8/8/3 19/19/3 23/23/3
f 12/12/3 11/11/3 23/23/3 24/24/3
f 1/1/3 2/2/3 16/16/3 13/13/3
f 5/5/3 12/12/3 24/24/3 20/20/3
f 3/3/3 1/1/3 13/13/3 14/14/3
f 6/6/3 5/5/3 20/20/3 17/17/3
f 33/33/3 26/26/3 38/38/4 45/45/5
f 25/25/3 28/28/3 40/40/3 37/37/3
f 29/29/3 32/32/3 44/44/3 41/41/3
f 32/32/3 36/36/3 48/48/3 44/44/3
f 28/28/3 27/27/3 39/39/3 40/40/3
f 36/36/3 35/35/3 47/47/3 48/48/3
f 22/22/3 21/21/3 33/33/3 34/34/3
f 15/15/3 22/22/3 34/34/3 27/27/3
f 14/14/3 13/13/3 25/25/3 26/26/3
f 23/23/3 19/19/3 31/31/3 35/35/3
f 19/19/3 18/18/3 30/30/3 31/31/3
f 24/24/3 23/23/3 35/35/3 36/36/3
f 37/37/6 40/40/6 52/52/6 49/49/6
f 40/40/8 39/39/8 51/51/8 52/52/8
f 30/30/3 29/29/3 41/41/3 42/42/3
f 34/34/3 33/33/3 45/45/3 46/46/3
f 27/27/3 34/34/3 46/46/5 39/39/9
f 26/26/3 25/25/3 37/37/3 38/38/3
f 35/35/3 31/31/3 43/43/3 47/47/3
f 31/31/3 30/30/3 42/42/3 43/43/3
f 45/45/5 38/38/4 50/50/14 57/57/14
f 46/46/1 45/45/1 57/57/1 58/58/1
f 39/39/9 46/46/5 58/58/16 51/51/16
f 38/38/8 37/37/8 49/49/8 50/50/8
g Plane.014_m_koyupembe
usemtl m_koyupembe
f 41/41/3 44/44/3 56/56/3 53/53/3
f 44/44/3 48/48/3 60/60/7 56/56/7
f 48/48/2 47/47/2 59/59/2 60/60/2
f 43/43/3 42/42/3 54/54/3 55/55/3
f 52/52/10 51/51/10 55/55/10 54/54/10
f 50/50/11 49/49/11 53/53/11 56/56/11
f 49/49/12 52/52/12 54/54/12 53/53/12
f 58/58/13 57/57/13 60/60/13 59/59/13
f 50/50/14 56/56/7 60/60/7 57/57/14
f 55/55/15 51/51/16 58/58/16 59/59/15
f 42/42/17 41/41/17 53/53/17 54/54/17
f 47/47/3 43/43/3 55/55/15 59/59/15
