# Blender 3.3.0
# www.blender.org
mtllib s_sandalye.mtl
g Cube.100_Mesh
v -273.889252 9.394403 257.333740
v -273.969635 9.864603 257.333740
v -273.889252 9.394403 252.878342
v -273.969635 9.864602 252.878342
v -273.687103 9.428965 257.333740
v -273.767487 9.899164 257.333740
v -273.687103 9.428964 252.878342
v -273.767487 9.899163 252.878342
v -274.270752 1.848869 257.620605
v -274.270752 1.848869 257.127869
v -273.778046 1.848869 257.620605
v -273.778046 1.848869 257.127869
v -274.830811 14.441192 257.620605
v -274.830811 14.441191 257.127869
v -274.385254 14.526416 257.620605
v -274.385254 14.526416 257.127869
v -273.905182 6.127365 257.620605
v -273.996704 8.950453 257.620605
v -273.874939 6.777963 257.620605
v -273.881714 7.542930 257.620605
v -273.924469 8.305806 257.620605
v -273.996704 8.950453 257.127869
v -273.905182 6.127365 257.127869
v -273.924469 8.305806 257.127869
v -273.881714 7.542930 257.127869
v -273.874939 6.777963 257.127869
v -273.510864 8.950381 257.620605
v -273.412476 6.127365 257.620605
v -273.435974 8.305763 257.620605
v -273.390991 7.542909 257.620605
v -273.382721 6.777957 257.620605
v -273.510864 8.950381 257.127869
v -273.412476 6.127365 257.127869
v -273.435974 8.305763 257.127869
v -273.390991 7.542909 257.127869
v -273.382721 6.777957 257.127869
v -269.060394 1.793033 257.886932
v -269.060394 1.793032 257.394196
v -268.567657 1.793034 257.886932
v -268.567657 1.793033 257.394196
v -268.567657 7.874449 257.394196
v -268.567657 7.874449 257.886932
v -269.060394 7.874450 257.394196
v -269.060394 7.874450 257.886932
v -273.727417 3.759307 257.557831
v -273.727417 3.759307 257.190643
v -273.727417 3.392129 257.557831
v -273.727417 3.392129 257.190643
v -268.916504 3.560804 257.456970
v -268.916504 3.560804 257.824158
v -268.916504 3.927982 257.456970
v -268.916504 3.927982 257.824158
v -274.270752 1.848868 252.591476
v -274.270752 1.848869 253.084198
v -273.778046 1.848868 252.591476
v -273.778046 1.848868 253.084198
v -274.830811 14.441191 252.591476
v -274.830811 14.441191 253.084198
v -274.385254 14.526415 252.591476
v -274.385254 14.526415 253.084198
v -273.905182 6.127364 252.591476
v -273.996704 8.950451 252.591476
v -273.874939 6.777962 252.591476
v -273.881714 7.542930 252.591476
v -273.924469 8.305806 252.591476
v -273.996704 8.950451 253.084198
v -273.905182 6.127364 253.084198
v -273.924469 8.305806 253.084198
v -273.881714 7.542930 253.084198
v -273.874939 6.777963 253.084198
v -273.510864 8.950380 252.591476
v -273.412476 6.127364 252.591476
v -273.435974 8.305762 252.591476
v -273.390991 7.542909 252.591476
v -273.382751 6.777957 252.591476
v -273.510864 8.950380 253.084198
v -273.412476 6.127364 253.084198
v -273.435974 8.305763 253.084198
v -273.390991 7.542909 253.084198
v -273.382751 6.777957 253.084198
v -269.060394 1.793031 252.325150
v -269.060394 1.793032 252.817871
v -268.567657 1.793032 252.325150
v -268.567657 1.793032 252.817871
v -268.567657 7.874448 252.817871
v -268.567657 7.874448 252.325150
v -269.060394 7.874448 252.817871
v -269.060394 7.874448 252.325150
v -273.727417 3.759306 252.654251
v -273.727417 3.759306 253.021423
v -273.727417 3.392128 252.654251
v -273.727417 3.392128 253.021423
v -268.916504 3.560802 252.755096
v -268.916504 3.560802 252.387924
v -268.916504 3.927981 252.755096
v -268.916504 3.927981 252.387924
v -273.801971 7.695630 257.432617
v -273.801971 7.991395 257.432617
v -268.391846 7.875295 258.057770
v -268.391846 8.171061 258.057770
v -273.801971 7.695629 252.779465
v -273.801971 7.991394 252.779465
v -268.391876 7.875294 252.154312
v -268.391876 8.171060 252.154312
v -273.801971 7.695630 255.106033
v -273.801971 7.991394 255.106033
v -268.391846 7.875295 255.106033
v -268.391846 8.171060 255.106033
v -274.540314 13.533857 257.333740
v -274.664276 14.258924 257.333740
v -274.540344 13.533857 252.878342
v -274.664276 14.258923 252.878342
v -274.336456 13.568716 257.333740
v -274.460419 14.293781 257.333740
v -274.336456 13.568715 252.878342
v -274.460419 14.293781 252.878342
v -273.883026 9.755613 255.802963
v -273.883026 9.755613 256.228699
v -274.528412 13.731925 255.802963
v -274.528412 13.731925 256.228668
v -273.761322 9.755614 255.802963
v -273.761322 9.755614 256.228699
v -274.406708 13.731925 255.802948
v -274.406708 13.731925 256.228668
v -273.883026 9.755613 254.858826
v -273.883026 9.755613 255.284561
v -274.528412 13.731924 254.858826
v -274.528412 13.731925 255.284561
v -273.761322 9.755614 254.858826
v -273.761322 9.755614 255.284561
v -274.406708 13.731924 254.858826
v -274.406708 13.731925 255.284561
v -273.883026 9.755613 253.910294
v -273.883026 9.755613 254.336029
v -274.528412 13.731924 253.910294
v -274.528412 13.731924 254.336029
v -273.761322 9.755614 253.910294
v -273.761322 9.755614 254.336029
v -274.406708 13.731924 253.910294
v -274.406708 13.731924 254.336029
vn -0.9857 -0.1685 -0.0000
vn -0.0000 -0.0000 -1.0000
vn 0.9857 0.1685 -0.0000
vn -0.0000 -0.0000 1.0000
vn 0.1685 -0.9857 -0.0000
vn -0.1685 0.9857 -0.0000
vn -0.0000 -1.0000 -0.0000
vn -0.1879 0.9822 -0.0000
vn -0.9887 -0.1498 0.0001
vn -0.9949 -0.1003 -0.0111
vn -0.9948 -0.1012 0.0112
vn 0.9998 -0.0188 0.0064
vn 0.9915 -0.0629 -0.1142
vn 0.9965 -0.0836 0.0032
vn -1.0000 -0.0000 -0.0000
vn 0.9996 -0.0238 0.0153
vn 1.0000 0.0013 -0.0018
vn 0.9971 -0.0667 -0.0358
vn -0.0332 0.9994 -0.0000
vn -0.9994 0.0249 0.0259
vn -1.0000 0.0004 -0.0018
vn -0.9966 0.0709 -0.0420
vn -0.0000 1.0000 -0.0000
vn 1.0000 -0.0000 -0.0000
vn -0.0553 -0.0000 0.9985
vn 0.0350 -0.9994 -0.0000
vn 0.0553 -0.0000 -0.9985
vn -0.0350 0.9994 -0.0000
vn -0.9887 -0.1498 -0.0000
vn -0.9948 -0.1012 -0.0112
vn -0.9949 -0.1003 0.0111
vn 0.9880 0.1545 -0.0026
vn 0.9945 0.1041 -0.0114
vn 0.9945 0.1050 -0.0000
vn -0.0553 -0.0000 -0.9985
vn 0.0553 -0.0000 0.9985
vn -0.9982 0.0597 0.0014
vn -1.0000 0.0004 0.0018
vn -0.9995 0.0181 -0.0241
vn -0.1148 -0.0000 0.9934
vn 0.0332 -0.9994 -0.0000
vn -0.1148 -0.0000 -0.9934
vn -0.9871 -0.1602 -0.0000
vn 0.9871 0.1602 -0.0000
vn -0.9887 -0.1502 -0.0000
vn -0.9136 -0.1035 -0.3931
vn -0.9984 -0.0560 -0.0000
vn 0.9964 -0.0851 -0.0000
vn 0.8590 -0.0156 0.5117
vn 0.9999 0.0108 -0.0000
vn 0.9964 -0.0848 -0.0033
vn -0.9964 0.0848 -0.0000
vn -0.9964 0.0851 -0.0000
vn -0.9500 0.0456 0.3089
vn -1.0000 -0.0088 -0.0000
vn -0.9136 -0.1035 0.3931
vn 0.9879 0.1549 -0.0000
vn 0.9080 0.1066 -0.4051
vn 0.9983 0.0589 -0.0000
vn -0.9978 0.0658 -0.0000
vt 0.366630 0.656249
vt 0.411518 0.773358
vt 0.359147 0.656249
vt 0.339278 0.656249
vt 0.411518 0.743138
vt 0.347411 0.938505
vt 0.399678 0.743138
vt 0.359147 0.938505
vt 0.366630 0.373993
vt 0.339278 0.373993
vt 0.399678 0.773358
vt 0.347411 0.656249
vt 0.339278 0.373993
vt 0.399678 0.773358
vt 0.347411 0.656249
vt 0.311922 0.373993
vt 0.399678 0.743138
vt 0.335635 0.938505
vt 0.339278 0.656249
vt 0.387838 0.743138
vt 0.347411 0.938505
vt 0.335635 0.656249
vt 0.387838 0.773358
vt 0.311922 0.656249
vt 0.493659 0.711071
vt 0.943110 0.798503
vt 0.690185 0.802670
vt 0.493659 0.742286
vt 0.971555 0.798503
vt 0.820875 0.001387
vt 0.465233 0.711071
vt 0.886219 0.000000
vt 0.661769 0.804057
vt 0.465233 0.742286
vt 0.914664 0.000000
vt 0.792458 0.000000
vt 0.395056 0.711923
vt 0.690185 0.004140
vt 0.943110 0.000000
vt 0.395056 0.743138
vt 0.971555 0.000000
vt 0.820875 0.799917
vt 0.421045 0.711923
vt 0.664271 0.000000
vt 0.886219 0.804047
vt 0.421045 0.743138
vt 0.794960 0.804057
vt 0.914664 0.804047
vt 0.943110 0.529051
vt 0.658128 0.532918
vt 0.656164 0.353990
vt 0.943110 0.350147
vt 0.943110 0.487993
vt 0.654714 0.491827
vt 0.943110 0.439576
vt 0.653142 0.443394
vt 0.653651 0.394993
vt 0.943110 0.391171
vt 0.971555 0.350147
vt 0.786853 0.450067
vt 0.971555 0.529051
vt 0.788817 0.271139
vt 0.971555 0.391171
vt 0.784340 0.409064
vt 0.971555 0.439576
vt 0.783831 0.360662
vt 0.971555 0.487993
vt 0.785403 0.312229
vt 0.628144 0.355362
vt 0.886219 0.448323
vt 0.886219 0.269405
vt 0.625479 0.396370
vt 0.886219 0.407289
vt 0.886219 0.358878
vt 0.624841 0.444777
vt 0.886219 0.310459
vt 0.626327 0.493213
vt 0.758833 0.448695
vt 0.914664 0.269405
vt 0.760400 0.269752
vt 0.756168 0.407687
vt 0.914664 0.407289
vt 0.755530 0.359280
vt 0.914664 0.358878
vt 0.914664 0.310459
vt 0.757016 0.310844
vt 0.283477 0.373993
vt 0.451290 0.742997
vt 0.169696 0.373993
vt 0.451290 0.711782
vt 0.112806 0.373993
vt 0.311922 0.373993
vt 0.141251 0.373993
vt 0.422906 0.742997
vt 0.226586 0.758724
vt 0.255031 0.758724
vt 0.422906 0.711783
vt 0.141251 0.373993
vt 0.141251 0.759259
vt 0.366630 0.711923
vt 0.255031 0.373993
vt 0.141251 0.759259
vt 0.366630 0.680709
vt 0.226586 0.373993
vt 0.395056 0.711923
vt 0.112806 0.759259
vt 0.311922 0.758698
vt 0.283477 0.758698
vt 0.169696 0.759259
vt 0.395056 0.680709
vt 0.430124 0.742997
vt 0.387795 0.679424
vt 0.514844 0.678865
vt 0.430124 0.766258
vt 0.472475 0.374807
vt 0.366630 0.680709
vt 0.536028 0.679681
vt 0.451290 0.742997
vt 0.408960 0.679282
vt 0.430125 0.680568
vt 0.451290 0.766258
vt 0.493659 0.373993
vt 0.493659 0.679042
vt 0.472491 0.742286
vt 0.430125 0.375278
vt 0.536028 0.374808
vt 0.472491 0.765547
vt 0.408960 0.373993
vt 0.472475 0.679856
vt 0.451323 0.742286
vt 0.366630 0.375277
vt 0.387795 0.373993
vt 0.514844 0.373993
vt 0.451323 0.765547
vt 0.422864 0.680568
vt 0.886219 0.001387
vt 0.971555 0.000000
vt 0.422864 0.711783
vt 0.755530 0.802670
vt 1.000000 0.000000
vt 0.914664 0.804047
vt 0.451290 0.680568
vt 0.857802 0.000000
vt 0.943110 0.804047
vt 0.451290 0.711783
vt 0.727113 0.804057
vt 0.421045 0.680709
vt 0.971555 0.798503
vt 0.886219 0.799917
vt 0.421045 0.711923
vt 1.000000 0.798503
vt 0.755530 0.004140
vt 0.395056 0.680709
vt 0.914664 0.000000
vt 0.860305 0.804057
vt 0.395056 0.711923
vt 0.729616 0.000000
vt 0.943110 0.000000
vt 0.854161 0.271139
vt 0.971555 0.269452
vt 0.971555 0.448356
vt 0.852198 0.450067
vt 0.850747 0.312229
vt 0.971555 0.310511
vt 0.849175 0.360662
vt 0.971555 0.358928
vt 0.971555 0.407333
vt 0.849685 0.409064
vt 1.000000 0.448356
vt 0.721509 0.353990
vt 0.723472 0.532918
vt 1.000000 0.269452
vt 1.000000 0.407333
vt 0.718996 0.394992
vt 0.718486 0.443394
vt 1.000000 0.358928
vt 0.720058 0.491827
vt 1.000000 0.310511
vt 0.914664 0.355723
vt 0.914664 0.534642
vt 0.914664 0.396757
vt 0.821512 0.407687
vt 0.914664 0.445169
vt 0.820875 0.359280
vt 0.914664 0.493587
vt 0.822361 0.310844
vt 0.693488 0.355362
vt 0.943110 0.355723
vt 0.943110 0.534642
vt 0.695055 0.534305
vt 0.690823 0.396370
vt 0.943110 0.396757
vt 0.943110 0.445169
vt 0.690185 0.444777
vt 0.943110 0.493587
vt 0.691672 0.493213
vt 0.255031 0.758698
vt 0.366672 0.743138
vt 0.112806 0.759259
vt 0.366672 0.711923
vt 0.198141 0.373993
vt 0.283477 0.758698
vt 0.084361 0.759259
vt 0.395056 0.743138
vt 0.226586 0.758724
vt 0.198141 0.758724
vt 0.395056 0.711923
vt 0.169696 0.373993
vt 0.169696 0.759259
vt 0.493659 0.711071
vt 0.198141 0.373993
vt 0.084361 0.373993
vt 0.493659 0.679856
vt 0.226586 0.373993
vt 0.465233 0.711071
vt 0.198141 0.759259
vt 0.283477 0.373993
vt 0.255031 0.373993
vt 0.112806 0.373993
vt 0.465233 0.679856
vt 0.366672 0.766399
vt 0.387795 0.679424
vt 0.493659 0.374808
vt 0.366672 0.743138
vt 0.408960 0.680709
vt 0.451290 0.679042
vt 0.514844 0.373993
vt 0.387838 0.766399
vt 0.451290 0.679282
vt 0.472475 0.679856
vt 0.430125 0.680568
vt 0.387838 0.743138
vt 0.472475 0.374807
vt 0.493659 0.765547
vt 0.430125 0.375278
vt 0.514844 0.678865
vt 0.493659 0.742286
vt 0.451290 0.373993
vt 0.472491 0.765547
vt 0.451290 0.373993
vt 0.408960 0.375277
vt 0.387795 0.373993
vt 0.493659 0.679681
vt 0.472491 0.742286
vt 0.066221 0.656249
vt 0.083272 0.951032
vt 0.312501 0.039605
vt 0.066221 0.951032
vt 0.312501 0.039605
vt 0.049155 0.656870
vt 0.066221 0.999378
vt 0.553078 0.373993
vt 0.000000 0.000000
vt 0.624841 0.000000
vt 0.049155 1.000000
vt 0.536028 0.373993
vt 0.083272 0.656249
vt 0.312501 0.334388
vt 0.619299 0.717744
vt 0.066221 0.656249
vt 0.312501 0.334388
vt 0.602234 0.717122
vt 0.553078 0.747985
vt 0.000000 0.373993
vt 0.619299 0.374614
vt 0.602234 0.373993
vt 0.624841 0.373993
vt 0.536028 0.747985
vt 0.083272 0.803640
vt 0.312501 0.186996
vt 0.066221 0.803640
vt 0.312502 0.186996
vt 0.553078 0.560989
vt 0.000000 0.186996
vt 0.624841 0.186996
vt 0.536028 0.560989
vt 0.084361 0.656249
vt 0.463231 0.726457
vt 0.335635 0.656249
vt 0.042184 0.656249
vt 0.463231 0.679856
vt 0.323799 0.938505
vt 0.335635 0.938505
vt 0.084361 0.373993
vt 0.602234 0.764344
vt 0.042184 0.373993
vt 0.602234 0.717744
vt 0.323799 0.656249
vt 0.451290 0.726457
vt 0.042184 0.373993
vt 0.323799 0.656249
vt 0.000000 0.373993
vt 0.451290 0.679856
vt 0.311922 0.938505
vt 0.614175 0.764344
vt 0.042184 0.656249
vt 0.323799 0.938505
vt 0.311922 0.656249
vt 0.614175 0.717744
vt 0.000000 0.656249
vt 0.000000 0.656249
vt 0.621196 0.744714
vt 0.515223 0.680916
vt 0.024578 0.656249
vt 0.621196 0.717744
vt 0.366082 0.911450
vt 0.500670 0.733622
vt 0.515223 0.936118
vt 0.000000 0.909958
vt 0.024578 0.909958
vt 0.500670 0.760592
vt 0.366082 0.656249
vt 0.614175 0.744714
vt 0.602234 0.627736
vt 0.508288 0.679681
vt 0.359147 0.912686
vt 0.577656 0.627736
vt 0.614175 0.717744
vt 0.602234 0.881480
vt 0.493659 0.733622
vt 0.508288 0.934882
vt 0.493659 0.760592
vt 0.577656 0.881480
vt 0.359147 0.657484
vt 0.024578 0.656249
vt 0.500681 0.733622
vt 0.522158 0.934882
vt 0.049155 0.656249
vt 0.500681 0.706651
vt 0.536028 0.934882
vt 0.429917 0.742997
vt 0.522158 0.679681
vt 0.024578 0.909958
vt 0.049155 0.909958
vt 0.429917 0.769968
vt 0.536028 0.679681
vt 0.602234 0.373993
vt 0.493659 0.733622
vt 0.529093 0.936118
vt 0.529093 0.936118
vt 0.577656 0.373993
vt 0.493659 0.706651
vt 0.422906 0.742997
vt 0.602234 0.627736
vt 0.529093 0.680916
vt 0.422906 0.769968
vt 0.577656 0.627736
vt 0.529093 0.680916
vt 0.553078 0.627736
vt 0.500681 0.706651
vt 0.522158 0.680916
vt 0.577656 0.627736
vt 0.500681 0.679681
vt 0.501353 0.680916
vt 0.553078 0.881445
vt 0.418528 0.743138
vt 0.522158 0.936118
vt 0.577656 0.881445
vt 0.418528 0.770108
vt 0.501353 0.936118
vt 0.493659 0.706651
vt 0.577656 0.373993
vt 0.515223 0.679681
vt 0.508288 0.679681
vt 0.553078 0.373993
vt 0.493659 0.679681
vt 0.577656 0.627736
vt 0.411518 0.743138
vt 0.515223 0.934882
vt 0.411518 0.770108
vt 0.553078 0.627736
vt 0.508288 0.934882
s 1
g Cube.100_m_yellow
usemtl m_yellow
f 2/4/1 3/9/1 1/1/1
f 4/11/2 7/20/2 3/7/2
f 8/24/3 5/13/3 7/19/3
f 5/14/4 2/5/4 1/2/4
f 7/21/5 1/3/5 3/8/5
f 4/12/6 6/18/6 8/22/6
f 12/34/7 9/25/7 10/28/7
f 14/40/8 15/43/8 16/46/8
f 15/44/4 21/57/4 30/75/4
f 13/39/9 24/63/10 21/58/11
f 35/84/12 31/76/13 11/32/14
f 16/47/2 34/81/2 24/64/2
f 106/271/15 101/257/15 105/269/15
f 75/185/16 79/193/17 77/189/18
f 106/272/19 108/275/19 102/261/19
f 19/53/20 25/65/21 23/61/22
f 37/88/23 40/97/23 38/90/23
f 40/98/4 43/106/4 38/91/4
f 38/92/24 44/108/24 37/87/24
f 37/89/2 42/102/2 39/93/2
f 41/100/7 44/110/7 43/105/7
f 39/95/15 41/101/15 40/96/15
f 45/111/24 48/121/24 46/114/24
f 46/115/25 49/123/25 51/129/25
f 45/112/26 51/131/26 52/132/26
f 45/113/27 50/126/27 47/117/27
f 49/124/15 52/134/15 51/130/15
f 47/119/28 49/125/28 48/120/28
f 53/135/7 56/145/7 54/138/7
f 59/153/8 58/150/8 60/156/8
f 75/186/2 55/143/2 63/163/2
f 57/148/29 65/167/30 68/173/31
f 26/68/2 36/86/2 12/36/2
f 60/157/4 68/174/4 79/194/4
f 16/48/32 29/73/33 34/82/34
f 59/154/32 78/192/33 73/181/34
f 56/146/4 80/196/4 70/177/4
f 59/155/2 73/182/2 65/168/2
f 84/207/23 81/198/23 82/200/23
f 87/216/2 84/208/2 82/201/2
f 88/218/24 82/202/24 81/197/24
f 86/212/4 81/199/4 83/203/4
f 88/220/7 85/210/7 87/215/7
f 85/211/15 83/205/15 84/206/15
f 92/232/24 89/221/24 90/224/24
f 90/226/35 93/233/35 92/230/35
f 89/222/26 95/241/26 90/225/26
f 94/236/36 89/223/36 91/227/36
f 96/244/15 93/234/15 95/239/15
f 93/235/28 91/229/28 92/231/28
f 67/172/37 69/176/38 63/164/39
f 99/251/40 98/250/40 97/245/40
f 100/256/24 107/273/24 104/268/24
f 107/274/41 105/270/41 103/264/41
f 103/265/42 102/262/42 104/266/42
f 110/280/1 111/284/1 109/277/1
f 111/285/2 116/299/2 115/295/2
f 116/300/3 113/290/3 115/296/3
f 114/293/4 109/278/4 113/289/4
f 115/297/5 109/279/5 111/283/5
f 112/288/6 114/294/6 116/298/6
f 118/304/43 119/309/43 117/301/43
f 120/311/23 123/320/23 119/307/23
f 124/323/44 121/314/44 123/319/44
f 122/318/7 117/302/7 121/313/7
f 123/321/2 117/303/2 119/308/2
f 124/324/4 118/306/4 122/316/4
f 126/328/43 127/333/43 125/325/43
f 128/335/23 131/343/23 127/331/23
f 131/344/44 130/341/44 129/337/44
f 130/342/7 125/326/7 129/338/7
f 131/345/2 125/327/2 127/332/2
f 132/348/4 126/330/4 130/340/4
f 133/349/43 136/358/43 135/355/43
f 136/359/23 139/368/23 135/356/23
f 140/371/44 137/362/44 139/367/44
f 138/366/7 133/350/7 137/361/7
f 139/369/2 133/351/2 135/357/2
f 140/372/4 134/354/4 138/364/4
f 17/50/4 11/33/4 31/77/4
f 2/4/1 4/10/1 3/9/1
f 4/11/2 8/23/2 7/20/2
f 8/24/3 6/16/3 5/13/3
f 5/14/4 6/17/4 2/5/4
f 7/21/5 5/15/5 1/3/5
f 4/12/6 2/6/6 6/18/6
f 12/34/7 11/31/7 9/25/7
f 14/40/8 13/37/8 15/43/8
f 29/72/4 27/69/4 15/44/4
f 15/44/4 13/38/4 18/51/4
f 21/57/4 20/56/4 30/75/4
f 15/44/4 18/51/4 21/57/4
f 30/75/4 29/72/4 15/44/4
f 21/58/11 18/52/4 13/39/9
f 13/39/9 14/41/45 22/59/46
f 24/63/10 25/65/47 20/55/47
f 13/39/9 22/59/46 24/63/10
f 24/63/10 20/55/47 21/58/11
f 11/32/14 12/35/48 33/79/49
f 33/79/49 36/85/4 35/84/12
f 35/84/12 30/74/50 31/76/13
f 31/76/2 28/71/2 11/32/2
f 11/32/14 33/79/49 35/84/12
f 22/60/2 14/42/2 16/47/2
f 16/47/2 32/78/2 34/81/2
f 34/81/2 35/83/2 25/66/2
f 24/64/2 22/60/2 16/47/2
f 34/81/2 25/66/2 24/64/2
f 105/269/15 97/246/15 98/248/15
f 106/271/15 102/260/15 101/257/15
f 105/269/15 98/248/15 106/271/15
f 77/189/18 56/144/48 55/141/51
f 55/141/4 72/180/4 75/185/4
f 75/185/16 74/183/50 79/193/17
f 79/193/17 80/195/2 77/189/18
f 77/189/18 55/141/51 75/185/16
f 106/272/19 98/249/19 100/254/19
f 108/275/19 104/267/19 102/261/19
f 106/272/19 100/254/19 108/275/19
f 10/29/52 9/26/53 17/49/54
f 19/53/20 20/55/55 25/65/21
f 10/29/52 17/49/54 19/53/20
f 25/65/21 26/67/2 23/61/22
f 23/61/22 10/29/52 19/53/20
f 37/88/23 39/94/23 40/97/23
f 40/98/4 41/99/4 43/106/4
f 38/92/24 43/107/24 44/108/24
f 37/89/2 44/109/2 42/102/2
f 41/100/7 42/103/7 44/110/7
f 39/95/15 42/104/15 41/101/15
f 45/111/24 47/118/24 48/121/24
f 46/115/25 48/122/25 49/123/25
f 45/112/26 46/116/26 51/131/26
f 45/113/27 52/133/27 50/126/27
f 49/124/15 50/127/15 52/134/15
f 47/119/28 50/128/28 49/125/28
f 53/135/7 55/142/7 56/145/7
f 59/153/8 57/147/8 58/150/8
f 64/165/2 74/184/2 75/186/2
f 55/143/2 53/136/2 61/159/2
f 63/163/2 64/165/2 75/186/2
f 55/143/2 61/159/2 63/163/2
f 66/169/56 58/151/45 57/148/29
f 57/148/29 62/161/2 65/167/30
f 65/167/30 64/166/47 69/176/47
f 68/173/31 66/169/56 57/148/29
f 65/167/30 69/176/47 68/173/31
f 12/36/2 10/30/2 23/62/2
f 26/68/2 25/66/2 35/83/2
f 12/36/2 23/62/2 26/68/2
f 36/86/2 33/80/2 12/36/2
f 26/68/2 35/83/2 36/86/2
f 78/191/4 76/187/4 60/157/4
f 60/157/4 58/152/4 66/170/4
f 68/174/4 69/175/4 79/194/4
f 60/157/4 66/170/4 68/174/4
f 79/194/4 78/191/4 60/157/4
f 16/48/32 15/45/57 27/70/58
f 29/73/33 30/74/59 35/84/59
f 16/48/32 27/70/58 29/73/33
f 29/73/33 35/84/59 34/82/34
f 73/181/4 71/179/4 59/154/4
f 59/154/32 60/158/57 76/188/58
f 78/192/33 79/193/59 74/183/59
f 59/154/32 76/188/58 78/192/33
f 78/192/33 74/183/59 73/181/34
f 67/171/4 54/139/4 56/146/4
f 56/146/4 77/190/4 80/196/4
f 80/196/4 79/194/4 69/175/4
f 70/177/4 67/171/4 56/146/4
f 80/196/4 69/175/4 70/177/4
f 62/162/2 57/149/2 59/155/2
f 73/182/2 74/184/2 64/165/2
f 65/168/2 62/162/2 59/155/2
f 73/182/2 64/165/2 65/168/2
f 84/207/23 83/204/23 81/198/23
f 87/216/2 85/209/2 84/208/2
f 88/218/24 87/217/24 82/202/24
f 86/212/4 88/219/4 81/199/4
f 88/220/7 86/213/7 85/210/7
f 85/211/15 86/214/15 83/205/15
f 92/232/24 91/228/24 89/221/24
f 90/226/35 95/240/35 93/233/35
f 89/222/26 96/242/26 95/241/26
f 94/236/36 96/243/36 89/223/36
f 96/244/15 94/237/15 93/234/15
f 93/235/28 94/238/28 91/229/28
f 61/160/60 53/137/53 54/140/53
f 67/172/37 70/178/4 69/176/38
f 61/160/60 54/140/53 67/172/37
f 69/176/38 64/166/55 63/164/39
f 63/164/39 61/160/60 67/172/37
f 99/251/40 100/255/40 98/250/40
f 104/268/24 108/276/24 100/256/24
f 100/256/24 99/252/24 107/273/24
f 107/273/24 103/263/24 104/268/24
f 107/274/41 99/253/41 97/247/41
f 105/270/41 101/258/41 103/264/41
f 107/274/41 97/247/41 105/270/41
f 103/265/42 101/259/42 102/262/42
f 110/280/1 112/286/1 111/284/1
f 111/285/2 112/287/2 116/299/2
f 116/300/3 114/292/3 113/290/3
f 114/293/4 110/281/4 109/278/4
f 115/297/5 113/291/5 109/279/5
f 112/288/6 110/282/6 114/294/6
f 118/304/43 120/310/43 119/309/43
f 120/311/23 124/322/23 123/320/23
f 124/323/44 122/317/44 121/314/44
f 122/318/7 118/305/7 117/302/7
f 123/321/2 121/315/2 117/303/2
f 124/324/4 120/312/4 118/306/4
f 126/328/43 128/334/43 127/333/43
f 128/335/23 132/346/23 131/343/23
f 131/344/44 132/347/44 130/341/44
f 130/342/7 126/329/7 125/326/7
f 131/345/2 129/339/2 125/327/2
f 132/348/4 128/336/4 126/330/4
f 133/349/43 134/352/43 136/358/43
f 136/359/23 140/370/23 139/368/23
f 140/371/44 138/365/44 137/362/44
f 138/366/7 134/353/7 133/350/7
f 139/369/2 137/363/2 133/351/2
f 140/372/4 136/360/4 134/354/4
f 31/77/4 30/75/4 20/56/4
f 31/77/4 20/56/4 19/54/4
f 17/50/4 9/27/4 11/33/4
f 31/77/4 19/54/4 17/50/4
