# Blender 3.3.0
# www.blender.org
mtllib b_sandalye.mtl
g Cube.151_Cube.200
v -199.975464 3.197026 452.266022
v -199.975464 3.197026 451.773285
v -199.482742 3.197026 452.266022
v -199.482742 3.197026 451.773285
v -199.609894 7.475521 452.266022
v -199.579636 8.126120 452.266022
v -199.586395 8.891088 452.266022
v -199.609894 7.475521 451.773285
v -199.586395 8.891087 451.773285
v -199.579636 8.126120 451.773285
v -199.117172 7.475521 452.266022
v -199.095688 8.891066 452.266022
v -199.087433 8.126114 452.266022
v -199.117172 7.475521 451.773285
v -199.095688 8.891066 451.773285
v -199.087433 8.126114 451.773285
v -194.765076 3.141190 452.532349
v -194.765076 3.141189 452.039612
v -194.272354 3.141191 452.532349
v -194.272354 3.141190 452.039612
v -194.272354 9.222606 452.039612
v -194.272354 9.222606 452.532349
v -194.765076 9.222607 452.039612
v -194.765076 9.222607 452.532349
v -204.723801 3.488678 448.073608
v -204.483627 3.488678 447.795868
v -204.723801 3.121500 448.073608
v -204.483627 3.121500 447.795868
v -201.018814 3.290174 451.144135
v -201.258987 3.290174 451.421875
v -201.018814 3.657352 451.144135
v -201.258987 3.657352 451.421844
v -199.975464 3.197025 447.236908
v -199.975464 3.197025 447.729614
v -199.482742 3.197025 447.236908
v -199.482742 3.197025 447.729614
v -199.609894 7.475520 447.236908
v -199.579636 8.126120 447.236908
v -199.586395 8.891087 447.236877
v -199.609894 7.475521 447.729614
v -199.586395 8.891087 447.729614
v -199.579636 8.126120 447.729614
v -199.117172 7.475520 447.236877
v -199.095688 8.891066 447.236877
v -199.087433 8.126114 447.236877
v -199.117172 7.475521 447.729614
v -199.095688 8.891066 447.729614
v -199.087433 8.126114 447.729614
v -194.765076 3.141188 446.970551
v -194.765076 3.141189 447.463287
v -194.272354 3.141189 446.970551
v -194.272354 3.141189 447.463287
v -194.272354 9.222605 447.463287
v -194.272354 9.222605 446.970551
v -194.765076 9.222605 447.463287
v -194.765076 9.222605 446.970551
v -199.432129 5.107463 447.299652
v -199.432114 5.107463 447.666840
v -199.432129 4.740285 447.299652
v -199.432114 4.740285 447.666840
v -194.621216 4.908959 447.400513
v -194.621216 4.908959 447.033325
v -194.621216 5.276137 447.400513
v -194.621216 5.276137 447.033325
v -199.506668 9.043786 452.078033
v -199.506668 9.339551 452.078033
v -194.096558 9.223452 452.703186
v -199.506683 9.043785 447.424896
v -199.506683 9.339550 447.424896
v -194.096558 9.223452 446.799713
v -199.506668 9.043786 449.751465
v -199.506668 9.339551 449.751465
v -194.096558 9.223452 449.751465
v -199.611832 9.344892 452.266022
v -199.123276 9.358911 452.266022
v -199.611832 9.344892 451.773285
v -199.123276 9.358911 451.773285
v -197.655685 9.401021 452.291901
v -197.655533 9.401026 447.210968
v -199.611832 9.344892 447.236877
v -199.611832 9.344892 447.729614
v -199.123276 9.358911 447.729614
v -199.123276 9.358911 447.236877
v -194.096558 9.503146 452.703186
v -194.096558 9.503146 446.799713
vn -0.0000 -1.0000 -0.0000
vn -0.0000 -0.0000 1.0000
vn -0.9984 -0.0560 -0.0000
vn 0.9977 -0.0678 -0.0000
vn -0.0000 -0.0000 -1.0000
vn -1.0000 -0.0000 -0.0000
vn -0.0332 0.9994 -0.0000
vn -0.9977 0.0682 -0.0000
vn -0.0000 1.0000 -0.0000
vn 1.0000 -0.0000 -0.0000
vn 0.7564 -0.0000 0.6541
vn -0.6949 -0.0000 0.7191
vn 0.0265 -0.9994 0.0229
vn 0.6949 -0.0000 -0.7191
vn -0.7564 -0.0000 -0.6541
vn -0.0265 0.9994 -0.0229
vn 0.9983 0.0589 -0.0000
vn -0.0553 -0.0000 -0.9985
vn 0.0350 -0.9994 -0.0000
vn 0.0553 -0.0000 0.9985
vn -0.0350 0.9994 -0.0000
vn -0.1148 -0.0000 0.9934
vn 0.0332 -0.9994 -0.0000
vn -0.1148 -0.0000 -0.9934
vn -0.0287 0.9996 -0.0000
vt 0.493659 0.711071
vt 0.943110 0.798503
vt 0.690185 0.802670
vt 0.493659 0.742286
vt 0.971555 0.798503
vt 0.820875 0.001387
vt 0.465233 0.711071
vt 0.886219 0.000000
vt 0.661769 0.804057
vt 0.465233 0.742286
vt 0.914664 0.000000
vt 0.792458 0.000000
vt 0.943110 0.529051
vt 0.658128 0.532918
vt 0.943110 0.487993
vt 0.654714 0.491827
vt 0.943110 0.439576
vt 0.653142 0.443394
vt 0.971555 0.529051
vt 0.788817 0.271139
vt 0.971555 0.439576
vt 0.783831 0.360662
vt 0.971555 0.487993
vt 0.785403 0.312229
vt 0.886219 0.269405
vt 0.629711 0.534305
vt 0.886219 0.358878
vt 0.624841 0.444777
vt 0.886219 0.310459
vt 0.626327 0.493213
vt 0.914664 0.269405
vt 0.760400 0.269752
vt 0.755530 0.359280
vt 0.914664 0.358878
vt 0.914664 0.310459
vt 0.757016 0.310844
vt 0.451290 0.742997
vt 0.283477 0.373993
vt 0.169696 0.373993
vt 0.451290 0.711782
vt 0.112806 0.373993
vt 0.311922 0.373993
vt 0.422906 0.742997
vt 0.141251 0.373993
vt 0.226586 0.758724
vt 0.422906 0.711783
vt 0.141251 0.373993
vt 0.255031 0.758724
vt 0.141251 0.759259
vt 0.366630 0.711923
vt 0.255031 0.373993
vt 0.141251 0.759259
vt 0.366630 0.680709
vt 0.226586 0.373993
vt 0.112806 0.759259
vt 0.311922 0.758698
vt 0.395056 0.711923
vt 0.283477 0.758698
vt 0.169696 0.759259
vt 0.395056 0.680709
vt 0.430124 0.742997
vt 0.387795 0.679424
vt 0.514844 0.678865
vt 0.430124 0.766258
vt 0.472475 0.374807
vt 0.366630 0.680709
vt 0.451290 0.742997
vt 0.536028 0.679681
vt 0.408960 0.679282
vt 0.451290 0.766258
vt 0.493659 0.373993
vt 0.430125 0.680568
vt 0.493659 0.679042
vt 0.472491 0.742286
vt 0.430125 0.375278
vt 0.536028 0.374808
vt 0.472491 0.765547
vt 0.408960 0.373993
vt 0.472475 0.679856
vt 0.366630 0.375277
vt 0.451323 0.742286
vt 0.387795 0.373993
vt 0.514844 0.373993
vt 0.451323 0.765547
vt 0.422864 0.680568
vt 0.886219 0.001387
vt 0.971555 0.000000
vt 0.422864 0.711783
vt 0.755530 0.802670
vt 1.000000 0.000000
vt 0.914664 0.804047
vt 0.451290 0.680568
vt 0.857802 0.000000
vt 0.943110 0.804047
vt 0.451290 0.711783
vt 0.727113 0.804057
vt 0.854161 0.271139
vt 0.971555 0.269452
vt 0.850747 0.312229
vt 0.971555 0.310511
vt 0.849175 0.360662
vt 0.971555 0.358928
vt 0.723472 0.532918
vt 1.000000 0.269452
vt 0.718486 0.443394
vt 1.000000 0.358928
vt 0.720058 0.491827
vt 1.000000 0.310511
vt 0.914664 0.534642
vt 0.825745 0.269752
vt 0.914664 0.445169
vt 0.820875 0.359280
vt 0.914664 0.493587
vt 0.822361 0.310844
vt 0.943110 0.534642
vt 0.695055 0.534305
vt 0.943110 0.445169
vt 0.690185 0.444777
vt 0.943110 0.493587
vt 0.691672 0.493213
vt 0.366672 0.743138
vt 0.255031 0.758698
vt 0.112806 0.759259
vt 0.366672 0.711923
vt 0.198141 0.373993
vt 0.283477 0.758698
vt 0.395056 0.743138
vt 0.084361 0.759259
vt 0.226586 0.758724
vt 0.395056 0.711923
vt 0.169696 0.373993
vt 0.198141 0.758724
vt 0.169696 0.759259
vt 0.493659 0.711071
vt 0.198141 0.373993
vt 0.084361 0.373993
vt 0.493659 0.679856
vt 0.226586 0.373993
vt 0.198141 0.759259
vt 0.283477 0.373993
vt 0.465233 0.711071
vt 0.255031 0.373993
vt 0.112806 0.373993
vt 0.465233 0.679856
vt 0.366672 0.766399
vt 0.387795 0.679424
vt 0.493659 0.374808
vt 0.366672 0.743138
vt 0.451290 0.679042
vt 0.408960 0.680709
vt 0.387838 0.766399
vt 0.514844 0.373993
vt 0.451290 0.679282
vt 0.387838 0.743138
vt 0.472475 0.679856
vt 0.430125 0.680568
vt 0.472475 0.374807
vt 0.493659 0.765547
vt 0.430125 0.375278
vt 0.514844 0.678865
vt 0.493659 0.742286
vt 0.451290 0.373993
vt 0.451290 0.373993
vt 0.408960 0.375277
vt 0.472491 0.765547
vt 0.387795 0.373993
vt 0.493659 0.679681
vt 0.472491 0.742286
vt 0.083272 0.951032
vt 0.066221 0.656249
vt 0.312501 0.039605
vt 0.066221 0.951032
vt 0.312501 0.039605
vt 0.049155 0.656870
vt 0.066221 0.999378
vt 0.553078 0.373993
vt 0.000000 0.000000
vt 0.083272 0.656249
vt 0.312501 0.334388
vt 0.619299 0.717744
vt 0.066221 0.656249
vt 0.312501 0.334388
vt 0.602234 0.717122
vt 0.553078 0.747985
vt 0.000000 0.373993
vt 0.619299 0.374614
vt 0.083272 0.803640
vt 0.312501 0.186996
vt 0.066221 0.803640
vt 0.312502 0.186996
vt 0.553078 0.560989
vt 0.000000 0.186996
vt 0.653445 0.414602
vt 0.943110 0.410781
vt 0.181263 0.686962
vt 0.625232 0.415090
vt 0.886219 0.388568
vt 0.196492 0.686962
vt 0.971555 0.410781
vt 0.784134 0.389455
vt 0.181263 0.673359
vt 0.755921 0.388967
vt 0.914664 0.388568
vt 0.196493 0.673359
vt 0.419363 0.026055
vt 0.049155 0.774266
vt 0.242242 0.687676
vt 0.419373 0.347939
vt 0.602234 0.599715
vt 0.242247 0.547406
vt 0.971555 0.387722
vt 0.849478 0.389455
vt 0.181263 0.548121
vt 1.000000 0.387722
vt 0.718789 0.414602
vt 0.181263 0.561724
vt 0.690577 0.415090
vt 0.943110 0.415479
vt 0.196492 0.561724
vt 0.914664 0.415479
vt 0.821266 0.388967
vt 0.196492 0.548121
vt 0.050083 0.999966
vt 0.536955 0.373992
vt 0.353191 0.699031
vt 0.536955 0.747985
vt 0.603161 0.374026
vt 0.353191 0.536052
s 1
g Cube.151_m_koyuahşap
usemtl m_koyuahşap
f 2/4/1 4/10/1 3/7/1 1/1/1
f 7/18/2 12/28/2 75/196/2 74/193/2
f 9/21/3 7/17/3 74/194/3 76/199/3
f 15/34/4 12/27/4 13/29/4 11/25/4 3/8/4 4/11/4 14/31/4 16/35/4
f 15/33/5 9/22/5 76/200/5 77/202/5
f 72/189/6 69/181/6 68/178/6 71/187/6 65/169/6 66/172/6
f 46/115/4 36/94/4 35/91/4 43/109/4 45/113/4 44/111/4 47/117/4 48/119/4
f 69/182/7 72/190/7 66/173/7 78/205/7 79/208/7
f 8/19/8 2/5/8 1/2/8 5/13/8 6/15/8 7/17/8 9/21/8 10/23/8
f 18/40/1 20/46/1 19/43/1 17/37/1
f 18/41/5 23/55/5 21/49/5 20/47/5
f 17/38/6 24/58/6 23/56/6 18/42/6
f 19/44/2 22/52/2 24/59/2 17/39/2
f 23/57/9 24/60/9 22/53/9 21/50/9
f 20/48/10 21/51/10 22/54/10 19/45/10
f 26/64/11 25/61/11 27/67/11 28/70/11
f 26/65/12 28/71/12 29/73/12 31/79/12
f 25/62/13 26/66/13 31/80/13 32/82/13
f 27/68/14 25/63/14 32/83/14 30/76/14
f 31/81/15 29/74/15 30/77/15 32/84/15
f 28/72/16 27/69/16 30/78/16 29/75/16
f 34/88/1 33/85/1 35/92/1 36/95/1
f 45/114/5 43/110/5 35/93/5 33/86/5 37/97/5 38/99/5 39/101/5 44/112/5
f 39/102/3 41/106/3 81/214/3 80/211/3
f 16/36/5 14/32/5 4/12/5 2/6/5 8/20/5 10/24/5 9/22/5 15/33/5
f 81/215/2 41/105/2 47/118/2 82/217/2
f 75/197/17 12/27/17 15/34/17 77/203/17
f 82/218/17 47/117/17 44/111/17 83/220/17
f 48/120/2 47/118/2 41/105/2 42/107/2 40/103/2 34/89/2 36/96/2 46/116/2
f 44/112/5 39/101/5 80/212/5 83/221/5
f 50/124/1 49/121/1 51/127/1 52/130/1
f 50/125/2 52/131/2 53/133/2 55/139/2
f 49/122/6 50/126/6 55/140/6 56/142/6
f 51/128/5 49/123/5 56/143/5 54/136/5
f 55/141/9 53/134/9 54/137/9 56/144/9
f 52/132/10 51/129/10 54/138/10 53/135/10
f 58/148/10 60/154/10 59/151/10 57/145/10
f 58/149/18 63/163/18 61/157/18 60/155/18
f 57/146/19 64/166/19 63/164/19 58/150/19
f 59/152/20 62/160/20 64/167/20 57/147/20
f 63/165/6 64/168/6 62/161/6 61/158/6
f 60/156/21 61/159/21 62/162/21 59/153/21
f 41/106/8 39/102/8 38/100/8 37/98/8 33/87/8 34/90/8 40/104/8 42/108/8
f 78/206/22 66/174/22 65/170/22 67/175/22 84/223/22
f 84/224/10 67/176/10 73/191/10 70/184/10 85/226/10
f 67/177/23 65/171/23 71/188/23 68/179/23 70/185/23 73/192/23
f 70/186/24 68/180/24 69/183/24 79/209/24 85/227/24
f 13/30/2 12/28/2 7/18/2 6/16/2 5/14/2 1/3/2 3/9/2 11/26/2
s 0
f 80/213/25 81/216/25 82/219/25 83/222/25
f 79/210/25 78/207/25 84/225/25 85/228/25
f 74/195/25 75/198/25 77/204/25 76/201/25
g Cube.152_Cube.201
v -201.902252 3.600420 454.827332
v -202.297440 3.594784 454.560211
v -204.397400 3.600423 458.518524
v -204.792572 3.594786 458.251404
v -201.900253 3.395350 454.828674
v -202.295425 3.389713 454.561554
v -204.395401 3.395352 458.519867
v -204.790573 3.389716 458.252747
v -205.994873 3.617352 451.714600
v -206.270798 3.617352 452.122803
v -205.997818 3.163745 451.712585
v -206.273758 3.163745 452.120789
v -201.395859 3.786096 454.823395
v -200.231674 3.926540 455.610352
v -200.859741 3.831166 455.185791
v -201.671799 3.786096 455.231598
v -201.135681 3.831166 455.593994
v -200.507614 3.926540 456.018555
v -201.323288 3.308203 454.872437
v -200.786804 3.350683 455.235107
v -200.158417 3.443862 455.659851
v -201.599228 3.308203 455.280640
v -201.062744 3.350684 455.643311
v -200.434357 3.443863 456.068054
v -208.811310 3.617353 455.881104
v -208.535370 3.617353 455.472870
v -208.814255 3.163747 455.879089
v -208.538330 3.163747 455.470886
v -204.212311 3.786098 458.989899
v -203.048126 3.926541 459.776855
v -203.676193 3.831167 459.352295
v -203.936371 3.786097 458.581696
v -203.400253 3.831167 458.944092
v -202.772186 3.926541 459.368652
v -204.139725 3.308205 459.038940
v -203.603241 3.350685 459.401611
v -202.974869 3.443864 459.826355
v -203.863800 3.308204 458.630737
v -203.327301 3.350685 458.993378
v -202.698929 3.443864 459.418152
v -200.449493 3.820612 455.690002
v -200.690521 3.767328 455.527100
v -203.055374 3.820614 459.545013
v -203.296402 3.767330 459.382111
v -201.752441 3.820611 457.617523
v -201.993469 3.767327 457.454590
v -205.372757 3.495085 452.481354
v -205.982132 3.486393 452.069458
v -207.867905 3.495088 456.172546
v -208.477264 3.486395 455.760651
v -205.370728 3.288256 452.482727
v -205.980103 3.279564 452.070831
v -207.865875 3.288258 456.173920
v -208.475250 3.279566 455.761993
v -203.052963 3.529206 455.897186
v -202.814545 3.529206 455.544495
v -206.389664 3.447687 453.641693
v -206.151245 3.447687 453.288971
v -203.034805 3.409497 455.909485
v -202.796387 3.409496 455.556763
v -206.371506 3.327978 453.653961
v -206.133087 3.327977 453.301239
v -203.581696 3.529206 456.679382
v -203.343277 3.529206 456.326691
v -206.918396 3.447687 454.423859
v -206.679993 3.447687 454.071167
v -203.563538 3.409496 456.691650
v -203.325119 3.409496 456.338959
v -206.900238 3.327977 454.436157
v -206.661819 3.327977 454.083435
v -204.112900 3.529206 457.465210
v -203.874481 3.529206 457.112518
v -207.449600 3.447687 455.209686
v -207.211182 3.447687 454.856995
v -204.094742 3.409497 457.477509
v -203.856323 3.409497 457.124786
v -207.431442 3.327978 455.221985
v -207.193024 3.327978 454.869263
vn -0.0098 0.9999 -0.0066
vn -0.5600 -0.0000 0.8285
vn 0.0098 -0.9999 0.0066
vn 0.5600 -0.0000 -0.8285
vn 0.8284 0.0118 0.5600
vn -0.8284 -0.0118 -0.5600
vn -0.8284 0.0079 -0.5600
vn -0.0368 0.9990 -0.0249
vn -0.1493 0.9836 -0.1009
vn 0.0329 -0.9992 0.0222
vn -0.0168 0.9998 -0.0113
vn -0.8149 -0.1802 -0.5509
vn 0.0168 -0.9998 0.0113
vn 0.8149 0.1802 0.5509
vn 0.8149 0.1801 0.5509
vt 0.366630 0.656249
vt 0.411518 0.773358
vt 0.359147 0.656249
vt 0.339278 0.656249
vt 0.411518 0.743138
vt 0.347411 0.938505
vt 0.366630 0.373993
vt 0.399678 0.743138
vt 0.359147 0.938505
vt 0.339278 0.373993
vt 0.399678 0.773358
vt 0.347411 0.656249
vt 0.339278 0.373993
vt 0.399678 0.773358
vt 0.347411 0.656249
vt 0.311922 0.373993
vt 0.399678 0.743138
vt 0.335635 0.938505
vt 0.387838 0.743138
vt 0.339278 0.656249
vt 0.347411 0.938505
vt 0.387838 0.773358
vt 0.311922 0.656249
vt 0.335635 0.656249
vt 0.395056 0.711923
vt 0.690185 0.004140
vt 0.943110 0.000000
vt 0.395056 0.743138
vt 0.971555 0.000000
vt 0.820875 0.799917
vt 0.421045 0.711923
vt 0.664271 0.000000
vt 0.886219 0.804047
vt 0.421045 0.743138
vt 0.794960 0.804057
vt 0.914664 0.804047
vt 0.656164 0.353990
vt 0.943110 0.350147
vt 0.653142 0.443394
vt 0.943110 0.439576
vt 0.653651 0.394993
vt 0.943110 0.391171
vt 0.971555 0.350147
vt 0.786853 0.450067
vt 0.971555 0.391171
vt 0.784340 0.409064
vt 0.971555 0.439576
vt 0.783831 0.360662
vt 0.628144 0.355362
vt 0.886219 0.448323
vt 0.625479 0.396370
vt 0.886219 0.407289
vt 0.624841 0.444777
vt 0.886219 0.358878
vt 0.758833 0.448695
vt 0.914664 0.448323
vt 0.756168 0.407687
vt 0.914664 0.407289
vt 0.755530 0.359280
vt 0.914664 0.358878
vt 0.421045 0.680709
vt 0.971555 0.798503
vt 0.886219 0.799917
vt 0.421045 0.711923
vt 1.000000 0.798503
vt 0.755530 0.004140
vt 0.395056 0.680709
vt 0.914664 0.000000
vt 0.860305 0.804057
vt 0.395056 0.711923
vt 0.729616 0.000000
vt 0.943110 0.000000
vt 0.971555 0.448356
vt 0.852198 0.450067
vt 0.971555 0.358928
vt 0.849175 0.360662
vt 0.971555 0.407333
vt 0.849685 0.409064
vt 1.000000 0.448356
vt 0.721509 0.353990
vt 1.000000 0.407333
vt 0.718996 0.394992
vt 1.000000 0.358928
vt 0.718486 0.443394
vt 0.914664 0.355723
vt 0.824177 0.448695
vt 0.914664 0.396757
vt 0.821512 0.407687
vt 0.914664 0.445169
vt 0.820875 0.359280
vt 0.693488 0.355362
vt 0.943110 0.355723
vt 0.690823 0.396370
vt 0.943110 0.396757
vt 0.690185 0.444777
vt 0.943110 0.445169
vt 0.083272 0.951032
vt 0.066221 0.951032
vt 0.083272 0.656249
vt 0.066221 0.656249
vt 0.083272 0.803640
vt 0.066221 0.803640
vt 0.084361 0.656249
vt 0.463231 0.726457
vt 0.335635 0.656249
vt 0.042184 0.656249
vt 0.463231 0.679856
vt 0.323799 0.938505
vt 0.084361 0.373993
vt 0.602234 0.764344
vt 0.335635 0.938505
vt 0.042184 0.373993
vt 0.602234 0.717744
vt 0.323799 0.656249
vt 0.042184 0.373993
vt 0.451290 0.726457
vt 0.323799 0.656249
vt 0.000000 0.373993
vt 0.451290 0.679856
vt 0.311922 0.938505
vt 0.614175 0.764344
vt 0.042184 0.656249
vt 0.323799 0.938505
vt 0.614175 0.717744
vt 0.000000 0.656249
vt 0.311922 0.656249
vt 0.000000 0.656249
vt 0.621196 0.744714
vt 0.515223 0.680916
vt 0.024578 0.656249
vt 0.621196 0.717744
vt 0.366082 0.911450
vt 0.000000 0.909958
vt 0.500670 0.733622
vt 0.515223 0.936118
vt 0.024578 0.909958
vt 0.500670 0.760592
vt 0.366082 0.656249
vt 0.602234 0.627736
vt 0.614175 0.744714
vt 0.508288 0.679681
vt 0.577656 0.627736
vt 0.614175 0.717744
vt 0.359147 0.912686
vt 0.493659 0.733622
vt 0.602234 0.881480
vt 0.508288 0.934882
vt 0.493659 0.760592
vt 0.577656 0.881480
vt 0.359147 0.657484
vt 0.024578 0.656249
vt 0.500681 0.733622
vt 0.522158 0.934882
vt 0.049155 0.656249
vt 0.500681 0.706651
vt 0.536028 0.934882
vt 0.024578 0.909958
vt 0.429917 0.742997
vt 0.522158 0.679681
vt 0.049155 0.909958
vt 0.429917 0.769968
vt 0.536028 0.679681
vt 0.602234 0.373993
vt 0.493659 0.733622
vt 0.529093 0.936118
vt 0.577656 0.373993
vt 0.493659 0.706651
vt 0.529093 0.936118
vt 0.422906 0.742997
vt 0.602234 0.627736
vt 0.529093 0.680916
vt 0.422906 0.769968
vt 0.577656 0.627736
vt 0.529093 0.680916
vt 0.553078 0.627736
vt 0.500681 0.706651
vt 0.522158 0.680916
vt 0.577656 0.627736
vt 0.500681 0.679681
vt 0.501353 0.680916
vt 0.553078 0.881445
vt 0.418528 0.743138
vt 0.522158 0.936118
vt 0.577656 0.881445
vt 0.418528 0.770108
vt 0.501353 0.936118
vt 0.577656 0.373993
vt 0.493659 0.706651
vt 0.515223 0.679681
vt 0.553078 0.373993
vt 0.493659 0.679681
vt 0.508288 0.679681
vt 0.411518 0.743138
vt 0.577656 0.627736
vt 0.515223 0.934882
vt 0.411518 0.770108
vt 0.553078 0.627736
vt 0.508288 0.934882
s 1
g Cube.152_m_koyuahşap
usemtl m_koyuahşap
f 86/229/26 87/232/26 89/238/26 88/235/26
f 88/236/27 89/239/27 93/250/27 92/247/27
f 92/248/28 93/251/28 91/244/28 90/241/28
f 90/242/29 91/245/29 87/233/29 86/230/29
f 88/237/30 92/249/30 90/243/30 86/231/30
f 93/252/31 89/240/31 87/234/31 91/246/31
f 97/262/32 95/256/32 94/253/32 96/259/32
f 104/277/29 96/260/29 94/254/29 98/265/29 100/269/29 99/267/29 106/281/29 105/279/29
f 98/266/33 94/255/33 95/257/33 101/271/33 102/273/33 103/275/33 99/268/33 100/270/33
f 101/272/27 95/258/27 97/263/27 107/283/27 108/285/27 109/287/27 103/276/27 102/274/27
f 126/325/34 127/326/34 131/330/34 129/328/34 128/327/34 130/329/34
f 113/298/32 112/295/32 110/289/32 111/292/32
f 117/307/33 111/293/33 110/290/33 114/301/33 116/305/33 115/303/33 119/311/33 118/309/33
f 123/319/29 113/299/29 111/294/29 117/308/29 118/310/29 119/312/29 125/323/29 124/321/29
f 107/284/35 97/264/35 96/261/35 104/278/35 105/280/35 106/282/35 109/288/35 108/286/35
f 120/313/35 112/296/35 113/300/35 123/320/35 124/322/35 125/324/35 122/317/35 121/315/35
f 114/302/27 110/291/27 112/297/27 120/314/27 121/316/27 122/318/27 115/304/27 116/306/27
f 132/331/26 133/334/26 135/340/26 134/337/26
f 134/338/27 135/341/27 139/352/27 138/349/27
f 138/350/28 139/353/28 137/346/28 136/343/28
f 136/344/29 137/347/29 133/335/29 132/332/29
f 134/339/30 138/351/30 136/345/30 132/333/30
f 139/354/31 135/342/31 133/336/31 137/348/31
f 140/355/36 141/358/36 143/364/36 142/361/36
f 142/362/37 143/365/37 147/376/37 146/373/37
f 146/374/38 147/377/38 145/370/38 144/367/38
f 144/368/39 145/371/39 141/359/39 140/356/39
f 142/363/27 146/375/27 144/369/27 140/357/27
f 147/378/29 143/366/29 141/360/29 145/372/29
f 148/379/36 149/382/36 151/388/36 150/385/36
f 150/386/37 151/389/37 155/400/37 154/397/37
f 154/398/38 155/401/38 153/394/38 152/391/38
f 152/392/40 153/395/40 149/383/40 148/380/40
f 150/387/27 154/399/27 152/393/27 148/381/27
f 155/402/29 151/390/29 149/384/29 153/396/29
f 156/403/36 157/406/36 159/412/36 158/409/36
f 158/410/37 159/413/37 163/424/37 162/421/37
f 162/422/38 163/425/38 161/418/38 160/415/38
f 160/416/40 161/419/40 157/407/40 156/404/40
f 158/411/27 162/423/27 160/417/27 156/405/27
f 163/426/29 159/414/29 157/408/29 161/420/29
