# Blender 3.3.0
# www.blender.org
mtllib b_tabure.mtl
g chair.015_Cube.206
v -206.122757 5.932249 440.389557
v -215.248642 7.877027 444.033661
v -206.046738 5.605397 440.737183
v -215.131851 7.374860 444.567719
v -206.303467 5.586734 440.104218
v -215.526276 7.346195 443.595245
v -206.227448 5.259867 440.451843
v -215.409485 6.844022 444.129333
v -204.971939 7.153052 446.653290
v -214.958115 7.938703 446.605469
v -204.994080 6.773824 446.354706
v -214.992126 7.356056 446.146729
v -204.940475 7.450192 446.273560
v -214.909775 8.395200 446.022095
v -204.962616 7.070942 445.974976
v -214.943787 7.812573 445.563354
v -206.813309 0.772132 446.256897
v -215.741501 5.313756 446.192535
v -206.676178 1.022404 445.867004
v -215.530823 5.698257 445.593536
v -206.632599 1.117653 446.542267
v -215.463867 5.844588 446.630951
v -206.495453 1.367925 446.152374
v -215.253189 6.229106 446.031921
v -215.294098 4.802090 448.527435
v -216.022461 5.000834 448.622620
v -216.097382 3.524352 445.047943
v -216.825760 3.723106 445.143097
v -215.850403 5.856723 442.067352
v -216.578766 6.055477 442.162506
v -214.800140 9.466833 442.566254
v -215.528503 9.665577 442.661438
v -213.996841 10.744562 446.045776
v -214.725204 10.943316 446.140930
v -214.243820 8.412190 449.026367
v -214.972183 8.610944 449.121521
vn 0.3858 0.7127 0.5858
vn 0.1691 -0.6787 0.7147
vn -0.3622 -0.7173 -0.5952
vn -0.1455 0.6741 -0.7241
vn 0.9140 -0.1762 -0.3655
vn -0.9140 0.1762 0.3655
vn -0.0522 -0.6159 0.7861
vn -0.0329 -0.7858 -0.6176
vn 0.0780 0.6139 -0.7855
vn 0.0587 0.7838 0.6182
vn 0.9968 -0.0762 0.0229
vn -0.9968 0.0762 -0.0229
vn -0.3626 -0.7211 -0.5904
vn 0.2952 0.5118 -0.8068
vn 0.3854 0.7090 0.5906
vn -0.2724 -0.5240 0.8070
vn 0.8829 -0.4694 0.0092
vn -0.8829 0.4694 -0.0092
vn -0.1975 -0.9046 0.3778
vn -0.2822 -0.7441 -0.6056
vn -0.0847 0.1605 -0.9834
vn 0.1975 0.9046 -0.3778
vn -0.9572 0.2612 0.1251
vn 0.2822 0.7441 0.6056
vn 0.0847 -0.1605 0.9834
vn 0.9572 -0.2612 -0.1251
s 1
g chair.015_m_açıkahşap
usemtl m_açıkahşap
f 1//1 2//1 4//1 3//1
f 3//2 4//2 8//2 7//2
f 7//3 8//3 6//3 5//3
f 5//4 6//4 2//4 1//4
f 3//5 7//5 5//5 1//5
f 8//6 4//6 2//6 6//6
f 9//7 10//7 12//7 11//7
f 11//8 12//8 16//8 15//8
f 15//9 16//9 14//9 13//9
f 13//10 14//10 10//10 9//10
f 11//11 15//11 13//11 9//11
f 16//12 12//12 10//12 14//12
f 17//13 18//13 20//13 19//13
f 19//14 20//14 24//14 23//14
f 23//15 24//15 22//15 21//15
f 21//16 22//16 18//16 17//16
f 19//17 23//17 21//17 17//17
f 24//18 20//18 18//18 22//18
f 25//19 26//19 28//19 27//19
f 27//20 28//20 30//20 29//20
f 29//21 30//21 32//21 31//21
f 31//22 32//22 34//22 33//22
f 28//23 26//23 36//23 34//23 32//23 30//23
f 33//24 34//24 36//24 35//24
f 35//25 36//25 26//25 25//25
f 25//26 27//26 29//26 31//26 33//26 35//26
