# Blender 3.3.0
# www.blender.org
mtllib b_zemin.mtl
g Cube.156_Cube.205
v -221.419540 1.888378 484.053680
v -153.361923 1.888374 484.053650
v -221.419540 3.151467 484.053680
v -153.361908 3.151462 484.053650
v -153.361923 1.888374 431.705139
v -221.419540 3.151467 432.957947
v -204.540466 3.151465 416.156525
v -204.331772 1.888378 416.156525
v -221.419540 1.888378 433.314240
v -153.361908 3.151462 431.694153
v -169.024612 3.151464 416.156494
v -168.965729 1.888374 416.156494
v -168.944244 3.151464 416.156494
v -171.906906 1.888374 418.438171
vn -0.0000 -1.0000 -0.0000
vn 0.7050 0.0134 -0.7091
vn -0.0000 1.0000 -0.0000
vn -1.0000 -0.0000 -0.0000
vn -0.0000 -0.0000 1.0000
vn 1.0000 -0.0000 -0.0000
vn -0.6983 -0.1562 -0.6985
vn -0.0000 -0.0000 -1.0000
vt -0.420051 -3.180204
vt -0.420051 4.180204
vt -2.260153 2.340102
vt -2.260153 0.500000
vt -0.420051 -1.340102
vt 0.729604 1.190447
vt -0.420051 2.340102
vt 0.729604 1.649655
vt -0.420051 0.500000
vt 1.000479 -1.340102
vt 0.383539 1.190447
vt 0.966673 2.340102
vt 0.270396 1.305139
vt 1.420051 1.880517
vt 1.420051 -2.714936
vt 3.260153 1.874834
vt 0.957058 4.180204
vt 0.957058 -3.180204
vt 0.375029 1.649655
vt 1.000774 0.500000
vt 0.270396 1.544577
vt 1.420051 0.921059
vt 1.420051 -1.759557
vt 3.260153 0.919455
vt 1.420051 0.918888
vt 1.358482 -1.839086
s 0
g Cube.156_zemin_kötü
usemtl zemin_kötü
f 1/1/1 9/18/1 8/15/1 14/26/1 12/23/1 5/10/1 2/5/1
f 11/22/2 10/20/2 5/10/2 12/23/2
f 4/8/3 10/19/3 11/21/3 7/13/3 6/11/3 3/6/3
f 3/7/4 6/12/4 9/17/4 1/2/4
f 10/20/6 4/9/6 2/5/6 5/10/6
f 8/15/7 9/18/7 6/12/7 7/14/7
f 12/23/1 14/26/1 8/15/1
f 13/25/8 12/24/8 8/16/8 7/14/8 11/22/8
g Cube.156_m_black
usemtl m_black
f 2/4/5 4/9/5 3/7/5 1/3/5
