# Blender 3.3.0
# www.blender.org
mtllib s_tabure.mtl
g liquid_soap.012_Cube.175
v -138.104797 13.231853 442.032257
v -138.104797 15.879307 442.032257
v -137.138702 13.231853 443.294250
v -137.138702 15.879307 443.294250
v -139.366776 13.231853 442.998383
v -139.366776 15.879307 442.998383
v -138.400665 13.231853 444.260345
v -138.400665 15.879307 444.260345
v -138.093414 17.040579 442.579163
v -138.093414 17.183598 442.579163
v -137.835846 17.040579 443.475189
v -137.835846 17.183598 443.475189
v -138.782669 17.040579 443.106812
v -138.782669 17.183598 443.106812
v -137.984909 17.040579 443.589294
v -137.984909 17.183598 443.589294
v -138.262177 16.661608 443.072723
v -138.262177 17.084482 443.072723
v -138.345154 16.661608 443.083557
v -138.345154 17.084482 443.083557
v -138.396011 16.661608 443.017120
v -138.396011 17.084482 443.017120
v -138.363892 16.661608 442.939850
v -138.363892 17.084482 442.939850
v -138.280930 16.661608 442.929016
v -138.280930 17.084482 442.929016
v -138.230072 16.661608 442.995453
v -138.230072 17.084482 442.995453
v -138.175705 15.879303 443.185669
v -138.175705 16.661608 443.185669
v -138.399719 15.879303 443.214874
v -138.399719 16.661608 443.214874
v -138.537033 15.879303 443.035522
v -138.537033 16.661608 443.035522
v -138.450348 15.879303 442.826904
v -138.450348 16.661608 442.826904
v -138.226334 15.879303 442.797668
v -138.226349 16.661608 442.797668
v -138.089020 15.879303 442.977020
v -138.089020 16.661608 442.977020
vn 0.7940 -0.0000 -0.6079
vn 0.6079 -0.0000 0.7940
vn -0.7940 -0.0000 0.6079
vn -0.6079 -0.0000 -0.7940
vn -0.0000 -1.0000 -0.0000
vn -0.0000 1.0000 -0.0000
vn 0.9611 -0.0000 -0.2763
vn -0.5175 -0.0000 0.8557
vn 0.1294 -0.0000 0.9916
vn -0.9234 -0.0000 -0.3837
vn -0.1294 -0.0000 -0.9916
vn 0.9235 -0.0000 0.3837
vn -0.9234 -0.0000 -0.3838
vn -0.1295 -0.0000 -0.9916
s 1
g liquid_soap.012_m_white
usemtl m_white
f 9//7 10//7 12//7 11//7
f 11//2 12//2 16//2 15//2
f 15//8 16//8 14//8 13//8
f 13//4 14//4 10//4 9//4
f 11//5 15//5 13//5 9//5
f 16//6 12//6 10//6 14//6
f 17//9 18//9 20//9 19//9
f 19//3 20//3 22//3 21//3
f 21//10 22//10 24//10 23//10
f 23//11 24//11 26//11 25//11
f 20//6 18//6 28//6 26//6 24//6 22//6
f 25//1 26//1 28//1 27//1
f 27//12 28//12 18//12 17//12
f 17//5 19//5 21//5 23//5 25//5 27//5
f 29//9 30//9 32//9 31//9
f 31//3 32//3 34//3 33//3
f 33//13 34//13 36//13 35//13
f 35//14 36//14 38//14 37//14
f 32//6 30//6 40//6 38//6 36//6 34//6
f 37//1 38//1 40//1 39//1
f 39//12 40//12 30//12 29//12
f 29//5 31//5 33//5 35//5 37//5 39//5
g liquid_soap.012_m_yellow
usemtl m_yellow
f 1//1 2//1 4//1 3//1
f 3//2 4//2 8//2 7//2
f 7//3 8//3 6//3 5//3
f 5//4 6//4 2//4 1//4
f 3//5 7//5 5//5 1//5
f 8//6 4//6 2//6 6//6
g chair.013_Cube.189
v -138.417435 2.967917 447.688080
v -138.606049 12.666476 445.188934
v -138.237411 2.853263 447.254578
v -138.329453 12.490326 444.522949
v -137.969040 3.014966 447.861847
v -137.917175 12.738752 445.455933
v -137.789017 2.900303 447.428345
v -137.640579 12.562600 444.789948
v -141.623779 2.968617 442.051727
v -139.467728 12.726151 442.748352
v -141.186249 2.853415 442.221283
v -138.795517 12.549154 443.008850
v -141.798386 2.968620 442.502258
v -139.735977 12.726149 443.440521
v -141.360840 2.853412 442.671814
v -139.063782 12.549158 443.701050
v -135.139816 3.014971 440.561737
v -136.722839 12.738760 442.374268
v -135.298935 2.900314 441.003326
v -136.967285 12.562607 443.052673
v -135.588211 2.967926 440.387970
v -137.411713 12.666481 442.107269
v -135.747314 2.853271 440.829559
v -137.656174 12.490335 442.785706
v -137.037796 12.468892 439.978058
v -137.037796 13.229856 439.978058
v -134.660446 12.468891 442.933228
v -134.660446 13.229860 442.933258
v -136.031036 12.468892 446.469666
v -136.031036 13.229860 446.469696
v -139.778961 12.468893 447.050964
v -139.778961 13.229859 447.050934
v -142.156311 12.468892 444.095764
v -142.156311 13.229860 444.095764
v -140.785721 12.468891 440.559326
v -140.785736 13.229860 440.559326
vn -0.9279 -0.1099 -0.3563
vn 0.3726 -0.2498 -0.8938
vn 0.9279 0.0849 0.3629
vn -0.3725 0.2248 0.9004
vn 0.0020 -0.9665 0.2565
vn -0.0020 0.9665 -0.2565
vn 0.3584 -0.0126 -0.9335
vn 0.9026 -0.2510 0.3498
vn -0.3642 -0.0126 0.9312
vn -0.9083 0.2258 -0.3520
vn -0.2223 -0.9712 -0.0862
vn 0.2223 0.9712 0.0862
vn 0.9302 0.0849 0.3572
vn -0.3270 -0.2498 0.9114
vn -0.9257 -0.1099 -0.3620
vn 0.3315 0.2248 -0.9163
vn 0.1743 -0.9665 -0.1881
vn -0.1743 0.9665 0.1881
vn 0.7792 -0.0000 -0.6268
vn 0.9324 -0.0000 0.3614
vn 0.1533 -0.0000 0.9882
vn -0.7792 -0.0000 0.6268
vn -0.0000 1.0000 -0.0000
vn -0.9324 -0.0000 -0.3614
vn -0.1533 -0.0000 -0.9882
vn -0.0000 -1.0000 -0.0000
s 1
g chair.013_m_babyblue
usemtl m_babyblue
f 41//15 42//15 44//15 43//15
f 43//16 44//16 48//16 47//16
f 47//17 48//17 46//17 45//17
f 45//18 46//18 42//18 41//18
f 43//19 47//19 45//19 41//19
f 48//20 44//20 42//20 46//20
f 49//21 50//21 52//21 51//21
f 51//22 52//22 56//22 55//22
f 55//23 56//23 54//23 53//23
f 53//24 54//24 50//24 49//24
f 51//25 55//25 53//25 49//25
f 56//26 52//26 50//26 54//26
f 57//27 58//27 60//27 59//27
f 59//28 60//28 64//28 63//28
f 63//29 64//29 62//29 61//29
f 61//30 62//30 58//30 57//30
f 59//31 63//31 61//31 57//31
f 64//32 60//32 58//32 62//32
f 65//33 66//33 68//33 67//33
f 67//34 68//34 70//34 69//34
f 69//35 70//35 72//35 71//35
f 71//36 72//36 74//36 73//36
f 68//37 66//37 76//37 74//37 72//37 70//37
f 73//38 74//38 76//38 75//38
f 75//39 76//39 66//39 65//39
f 65//40 67//40 69//40 71//40 73//40 75//40
