# Blender 3.3.0
# www.blender.org
mtllib b_masa.mtl
g Leg_3.008_Mesh.030
v -193.088318 2.180515 457.336853
v -193.169479 2.181738 457.296448
v -193.219299 2.184697 457.302734
v -193.293564 2.195888 457.407410
v -193.367844 2.207080 457.512115
v -193.357300 2.210038 457.561218
v -193.292374 2.211262 457.624481
v -193.016129 2.211261 457.820435
v -192.739899 2.211263 458.016418
v -192.658737 2.210037 458.056793
v -192.608902 2.207081 458.050507
v -192.534622 2.195889 457.945831
v -192.460358 2.184697 457.841125
v -192.470917 2.181738 457.792023
v -192.535843 2.180516 457.728790
v -192.812088 2.180516 457.532806
v -192.696671 11.554729 456.629974
v -192.746490 11.557687 456.636230
v -192.615509 11.553505 456.670349
v -192.895035 11.580070 456.845612
v -192.884491 11.583028 456.894714
v -192.267090 11.584252 457.349915
v -192.185928 11.583028 457.390289
v -191.987549 11.557688 457.174652
v -191.998108 11.554728 457.125549
v -192.339279 11.553506 456.866333
v -192.819565 11.584250 456.957977
v -192.136093 11.580070 457.384033
v -192.063034 11.553506 457.062286
v -192.820770 11.568878 456.740936
v -192.543320 11.584251 457.153961
v -192.061829 11.568879 457.279327
v -184.119110 2.180514 457.336853
v -184.037949 2.181737 457.296478
v -183.988129 2.184695 457.302734
v -183.913864 2.195888 457.407410
v -183.839584 2.207079 457.512115
v -183.850128 2.210036 457.561218
v -183.915054 2.211260 457.624481
v -184.191299 2.211260 457.820435
v -184.467529 2.211260 458.016418
v -184.548691 2.210035 458.056793
v -184.598526 2.207080 458.050507
v -184.672806 2.195889 457.945831
v -184.747070 2.184697 457.841125
v -184.736511 2.181737 457.792023
v -184.671600 2.180515 457.728790
v -184.395340 2.180514 457.532806
v -193.088318 2.180514 443.452820
v -193.169479 2.181738 443.493195
v -193.219299 2.184696 443.486938
v -193.293564 2.195887 443.382233
v -193.367844 2.207078 443.277557
v -193.357300 2.210037 443.228455
v -193.292374 2.211259 443.165192
v -193.016129 2.211261 442.969208
v -192.739899 2.211261 442.773254
v -192.658737 2.210036 442.732880
v -192.608902 2.207079 442.739136
v -192.534637 2.195889 442.843842
v -192.460358 2.184696 442.948517
v -192.470917 2.181737 442.997620
v -192.535843 2.180515 443.060883
v -192.812088 2.180514 443.256836
v -192.696671 11.554729 444.159668
v -192.746490 11.557687 444.153412
v -192.615524 11.553505 444.119293
v -192.895035 11.580070 443.944031
v -192.884491 11.583028 443.894928
v -192.267090 11.584252 443.439728
v -192.185928 11.583028 443.399353
v -191.987549 11.557688 443.615021
v -191.998108 11.554728 443.664124
v -192.339279 11.553506 443.923340
v -192.819565 11.584251 443.831665
v -192.136093 11.580070 443.405640
v -192.063034 11.553507 443.727356
v -192.820770 11.568878 444.048737
v -192.543320 11.584251 443.635712
v -192.061829 11.568879 443.510315
vn -0.0927 0.7045 0.7036
vn 0.4330 0.6517 0.6227
vn 0.6123 0.7044 0.3590
vn 0.7938 0.5973 0.1141
vn 0.6986 0.5853 -0.4117
vn 0.4967 0.6247 -0.6026
vn 0.4431 0.6430 -0.6247
vn 0.4046 0.6247 -0.6679
vn 0.1578 0.5853 -0.7953
vn -0.3700 0.5973 -0.7116
vn -0.5412 0.7044 -0.4592
vn -0.7308 0.6517 -0.2029
vn -0.6335 0.7045 0.3200
vn -0.4273 0.7501 0.5048
vn -0.3721 0.7658 0.5245
vn -0.3353 0.7501 0.5701
vn -0.1578 -0.5853 0.7953
vn -0.4047 -0.6247 0.6678
vn -0.4432 -0.6430 0.6247
vn -0.4966 -0.6247 0.6026
vn -0.6985 -0.5853 0.4117
vn -0.7938 -0.5973 -0.1141
vn -0.6123 -0.7044 -0.3590
vn -0.4330 -0.6517 -0.6228
vn 0.0927 -0.7045 -0.7036
vn 0.3353 -0.7500 -0.5701
vn 0.3721 -0.7658 -0.5245
vn 0.4273 -0.7500 -0.5048
vn 0.6335 -0.7045 -0.3200
vn 0.7308 -0.6517 0.2029
vn 0.5412 -0.7044 0.4592
vn 0.3700 -0.5973 0.7116
vn -0.0503 0.9962 -0.0708
vn -0.0927 0.7045 -0.7036
vn -0.3353 0.7501 -0.5701
vn -0.3721 0.7658 -0.5245
vn -0.4273 0.7501 -0.5048
vn -0.6335 0.7045 -0.3200
vn -0.7309 0.6517 0.2029
vn -0.5412 0.7044 0.4592
vn -0.3700 0.5973 0.7116
vn 0.1578 0.5853 0.7953
vn 0.4046 0.6247 0.6679
vn 0.4431 0.6430 0.6246
vn 0.4967 0.6247 0.6026
vn 0.6986 0.5853 0.4117
vn 0.7938 0.5973 -0.1141
vn 0.6123 0.7044 -0.3591
vn 0.4330 0.6517 -0.6227
vn -0.1578 -0.5853 -0.7953
vn 0.3700 -0.5973 -0.7115
vn 0.5412 -0.7044 -0.4592
vn 0.7308 -0.6517 -0.2029
vn 0.6335 -0.7045 0.3200
vn 0.4273 -0.7500 0.5048
vn 0.3721 -0.7658 0.5244
vn 0.3353 -0.7500 0.5701
vn 0.0927 -0.7045 0.7036
vn -0.4330 -0.6517 0.6228
vn -0.6123 -0.7044 0.3590
vn -0.7938 -0.5973 0.1141
vn -0.6985 -0.5853 -0.4117
vn -0.4966 -0.6247 -0.6026
vn -0.4431 -0.6430 -0.6246
vn -0.4047 -0.6247 -0.6678
vt 0.000000 0.000000
vt 0.062500 0.000000
vt 0.125000 0.000000
vt 0.187500 0.000000
vt 0.250000 0.000000
vt 0.312500 0.000000
vt 0.375000 0.000000
vt 0.437500 0.000000
vt 0.500000 0.000000
vt 0.562500 0.000000
vt 0.625000 0.000000
vt 0.687500 0.000000
vt 0.750000 0.000000
vt 0.812500 0.000000
vt 0.875000 0.000000
vt 0.937500 0.000000
vt 0.062500 0.000000
vt 0.125000 0.000000
vt 0.000000 0.000000
vt 0.250000 0.000000
vt 0.312500 0.000000
vt 0.500000 0.000000
vt 0.562500 0.000000
vt 0.750000 0.000000
vt 0.812500 0.000000
vt 0.937500 0.000000
vt 0.375000 0.000000
vt 0.625000 0.000000
vt 0.875000 0.000000
vt 0.187500 0.000000
vt 0.437500 0.000000
vt 0.687500 0.000000
vt 0.000000 0.000000
vt 0.062500 0.000000
vt 0.125000 0.000000
vt 0.187500 0.000000
vt 0.250000 0.000000
vt 0.312500 0.000000
vt 0.375000 0.000000
vt 0.437500 0.000000
vt 0.500000 0.000000
vt 0.562500 0.000000
vt 0.625000 0.000000
vt 0.687500 0.000000
vt 0.750000 0.000000
vt 0.812500 0.000000
vt 0.875000 0.000000
vt 0.937500 0.000000
vt 0.000000 0.000000
vt 0.062500 0.000000
vt 0.125000 0.000000
vt 0.187500 0.000000
vt 0.250000 0.000000
vt 0.312500 0.000000
vt 0.375000 0.000000
vt 0.437500 0.000000
vt 0.500000 0.000000
vt 0.562500 0.000000
vt 0.625000 0.000000
vt 0.687500 0.000000
vt 0.750000 0.000000
vt 0.812500 0.000000
vt 0.875000 0.000000
vt 0.937500 0.000000
vt 0.062500 0.000000
vt 0.125000 0.000000
vt 0.000000 0.000000
vt 0.250000 0.000000
vt 0.312500 0.000000
vt 0.500000 0.000000
vt 0.562500 0.000000
vt 0.750000 0.000000
vt 0.812500 0.000000
vt 0.937500 0.000000
vt 0.375000 0.000000
vt 0.625000 0.000000
vt 0.875000 0.000000
vt 0.187500 0.000000
vt 0.437500 0.000000
vt 0.687500 0.000000
s 1
g Leg_3.008_m_koyuahşap
usemtl m_koyuahşap
f 2/2/1 3/3/2 4/4/3 5/5/4 6/6/5 7/7/6 8/8/7 9/9/8 10/10/9 11/11/10 12/12/11 13/13/12 14/14/13 15/15/14 16/16/15 1/1/16
f 17/17/17 19/19/18 26/26/19 29/29/20 25/25/21 24/24/22 32/32/23 28/28/24 23/23/25 22/22/26 31/31/27 27/27/28 21/21/29 20/20/30 30/30/31 18/18/32
f 4/4/3 3/3/2 18/18/32 30/30/31
f 6/6/5 5/5/4 20/20/30 21/21/29
f 8/8/7 7/7/6 27/27/28 31/31/27
f 10/10/9 9/9/8 22/22/26 23/23/25
f 12/12/11 11/11/10 28/28/24 32/32/23
f 14/14/13 13/13/12 24/24/22 25/25/21
f 16/16/15 15/15/14 29/29/20 26/26/19
f 1/1/16 16/16/15 26/26/19 19/19/18
f 5/5/4 4/4/3 30/30/31 20/20/30
f 7/7/6 6/6/5 21/21/29 27/27/28
f 9/9/8 8/8/7 31/31/27 22/22/26
f 11/11/10 10/10/9 23/23/25 28/28/24
f 3/3/2 2/2/1 17/17/17 18/18/32
f 13/13/12 12/12/11 32/32/23 24/24/22
f 15/15/14 14/14/13 25/25/21 29/29/20
f 2/2/1 1/1/16 19/19/18 17/17/17
f 34/34/33 33/33/33 48/48/33 47/47/33 46/46/33 45/45/33 44/44/33 43/43/33 42/42/33 41/41/33 40/40/33 39/39/33 38/38/33 37/37/33 36/36/33 35/35/33
f 50/50/34 49/49/35 64/64/36 63/63/37 62/62/38 61/61/39 60/60/40 59/59/41 58/58/42 57/57/43 56/56/44 55/55/45 54/54/46 53/53/47 52/52/48 51/51/49
f 65/65/50 66/66/51 78/78/52 68/68/53 69/69/54 75/75/55 79/79/56 70/70/57 71/71/58 76/76/59 80/80/60 72/72/61 73/73/62 77/77/63 74/74/64 67/67/65
f 52/52/48 78/78/52 66/66/51 51/51/49
f 54/54/46 69/69/54 68/68/53 53/53/47
f 56/56/44 79/79/56 75/75/55 55/55/45
f 58/58/42 71/71/58 70/70/57 57/57/43
f 60/60/40 80/80/60 76/76/59 59/59/41
f 62/62/38 73/73/62 72/72/61 61/61/39
f 64/64/36 74/74/64 77/77/63 63/63/37
f 49/49/35 67/67/65 74/74/64 64/64/36
f 53/53/47 68/68/53 78/78/52 52/52/48
f 55/55/45 75/75/55 69/69/54 54/54/46
f 57/57/43 70/70/57 79/79/56 56/56/44
f 59/59/41 76/76/59 71/71/58 58/58/42
f 51/51/49 66/66/51 65/65/50 50/50/34
f 61/61/39 72/72/61 80/80/60 60/60/40
f 63/63/37 77/77/63 73/73/62 62/62/38
f 50/50/34 65/65/50 67/67/65 49/49/35
g Cube.157_Cube.207
v -184.006592 9.471745 464.919128
v -184.277420 9.503566 465.025055
v -189.956177 4.646781 451.157532
v -190.226990 4.678602 451.263458
v -190.180786 1.927572 452.208008
v -189.909973 1.895752 452.102081
v -184.228836 6.611767 466.017944
v -183.958023 6.579946 465.912018
v -186.858200 3.637449 459.381165
v -188.814316 3.492776 454.423553
v -184.789673 5.186049 464.204468
v -185.298126 5.856348 462.703217
v -189.085129 3.524597 454.529480
v -185.060501 5.217870 464.310394
v -187.129028 3.669270 459.487091
v -185.568939 5.888169 462.809143
vn -0.3778 -0.3063 -0.8738
vn -0.0159 0.9457 -0.3247
vn 0.3778 0.3063 0.8738
vn 0.9258 -0.1088 -0.3621
vn -0.9258 0.1088 0.3621
vn 0.1031 -0.8488 0.5185
vn 0.1354 -0.7988 0.5861
vn -0.2359 -0.9146 -0.3284
vn -0.0913 -0.9937 0.0650
vn 0.1078 -0.8421 0.5285
vt 0.375000 0.750000
vt 0.625000 0.750000
vt 0.375000 0.500000
vt 0.625000 0.500000
vt 0.625000 0.419341
vt 0.705659 0.500000
vt 0.590028 1.000000
vt 0.375000 0.419341
vt 0.294341 0.500000
vt 0.583974 1.000000
vt 0.625000 0.834786
vt 0.709786 0.750000
vt 0.590028 0.750000
vt 0.375000 0.834786
vt 0.290214 0.750000
vt 0.583974 0.750000
vt 0.273133 0.627724
vt 0.583974 1.000000
vt 0.314834 0.546532
vt 0.583974 1.000000
vt 0.269404 0.714553
vt 0.583974 0.750000
vt 0.300720 0.693942
vt 0.583974 0.750000
vt 0.685166 0.546532
vt 0.590028 1.000000
vt 0.730596 0.714553
vt 0.590028 0.750000
vt 0.726867 0.627724
vt 0.590028 1.000000
vt 0.699280 0.693942
vt 0.590028 0.750000
s 0
g Cube.157_m_koyuahşap
usemtl m_koyuahşap
f 85/85/66 84/84/66 83/83/66 86/88/66
f 83/83/67 84/84/67 82/82/67 81/81/67
f 88/94/68 81/81/68 82/82/68 87/91/68
f 90/99/69 86/89/69 83/83/69 81/81/69 88/95/69 91/101/69 92/103/69 89/97/69
f 94/107/70 87/92/70 82/82/70 84/84/70 85/86/70 93/105/70 95/109/70 96/111/70
f 89/98/71 92/104/71 96/112/71 95/110/71
f 91/102/72 88/96/72 87/93/72 94/108/72
f 92/104/73 91/102/73 94/108/73 96/112/73
f 90/100/74 89/98/74 95/110/74 93/106/74
f 86/90/75 90/100/75 93/106/75 85/87/75
g Cube.158_Cube.208
v -193.227722 11.761490 458.269775
v -193.148041 12.042961 458.269775
v -193.227722 11.761490 442.519897
v -193.148041 12.042961 442.519897
v -187.271545 10.379393 442.519897
v -187.351227 10.097922 442.519897
v -187.414764 10.419939 458.269775
v -187.494446 10.138468 458.269775
v -188.087204 10.306268 450.566437
v -186.640076 9.896603 445.451416
v -188.216614 10.342903 456.036621
v -187.129883 10.035264 454.738159
v -186.560394 10.178074 445.451416
v -188.136932 10.624374 456.036621
v -188.007523 10.587739 450.566437
v -187.050201 10.316735 454.738159
vn -0.9622 0.2724 -0.0000
vn -0.0000 -0.0000 -1.0000
vn -0.0000 -0.0000 1.0000
vn -0.2724 -0.9622 -0.0000
vn 0.2724 0.9622 -0.0000
vn 0.9359 -0.2650 -0.2320
vn 0.9121 -0.2582 -0.3186
vn 0.7260 -0.2055 0.6563
vn 0.9231 -0.2613 0.2821
vn 0.9330 -0.2641 -0.2445
vt 0.375000 0.000000
vt 0.375000 1.000000
vt 0.125000 0.750000
vt 0.625000 0.000000
vt 0.625000 1.000000
vt 0.875000 0.750000
vt 0.375000 0.250000
vt 0.125000 0.500000
vt 0.625000 0.250000
vt 0.875000 0.500000
vt 0.625000 0.419340
vt 0.705660 0.500000
vt 0.590028 1.000000
vt 0.375000 0.419340
vt 0.294340 0.500000
vt 0.583974 1.000000
vt 0.625000 0.834787
vt 0.709787 0.750000
vt 0.590028 0.750000
vt 0.375000 0.834787
vt 0.290213 0.750000
vt 0.583974 0.750000
vt 0.273132 0.627724
vt 0.583974 1.000000
vt 0.314833 0.546533
vt 0.583974 1.000000
vt 0.269403 0.714553
vt 0.583974 0.750000
vt 0.300718 0.693942
vt 0.583974 0.750000
vt 0.685167 0.546532
vt 0.590028 1.000000
vt 0.730597 0.714553
vt 0.590028 0.750000
vt 0.726868 0.627724
vt 0.590028 1.000000
vt 0.699282 0.693942
vt 0.590028 0.750000
s 0
g Cube.158_m_koyuahşap
usemtl m_koyuahşap
f 97/113/76 98/116/76 100/121/76 99/119/76
f 99/119/77 100/121/77 101/123/77 102/126/77
f 98/117/78 97/114/78 104/132/78 103/129/78
f 104/133/79 97/115/79 99/120/79 102/127/79 106/137/79 105/135/79 108/141/79 107/139/79
f 109/143/80 101/124/80 100/122/80 98/118/80 103/130/80 110/145/80 112/149/80 111/147/80
f 112/150/81 108/142/81 105/136/81 111/148/81
f 103/131/82 104/134/82 107/140/82 110/146/82
f 110/146/83 107/140/83 108/142/83 112/150/83
f 111/148/84 105/136/84 106/138/84 109/144/84
f 102/128/85 101/125/85 109/144/85 106/138/85
g Leg_3.010_Mesh.031
v -175.763000 7.706248 460.906372
v -175.780670 7.770754 460.845184
v -175.781845 7.820116 460.835571
v -175.753830 7.923639 460.906982
v -175.725830 8.027168 460.978394
v -175.709854 8.032553 461.025787
v -175.686050 7.990675 461.102570
v -175.607635 7.789471 461.363495
v -175.529221 7.588274 461.624420
v -175.511551 7.523754 461.685608
v -175.510391 7.474391 461.695251
v -175.538391 7.370862 461.623840
v -175.566406 7.267338 461.552429
v -175.582382 7.261957 461.505035
v -175.606171 7.303842 461.428223
v -175.684586 7.505046 461.167297
v -184.702164 8.139015 463.810333
v -184.703323 8.188376 463.800720
v -184.684494 8.074509 463.871521
v -184.647308 8.395429 463.943542
v -184.631348 8.400814 463.990936
v -184.450714 7.956533 464.589600
v -184.433044 7.892015 464.650757
v -184.487885 7.635599 464.517578
v -184.503860 7.630216 464.470184
v -184.606079 7.873307 464.132446
v -184.607544 8.358936 464.067719
v -184.431870 7.842652 464.660400
v -184.527664 7.672102 464.393402
v -184.675323 8.291900 463.872131
v -184.529129 8.157730 464.328674
v -184.459885 7.739123 464.588989
v -181.007751 3.452887 448.775116
v -180.994919 3.542133 448.784485
v -181.000824 3.587655 448.763885
v -181.051910 3.627037 448.652374
v -181.102997 3.666420 448.540833
v -181.124115 3.641726 448.502411
v -181.148102 3.561085 448.468658
v -181.217758 3.239807 448.387146
v -181.287399 2.918540 448.305603
v -181.300217 2.829288 448.296234
v -181.294327 2.783762 448.316803
v -181.243240 2.744378 448.428345
v -181.192154 2.704997 448.539886
v -181.171021 2.729699 448.578308
v -181.147034 2.810338 448.612030
v -181.077393 3.131616 448.693573
v -189.412872 4.318749 452.914337
v -189.418762 4.364272 452.893738
v -189.425705 4.229504 452.904968
v -189.520950 4.443036 452.670685
v -189.542068 4.418343 452.632263
v -189.705338 3.695156 452.435455
v -189.718170 3.605905 452.426086
v -189.610107 3.481613 452.669739
v -189.588974 3.506315 452.708130
v -189.495346 3.908233 452.823425
v -189.566055 4.337702 452.598511
v -189.712280 3.560378 452.446655
v -189.564987 3.586954 452.741882
v -189.469864 4.403652 452.782227
v -189.635696 4.016423 452.516968
v -189.661194 3.520994 452.558197
vn 0.2315 -0.5940 0.7704
vn 0.2993 -0.2212 0.9281
vn -0.0950 -0.9819 -0.1639
vn 0.1247 -0.8668 0.4828
vn -0.2174 -0.8035 -0.5542
vn -0.1987 -0.8473 -0.4925
vn -0.2964 -0.4651 -0.8341
vn -0.2348 -0.7547 -0.6126
vn -0.2315 0.5940 -0.7704
vn -0.2994 0.2212 -0.9282
vn 0.0951 0.9819 0.1640
vn -0.1247 0.8668 -0.4828
vn 0.2174 0.8035 0.5542
vn 0.1987 0.8473 0.4926
vn 0.2347 0.7548 0.6125
vn 0.2964 0.4651 0.8341
vn -0.2056 -0.9486 -0.2407
vn -0.3476 -0.7459 -0.5682
vn 0.2676 -0.6878 0.6748
vn -0.0290 -0.9914 0.1273
vn 0.3965 -0.3056 0.8657
vn 0.3793 -0.3787 0.8443
vn 0.4465 0.1374 0.8842
vn 0.4113 -0.2308 0.8818
vn 0.2056 0.9486 0.2407
vn 0.3476 0.7458 0.5683
vn 0.3476 0.7458 0.5682
vn -0.2676 0.6877 -0.6748
vn 0.0290 0.9914 -0.1273
vn -0.3965 0.3056 -0.8657
vn -0.3793 0.3786 -0.8443
vn -0.4113 0.2309 -0.8818
vn -0.4465 -0.1373 -0.8842
vt 0.000000 0.000000
vt 0.062500 0.000000
vt 0.125000 0.000000
vt 0.187500 0.000000
vt 0.250000 0.000000
vt 0.312500 0.000000
vt 0.375000 0.000000
vt 0.437500 0.000000
vt 0.500000 0.000000
vt 0.562500 0.000000
vt 0.625000 0.000000
vt 0.687500 0.000000
vt 0.750000 0.000000
vt 0.812500 0.000000
vt 0.875000 0.000000
vt 0.937500 0.000000
vt 0.062500 0.000000
vt 0.125000 0.000000
vt 0.000000 0.000000
vt 0.250000 0.000000
vt 0.312500 0.000000
vt 0.500000 0.000000
vt 0.562500 0.000000
vt 0.750000 0.000000
vt 0.812500 0.000000
vt 0.937500 0.000000
vt 0.375000 0.000000
vt 0.625000 0.000000
vt 0.875000 0.000000
vt 0.187500 0.000000
vt 0.437500 0.000000
vt 0.687500 0.000000
vt 0.000000 0.000000
vt 0.062500 0.000000
vt 0.125000 0.000000
vt 0.187500 0.000000
vt 0.250000 0.000000
vt 0.312500 0.000000
vt 0.375000 0.000000
vt 0.437500 0.000000
vt 0.500000 0.000000
vt 0.562500 0.000000
vt 0.625000 0.000000
vt 0.687500 0.000000
vt 0.750000 0.000000
vt 0.812500 0.000000
vt 0.875000 0.000000
vt 0.937500 0.000000
vt 0.062500 0.000000
vt 0.125000 0.000000
vt 0.000000 0.000000
vt 0.250000 0.000000
vt 0.312500 0.000000
vt 0.500000 0.000000
vt 0.562500 0.000000
vt 0.750000 0.000000
vt 0.812500 0.000000
vt 0.937500 0.000000
vt 0.375000 0.000000
vt 0.625000 0.000000
vt 0.875000 0.000000
vt 0.187500 0.000000
vt 0.437500 0.000000
vt 0.687500 0.000000
s 1
g Leg_3.010_m_koyuahşap
usemtl m_koyuahşap
f 116/154/86 142/180/86 130/168/87 115/153/87
f 118/156/88 133/171/88 132/170/89 117/155/89
f 120/158/90 143/181/90 139/177/91 119/157/91
f 122/160/92 135/173/92 134/172/93 121/159/93
f 124/162/94 144/182/94 140/178/95 123/161/95
f 126/164/96 137/175/96 136/174/97 125/163/97
f 128/166/98 138/176/98 141/179/99 127/165/99
f 113/151/100 131/169/100 138/176/98 128/166/98
f 117/155/89 132/170/89 142/180/86 116/154/86
f 119/157/91 139/177/91 133/171/88 118/156/88
f 121/159/93 134/172/93 143/181/90 120/158/90
f 123/161/95 140/178/95 135/173/92 122/160/92
f 115/153/87 130/168/87 129/167/101 114/152/101
f 125/163/97 136/174/97 144/182/94 124/162/94
f 127/165/99 141/179/99 137/175/96 126/164/96
f 114/152/101 129/167/101 131/169/100 113/151/100
f 148/186/102 147/185/103 162/200/103 174/212/102
f 150/188/104 149/187/105 164/202/105 165/203/104
f 152/190/106 151/189/107 171/209/107 175/213/106
f 154/192/108 153/191/109 166/204/109 167/205/108
f 156/194/110 155/193/111 172/210/112 176/214/110
f 158/196/113 157/195/114 168/206/114 169/207/113
f 160/198/115 159/197/116 173/211/116 170/208/115
f 145/183/117 160/198/115 170/208/115 163/201/117
f 149/187/105 148/186/102 174/212/102 164/202/105
f 151/189/107 150/188/104 165/203/104 171/209/107
f 153/191/109 152/190/106 175/213/106 166/204/109
f 155/193/111 154/192/108 167/205/108 172/210/112
f 147/185/103 146/184/118 161/199/118 162/200/103
f 157/195/114 156/194/110 176/214/110 168/206/114
f 159/197/116 158/196/113 169/207/113 173/211/116
f 146/184/118 145/183/117 163/201/117 161/199/118
