# Blender 3.3.0
# www.blender.org
mtllib holyduvar.mtl
g Cube.063_Cube.068
v 114.004295 114.535835 -98.542984
v 114.004295 -114.535835 -98.542984
v 114.004295 114.535835 98.542984
v 114.004295 -114.535835 98.542984
v -114.004295 114.535835 -98.542984
v -114.004295 -114.535835 -98.542984
v -114.004295 114.535835 98.542984
v -114.004295 -114.535835 98.542984
v 105.264328 114.535835 98.542984
v 107.824203 114.535835 -93.201042
v 108.958275 -109.466286 -94.181305
v 107.824203 -108.326927 98.542984
v -107.824203 -108.326927 98.542984
v -105.264328 114.535835 98.542984
v -107.824203 114.535835 -93.201042
v -108.958275 -109.466286 -94.181305
vn -1.0000 -0.0000 -0.0000
vn 1.0000 -0.0000 -0.0000
vn -0.0000 -0.0000 1.0000
vn -0.0000 1.0000 -0.0000
vn 0.9999 0.0082 0.0096
vn -0.9999 0.0082 0.0096
vn -0.0000 0.0044 -1.0000
vn -0.0000 -1.0000 0.0059
vn -0.0000 -0.0000 -1.0000
vn -0.0000 -1.0000 -0.0000
vt 0.327509 0.012977
vt 0.404300 0.147149
vt 0.382205 0.012977
vt 0.469778 0.147149
vt 0.535256 0.081671
vt 0.327509 0.067673
vt 0.382205 0.067673
vt 0.535256 0.016193
vt 0.404300 0.081671
vt 0.469778 0.081671
vt 0.404300 0.016193
vt 0.469778 0.016193
vt 0.994050 0.992395
vt 0.327509 0.067673
vt 0.739729 0.992395
vt 0.006920 0.379410
vt 0.327509 0.012977
vt 0.404300 0.147149
vt 0.739729 0.420058
vt 0.006920 0.994290
vt 0.298460 0.254046
vt 0.994050 0.420058
vt 0.298460 0.004046
vt 0.382205 0.067673
vt 0.535256 0.016193
vt 0.305871 0.496015
vt 0.048460 0.004046
vt 0.469778 0.016193
vt 0.305871 1.001116
vt 0.404300 0.016193
vt 0.530316 1.001116
vt 0.280145 0.379410
vt 0.404300 0.081671
vt 0.530316 0.496015
vt 0.280145 0.994290
vt 0.048460 0.254046
s 0
g Cube.063_pinkkkk.010
usemtl pinkkkk.010
f 10/15/5 9/13/5 12/22/5 11/19/5
f 14/29/6 15/31/6 16/34/6 13/26/6
f 15/32/7 10/16/7 11/20/7 16/35/7
f 13/27/8 16/36/8 11/21/8 12/23/8
g Cube.063_pinkkkk
usemtl pinkkkk
f 1/1/1 2/3/1 4/7/1 3/6/1
f 7/11/2 8/12/2 6/10/2 5/9/2
f 5/9/3 6/10/3 2/4/3 1/2/3
f 8/12/4 4/8/4 2/5/4 6/10/4
f 4/7/9 12/24/9 9/14/9 3/6/9
f 5/9/10 15/33/10 14/30/10 7/11/10
f 8/12/9 13/28/9 12/25/9 4/8/9
f 3/6/10 9/14/10 10/17/10 1/1/10
f 1/2/10 10/18/10 15/33/10 5/9/10
f 7/11/9 14/30/9 13/28/9 8/12/9
