# Blender v3.0.1 OBJ File: 'hand.blend'
# www.blender.org
mtllib yuzuk-kut.mtl
o 4._finger__küt_Female_Hand.013
v 0.002623 0.007969 -0.038274
v 0.004967 0.005000 -0.100457
v 0.042183 -0.014529 -0.023676
v -0.037559 -0.014355 -0.024566
v 0.037485 -0.006101 -0.081621
v -0.028919 -0.005973 -0.083345
v -0.035223 -0.000132 0.045373
v 0.031228 -0.000277 0.046114
v -0.003409 0.012526 0.048742
v 0.042778 -0.003924 -0.088035
v 0.005078 0.008871 -0.107429
v -0.042123 -0.015893 -0.035735
v 0.003875 0.006366 -0.069968
v 0.037668 -0.015408 -0.010933
v -0.032014 -0.015255 -0.011711
v -0.017433 0.001715 -0.034607
v 0.022433 0.001630 -0.034060
v 0.042423 -0.011192 -0.055893
v -0.035626 -0.011034 -0.057440
v 0.023893 0.001078 -0.095972
v -0.014285 0.001150 -0.097073
v -0.034027 -0.003780 -0.090262
v 0.047341 -0.016050 -0.034103
v 0.030009 -0.005425 0.047831
v -0.003418 0.004743 0.048688
v -0.033756 -0.005286 0.047119
v -0.038126 -0.007954 0.001647
v 0.039954 -0.008125 0.002518
v 0.001104 0.009968 -0.004573
v 0.016113 0.008228 0.048434
v -0.022097 0.008312 0.048008
v -0.016966 0.004718 -0.104160
v -0.041332 -0.010897 -0.064021
v 0.026783 0.004638 -0.102781
v -0.016059 0.000957 -0.066418
v 0.023517 0.000877 -0.065608
v 0.048331 -0.011070 -0.061897
v 0.015912 0.001152 0.048553
v -0.021870 0.001234 0.048131
v -0.018763 0.004413 -0.002590
v 0.020831 0.004327 -0.002138
v 0.037226 -0.011221 0.009026
v -0.034844 -0.011063 0.008221
v -0.036635 -0.003935 0.024115
v -0.020476 0.006416 0.023409
v -0.001215 0.011282 0.022823
v 0.018406 0.006332 0.023848
v 0.035470 -0.004092 0.024920
v 0.033518 -0.008243 0.028965
v -0.034285 -0.008094 0.028208
vt 0.127161 0.639676
vt 0.121391 0.640775
vt 0.121533 0.641101
vt 0.126519 0.638420
vt 0.131844 0.636105
vt 0.131504 0.635739
vt 0.114932 0.637859
vt 0.109015 0.633823
vt 0.108201 0.630533
vt 0.114867 0.635817
vt 0.134979 0.631139
vt 0.133731 0.630573
vt 0.135563 0.625362
vt 0.135958 0.625407
vt 0.132122 0.619338
vt 0.130142 0.619463
vt 0.127648 0.613940
vt 0.124327 0.613519
vt 0.373086 0.080798
vt 0.354722 0.082090
vt 0.358434 0.069199
vt 0.376279 0.068552
vt 0.336357 0.083382
vt 0.340851 0.069319
vt 0.342465 0.056618
vt 0.360225 0.056447
vt 0.379471 0.056306
vt 0.358545 0.043701
vt 0.376241 0.044136
vt 0.341080 0.043880
vt 0.336895 0.029652
vt 0.354953 0.030809
vt 0.373011 0.031965
vt 0.309017 0.037943
vt 0.306999 0.047596
vt 0.304279 0.048503
vt 0.304286 0.041543
vt 0.306004 0.057178
vt 0.303484 0.057106
vt 0.306713 0.066644
vt 0.304079 0.065548
vt 0.308445 0.076039
vt 0.303966 0.072091
vt 0.323740 0.068243
vt 0.324384 0.056873
vt 0.322401 0.079710
vt 0.314991 0.067421
vt 0.315226 0.077816
vt 0.314939 0.057030
vt 0.324013 0.045430
vt 0.322956 0.033798
vt 0.315270 0.046543
vt 0.315788 0.035933
vt 0.295556 0.033255
vt 0.302286 0.035599
vt 0.300756 0.037737
vt 0.295307 0.035253
vt 0.305727 0.036816
vt 0.302575 0.039689
vt 0.302291 0.073648
vt 0.305383 0.076870
vt 0.295191 0.077013
vt 0.300508 0.075284
vt 0.302185 0.077779
vt 0.295924 0.079518
vn -0.2237 0.9329 0.2823
vn -0.3425 0.9158 0.2096
vn -0.2471 0.9521 0.1802
vn -0.1866 0.9465 0.2634
vn -0.0085 0.9455 0.3255
vn -0.0058 0.9601 0.2795
vn -0.4059 0.9015 0.1502
vn -0.5303 0.8341 0.1522
vn -0.6716 0.7342 0.0999
vn -0.3952 0.9151 0.0797
vn 0.2107 0.9311 0.2976
vn 0.1741 0.9447 0.2779
vn 0.3358 0.9123 0.2342
vn 0.2385 0.9503 0.2000
vn 0.4050 0.8967 0.1786
vn 0.3913 0.9138 0.1088
vn 0.5356 0.8242 0.1838
vn 0.6584 0.7420 0.1262
vn -0.3966 0.9179 -0.0166
vn -0.4488 0.8916 -0.0602
vn 0.0030 0.9986 -0.0523
vn 0.0031 0.9996 -0.0288
vn 0.3995 0.9166 0.0126
vn 0.4507 0.8924 -0.0236
vn 0.7522 0.4009 0.5229
vn 0.3013 0.6996 0.6479
vn 0.0526 0.0131 0.9985
vn 0.5401 -0.3885 0.7465
vn -0.0169 0.7646 0.6443
vn -0.0118 -0.0083 0.9999
vn -0.3475 0.7038 0.6196
vn -0.0892 0.0081 0.9960
vn -0.8194 0.3363 0.4643
vn -0.5673 -0.4488 0.6905
vn -0.4351 0.8943 -0.1044
vn 0.0046 0.9979 -0.0653
vn -0.9955 0.0943 0.0014
vn -0.3978 0.9127 -0.0937
vn -0.9633 0.2685 0.0058
vn -0.0007 0.9982 -0.0604
vn 0.4363 0.8983 -0.0521
vn 0.9728 0.2131 0.0911
vn 0.3884 0.9208 -0.0355
vn 0.9183 0.3772 0.1203
vn 0.5821 -0.7871 0.2039
vn 0.9270 0.0424 0.3726
vn 0.8433 -0.4885 0.2243
vn -0.6630 -0.7433 0.0890
vn -0.9127 -0.0458 0.4060
vn -0.4711 -0.8722 0.1314
usemtl Skin_Female.001
s 1
f 32/1/1 22/2/2 6/3/3 21/4/4
f 11/5/5 32/1/1 21/4/4 2/6/6
f 33/7/7 12/8/8 4/9/9 19/10/10
f 22/2/2 33/7/7 19/10/10 6/3/3
f 34/11/11 11/5/5 2/6/6 20/12/12
f 10/13/13 34/11/11 20/12/12 5/14/14
f 37/15/15 10/13/13 5/14/14 18/16/16
f 23/17/17 37/15/15 18/16/16 3/18/18
usemtl Material
f 6/19/3 19/20/10 35/21/19 21/22/4
f 19/20/10 4/23/9 16/24/20 35/21/19
f 35/21/19 16/24/20 1/25/21 13/26/22
f 21/22/4 35/21/19 13/26/22 2/27/6
f 2/27/6 13/26/22 36/28/23 20/29/12
f 13/26/22 1/25/21 17/30/24 36/28/23
f 36/28/23 17/30/24 3/31/18 18/32/16
f 20/29/12 36/28/23 18/32/16 5/33/14
f 8/34/25 30/35/26 38/36/27 24/37/28
f 30/35/26 9/38/29 25/39/30 38/36/27
f 9/38/29 31/40/31 39/41/32 25/39/30
f 31/40/31 7/42/33 26/43/34 39/41/32
f 1/25/21 16/24/20 40/44/35 29/45/36
f 16/24/20 4/23/9 27/46/37 40/44/35
f 45/47/38 44/48/39 7/42/33 31/40/31
f 46/49/40 45/47/38 31/40/31 9/38/29
f 3/31/18 17/30/24 41/50/41 28/51/42
f 17/30/24 1/25/21 29/45/36 41/50/41
f 47/52/43 46/49/40 9/38/29 30/35/26
f 48/53/44 47/52/43 30/35/26 8/34/25
f 3/54/18 28/55/42 42/56/45 14/57/46
f 48/58/44 8/34/25 24/37/28 49/59/47
f 50/60/48 26/43/34 7/42/33 44/61/39
f 15/62/49 43/63/50 27/64/37 4/65/9
f 43/63/50 50/60/48 44/61/39 27/64/37
f 28/55/42 48/58/44 49/59/47 42/56/45
f 28/51/42 41/50/41 47/52/43 48/53/44
f 41/50/41 29/45/36 46/49/40 47/52/43
f 29/45/36 40/44/35 45/47/38 46/49/40
f 40/44/35 27/46/37 44/48/39 45/47/38
