# Blender 3.3.0
# www.blender.org
mtllib p_komodin.mtl
g cabinet.013_Cylinder.072
v 113.962715 2.851122 416.316132
v 113.962715 10.042992 416.316132
v 113.576347 3.406757 424.682190
v 113.576347 9.487354 424.682190
v 97.852791 2.851122 416.284363
v 97.852791 10.042992 416.284363
v 98.206169 3.406757 424.651855
v 98.206169 9.487354 424.651855
v 113.946213 10.042990 424.682892
v 113.946213 2.851120 424.682892
v 97.836288 2.851120 424.651123
v 97.836288 10.042990 424.651123
v 113.591171 9.487356 417.168701
v 113.591171 3.406759 417.168701
v 98.220985 3.406759 417.138397
v 98.220985 9.487356 417.138397
v 130.072647 2.851122 416.347900
v 130.072647 10.042992 416.347900
v 129.686279 3.406757 424.713959
v 129.686279 9.487354 424.713959
v 113.962715 2.851122 416.316132
v 113.962715 10.042992 416.316132
v 114.316093 3.406757 424.683624
v 114.316093 9.487354 424.683624
v 130.056152 10.042990 424.714691
v 130.056152 2.851120 424.714691
v 113.946213 2.851120 424.682892
v 113.946213 10.042990 424.682892
v 129.701111 9.487356 417.200500
v 129.701111 3.406759 417.200500
v 114.330910 3.406759 417.170166
v 114.330910 9.487356 417.170166
v 121.461960 5.980917 424.649292
v 121.461960 6.797521 424.649292
v 121.461250 5.980917 425.007050
v 121.461250 6.797521 425.007050
v 120.100235 5.980917 424.646606
v 120.100235 6.797521 424.646606
v 120.099533 5.980917 425.004364
v 120.099533 6.797521 425.004364
v 120.566803 5.980917 425.005310
v 120.566803 6.797521 425.005310
v 120.567505 5.980917 424.647552
v 120.567505 6.797521 424.647552
v 121.460373 6.797521 425.452667
v 121.460373 5.980917 425.452667
v 120.565926 5.980917 425.450897
v 120.565926 6.797521 425.450897
v 121.460670 6.797521 425.301178
v 121.460670 5.980917 425.301178
v 120.566223 5.980917 425.299408
v 120.566223 6.797521 425.299408
v 123.780975 6.797521 425.457245
v 123.780975 5.980917 425.457245
v 123.781273 6.797521 425.305756
v 123.781273 5.980917 425.305756
v 122.888092 6.797521 424.652130
v 122.888092 5.980915 424.652130
v 122.887390 6.797521 425.009888
v 122.887390 5.980915 425.009888
v 124.249817 6.797523 424.654816
v 124.249817 5.980917 424.654816
v 124.249107 6.797523 425.012573
v 124.249107 5.980917 425.012573
v 123.781853 6.797521 425.011627
v 123.781853 5.980917 425.011627
v 123.782555 6.797521 424.653870
v 123.782555 5.980917 424.653870
v 122.886810 5.980915 425.303986
v 122.886810 6.797521 425.303986
v 123.781273 6.797521 425.305756
v 123.781273 5.980917 425.305756
v 105.352036 5.980917 424.617523
v 105.352036 6.797521 424.617523
v 105.351334 5.980917 424.975281
v 105.351334 6.797521 424.975281
v 103.990303 5.980917 424.614838
v 103.990303 6.797521 424.614838
v 103.989594 5.980917 424.972595
v 103.989594 6.797521 424.972595
v 104.456863 5.980917 424.973511
v 104.456863 6.797521 424.973511
v 104.457573 5.980917 424.615753
v 104.457573 6.797521 424.615753
v 105.350449 6.797521 425.420898
v 105.350449 5.980917 425.420898
v 104.455986 5.980917 425.419128
v 104.455986 6.797521 425.419128
v 105.350754 6.797521 425.269409
v 105.350754 5.980917 425.269409
v 104.456284 5.980917 425.267639
v 104.456284 6.797521 425.267639
v 107.671051 6.797521 425.425476
v 107.671051 5.980917 425.425476
v 107.671349 6.797521 425.273987
v 107.671349 5.980917 425.273987
v 106.778168 6.797521 424.620331
v 106.778168 5.980917 424.620331
v 106.777466 6.797521 424.978088
v 106.777466 5.980917 424.978088
v 108.139877 6.797523 424.623016
v 108.139877 5.980917 424.623016
v 108.139168 6.797523 424.980774
v 108.139168 5.980917 424.980774
v 107.671928 6.797521 424.979858
v 107.671928 5.980917 424.979858
v 107.672630 6.797521 424.622101
v 107.672630 5.980917 424.622101
v 106.776886 5.980917 425.272217
v 106.776886 6.797521 425.272217
v 107.671349 6.797521 425.273987
v 107.671349 5.980917 425.273987
v 129.686386 3.406753 424.665527
v 129.698334 3.406755 418.601776
v 129.226013 9.487350 424.196136
v 129.236115 9.487351 419.069336
v 114.316185 3.406759 424.635223
v 114.328148 3.406761 418.571442
v 114.778404 9.487354 424.167664
v 114.788513 9.487355 419.040863
v 129.698334 9.487352 418.601776
v 129.686386 9.487350 424.665527
v 114.316185 9.487354 424.635223
v 114.328148 9.487356 418.571442
v 129.236115 4.011403 419.069336
v 129.226013 4.011402 424.196136
v 114.778404 4.011404 424.167633
v 114.788513 4.011405 419.040833
v 113.576447 3.406759 424.633759
v 113.588402 3.406761 418.570007
v 113.116074 9.487354 424.164368
v 113.126183 9.487355 419.037567
v 98.206261 3.406759 424.603424
v 98.218224 3.406761 418.539673
v 98.668480 9.487356 424.135864
v 98.678589 9.487357 419.009064
v 113.588402 9.487356 418.570007
v 113.576447 9.487354 424.633759
v 98.206261 9.487356 424.603424
v 98.218224 9.487358 418.539673
v 113.126183 4.011407 419.037567
v 113.116074 4.011406 424.164368
v 98.668480 4.011406 424.135864
v 98.678589 4.011407 419.009064
vn 1.0000 -0.0000 0.0020
vn -0.0000 1.0000 -0.0000
vn -1.0000 -0.0000 -0.0020
vn 0.0020 -0.0000 -1.0000
vn -0.0000 -1.0000 -0.0000
vn -0.0020 -0.0000 1.0000
s 1
g cabinet.013_m_koyupembe
usemtl m_koyupembe
f 1//1 2//1 9//1 10//1
f 7//2 3//2 14//2 15//2
f 11//3 12//3 6//3 5//3
f 5//4 6//4 2//4 1//4
f 10//5 11//5 5//5 1//5
f 14//6 13//6 16//6 15//6
f 4//5 8//5 16//5 13//5
f 8//1 7//1 15//1 16//1
f 3//3 4//3 13//3 14//3
f 17//1 18//1 25//1 26//1
f 23//2 19//2 30//2 31//2
f 27//3 28//3 22//3 21//3
f 21//4 22//4 18//4 17//4
f 26//5 27//5 21//5 17//5
f 30//6 29//6 32//6 31//6
f 20//5 24//5 32//5 29//5
f 24//1 23//1 31//1 32//1
f 19//3 20//3 29//3 30//3
f 33//1 34//1 36//1 35//1
f 43//4 44//4 34//4 33//4
f 41//5 39//5 37//5 43//5
f 35//5 41//5 43//5 33//5
f 37//4 38//4 44//4 43//4
f 50//4 49//4 55//4 56//4
f 51//5 50//5 46//5 47//5
f 41//5 35//5 50//5 51//5
f 35//1 36//1 49//1 50//1
f 56//1 55//1 53//1 54//1
f 46//5 50//5 56//5 54//5
f 63//1 64//1 62//1 61//1
f 66//5 60//5 58//5 68//5
f 64//5 66//5 68//5 62//5
f 60//5 66//5 72//5 69//5
f 66//1 65//1 71//1 72//1
f 73//1 74//1 76//1 75//1
f 83//4 84//4 74//4 73//4
f 81//5 79//5 77//5 83//5
f 75//5 81//5 83//5 73//5
f 77//4 78//4 84//4 83//4
f 90//4 89//4 95//4 96//4
f 91//5 90//5 86//5 87//5
f 81//5 75//5 90//5 91//5
f 75//1 76//1 89//1 90//1
f 96//1 95//1 93//1 94//1
f 86//5 90//5 96//5 94//5
f 103//1 104//1 102//1 101//1
f 106//5 100//5 98//5 108//5
f 104//5 106//5 108//5 102//5
f 100//5 106//5 112//5 109//5
f 106//1 105//1 111//1 112//1
f 113//1 114//1 121//1 122//1
f 119//4 115//4 126//4 127//4
f 123//3 124//3 118//3 117//3
f 117//5 118//5 114//5 113//5
f 122//6 123//6 117//6 113//6
f 124//4 121//4 114//4 118//4
f 116//2 115//2 122//2 121//2
f 115//2 119//2 123//2 122//2
f 120//2 116//2 121//2 124//2
f 119//2 120//2 124//2 123//2
f 126//2 125//2 128//2 127//2
f 116//6 120//6 128//6 125//6
f 120//1 119//1 127//1 128//1
f 115//3 116//3 125//3 126//3
f 129//1 130//1 137//1 138//1
f 135//4 131//4 142//4 143//4
f 139//3 140//3 134//3 133//3
f 133//5 134//5 130//5 129//5
f 138//6 139//6 133//6 129//6
f 140//4 137//4 130//4 134//4
f 132//2 131//2 138//2 137//2
f 131//2 135//2 139//2 138//2
f 136//2 132//2 137//2 140//2
f 135//2 136//2 140//2 139//2
f 142//2 141//2 144//2 143//2
f 132//6 136//6 144//6 141//6
f 136//1 135//1 143//1 144//1
f 131//3 132//3 141//3 142//3
g cabinet.013_m_white
usemtl m_white
f 12//2 9//2 2//2 6//2
f 4//6 3//6 10//6 9//6
f 3//6 7//6 11//6 10//6
f 8//6 4//6 9//6 12//6
f 7//6 8//6 12//6 11//6
f 28//2 25//2 18//2 22//2
f 20//6 19//6 26//6 25//6
f 19//6 23//6 27//6 26//6
f 24//6 20//6 25//6 28//6
f 23//6 24//6 28//6 27//6
f 41//6 42//6 40//6 39//6
f 39//3 40//3 38//3 37//3
f 42//2 36//2 34//2 44//2
f 40//2 42//2 44//2 38//2
f 46//6 45//6 48//6 47//6
f 49//2 52//2 48//2 45//2
f 36//2 42//2 52//2 49//2
f 42//3 41//3 51//3 52//3
f 49//2 45//2 53//2 55//2
f 45//6 46//6 54//6 53//6
f 57//3 58//3 60//3 59//3
f 65//6 66//6 64//6 63//6
f 65//2 63//2 61//2 67//2
f 59//2 65//2 67//2 57//2
f 65//2 59//2 70//2 71//2
f 59//3 60//3 69//3 70//3
f 81//6 82//6 80//6 79//6
f 79//3 80//3 78//3 77//3
f 82//2 76//2 74//2 84//2
f 80//2 82//2 84//2 78//2
f 86//6 85//6 88//6 87//6
f 89//2 92//2 88//2 85//2
f 76//2 82//2 92//2 89//2
f 82//3 81//3 91//3 92//3
f 89//2 85//2 93//2 95//2
f 85//6 86//6 94//6 93//6
f 97//3 98//3 100//3 99//3
f 105//6 106//6 104//6 103//6
f 105//2 103//2 101//2 107//2
f 99//2 105//2 107//2 97//2
f 105//2 99//2 110//2 111//2
f 99//3 100//3 109//3 110//3
g cabinet.013_
usemtl 
f 52//3 51//3 47//3 48//3
f 92//3 91//3 87//3 88//3
g body_care_products.011_Cylinder.073
v 119.185852 10.062692 419.697174
v 119.185852 12.870526 419.697174
v 118.446114 10.062692 418.705414
v 118.446114 12.870526 418.705414
v 118.935150 10.062692 417.568878
v 118.935150 12.870526 417.568878
v 120.163918 10.062692 417.424103
v 120.163918 12.870526 417.424103
v 120.903679 10.062692 418.415894
v 120.903679 12.870526 418.415894
v 120.414642 10.062692 419.552429
v 120.414642 12.870526 419.552429
v 119.185852 12.449351 419.697174
v 118.446114 12.449351 418.705414
v 118.935150 12.449351 417.568878
v 120.163918 12.449351 417.424103
v 120.903679 12.449351 418.415894
v 120.414642 12.449351 419.552429
v 119.155083 12.969031 419.768707
v 118.368790 12.969031 418.714508
v 118.888588 12.969031 417.506470
v 120.194687 12.969031 417.352600
v 120.980995 12.969031 418.406799
v 120.461197 12.969031 419.614838
v 119.155083 12.521356 419.768707
v 118.368790 12.521356 418.714508
v 118.888588 12.521356 417.506470
v 120.194687 12.521354 417.352600
v 120.980995 12.521356 418.406799
v 120.461197 12.521356 419.614838
v 123.492210 10.062692 421.811371
v 123.492210 10.983850 421.811371
v 123.834213 10.062692 422.269897
v 123.834213 10.983850 422.269897
v 123.608124 10.062692 422.795349
v 123.608124 10.983850 422.795349
v 123.040024 10.062692 422.862274
v 123.040024 10.983850 422.862274
v 122.698013 10.062692 422.403748
v 122.698013 10.983850 422.403748
v 122.924103 10.062692 421.878296
v 122.924103 10.983850 421.878296
v 124.109055 10.983850 422.237518
v 123.601593 10.983850 421.557159
v 123.773582 10.983850 423.017181
v 122.930641 10.983850 423.116486
v 122.423172 10.983850 422.436127
v 122.758644 10.983850 421.656464
v 124.109055 12.838552 422.237518
v 123.601593 12.838552 421.557159
v 123.773582 12.838552 423.017181
v 122.930641 12.838552 423.116486
v 122.423172 12.838552 422.436127
v 122.758644 12.838552 421.656464
v 125.533989 10.062696 421.776855
v 125.680595 15.098695 421.436157
v 125.004448 10.062696 421.066956
v 125.372841 15.098695 421.023560
v 125.354507 10.062696 420.253418
v 125.576286 15.098695 420.550751
v 126.234093 10.062696 420.149780
v 126.087486 15.098695 420.490509
v 126.763611 10.062696 420.859711
v 126.395226 15.098695 420.903107
v 126.413551 10.062696 421.673279
v 126.191780 15.098695 421.375916
v 125.360451 10.957969 422.180176
v 124.568420 10.957969 421.118317
v 125.092010 10.957969 419.901459
v 126.407631 10.957969 419.746490
v 127.199646 10.957969 420.808350
v 126.676056 10.957969 422.025208
v 125.360451 11.898007 422.180176
v 124.568420 11.898007 421.118317
v 125.092010 11.898007 419.901459
v 126.407631 11.898007 419.746490
v 127.199646 11.898007 420.808350
v 126.676056 11.898007 422.025208
v 125.640388 12.920264 421.529602
v 125.271828 12.920264 421.035461
v 125.515472 12.920264 420.469208
v 126.127686 12.920264 420.397095
v 126.496254 12.920264 420.891205
v 126.252602 12.920264 421.457458
vn -0.8016 -0.0000 0.5979
vn -0.9186 -0.0000 -0.3952
vn -0.1170 -0.0000 -0.9931
vn 0.8016 -0.0000 -0.5979
vn -0.0000 1.0000 -0.0000
vn 0.9186 -0.0000 0.3952
vn 0.1170 -0.0000 0.9931
vn -0.0000 -1.0000 -0.0000
vn -0.8009 0.0404 0.5974
vn -0.9178 0.0404 -0.3949
vn -0.1169 0.0404 -0.9923
vn 0.8009 0.0404 -0.5974
vn 0.9178 0.0404 0.3949
vn 0.1169 0.0404 0.9923
vn 0.1077 -0.3909 0.9141
vn 0.8455 -0.3909 0.3638
vn 0.7378 -0.3909 -0.5503
vn -0.1077 -0.3909 -0.9141
vn -0.8455 -0.3909 -0.3638
vn -0.7378 -0.3909 0.5503
vn 0.1003 0.5145 0.8516
vn 0.7877 0.5145 0.3389
vn 0.6873 0.5145 -0.5127
vn -0.1003 0.5145 -0.8516
vn -0.7877 0.5145 -0.3389
vn -0.6873 0.5145 0.5127
s 1
g body_care_products.011_m_white
usemtl m_white
f 157//7 146//7 148//7 158//7
f 158//8 148//8 150//8 159//8
f 159//9 150//9 152//9 160//9
f 160//10 152//10 154//10 161//10
f 148//11 146//11 156//11 154//11 152//11 150//11
f 161//12 154//12 156//12 162//12
f 162//13 156//13 146//13 157//13
f 145//14 147//14 149//14 151//14 153//14 155//14
f 155//13 162//13 157//13 145//13
f 153//12 161//12 162//12 155//12
f 151//10 160//10 161//10 153//10
f 149//9 159//9 160//9 151//9
f 147//8 158//8 159//8 149//8
f 145//7 157//7 158//7 147//7
f 175//10 176//10 178//10 177//10
f 177//12 178//12 180//12 179//12
f 179//13 180//13 182//13 181//13
f 181//7 182//7 184//7 183//7
f 182//14 180//14 189//14 190//14
f 183//8 184//8 186//8 185//8
f 185//9 186//9 176//9 175//9
f 175//14 177//14 179//14 181//14 183//14 185//14
f 190//13 189//13 195//13 196//13
f 176//14 186//14 192//14 188//14
f 180//14 178//14 187//14 189//14
f 178//14 176//14 188//14 187//14
f 186//14 184//14 191//14 192//14
f 184//14 182//14 190//14 191//14
f 193//11 194//11 198//11 197//11 196//11 195//11
f 191//7 190//7 196//7 197//7
f 192//8 191//8 197//8 198//8
f 187//10 188//10 194//10 193//10
f 188//9 192//9 198//9 194//9
f 189//12 187//12 193//12 195//12
f 223//15 200//15 202//15 224//15
f 224//16 202//16 204//16 225//16
f 225//17 204//17 206//17 226//17
f 226//18 206//18 208//18 227//18
f 202//11 200//11 210//11 208//11 206//11 204//11
f 227//19 208//19 210//19 228//19
f 228//20 210//20 200//20 223//20
f 199//14 201//14 203//14 205//14 207//14 209//14
f 209//21 216//21 211//21 199//21
f 207//22 215//22 216//22 209//22
f 205//23 214//23 215//23 207//23
f 203//24 213//24 214//24 205//24
f 201//25 212//25 213//25 203//25
f 199//26 211//26 212//26 201//26
f 216//13 222//13 217//13 211//13
f 215//12 221//12 222//12 216//12
f 214//10 220//10 221//10 215//10
f 213//9 219//9 220//9 214//9
f 212//8 218//8 219//8 213//8
f 211//7 217//7 218//7 212//7
f 222//27 228//27 223//27 217//27
f 221//28 227//28 228//28 222//28
f 220//29 226//29 227//29 221//29
f 219//30 225//30 226//30 220//30
f 218//31 224//31 225//31 219//31
f 217//32 223//32 224//32 218//32
g body_care_products.011_m_koyupembe
usemtl m_koyupembe
f 169//7 163//7 164//7 170//7
f 170//8 164//8 165//8 171//8
f 171//9 165//9 166//9 172//9
f 172//10 166//10 167//10 173//10
f 164//11 163//11 168//11 167//11 166//11 165//11
f 173//12 167//12 168//12 174//12
f 174//13 168//13 163//13 169//13
