# Blender 3.3.0
# www.blender.org
mtllib y_komodin.mtl
g cabinet.015_Cylinder.135
v -32.981617 2.978013 416.240692
v -32.981617 10.169883 416.240692
v -33.367985 3.533648 424.606750
v -33.367985 9.614244 424.606750
v -49.091537 2.978013 416.208923
v -49.091537 10.169883 416.208923
v -48.738167 3.533648 424.576416
v -48.738167 9.614244 424.576416
v -32.998119 10.169880 424.607452
v -32.998119 2.978010 424.607452
v -49.108040 2.978010 424.575684
v -49.108040 10.169880 424.575684
v -33.353165 9.614246 417.093262
v -33.353165 3.533650 417.093262
v -48.723347 3.533650 417.062958
v -48.723347 9.614246 417.062958
v -16.871679 2.978013 416.272461
v -16.871679 10.169883 416.272461
v -17.258047 3.533648 424.638519
v -17.258047 9.614244 424.638519
v -32.981617 2.978013 416.240692
v -32.981617 10.169883 416.240692
v -32.628242 3.533648 424.608185
v -32.628242 9.614244 424.608185
v -16.888182 10.169880 424.639252
v -16.888182 2.978010 424.639252
v -32.998119 2.978010 424.607452
v -32.998119 10.169880 424.607452
v -17.243229 9.614246 417.125061
v -17.243229 3.533650 417.125061
v -32.613422 3.533650 417.094727
v -32.613422 9.614246 417.094727
v -25.482372 6.107807 424.573853
v -25.482372 6.924412 424.573853
v -25.483078 6.107807 424.931610
v -25.483078 6.924412 424.931610
v -26.844093 6.107807 424.571167
v -26.844093 6.924412 424.571167
v -26.844799 6.107807 424.928925
v -26.844799 6.924412 424.928925
v -26.377529 6.107807 424.929871
v -26.377529 6.924412 424.929871
v -26.376825 6.107807 424.572113
v -26.376825 6.924412 424.572113
v -25.483957 6.924412 425.377228
v -25.483957 6.107807 425.377228
v -26.378410 6.107807 425.375458
v -26.378410 6.924412 425.375458
v -25.483658 6.924412 425.225739
v -25.483658 6.107807 425.225739
v -26.378111 6.107807 425.223969
v -26.378111 6.924412 425.223969
v -23.163361 6.924412 425.381805
v -23.163361 6.107807 425.381805
v -23.163061 6.924412 425.230316
v -23.163061 6.107807 425.230316
v -24.056240 6.924412 424.576691
v -24.056240 6.107805 424.576691
v -24.056946 6.924412 424.934448
v -24.056946 6.107805 424.934448
v -22.694519 6.924414 424.579376
v -22.694519 6.107807 424.579376
v -22.695225 6.924414 424.937134
v -22.695225 6.107807 424.937134
v -23.162481 6.924412 424.936188
v -23.162481 6.107807 424.936188
v -23.161776 6.924412 424.578430
v -23.161776 6.107807 424.578430
v -24.057526 6.107805 425.228546
v -24.057526 6.924412 425.228546
v -23.163061 6.924412 425.230316
v -23.163061 6.107807 425.230316
v -41.592297 6.107807 424.542084
v -41.592297 6.924412 424.542084
v -41.593002 6.107807 424.899841
v -41.593002 6.924412 424.899841
v -42.954029 6.107807 424.539398
v -42.954029 6.924412 424.539398
v -42.954735 6.107807 424.897156
v -42.954735 6.924412 424.897156
v -42.487465 6.107807 424.898071
v -42.487465 6.924412 424.898071
v -42.486763 6.107807 424.540314
v -42.486763 6.924412 424.540314
v -41.593880 6.924412 425.345459
v -41.593880 6.107807 425.345459
v -42.488346 6.107807 425.343689
v -42.488346 6.924412 425.343689
v -41.593582 6.924412 425.193970
v -41.593582 6.107807 425.193970
v -42.488045 6.107807 425.192200
v -42.488045 6.924412 425.192200
v -39.273285 6.924412 425.350037
v -39.273285 6.107807 425.350037
v -39.272984 6.924412 425.198547
v -39.272984 6.107807 425.198547
v -40.166164 6.924412 424.544891
v -40.166164 6.107807 424.544891
v -40.166870 6.924412 424.902649
v -40.166870 6.107807 424.902649
v -38.804455 6.924414 424.547577
v -38.804455 6.107807 424.547577
v -38.805161 6.924414 424.905334
v -38.805161 6.107807 424.905334
v -39.272404 6.924412 424.904419
v -39.272404 6.107807 424.904419
v -39.271698 6.924412 424.546661
v -39.271698 6.107807 424.546661
v -40.167450 6.107807 425.196777
v -40.167450 6.924412 425.196777
v -39.272984 6.924412 425.198547
v -39.272984 6.107807 425.198547
v -17.257952 3.533644 424.590088
v -17.245991 3.533646 418.526337
v -17.718323 9.614241 424.120697
v -17.708210 9.614243 418.993896
v -32.628147 3.533650 424.559784
v -32.616184 3.533651 418.496002
v -32.165928 9.614244 424.092224
v -32.155815 9.614246 418.965424
v -17.245991 9.614243 418.526337
v -17.257952 9.614241 424.590088
v -32.628147 9.614244 424.559784
v -32.616184 9.614246 418.496002
v -17.708210 4.138294 418.993896
v -17.718323 4.138292 424.120697
v -32.165928 4.138294 424.092194
v -32.155815 4.138296 418.965393
v -33.367889 3.533650 424.558319
v -33.355927 3.533651 418.494568
v -33.828259 9.614244 424.088928
v -33.818146 9.614246 418.962128
v -48.738068 3.533650 424.527985
v -48.726109 3.533651 418.464233
v -48.275852 9.614246 424.060425
v -48.265739 9.614248 418.933624
v -33.355927 9.614246 418.494568
v -33.367889 9.614244 424.558319
v -48.738068 9.614246 424.527985
v -48.726109 9.614248 418.464233
v -33.818146 4.138298 418.962128
v -33.828259 4.138296 424.088928
v -48.275852 4.138296 424.060425
v -48.265739 4.138298 418.933624
vn 1.0000 -0.0000 0.0020
vn -0.0000 1.0000 -0.0000
vn -1.0000 -0.0000 -0.0020
vn 0.0020 -0.0000 -1.0000
vn -0.0000 -1.0000 -0.0000
vn -0.0020 -0.0000 1.0000
s 1
g cabinet.015_m_beyaz
usemtl m_beyaz
f 1//1 2//1 9//1 10//1
f 7//2 3//2 14//2 15//2
f 11//3 12//3 6//3 5//3
f 5//4 6//4 2//4 1//4
f 10//5 11//5 5//5 1//5
f 14//6 13//6 16//6 15//6
f 4//5 8//5 16//5 13//5
f 8//1 7//1 15//1 16//1
f 3//3 4//3 13//3 14//3
f 17//1 18//1 25//1 26//1
f 23//2 19//2 30//2 31//2
f 27//3 28//3 22//3 21//3
f 21//4 22//4 18//4 17//4
f 26//5 27//5 21//5 17//5
f 30//6 29//6 32//6 31//6
f 20//5 24//5 32//5 29//5
f 24//1 23//1 31//1 32//1
f 19//3 20//3 29//3 30//3
f 33//1 34//1 36//1 35//1
f 43//4 44//4 34//4 33//4
f 41//5 39//5 37//5 43//5
f 35//5 41//5 43//5 33//5
f 37//4 38//4 44//4 43//4
f 50//4 49//4 55//4 56//4
f 51//5 50//5 46//5 47//5
f 41//5 35//5 50//5 51//5
f 35//1 36//1 49//1 50//1
f 56//1 55//1 53//1 54//1
f 46//5 50//5 56//5 54//5
f 63//1 64//1 62//1 61//1
f 66//5 60//5 58//5 68//5
f 64//5 66//5 68//5 62//5
f 60//5 66//5 72//5 69//5
f 66//1 65//1 71//1 72//1
f 73//1 74//1 76//1 75//1
f 83//4 84//4 74//4 73//4
f 81//5 79//5 77//5 83//5
f 75//5 81//5 83//5 73//5
f 77//4 78//4 84//4 83//4
f 90//4 89//4 95//4 96//4
f 91//5 90//5 86//5 87//5
f 81//5 75//5 90//5 91//5
f 75//1 76//1 89//1 90//1
f 96//1 95//1 93//1 94//1
f 86//5 90//5 96//5 94//5
f 103//1 104//1 102//1 101//1
f 106//5 100//5 98//5 108//5
f 104//5 106//5 108//5 102//5
f 100//5 106//5 112//5 109//5
f 106//1 105//1 111//1 112//1
f 113//1 114//1 121//1 122//1
f 119//4 115//4 126//4 127//4
f 123//3 124//3 118//3 117//3
f 117//5 118//5 114//5 113//5
f 122//6 123//6 117//6 113//6
f 124//4 121//4 114//4 118//4
f 116//2 115//2 122//2 121//2
f 115//2 119//2 123//2 122//2
f 120//2 116//2 121//2 124//2
f 119//2 120//2 124//2 123//2
f 126//2 125//2 128//2 127//2
f 116//6 120//6 128//6 125//6
f 120//1 119//1 127//1 128//1
f 115//3 116//3 125//3 126//3
f 129//1 130//1 137//1 138//1
f 135//4 131//4 142//4 143//4
f 139//3 140//3 134//3 133//3
f 133//5 134//5 130//5 129//5
f 138//6 139//6 133//6 129//6
f 140//4 137//4 130//4 134//4
f 132//2 131//2 138//2 137//2
f 131//2 135//2 139//2 138//2
f 136//2 132//2 137//2 140//2
f 135//2 136//2 140//2 139//2
f 142//2 141//2 144//2 143//2
f 132//6 136//6 144//6 141//6
f 136//1 135//1 143//1 144//1
f 131//3 132//3 141//3 142//3
g cabinet.015_m_yeşil
usemtl m_yeşil
f 12//2 9//2 2//2 6//2
f 4//6 3//6 10//6 9//6
f 3//6 7//6 11//6 10//6
f 8//6 4//6 9//6 12//6
f 7//6 8//6 12//6 11//6
f 28//2 25//2 18//2 22//2
f 20//6 19//6 26//6 25//6
f 19//6 23//6 27//6 26//6
f 24//6 20//6 25//6 28//6
f 23//6 24//6 28//6 27//6
f 41//6 42//6 40//6 39//6
f 39//3 40//3 38//3 37//3
f 42//2 36//2 34//2 44//2
f 40//2 42//2 44//2 38//2
f 46//6 45//6 48//6 47//6
f 49//2 52//2 48//2 45//2
f 36//2 42//2 52//2 49//2
f 42//3 41//3 51//3 52//3
f 49//2 45//2 53//2 55//2
f 45//6 46//6 54//6 53//6
f 57//3 58//3 60//3 59//3
f 65//6 66//6 64//6 63//6
f 65//2 63//2 61//2 67//2
f 59//2 65//2 67//2 57//2
f 65//2 59//2 70//2 71//2
f 59//3 60//3 69//3 70//3
f 81//6 82//6 80//6 79//6
f 79//3 80//3 78//3 77//3
f 82//2 76//2 74//2 84//2
f 80//2 82//2 84//2 78//2
f 86//6 85//6 88//6 87//6
f 89//2 92//2 88//2 85//2
f 76//2 82//2 92//2 89//2
f 82//3 81//3 91//3 92//3
f 89//2 85//2 93//2 95//2
f 85//6 86//6 94//6 93//6
f 97//3 98//3 100//3 99//3
f 105//6 106//6 104//6 103//6
f 105//2 103//2 101//2 107//2
f 99//2 105//2 107//2 97//2
f 105//2 99//2 110//2 111//2
f 99//3 100//3 109//3 110//3
g cabinet.015_m_black
usemtl m_black
f 52//3 51//3 47//3 48//3
f 92//3 91//3 87//3 88//3
g body_care_products.013_Cylinder.137
v -27.758493 9.949760 419.621674
v -27.758493 12.757595 419.621674
v -28.498234 9.949760 418.629913
v -28.498234 12.757595 418.629913
v -28.009197 9.949760 417.493378
v -28.009197 12.757595 417.493378
v -26.780432 9.949760 417.348602
v -26.780432 12.757595 417.348602
v -26.040667 9.949760 418.340393
v -26.040667 12.757595 418.340393
v -26.529703 9.949760 419.476929
v -26.529703 12.757595 419.476929
v -27.758493 12.336420 419.621674
v -28.498234 12.336420 418.629913
v -28.009197 12.336420 417.493378
v -26.780432 12.336420 417.348602
v -26.040667 12.336420 418.340393
v -26.529703 12.336420 419.476929
v -27.789267 12.856100 419.693207
v -28.575562 12.856100 418.639008
v -28.055761 12.856100 417.430969
v -26.749664 12.856100 417.277100
v -25.963354 12.856100 418.331299
v -26.483154 12.856100 419.539337
v -27.789267 12.408424 419.693207
v -28.575562 12.408424 418.639008
v -28.055761 12.408424 417.430969
v -26.749664 12.408422 417.277100
v -25.963354 12.408424 418.331299
v -26.483154 12.408424 419.539337
v -23.452137 9.949760 421.735870
v -23.452137 10.870918 421.735870
v -23.110132 9.949760 422.194397
v -23.110132 10.870918 422.194397
v -23.336226 9.949760 422.719849
v -23.336226 10.870918 422.719849
v -23.904324 9.949760 422.786774
v -23.904324 10.870918 422.786774
v -24.246334 9.949760 422.328247
v -24.246334 10.870918 422.328247
v -24.020241 9.949760 421.802795
v -24.020241 10.870918 421.802795
v -22.835293 10.870918 422.162018
v -23.342752 10.870918 421.481659
v -23.170763 10.870918 422.941681
v -24.013706 10.870918 423.040985
v -24.521173 10.870918 422.360626
v -24.185703 10.870918 421.580963
v -22.835293 12.725620 422.162018
v -23.342752 12.725620 421.481659
v -23.170763 12.725620 422.941681
v -24.013706 12.725620 423.040985
v -24.521173 12.725620 422.360626
v -24.185703 12.725620 421.580963
v -21.410358 9.949764 421.701355
v -21.263752 14.985764 421.360657
v -21.939899 9.949764 420.991455
v -21.571505 14.985764 420.948059
v -21.589842 9.949764 420.177917
v -21.368061 14.985764 420.475250
v -20.710255 9.949764 420.074280
v -20.856859 14.985764 420.415009
v -20.180738 9.949764 420.784210
v -20.549122 14.985764 420.827606
v -20.530796 9.949764 421.597778
v -20.752565 14.985764 421.300415
v -21.583897 10.845037 422.104675
v -22.375925 10.845037 421.042816
v -21.852341 10.845037 419.825958
v -20.536718 10.845037 419.670990
v -19.744698 10.845037 420.732849
v -20.268288 10.845037 421.949707
v -21.583897 11.785076 422.104675
v -22.375925 11.785076 421.042816
v -21.852341 11.785076 419.825958
v -20.536718 11.785076 419.670990
v -19.744698 11.785076 420.732849
v -20.268288 11.785076 421.949707
v -21.303959 12.807333 421.454102
v -21.672522 12.807333 420.959961
v -21.428871 12.807333 420.393707
v -20.816662 12.807333 420.321594
v -20.448093 12.807333 420.815704
v -20.691742 12.807333 421.381958
vn -0.8016 -0.0000 0.5979
vn -0.9186 -0.0000 -0.3952
vn -0.1170 -0.0000 -0.9931
vn 0.8016 -0.0000 -0.5979
vn -0.0000 1.0000 -0.0000
vn 0.9186 -0.0000 0.3952
vn 0.1170 -0.0000 0.9931
vn -0.0000 -1.0000 -0.0000
vn -0.8009 0.0404 0.5974
vn -0.9178 0.0404 -0.3949
vn -0.1169 0.0404 -0.9923
vn 0.8009 0.0404 -0.5974
vn 0.9178 0.0404 0.3949
vn 0.1169 0.0404 0.9923
vn 0.1077 -0.3909 0.9141
vn 0.8455 -0.3909 0.3638
vn 0.7378 -0.3909 -0.5503
vn -0.1077 -0.3909 -0.9141
vn -0.8455 -0.3909 -0.3638
vn -0.7378 -0.3909 0.5503
vn 0.1003 0.5145 0.8516
vn 0.7877 0.5145 0.3389
vn 0.6873 0.5145 -0.5127
vn -0.1003 0.5145 -0.8516
vn -0.7877 0.5145 -0.3389
vn -0.6873 0.5145 0.5127
s 1
g body_care_products.013_m_white
usemtl m_white
f 157//7 146//7 148//7 158//7
f 158//8 148//8 150//8 159//8
f 159//9 150//9 152//9 160//9
f 160//10 152//10 154//10 161//10
f 148//11 146//11 156//11 154//11 152//11 150//11
f 161//12 154//12 156//12 162//12
f 162//13 156//13 146//13 157//13
f 145//14 147//14 149//14 151//14 153//14 155//14
f 155//13 162//13 157//13 145//13
f 153//12 161//12 162//12 155//12
f 151//10 160//10 161//10 153//10
f 149//9 159//9 160//9 151//9
f 147//8 158//8 159//8 149//8
f 145//7 157//7 158//7 147//7
f 182//14 180//14 189//14 190//14
f 175//14 177//14 179//14 181//14 183//14 185//14
f 190//13 189//13 195//13 196//13
f 176//14 186//14 192//14 188//14
f 180//14 178//14 187//14 189//14
f 178//14 176//14 188//14 187//14
f 186//14 184//14 191//14 192//14
f 184//14 182//14 190//14 191//14
f 193//11 194//11 198//11 197//11 196//11 195//11
f 191//7 190//7 196//7 197//7
f 192//8 191//8 197//8 198//8
f 187//10 188//10 194//10 193//10
f 188//9 192//9 198//9 194//9
f 189//12 187//12 193//12 195//12
f 223//15 200//15 202//15 224//15
f 224//16 202//16 204//16 225//16
f 225//17 204//17 206//17 226//17
f 226//18 206//18 208//18 227//18
f 202//11 200//11 210//11 208//11 206//11 204//11
f 227//19 208//19 210//19 228//19
f 228//20 210//20 200//20 223//20
f 199//14 201//14 203//14 205//14 207//14 209//14
f 209//21 216//21 211//21 199//21
f 207//22 215//22 216//22 209//22
f 205//23 214//23 215//23 207//23
f 203//24 213//24 214//24 205//24
f 201//25 212//25 213//25 203//25
f 199//26 211//26 212//26 201//26
f 216//13 222//13 217//13 211//13
f 215//12 221//12 222//12 216//12
f 214//10 220//10 221//10 215//10
f 213//9 219//9 220//9 214//9
f 212//8 218//8 219//8 213//8
f 211//7 217//7 218//7 212//7
f 222//27 228//27 223//27 217//27
f 221//28 227//28 228//28 222//28
f 220//29 226//29 227//29 221//29
f 219//30 225//30 226//30 220//30
f 218//31 224//31 225//31 219//31
f 217//32 223//32 224//32 218//32
g body_care_products.013_m_yeşil
usemtl m_yeşil
f 169//7 163//7 164//7 170//7
f 170//8 164//8 165//8 171//8
f 171//9 165//9 166//9 172//9
f 172//10 166//10 167//10 173//10
f 164//11 163//11 168//11 167//11 166//11 165//11
f 173//12 167//12 168//12 174//12
f 174//13 168//13 163//13 169//13
f 175//10 176//10 178//10 177//10
f 177//12 178//12 180//12 179//12
f 179//13 180//13 182//13 181//13
f 181//7 182//7 184//7 183//7
f 183//8 184//8 186//8 185//8
f 185//9 186//9 176//9 175//9
