# Blender 3.3.0
# www.blender.org
mtllib b_sandalye.mtl
g Cube.152_Mesh
v -2.344401 -2.657508 3.390175
v -2.739573 -2.663145 3.123049
v -4.839543 -2.657506 7.081365
v -5.234716 -2.663142 6.814239
v -2.342393 -2.862579 3.391532
v -2.737566 -2.868216 3.124406
v -4.837535 -2.862576 7.082722
v -5.232708 -2.868213 6.815596
v -6.437006 -2.640577 0.277433
v -6.712943 -2.640577 0.685640
v -6.439959 -3.094184 0.275438
v -6.715895 -3.094183 0.683645
v -1.838004 -2.471833 3.386231
v -0.673820 -2.331389 4.173186
v -1.301885 -2.426763 3.748632
v -2.113940 -2.471833 3.794438
v -1.577822 -2.426763 4.156839
v -0.949757 -2.331389 4.581393
v -1.765429 -2.949726 3.435289
v -1.228942 -2.907245 3.797940
v -0.600562 -2.814066 4.222707
v -2.041366 -2.949726 3.843496
v -1.504878 -2.907245 4.206147
v -0.876498 -2.814066 4.630914
v -9.253448 -2.640575 4.443939
v -8.977512 -2.640576 4.035733
v -9.256401 -3.094182 4.441944
v -8.980465 -3.094182 4.033738
v -4.654446 -2.471831 7.552738
v -3.490263 -2.331387 8.339693
v -4.118328 -2.426762 7.915138
v -4.378510 -2.471832 7.144531
v -3.842392 -2.426762 7.506932
v -3.214327 -2.331388 7.931486
v -4.581872 -2.949724 7.601796
v -4.045384 -2.907244 7.964447
v -3.417005 -2.814065 8.389214
v -4.305936 -2.949724 7.193589
v -3.769449 -2.907244 7.556240
v -3.141069 -2.814065 7.981007
v -0.891641 -2.437317 4.252863
v -1.132665 -2.490601 4.089937
v -3.497519 -2.437314 8.107871
v -3.738544 -2.490598 7.944945
v -2.194581 -2.437318 6.180367
v -2.435605 -2.490602 6.017441
v -5.814898 -2.762844 1.044215
v -6.424270 -2.771536 0.632296
v -8.310040 -2.762841 4.735405
v -8.919413 -2.771533 4.323486
v -5.812873 -2.969673 1.045584
v -6.422245 -2.978365 0.633665
v -8.308015 -2.969671 4.736774
v -8.917387 -2.978362 4.324855
v -3.495106 -2.728723 4.460044
v -3.256687 -2.728723 4.107339
v -6.831809 -2.810241 2.204526
v -6.593390 -2.810242 1.851821
v -3.476942 -2.848432 4.472323
v -3.238523 -2.848432 4.119618
v -6.813644 -2.929951 2.216805
v -6.575226 -2.929951 1.864100
v -4.023842 -2.728723 5.242230
v -3.785423 -2.728723 4.889526
v -7.360544 -2.810242 2.986712
v -7.122126 -2.810242 2.634007
v -4.005678 -2.848432 5.254509
v -3.767260 -2.848433 4.901805
v -7.342380 -2.929951 2.998991
v -7.103961 -2.929951 2.646286
v -4.555045 -2.728723 6.028066
v -4.316626 -2.728723 5.675361
v -7.891747 -2.810241 3.772547
v -7.653328 -2.810242 3.419842
v -4.536881 -2.848432 6.040344
v -4.298462 -2.848432 5.687639
v -7.873582 -2.929951 3.784826
v -7.635164 -2.929951 3.432121
v -0.417601 -3.060900 0.828871
v -0.417601 -3.060900 0.336149
v 0.075120 -3.060900 0.828870
v 0.075120 -3.060900 0.336149
v -0.052036 1.217595 0.828870
v -0.021775 1.868194 0.828870
v -0.028540 2.633161 0.828870
v -0.052036 1.217595 0.336149
v -0.028541 2.633161 0.336149
v -0.021775 1.868194 0.336149
v 0.440685 1.217595 0.828870
v 0.462170 2.633140 0.828870
v 0.470424 1.868188 0.828870
v 0.440685 1.217595 0.336149
v 0.462169 2.633140 0.336149
v 0.470424 1.868188 0.336149
v 4.792778 -3.116737 1.095197
v 4.792777 -3.116737 0.602476
v 5.285499 -3.116736 1.095196
v 5.285499 -3.116736 0.602475
v 5.285498 2.964679 0.602474
v 5.285500 2.964679 1.095195
v 4.792778 2.964680 0.602473
v 4.792778 2.964680 1.095195
v -5.165949 -2.769248 -3.363543
v -4.925779 -2.769249 -3.641280
v -5.165949 -3.136426 -3.363543
v -4.925779 -3.136426 -3.641280
v -1.460958 -2.967752 -0.293028
v -1.701127 -2.967752 -0.015291
v -1.460958 -2.600574 -0.293029
v -1.701128 -2.600574 -0.015291
v -0.417603 -3.060901 -4.200256
v -0.417603 -3.060901 -3.707535
v 0.075119 -3.060901 -4.200256
v 0.075119 -3.060901 -3.707535
v -0.052038 1.217594 -4.200257
v -0.021776 1.868193 -4.200258
v -0.028542 2.633161 -4.200258
v -0.052038 1.217594 -3.707536
v -0.028542 2.633161 -3.707537
v -0.021776 1.868193 -3.707537
v 0.440683 1.217594 -4.200258
v 0.462168 2.633139 -4.200258
v 0.470422 1.868187 -4.200258
v 0.440684 1.217594 -3.707536
v 0.462168 2.633140 -3.707537
v 0.470423 1.868187 -3.707537
v 4.792775 -3.116738 -4.466587
v 4.792776 -3.116738 -3.973866
v 5.285495 -3.116737 -4.466587
v 5.285496 -3.116737 -3.973866
v 5.285497 2.964678 -3.973867
v 5.285496 2.964678 -4.466588
v 4.792776 2.964678 -3.973866
v 4.792775 2.964678 -4.466588
v 0.125734 -1.150463 -4.137485
v 0.125734 -1.150463 -3.770307
v 0.125734 -1.517641 -4.137485
v 0.125734 -1.517641 -3.770307
v 4.936642 -1.348967 -4.036637
v 4.936642 -1.348967 -4.403816
v 4.936641 -0.981789 -4.036637
v 4.936641 -0.981789 -4.403816
v 0.051182 2.785860 0.640875
v 0.051182 3.081625 0.640875
v 5.461300 2.965526 1.266032
v 0.051180 2.785859 -4.012263
v 0.051180 3.081624 -4.012263
v 5.461297 2.965525 -4.637424
v 0.051183 2.785860 -1.685694
v 0.051183 3.081625 -1.685694
v 5.461298 2.965526 -1.685696
v -0.053978 3.086966 0.828870
v 0.434578 3.100984 0.828870
v -0.053979 3.086966 0.336149
v 0.434577 3.100984 0.336149
v 1.902165 3.143095 0.854762
v 1.902327 3.143099 -4.226171
v -0.053980 3.086966 -4.200258
v -0.053980 3.086966 -3.707537
v 0.434576 3.100984 -3.707537
v 0.434576 3.100984 -4.200258
v 5.461301 3.245219 1.266032
v 5.461298 3.245219 -4.637425
vn -0.0098 0.9999 -0.0066
vn -0.5600 -0.0000 0.8285
vn 0.0098 -0.9999 0.0066
vn 0.5600 -0.0000 -0.8285
vn 0.8284 0.0118 0.5600
vn -0.8284 -0.0118 -0.5600
vn -0.8284 0.0079 -0.5600
vn -0.0255 0.9995 -0.0173
vn -0.0730 0.9967 -0.0359
vn -0.0598 0.9968 -0.0539
vn -0.1493 0.9836 -0.1009
vn 0.0201 -0.9997 0.0167
vn 0.0572 -0.9970 0.0524
vn 0.0629 -0.9971 0.0425
vn -0.0168 0.9998 -0.0113
vn -0.8149 -0.1802 -0.5509
vn 0.0168 -0.9998 0.0113
vn 0.8149 0.1801 0.5509
vn 0.8149 0.1802 0.5509
vn -0.0000 -1.0000 -0.0000
vn -0.0000 -0.0000 1.0000
vn -0.9984 -0.0560 -0.0000
vn 0.9993 -0.0346 -0.0109
vn 0.9968 -0.0799 0.0033
vn 0.9993 -0.0346 0.0109
vn -0.0000 -0.0000 -1.0000
vn -1.0000 -0.0000 -0.0000
vn 0.9964 -0.0844 -0.0000
vn 0.9994 -0.0335 0.0109
vn -0.0332 0.9994 -0.0000
vn -0.9982 0.0597 -0.0014
vn -0.9995 0.0181 0.0241
vn -1.0000 0.0004 -0.0018
vn -0.0000 1.0000 -0.0000
vn 1.0000 -0.0000 -0.0000
vn 0.7564 -0.0000 0.6541
vn -0.6949 -0.0000 0.7191
vn 0.0265 -0.9994 0.0229
vn 0.6949 -0.0000 -0.7191
vn -0.7564 -0.0000 -0.6541
vn -0.0265 0.9994 -0.0229
vn 0.9983 0.0589 -0.0000
vn -0.0553 -0.0000 -0.9985
vn 0.0350 -0.9994 -0.0000
vn 0.0553 -0.0000 0.9985
vn -0.0350 0.9994 -0.0000
vn -0.9971 0.0671 -0.0350
vn -0.9964 0.0848 -0.0000
vn -0.9994 0.0251 0.0257
vn -0.1148 -0.0000 0.9934
vn 0.0332 -0.9994 -0.0000
vn -0.1148 -0.0000 -0.9934
vn -0.0287 0.9996 -0.0000
vn -0.0252 0.9995 -0.0170
vn -0.2722 0.9173 0.2905
vn -0.1034 0.9922 -0.0699
vn 0.0212 -0.9997 0.0143
vn -0.1782 -0.9124 0.3685
vn 0.1010 -0.9925 0.0683
vn 0.9999 0.0108 -0.0000
vn 0.9968 -0.0799 -0.0033
vn 0.9964 -0.0851 -0.0000
vn 0.9482 -0.0448 0.3146
vn -0.9964 0.0851 -0.0000
vn -0.9978 0.0658 -0.0000
vn -1.0000 -0.0088 -0.0000
vn -0.1148 0.0001 0.9934
vt 0.366630 0.656249
vt 0.411518 0.773358
vt 0.359147 0.656249
vt 0.339278 0.656249
vt 0.411518 0.743138
vt 0.347411 0.938505
vt 0.399678 0.743138
vt 0.359147 0.938505
vt 0.366630 0.373993
vt 0.339278 0.373993
vt 0.399678 0.773358
vt 0.347411 0.656249
vt 0.339278 0.373993
vt 0.399678 0.773358
vt 0.347411 0.656249
vt 0.311922 0.373993
vt 0.399678 0.743138
vt 0.335635 0.938505
vt 0.339278 0.656249
vt 0.387838 0.743138
vt 0.347411 0.938505
vt 0.335635 0.656249
vt 0.387838 0.773358
vt 0.311922 0.656249
vt 0.395056 0.711923
vt 0.690185 0.004140
vt 0.943110 0.000000
vt 0.395056 0.743138
vt 0.971555 0.000000
vt 0.820875 0.799917
vt 0.421045 0.711923
vt 0.664271 0.000000
vt 0.886219 0.804047
vt 0.421045 0.743138
vt 0.794960 0.804057
vt 0.914664 0.804047
vt 0.656164 0.353990
vt 0.943110 0.350147
vt 0.653142 0.443394
vt 0.943110 0.439576
vt 0.653651 0.394993
vt 0.943110 0.391171
vt 0.971555 0.350147
vt 0.786853 0.450067
vt 0.971555 0.391171
vt 0.784340 0.409064
vt 0.971555 0.439576
vt 0.783831 0.360662
vt 0.628144 0.355362
vt 0.886219 0.448323
vt 0.625479 0.396370
vt 0.886219 0.407289
vt 0.624841 0.444777
vt 0.886219 0.358878
vt 0.758833 0.448695
vt 0.756168 0.407687
vt 0.914664 0.407289
vt 0.755530 0.359280
vt 0.914664 0.358878
vt 0.421045 0.680709
vt 0.971555 0.798503
vt 0.886219 0.799917
vt 0.421045 0.711923
vt 1.000000 0.798503
vt 0.755530 0.004140
vt 0.395056 0.680709
vt 0.914664 0.000000
vt 0.860305 0.804057
vt 0.395056 0.711923
vt 0.729616 0.000000
vt 0.943110 0.000000
vt 0.971555 0.448356
vt 0.852198 0.450067
vt 0.971555 0.358928
vt 0.849175 0.360662
vt 0.971555 0.407333
vt 0.849685 0.409064
vt 1.000000 0.448356
vt 0.721509 0.353990
vt 1.000000 0.407333
vt 0.718996 0.394992
vt 1.000000 0.358928
vt 0.718486 0.443394
vt 0.914664 0.355723
vt 0.914664 0.396757
vt 0.821512 0.407687
vt 0.914664 0.445169
vt 0.820875 0.359280
vt 0.693488 0.355362
vt 0.943110 0.355723
vt 0.690823 0.396370
vt 0.943110 0.396757
vt 0.690185 0.444777
vt 0.943110 0.445169
vt 0.083272 0.951032
vt 0.066221 0.951032
vt 0.083272 0.656249
vt 0.066221 0.656249
vt 0.083272 0.803640
vt 0.066221 0.803640
vt 0.084361 0.656249
vt 0.463231 0.726457
vt 0.335635 0.656249
vt 0.042184 0.656249
vt 0.463231 0.679856
vt 0.323799 0.938505
vt 0.335635 0.938505
vt 0.084361 0.373993
vt 0.602234 0.764344
vt 0.042184 0.373993
vt 0.602234 0.717744
vt 0.323799 0.656249
vt 0.451290 0.726457
vt 0.042184 0.373993
vt 0.323799 0.656249
vt 0.000000 0.373993
vt 0.451290 0.679856
vt 0.311922 0.938505
vt 0.614175 0.764344
vt 0.042184 0.656249
vt 0.323799 0.938505
vt 0.311922 0.656249
vt 0.614175 0.717744
vt 0.000000 0.656249
vt 0.000000 0.656249
vt 0.621196 0.744714
vt 0.515223 0.680916
vt 0.024578 0.656249
vt 0.621196 0.717744
vt 0.366082 0.911450
vt 0.500670 0.733622
vt 0.515223 0.936118
vt 0.000000 0.909958
vt 0.024578 0.909958
vt 0.500670 0.760592
vt 0.366082 0.656249
vt 0.614175 0.744714
vt 0.602234 0.627736
vt 0.508288 0.679681
vt 0.359147 0.912686
vt 0.577656 0.627736
vt 0.614175 0.717744
vt 0.602234 0.881480
vt 0.493659 0.733622
vt 0.508288 0.934882
vt 0.493659 0.760592
vt 0.577656 0.881480
vt 0.359147 0.657484
vt 0.024578 0.656249
vt 0.500681 0.733622
vt 0.522158 0.934882
vt 0.049155 0.656249
vt 0.500681 0.706651
vt 0.536028 0.934882
vt 0.429917 0.742997
vt 0.522158 0.679681
vt 0.024578 0.909958
vt 0.049155 0.909958
vt 0.429917 0.769968
vt 0.536028 0.679681
vt 0.493659 0.733622
vt 0.602234 0.373993
vt 0.529093 0.936118
vt 0.529093 0.936118
vt 0.577656 0.373993
vt 0.493659 0.706651
vt 0.602234 0.627736
vt 0.422906 0.742997
vt 0.529093 0.680916
vt 0.422906 0.769968
vt 0.577656 0.627736
vt 0.529093 0.680916
vt 0.553078 0.627736
vt 0.500681 0.706651
vt 0.522158 0.680916
vt 0.577656 0.627736
vt 0.500681 0.679681
vt 0.501353 0.680916
vt 0.418528 0.743138
vt 0.522158 0.936118
vt 0.553078 0.881445
vt 0.577656 0.881445
vt 0.418528 0.770108
vt 0.501353 0.936118
vt 0.493659 0.706651
vt 0.577656 0.373993
vt 0.515223 0.679681
vt 0.508288 0.679681
vt 0.553078 0.373993
vt 0.493659 0.679681
vt 0.577656 0.627736
vt 0.411518 0.743138
vt 0.515223 0.934882
vt 0.411518 0.770108
vt 0.553078 0.627736
vt 0.508288 0.934882
vt 0.493659 0.711071
vt 0.943110 0.798503
vt 0.690185 0.802670
vt 0.493659 0.742286
vt 0.971555 0.798503
vt 0.820875 0.001387
vt 0.465233 0.711071
vt 0.886219 0.000000
vt 0.661769 0.804057
vt 0.465233 0.742286
vt 0.914664 0.000000
vt 0.792458 0.000000
vt 0.943110 0.529051
vt 0.658128 0.532918
vt 0.943110 0.487993
vt 0.654714 0.491827
vt 0.943110 0.439576
vt 0.653142 0.443394
vt 0.971555 0.529051
vt 0.788817 0.271139
vt 0.971555 0.439576
vt 0.783831 0.360662
vt 0.971555 0.487993
vt 0.785403 0.312229
vt 0.886219 0.269405
vt 0.629711 0.534305
vt 0.886219 0.358878
vt 0.624841 0.444777
vt 0.886219 0.310459
vt 0.626327 0.493213
vt 0.914664 0.269405
vt 0.760400 0.269752
vt 0.755530 0.359280
vt 0.914664 0.358878
vt 0.914664 0.310459
vt 0.757016 0.310844
vt 0.451290 0.742997
vt 0.283477 0.373993
vt 0.169696 0.373993
vt 0.112806 0.373993
vt 0.451290 0.711782
vt 0.311922 0.373993
vt 0.141251 0.373993
vt 0.422906 0.742997
vt 0.226586 0.758724
vt 0.255031 0.758724
vt 0.422906 0.711783
vt 0.141251 0.373993
vt 0.141251 0.759259
vt 0.366630 0.711923
vt 0.255031 0.373993
vt 0.141251 0.759259
vt 0.366630 0.680709
vt 0.226586 0.373993
vt 0.395056 0.711923
vt 0.112806 0.759259
vt 0.311922 0.758698
vt 0.283477 0.758698
vt 0.169696 0.759259
vt 0.395056 0.680709
vt 0.430124 0.742997
vt 0.387795 0.679424
vt 0.514844 0.678865
vt 0.430124 0.766258
vt 0.472475 0.374807
vt 0.366630 0.680709
vt 0.536028 0.679681
vt 0.451290 0.742997
vt 0.408960 0.679282
vt 0.451290 0.766258
vt 0.430125 0.680568
vt 0.493659 0.373993
vt 0.493659 0.679042
vt 0.472491 0.742286
vt 0.430125 0.375278
vt 0.536028 0.374808
vt 0.472491 0.765547
vt 0.408960 0.373993
vt 0.472475 0.679856
vt 0.451323 0.742286
vt 0.366630 0.375277
vt 0.387795 0.373993
vt 0.514844 0.373993
vt 0.451323 0.765547
vt 0.422864 0.680568
vt 0.886219 0.001387
vt 0.971555 0.000000
vt 0.422864 0.711783
vt 0.755530 0.802670
vt 1.000000 0.000000
vt 0.914664 0.804047
vt 0.451290 0.680568
vt 0.857802 0.000000
vt 0.943110 0.804047
vt 0.451290 0.711783
vt 0.727113 0.804057
vt 0.854161 0.271139
vt 0.971555 0.269452
vt 0.850747 0.312229
vt 0.971555 0.310511
vt 0.849175 0.360662
vt 0.971555 0.358928
vt 0.723472 0.532918
vt 1.000000 0.269452
vt 0.718486 0.443394
vt 1.000000 0.358928
vt 0.720058 0.491827
vt 1.000000 0.310511
vt 0.914664 0.534642
vt 0.825745 0.269752
vt 0.820875 0.359280
vt 0.914664 0.445169
vt 0.914664 0.493587
vt 0.822361 0.310844
vt 0.943110 0.534642
vt 0.695055 0.534305
vt 0.943110 0.445169
vt 0.690185 0.444777
vt 0.943110 0.493587
vt 0.691672 0.493213
vt 0.255031 0.758698
vt 0.366672 0.743138
vt 0.112806 0.759259
vt 0.198141 0.373993
vt 0.366672 0.711923
vt 0.283477 0.758698
vt 0.395056 0.743138
vt 0.084361 0.759259
vt 0.226586 0.758724
vt 0.395056 0.711923
vt 0.169696 0.373993
vt 0.198141 0.758724
vt 0.198141 0.373993
vt 0.169696 0.759259
vt 0.493659 0.711071
vt 0.084361 0.373993
vt 0.493659 0.679856
vt 0.226586 0.373993
vt 0.465233 0.711071
vt 0.198141 0.759259
vt 0.283477 0.373993
vt 0.255031 0.373993
vt 0.112806 0.373993
vt 0.465233 0.679856
vt 0.366672 0.766399
vt 0.387795 0.679424
vt 0.493659 0.374808
vt 0.408960 0.680709
vt 0.366672 0.743138
vt 0.451290 0.679042
vt 0.514844 0.373993
vt 0.387838 0.766399
vt 0.451290 0.679282
vt 0.472475 0.679856
vt 0.430125 0.680568
vt 0.387838 0.743138
vt 0.472475 0.374807
vt 0.493659 0.765547
vt 0.430125 0.375278
vt 0.514844 0.678865
vt 0.493659 0.742286
vt 0.451290 0.373993
vt 0.472491 0.765547
vt 0.451290 0.373993
vt 0.408960 0.375277
vt 0.387795 0.373993
vt 0.493659 0.679681
vt 0.472491 0.742286
vt 0.083272 0.951032
vt 0.066221 0.656249
vt 0.312501 0.039605
vt 0.066221 0.951032
vt 0.312501 0.039605
vt 0.049155 0.656870
vt 0.066221 0.999378
vt 0.553078 0.373993
vt 0.000000 0.000000
vt 0.083272 0.656249
vt 0.312501 0.334388
vt 0.619299 0.717744
vt 0.066221 0.656249
vt 0.312501 0.334388
vt 0.602234 0.717122
vt 0.553078 0.747985
vt 0.000000 0.373993
vt 0.619299 0.374614
vt 0.083272 0.803640
vt 0.312501 0.186996
vt 0.066221 0.803640
vt 0.312502 0.186996
vt 0.553078 0.560989
vt 0.000000 0.186996
vt 0.653445 0.414602
vt 0.943110 0.410781
vt 0.181263 0.686962
vt 0.625232 0.415090
vt 0.886219 0.388568
vt 0.196492 0.686962
vt 0.181263 0.673359
vt 0.971555 0.410781
vt 0.784134 0.389455
vt 0.914664 0.388568
vt 0.755921 0.388967
vt 0.196493 0.673359
vt 0.419363 0.026055
vt 0.049155 0.774266
vt 0.242242 0.687676
vt 0.419373 0.347939
vt 0.602234 0.599715
vt 0.242247 0.547406
vt 0.181263 0.548121
vt 0.971555 0.387722
vt 0.849478 0.389455
vt 0.718789 0.414602
vt 1.000000 0.387722
vt 0.181263 0.561724
vt 0.943110 0.415479
vt 0.690577 0.415090
vt 0.196492 0.561724
vt 0.914664 0.415479
vt 0.821266 0.388967
vt 0.196492 0.548121
vt 0.050083 0.999966
vt 0.536955 0.373992
vt 0.353191 0.699031
vt 0.353191 0.536052
vt 0.536955 0.747985
vt 0.603161 0.374026
s 1
g Cube.152_m_koyuahşap
usemtl m_koyuahşap
f 2/4/1 3/9/1 1/1/1
f 4/11/2 7/20/2 3/7/2
f 8/24/3 5/13/3 7/19/3
f 5/14/4 2/5/4 1/2/4
f 7/21/5 1/3/5 3/8/5
f 4/12/6 6/18/6 8/22/6
f 10/28/7 11/31/7 12/34/7
f 11/32/4 15/41/4 21/53/4
f 9/27/8 17/45/9 15/42/10
f 12/35/2 23/56/2 17/46/2
f 46/100/11 43/97/11 45/99/11
f 27/66/7 26/63/7 28/69/7
f 26/64/8 31/76/9 33/80/10
f 28/70/4 33/81/4 40/93/4
f 12/36/12 20/52/13 23/57/14
f 27/67/12 39/92/13 36/85/14
f 27/68/2 36/86/2 31/77/2
f 48/104/1 49/108/1 47/101/1
f 49/109/2 54/123/2 53/119/2
f 54/124/3 51/114/3 53/120/3
f 52/117/4 47/102/4 51/113/4
f 53/121/5 47/103/5 49/107/5
f 50/112/6 52/118/6 54/122/6
f 56/128/15 57/133/15 55/125/15
f 58/135/16 61/144/16 57/131/16
f 62/147/17 59/138/17 61/143/17
f 60/142/18 55/126/19 59/137/19
f 61/145/2 55/127/2 57/132/2
f 62/148/4 56/130/4 60/140/4
f 64/152/15 65/157/15 63/149/15
f 66/159/16 69/168/16 65/155/16
f 70/171/17 67/162/17 69/167/17
f 68/166/19 63/150/18 67/161/18
f 69/169/2 63/151/2 65/156/2
f 70/172/4 64/154/4 68/164/4
f 72/176/15 73/181/15 71/173/15
f 74/183/16 77/192/16 73/179/16
f 78/195/17 75/186/17 77/191/17
f 76/190/18 71/174/19 75/185/19
f 77/193/2 71/175/2 73/180/2
f 78/196/4 72/178/4 76/188/4
f 80/200/20 81/203/20 79/197/20
f 85/214/21 153/392/21 152/389/21
f 85/213/22 154/396/22 87/217/22
f 91/225/23 82/207/24 94/231/25
f 87/218/26 155/399/26 93/229/26
f 150/385/27 149/383/27 144/368/27
f 114/290/28 123/309/29 126/315/23
f 150/386/30 156/401/30 157/404/30
f 86/215/31 84/211/32 87/217/33
f 96/237/20 97/240/20 95/233/20
f 101/252/26 98/244/26 96/236/26
f 102/254/27 96/238/27 95/234/27
f 100/248/21 95/235/21 97/239/21
f 102/256/34 99/246/34 101/251/34
f 99/247/35 97/241/35 98/242/35
f 104/260/36 105/264/36 106/266/36
f 104/261/37 107/269/37 109/275/37
f 103/258/38 109/277/38 110/278/38
f 103/259/39 108/272/39 105/263/39
f 107/270/40 110/280/40 109/276/40
f 105/265/41 107/271/41 106/267/41
f 111/281/20 114/291/20 112/284/20
f 121/306/26 116/295/26 117/297/26
f 119/302/22 158/408/22 117/298/22
f 92/228/26 88/220/26 87/218/26
f 119/301/21 160/414/21 159/410/21
f 153/393/42 93/230/42 155/398/42
f 125/313/42 161/416/42 160/413/42
f 125/314/21 118/299/21 114/292/21
f 117/297/26 161/417/26 122/307/26
f 128/321/20 129/323/20 130/326/20
f 130/327/21 133/336/21 128/320/21
f 128/322/27 134/338/27 127/317/27
f 129/324/26 134/339/26 132/332/26
f 131/331/34 134/340/34 133/335/34
f 130/328/35 132/334/35 131/329/35
f 136/345/35 137/348/35 135/341/35
f 136/346/43 139/353/43 138/350/43
f 135/342/44 141/361/44 136/344/44
f 140/356/45 135/343/45 137/347/45
f 142/364/27 139/354/27 141/359/27
f 139/355/46 137/349/46 138/351/46
f 115/294/47 112/286/48 120/304/49
f 144/370/50 145/371/50 162/419/50
f 145/372/35 151/387/35 163/423/35
f 149/384/51 148/381/51 151/388/51
f 146/376/52 157/405/52 163/424/52
f 90/224/21 83/210/21 81/205/21
s 0
f 159/412/53 161/418/53 158/407/53
f 157/406/53 162/421/53 163/422/53
f 152/391/53 155/400/53 154/395/53
s 1
f 2/4/1 4/10/1 3/9/1
f 4/11/2 8/23/2 7/20/2
f 8/24/3 6/16/3 5/13/3
f 5/14/4 6/17/4 2/5/4
f 7/21/5 5/15/5 1/3/5
f 4/12/6 2/6/6 6/18/6
f 10/28/7 9/25/7 11/31/7
f 20/51/4 19/49/4 11/32/4
f 11/32/4 9/26/4 13/37/4
f 15/41/4 14/39/4 21/53/4
f 11/32/4 13/37/4 15/41/4
f 21/53/4 20/51/4 11/32/4
f 15/42/10 13/38/4 9/27/8
f 9/27/8 10/29/54 16/43/55
f 17/45/9 18/47/56 14/40/56
f 9/27/8 16/43/55 17/45/9
f 17/45/9 14/40/56 15/42/10
f 16/44/2 10/30/2 12/35/2
f 12/35/2 22/55/2 23/56/2
f 23/56/2 24/58/2 18/48/2
f 17/46/2 16/44/2 12/35/2
f 23/56/2 18/48/2 17/46/2
f 45/99/11 41/95/11 42/96/11
f 46/100/11 44/98/11 43/97/11
f 45/99/11 42/96/11 46/100/11
f 27/66/7 25/60/7 26/63/7
f 33/80/10 32/78/4 26/64/8
f 26/64/8 25/61/54 29/72/55
f 31/76/9 30/74/56 34/82/56
f 26/64/8 29/72/55 31/76/9
f 31/76/9 34/82/56 33/80/10
f 39/91/4 38/89/4 28/70/4
f 28/70/4 26/65/4 32/79/4
f 33/81/4 34/83/4 40/93/4
f 28/70/4 32/79/4 33/81/4
f 40/93/4 39/91/4 28/70/4
f 12/36/12 11/33/57 19/50/58
f 20/52/13 21/54/59 24/59/59
f 12/36/12 19/50/58 20/52/13
f 20/52/13 24/59/59 23/57/14
f 36/85/4 35/84/4 27/67/4
f 27/67/12 28/71/57 38/90/58
f 39/92/13 40/94/59 37/87/59
f 27/67/12 38/90/58 39/92/13
f 39/92/13 37/87/59 36/85/14
f 29/73/2 25/62/2 27/68/2
f 36/86/2 37/88/2 30/75/2
f 31/77/2 29/73/2 27/68/2
f 36/86/2 30/75/2 31/77/2
f 48/104/1 50/110/1 49/108/1
f 49/109/2 50/111/2 54/123/2
f 54/124/3 52/116/3 51/114/3
f 52/117/4 48/105/4 47/102/4
f 53/121/5 51/115/5 47/103/5
f 50/112/6 48/106/6 52/118/6
f 56/128/15 58/134/15 57/133/15
f 58/135/16 62/146/16 61/144/16
f 62/147/17 60/141/17 59/138/17
f 60/142/18 56/129/18 55/126/19
f 61/145/2 59/139/2 55/127/2
f 62/148/4 58/136/4 56/130/4
f 64/152/15 66/158/15 65/157/15
f 66/159/16 70/170/16 69/168/16
f 70/171/17 68/165/17 67/162/17
f 68/166/19 64/153/19 63/150/18
f 69/169/2 67/163/2 63/151/2
f 70/172/4 66/160/4 64/154/4
f 72/176/15 74/182/15 73/181/15
f 74/183/16 78/194/16 77/192/16
f 78/195/17 76/189/17 75/186/17
f 76/190/18 72/177/18 71/174/19
f 77/193/2 75/187/2 71/175/2
f 78/196/4 74/184/4 72/178/4
f 80/200/20 82/206/20 81/203/20
f 85/214/21 90/224/21 153/392/21
f 85/213/22 152/390/22 154/396/22
f 94/231/25 93/230/60 90/223/60
f 91/225/23 89/221/26 81/204/61
f 94/231/25 90/223/60 91/225/23
f 82/207/24 92/227/21 94/231/25
f 91/225/23 81/204/61 82/207/24
f 87/218/26 154/397/26 155/399/26
f 150/385/27 147/377/27 146/374/27
f 149/383/27 143/365/27 144/368/27
f 150/385/27 146/374/27 149/383/27
f 126/315/23 124/311/26 114/290/28
f 114/290/28 113/287/62 121/305/63
f 123/309/29 122/308/60 125/313/60
f 114/290/28 121/305/63 123/309/29
f 123/309/29 125/313/60 126/315/23
f 157/404/30 147/378/30 150/386/30
f 150/386/30 144/369/30 156/401/30
f 86/215/31 80/201/64 79/198/64
f 86/215/31 79/198/64 83/209/65
f 87/217/33 88/219/26 86/215/31
f 84/211/32 85/213/66 87/217/33
f 86/215/31 83/209/65 84/211/32
f 96/237/20 98/243/20 97/240/20
f 101/252/26 99/245/26 98/244/26
f 102/254/27 101/253/27 96/238/27
f 100/248/21 102/255/21 95/235/21
f 102/256/34 100/249/34 99/246/34
f 99/247/35 100/250/35 97/241/35
f 104/260/36 103/257/36 105/264/36
f 104/261/37 106/268/37 107/269/37
f 103/258/38 104/262/38 109/277/38
f 103/259/39 110/279/39 108/272/39
f 107/270/40 108/273/40 110/280/40
f 105/265/41 108/274/41 107/271/41
f 111/281/20 113/288/20 114/291/20
f 122/307/26 123/310/26 121/306/26
f 121/306/26 113/289/26 111/282/26
f 121/306/26 111/282/26 115/293/26
f 117/297/26 122/307/26 121/306/26
f 121/306/26 115/293/26 116/295/26
f 119/302/22 159/411/22 158/408/22
f 93/229/26 94/232/26 92/228/26
f 92/228/26 82/208/26 80/202/26
f 92/228/26 80/202/26 86/216/26
f 87/218/26 93/229/26 92/228/26
f 92/228/26 86/216/26 88/220/26
f 119/301/21 125/314/21 160/414/21
f 153/393/42 90/223/42 93/230/42
f 125/313/42 122/308/42 161/416/42
f 124/312/21 126/316/21 125/314/21
f 125/314/21 119/301/21 120/303/21
f 118/299/21 112/285/21 114/292/21
f 125/314/21 120/303/21 118/299/21
f 114/292/21 124/312/21 125/314/21
f 117/297/26 158/409/26 161/417/26
f 128/321/20 127/318/20 129/323/20
f 130/327/21 131/330/21 133/336/21
f 128/322/27 133/337/27 134/338/27
f 129/324/26 127/319/26 134/339/26
f 131/331/34 132/333/34 134/340/34
f 130/328/35 129/325/35 132/334/35
f 136/345/35 138/352/35 137/348/35
f 136/346/43 141/360/43 139/353/43
f 135/342/44 142/362/44 141/361/44
f 140/356/45 142/363/45 135/343/45
f 142/364/27 140/357/27 139/354/27
f 139/355/46 140/358/46 137/349/46
f 120/304/49 119/302/66 117/298/33
f 117/298/33 116/296/26 115/294/47
f 115/294/47 111/283/64 112/286/48
f 112/286/48 118/300/21 120/304/49
f 120/304/49 117/298/33 115/294/47
f 162/419/50 156/402/67 144/370/50
f 144/370/50 143/366/50 145/371/50
f 163/423/35 162/420/35 145/372/35
f 151/387/35 148/380/35 163/423/35
f 151/388/51 145/373/51 143/367/51
f 149/384/51 146/375/51 148/381/51
f 151/388/51 143/367/51 149/384/51
f 163/424/52 148/382/52 146/376/52
f 146/376/52 147/379/52 157/405/52
f 89/222/21 91/226/21 90/224/21
f 90/224/21 85/214/21 84/212/21
f 83/210/21 79/199/21 81/205/21
f 90/224/21 84/212/21 83/210/21
f 81/205/21 89/222/21 90/224/21
s 0
f 159/412/53 160/415/53 161/418/53
f 157/406/53 156/403/53 162/421/53
f 152/391/53 153/394/53 155/400/53
