# Blender v3.0.1 OBJ File: 'hand.blend'
# www.blender.org
mtllib bas-oval.mtl
o Female_Hand.002_Female_Hand.020
v 0.769675 -0.100489 -0.138463
v 0.766872 -0.105929 -0.159860
v 0.720297 -0.016897 -0.128453
v 0.665164 -0.032955 -0.202602
v 0.787493 -0.095608 -0.125772
v 0.792434 -0.098868 -0.137509
v 0.788131 -0.048804 -0.120023
v 0.738576 -0.039556 -0.117489
v 0.762022 -0.063410 -0.127183
v 0.684064 -0.061307 -0.229243
v 0.727228 -0.023649 -0.120627
v 0.734737 -0.031055 -0.144031
v 0.743984 -0.103329 -0.192072
v 0.701565 -0.091862 -0.231784
v 0.781184 -0.102518 -0.131740
v 0.773473 -0.060825 -0.114311
v 0.750599 -0.032036 -0.098942
v 0.745658 -0.018899 -0.101677
v 0.795917 -0.071203 -0.126857
v 0.772829 -0.033996 -0.107786
v 0.737513 -0.023454 -0.103421
vt 0.434274 0.069271
vt 0.407780 0.055909
vt 0.483231 0.056386
vt 0.408885 0.044142
vt 0.389712 0.056268
vt 0.399259 0.056017
vt 0.402443 0.074500
vt 0.401211 0.034567
vt 0.398220 0.031755
vt 0.403500 0.038389
vt 0.414631 0.080178
vt 0.407397 0.067058
vt 0.436515 0.029794
vt 0.415397 0.031989
vt 0.398142 0.025633
vt 0.396914 0.080133
vt 0.401788 0.080345
vt 0.396798 0.083065
vt 0.408680 0.080568
vt 0.396681 0.085997
vt 0.478701 0.072750
vt 0.434753 0.083504
vt 0.478369 0.038741
vt 0.456363 0.030301
vt 0.409378 0.031281
vn 0.4241 0.7833 -0.4545
vn 0.8818 0.4428 0.1622
vn 0.7428 0.5839 -0.3275
vn 0.9858 0.1307 0.1052
vn 0.0610 -0.3085 0.9493
vn -0.1434 -0.4234 0.8945
vn -0.0960 -0.2232 0.9700
vn -0.0674 -0.8473 0.5268
vn 0.4458 -0.6336 0.6323
vn 0.3445 -0.5044 0.7917
vn 0.0815 0.8371 0.5410
vn 0.6757 0.5601 0.4794
vn 0.8352 -0.3541 -0.4207
vn 0.8487 -0.4709 -0.2409
vn 0.0087 -0.1707 0.9853
vn -0.6975 0.1682 0.6966
vn -0.4136 0.4459 0.7938
vn 0.2901 0.9567 0.0222
vn 0.5417 0.7834 -0.3047
vn 0.6978 0.5754 -0.4265
vn 0.7959 0.0309 -0.6047
g Female_Hand.002_Female_Hand.020_Skin_Female.005
usemtl Skin_Female.005
s 1
f 12/1/1 7/2/2 10/3/3
f 7/2/2 19/4/4 10/3/3
f 9/5/5 16/6/6 17/7/7
f 15/8/8 9/5/5 1/9/9
f 5/10/10 16/6/6 15/8/8
f 12/1/1 18/11/11 20/12/12
f 2/13/13 19/4/4 6/14/14
f 15/8/8 1/9/9 2/15/13
f 8/16/15 21/17/16 11/18/17
f 11/18/17 18/19/11 3/20/18
f 4/21/19 3/22/18 12/1/1
f 4/21/19 12/1/1 10/3/3
f 10/3/3 19/4/4 14/23/20
f 19/4/4 2/13/13 13/24/21
f 19/4/4 13/24/21 14/23/20
f 20/12/12 5/10/10 19/4/4 7/2/2
f 8/16/15 9/5/5 17/7/7
f 15/8/8 16/6/6 9/5/5
f 6/14/14 19/4/4 5/10/10
f 5/10/10 20/12/12 16/6/6
f 18/11/11 17/7/7 20/12/12
f 20/12/12 17/7/7 16/6/6
f 3/22/18 18/11/11 12/1/1
f 12/1/1 20/12/12 7/2/2
f 6/25/14 15/8/8 2/15/13
f 6/14/14 5/10/10 15/8/8
f 8/16/15 17/7/7 21/17/16
f 21/17/16 17/7/7 18/11/11
f 11/18/17 21/17/16 18/19/11
