# Blender 3.3.0
# www.blender.org
mtllib s_sandalye.mtl
g Cube.134_Cube.181
v -1.844073 1.555496 2.234287
v -1.924461 2.025695 2.234286
v -1.844075 1.555495 -2.221117
v -1.924463 2.025694 -2.221117
v -1.641921 1.590057 2.234286
v -1.722310 2.060256 2.234286
v -1.641924 1.590056 -2.221117
v -1.722312 2.060256 -2.221117
v -2.225574 -5.990038 2.521150
v -2.225574 -5.990038 2.028428
v -1.732853 -5.990038 2.521149
v -1.732853 -5.990038 2.028428
v -2.785623 6.602284 2.521148
v -2.785623 6.602284 2.028427
v -2.340080 6.687508 2.521148
v -2.340080 6.687508 2.028427
v -1.860008 -1.711543 2.521149
v -1.951526 1.111545 2.521149
v -1.829747 -1.060944 2.521149
v -1.836513 -0.295977 2.521149
v -1.879276 0.466899 2.521149
v -1.951526 1.111545 2.028428
v -1.860009 -1.711543 2.028428
v -1.879276 0.466899 2.028428
v -1.836513 -0.295977 2.028428
v -1.829748 -1.060944 2.028428
v -1.465671 1.111474 2.521149
v -1.367288 -1.711543 2.521149
v -1.390794 0.466856 2.521149
v -1.345803 -0.295998 2.521149
v -1.337549 -1.060950 2.521149
v -1.465671 1.111474 2.028428
v -1.367288 -1.711543 2.028428
v -1.390794 0.466855 2.028428
v -1.345803 -0.295998 2.028428
v -1.337549 -1.060951 2.028428
v 2.984805 -6.045875 2.787476
v 2.984805 -6.045875 2.294754
v 3.477526 -6.045874 2.787475
v 3.477526 -6.045875 2.294754
v 3.477526 0.035541 2.294753
v 3.477527 0.035541 2.787474
v 2.984805 0.035542 2.294753
v 2.984806 0.035542 2.787474
v -1.682237 -4.079600 2.458377
v -1.682237 -4.079600 2.091200
v -1.682237 -4.446778 2.458378
v -1.682237 -4.446778 2.091200
v 3.128672 -4.278104 2.357526
v 3.128672 -4.278103 2.724704
v 3.128671 -3.910926 2.357526
v 3.128671 -3.910926 2.724704
v -2.225575 -5.990039 -2.507977
v -2.225575 -5.990039 -2.015256
v -1.732854 -5.990039 -2.507977
v -1.732854 -5.990039 -2.015256
v -2.785624 6.602283 -2.507979
v -2.785624 6.602283 -2.015258
v -2.340081 6.687507 -2.507980
v -2.340081 6.687508 -2.015259
v -1.860010 -1.711544 -2.507978
v -1.951527 1.111544 -2.507979
v -1.829749 -1.060945 -2.507978
v -1.836514 -0.295978 -2.507979
v -1.879277 0.466898 -2.507979
v -1.951527 1.111544 -2.015258
v -1.860010 -1.711544 -2.015257
v -1.879277 0.466898 -2.015258
v -1.836514 -0.295978 -2.015258
v -1.829748 -1.060945 -2.015257
v -1.465672 1.111473 -2.507979
v -1.367289 -1.711544 -2.507979
v -1.390795 0.466855 -2.507979
v -1.345805 -0.295999 -2.507979
v -1.337551 -1.060951 -2.507979
v -1.465672 1.111473 -2.015258
v -1.367289 -1.711544 -2.015257
v -1.390795 0.466855 -2.015258
v -1.345804 -0.295999 -2.015258
v -1.337550 -1.060951 -2.015257
v 2.984803 -6.045876 -2.774308
v 2.984803 -6.045876 -2.281586
v 3.477523 -6.045876 -2.774308
v 3.477524 -6.045876 -2.281586
v 3.477524 0.035540 -2.281587
v 3.477524 0.035540 -2.774309
v 2.984803 0.035540 -2.281587
v 2.984803 0.035540 -2.774309
v -1.682238 -4.079601 -2.445206
v -1.682238 -4.079601 -2.078028
v -1.682238 -4.446779 -2.445205
v -1.682238 -4.446779 -2.078028
v 3.128669 -4.278105 -2.344359
v 3.128669 -4.278105 -2.711536
v 3.128670 -3.910927 -2.344359
v 3.128670 -3.910927 -2.711536
v -1.756791 -0.143278 2.333154
v -1.756791 0.152487 2.333154
v 3.653327 0.036387 2.958311
v 3.653328 0.332152 2.958311
v -1.756793 -0.143279 -2.319984
v -1.756793 0.152486 -2.319984
v 3.653325 0.036387 -2.945146
v 3.653325 0.332152 -2.945146
v -1.756790 -0.143278 0.006585
v -1.756790 0.152486 0.006585
v 3.653326 0.036387 0.006582
v 3.653327 0.332152 0.006582
v -2.495141 5.694951 2.234286
v -2.619103 6.420016 2.234286
v -2.495143 5.694950 -2.221118
v -2.619105 6.420016 -2.221118
v -2.291255 5.729808 2.234286
v -2.415217 6.454874 2.234286
v -2.291257 5.729807 -2.221118
v -2.415219 6.454873 -2.221118
v -1.837831 1.916706 0.703501
v -1.837830 1.916706 1.129228
v -2.483232 5.893018 0.703500
v -2.483231 5.893018 1.129228
v -1.716130 1.916707 0.703501
v -1.716130 1.916707 1.129228
v -2.361531 5.893018 0.703500
v -2.361530 5.893018 1.129228
v -1.837830 1.916706 -0.240627
v -1.837830 1.916706 0.185100
v -2.483231 5.893017 -0.240627
v -2.483231 5.893018 0.185100
v -1.716130 1.916706 -0.240627
v -1.716130 1.916707 0.185100
v -2.361530 5.893017 -0.240627
v -2.361530 5.893018 0.185100
v -1.837831 1.916705 -1.189159
v -1.837831 1.916705 -0.763431
v -2.483231 5.893017 -1.189159
v -2.483231 5.893017 -0.763431
v -1.716130 1.916706 -1.189159
v -1.716130 1.916706 -0.763431
v -2.361531 5.893017 -1.189159
v -2.361531 5.893017 -0.763431
vn -0.9857 -0.1685 -0.0000
vn -0.0000 -0.0000 -1.0000
vn 0.9857 0.1685 -0.0000
vn -0.0000 -0.0000 1.0000
vn 0.1685 -0.9857 -0.0000
vn -0.1685 0.9857 -0.0000
vn -0.0000 -1.0000 -0.0000
vn -0.1879 0.9822 -0.0000
vn -0.9907 -0.1363 -0.0000
vn 0.9977 -0.0678 -0.0000
vn -1.0000 -0.0000 -0.0000
vn -0.0332 0.9994 -0.0000
vn -0.9977 0.0682 -0.0000
vn -0.0000 1.0000 -0.0000
vn 1.0000 -0.0000 -0.0000
vn -0.0553 -0.0000 0.9985
vn 0.0350 -0.9994 -0.0000
vn 0.0553 -0.0000 -0.9985
vn -0.0350 0.9994 -0.0000
vn 0.9900 0.1410 -0.0000
vn -0.0553 -0.0000 -0.9985
vn 0.0553 -0.0000 0.9985
vn -0.1148 -0.0000 0.9934
vn 0.0332 -0.9994 -0.0000
vn -0.1148 -0.0000 -0.9934
vn -0.9871 -0.1602 -0.0000
vn 0.9871 0.1602 -0.0000
vt 0.366630 0.656249
vt 0.411518 0.773358
vt 0.359147 0.656249
vt 0.339278 0.656249
vt 0.411518 0.743138
vt 0.347411 0.938505
vt 0.366630 0.373993
vt 0.399678 0.743138
vt 0.359147 0.938505
vt 0.339278 0.373993
vt 0.399678 0.773358
vt 0.347411 0.656249
vt 0.339278 0.373993
vt 0.399678 0.773358
vt 0.347411 0.656249
vt 0.311922 0.373993
vt 0.399678 0.743138
vt 0.335635 0.938505
vt 0.387838 0.743138
vt 0.339278 0.656249
vt 0.347411 0.938505
vt 0.387838 0.773358
vt 0.311922 0.656249
vt 0.335635 0.656249
vt 0.493659 0.711071
vt 0.943110 0.798503
vt 0.690185 0.802670
vt 0.493659 0.742286
vt 0.971555 0.798503
vt 0.820875 0.001387
vt 0.465233 0.711071
vt 0.886219 0.000000
vt 0.661769 0.804057
vt 0.465233 0.742286
vt 0.914664 0.000000
vt 0.792458 0.000000
vt 0.395056 0.711923
vt 0.690185 0.004140
vt 0.943110 0.000000
vt 0.395056 0.743138
vt 0.971555 0.000000
vt 0.820875 0.799917
vt 0.421045 0.711923
vt 0.664271 0.000000
vt 0.886219 0.804047
vt 0.421045 0.743138
vt 0.794960 0.804057
vt 0.914664 0.804047
vt 0.943110 0.529051
vt 0.658128 0.532918
vt 0.656164 0.353990
vt 0.943110 0.350147
vt 0.943110 0.487993
vt 0.654714 0.491827
vt 0.943110 0.439576
vt 0.653142 0.443394
vt 0.653651 0.394993
vt 0.943110 0.391171
vt 0.971555 0.350147
vt 0.786853 0.450067
vt 0.971555 0.529051
vt 0.788817 0.271139
vt 0.971555 0.391171
vt 0.784340 0.409064
vt 0.971555 0.439576
vt 0.783831 0.360662
vt 0.971555 0.487993
vt 0.785403 0.312229
vt 0.628144 0.355362
vt 0.886219 0.448323
vt 0.886219 0.269405
vt 0.629711 0.534305
vt 0.625479 0.396370
vt 0.886219 0.407289
vt 0.886219 0.358878
vt 0.624841 0.444777
vt 0.886219 0.310459
vt 0.626327 0.493213
vt 0.758833 0.448695
vt 0.914664 0.448323
vt 0.914664 0.269405
vt 0.760400 0.269752
vt 0.756168 0.407687
vt 0.914664 0.407289
vt 0.755530 0.359280
vt 0.914664 0.358878
vt 0.914664 0.310459
vt 0.757016 0.310844
vt 0.451290 0.742997
vt 0.283477 0.373993
vt 0.169696 0.373993
vt 0.451290 0.711782
vt 0.112806 0.373993
vt 0.311922 0.373993
vt 0.422906 0.742997
vt 0.141251 0.373993
vt 0.226586 0.758724
vt 0.422906 0.711783
vt 0.141251 0.373993
vt 0.255031 0.758724
vt 0.141251 0.759259
vt 0.366630 0.711923
vt 0.255031 0.373993
vt 0.141251 0.759259
vt 0.366630 0.680709
vt 0.226586 0.373993
vt 0.112806 0.759259
vt 0.311922 0.758698
vt 0.395056 0.711923
vt 0.283477 0.758698
vt 0.169696 0.759259
vt 0.395056 0.680709
vt 0.430124 0.742997
vt 0.387795 0.679424
vt 0.514844 0.678865
vt 0.430124 0.766258
vt 0.472475 0.374807
vt 0.366630 0.680709
vt 0.451290 0.742997
vt 0.536028 0.679681
vt 0.408960 0.679282
vt 0.451290 0.766258
vt 0.493659 0.373993
vt 0.430125 0.680568
vt 0.493659 0.679042
vt 0.472491 0.742286
vt 0.430125 0.375278
vt 0.536028 0.374808
vt 0.472491 0.765547
vt 0.408960 0.373993
vt 0.472475 0.679856
vt 0.366630 0.375277
vt 0.451323 0.742286
vt 0.387795 0.373993
vt 0.514844 0.373993
vt 0.451323 0.765547
vt 0.422864 0.680568
vt 0.886219 0.001387
vt 0.971555 0.000000
vt 0.422864 0.711783
vt 0.755530 0.802670
vt 1.000000 0.000000
vt 0.914664 0.804047
vt 0.451290 0.680568
vt 0.857802 0.000000
vt 0.943110 0.804047
vt 0.451290 0.711783
vt 0.727113 0.804057
vt 0.421045 0.680709
vt 0.971555 0.798503
vt 0.886219 0.799917
vt 0.421045 0.711923
vt 1.000000 0.798503
vt 0.755530 0.004140
vt 0.395056 0.680709
vt 0.914664 0.000000
vt 0.860305 0.804057
vt 0.395056 0.711923
vt 0.729616 0.000000
vt 0.943110 0.000000
vt 0.854161 0.271139
vt 0.971555 0.269452
vt 0.971555 0.448356
vt 0.852198 0.450067
vt 0.850747 0.312229
vt 0.971555 0.310511
vt 0.849175 0.360662
vt 0.971555 0.358928
vt 0.971555 0.407333
vt 0.849685 0.409064
vt 1.000000 0.448356
vt 0.721509 0.353990
vt 0.723472 0.532918
vt 1.000000 0.269452
vt 1.000000 0.407333
vt 0.718996 0.394992
vt 0.718486 0.443394
vt 1.000000 0.358928
vt 0.720058 0.491827
vt 1.000000 0.310511
vt 0.914664 0.355723
vt 0.824177 0.448695
vt 0.914664 0.534642
vt 0.825745 0.269752
vt 0.914664 0.396757
vt 0.821512 0.407687
vt 0.914664 0.445169
vt 0.820875 0.359280
vt 0.914664 0.493587
vt 0.822361 0.310844
vt 0.693488 0.355362
vt 0.943110 0.355723
vt 0.943110 0.534642
vt 0.695055 0.534305
vt 0.690823 0.396370
vt 0.943110 0.396757
vt 0.943110 0.445169
vt 0.690185 0.444777
vt 0.943110 0.493587
vt 0.691672 0.493213
vt 0.366672 0.743138
vt 0.255031 0.758698
vt 0.112806 0.759259
vt 0.366672 0.711923
vt 0.198141 0.373993
vt 0.283477 0.758698
vt 0.395056 0.743138
vt 0.084361 0.759259
vt 0.226586 0.758724
vt 0.395056 0.711923
vt 0.169696 0.373993
vt 0.198141 0.758724
vt 0.169696 0.759259
vt 0.493659 0.711071
vt 0.198141 0.373993
vt 0.084361 0.373993
vt 0.493659 0.679856
vt 0.226586 0.373993
vt 0.198141 0.759259
vt 0.283477 0.373993
vt 0.465233 0.711071
vt 0.255031 0.373993
vt 0.112806 0.373993
vt 0.465233 0.679856
vt 0.366672 0.766399
vt 0.387795 0.679424
vt 0.493659 0.374808
vt 0.366672 0.743138
vt 0.451290 0.679042
vt 0.408960 0.680709
vt 0.387838 0.766399
vt 0.514844 0.373993
vt 0.451290 0.679282
vt 0.387838 0.743138
vt 0.472475 0.679856
vt 0.430125 0.680568
vt 0.472475 0.374807
vt 0.493659 0.765547
vt 0.430125 0.375278
vt 0.514844 0.678865
vt 0.493659 0.742286
vt 0.451290 0.373993
vt 0.451290 0.373993
vt 0.408960 0.375277
vt 0.472491 0.765547
vt 0.387795 0.373993
vt 0.493659 0.679681
vt 0.472491 0.742286
vt 0.083272 0.951032
vt 0.066221 0.656249
vt 0.312501 0.039605
vt 0.066221 0.951032
vt 0.312501 0.039605
vt 0.049155 0.656870
vt 0.066221 0.999378
vt 0.553078 0.373993
vt 0.000000 0.000000
vt 0.624841 0.000000
vt 0.049155 1.000000
vt 0.536028 0.373993
vt 0.083272 0.656249
vt 0.312501 0.334388
vt 0.619299 0.717744
vt 0.066221 0.656249
vt 0.312501 0.334388
vt 0.602234 0.717122
vt 0.553078 0.747985
vt 0.000000 0.373993
vt 0.619299 0.374614
vt 0.624841 0.373993
vt 0.536028 0.747985
vt 0.602234 0.373993
vt 0.083272 0.803640
vt 0.312501 0.186996
vt 0.066221 0.803640
vt 0.312502 0.186996
vt 0.553078 0.560989
vt 0.000000 0.186996
vt 0.624841 0.186996
vt 0.536028 0.560989
vt 0.084361 0.656249
vt 0.463231 0.726457
vt 0.335635 0.656249
vt 0.042184 0.656249
vt 0.463231 0.679856
vt 0.323799 0.938505
vt 0.084361 0.373993
vt 0.602234 0.764344
vt 0.335635 0.938505
vt 0.042184 0.373993
vt 0.602234 0.717744
vt 0.323799 0.656249
vt 0.042184 0.373993
vt 0.451290 0.726457
vt 0.323799 0.656249
vt 0.000000 0.373993
vt 0.451290 0.679856
vt 0.311922 0.938505
vt 0.614175 0.764344
vt 0.042184 0.656249
vt 0.323799 0.938505
vt 0.614175 0.717744
vt 0.000000 0.656249
vt 0.311922 0.656249
vt 0.000000 0.656249
vt 0.621196 0.744714
vt 0.515223 0.680916
vt 0.024578 0.656249
vt 0.621196 0.717744
vt 0.366082 0.911450
vt 0.000000 0.909958
vt 0.500670 0.733622
vt 0.515223 0.936118
vt 0.024578 0.909958
vt 0.500670 0.760592
vt 0.366082 0.656249
vt 0.602234 0.627736
vt 0.614175 0.744714
vt 0.508288 0.679681
vt 0.577656 0.627736
vt 0.614175 0.717744
vt 0.359147 0.912686
vt 0.493659 0.733622
vt 0.602234 0.881480
vt 0.508288 0.934882
vt 0.493659 0.760592
vt 0.577656 0.881480
vt 0.359147 0.657484
vt 0.024578 0.656249
vt 0.500681 0.733622
vt 0.522158 0.934882
vt 0.049155 0.656249
vt 0.500681 0.706651
vt 0.536028 0.934882
vt 0.024578 0.909958
vt 0.429917 0.742997
vt 0.522158 0.679681
vt 0.049155 0.909958
vt 0.429917 0.769968
vt 0.536028 0.679681
vt 0.602234 0.373993
vt 0.493659 0.733622
vt 0.529093 0.936118
vt 0.577656 0.373993
vt 0.493659 0.706651
vt 0.529093 0.936118
vt 0.422906 0.742997
vt 0.602234 0.627736
vt 0.529093 0.680916
vt 0.422906 0.769968
vt 0.577656 0.627736
vt 0.529093 0.680916
vt 0.553078 0.627736
vt 0.500681 0.706651
vt 0.522158 0.680916
vt 0.577656 0.627736
vt 0.500681 0.679681
vt 0.501353 0.680916
vt 0.553078 0.881445
vt 0.418528 0.743138
vt 0.522158 0.936118
vt 0.577656 0.881445
vt 0.418528 0.770108
vt 0.501353 0.936118
vt 0.577656 0.373993
vt 0.493659 0.706651
vt 0.515223 0.679681
vt 0.553078 0.373993
vt 0.493659 0.679681
vt 0.508288 0.679681
vt 0.411518 0.743138
vt 0.577656 0.627736
vt 0.515223 0.934882
vt 0.411518 0.770108
vt 0.553078 0.627736
vt 0.508288 0.934882
s 1
g Cube.134_m_yellow
usemtl m_yellow
f 1/1/1 2/4/1 4/10/1 3/7/1
f 3/8/2 4/11/2 8/22/2 7/19/2
f 7/20/3 8/23/3 6/16/3 5/13/3
f 5/14/4 6/17/4 2/5/4 1/2/4
f 3/9/5 7/21/5 5/15/5 1/3/5
f 8/24/6 4/12/6 2/6/6 6/18/6
f 10/28/7 12/34/7 11/31/7 9/25/7
f 16/46/8 14/40/8 13/37/8 15/43/8
f 27/69/4 15/44/4 13/38/4 18/51/4 21/57/4 20/56/4 30/76/4 29/73/4
f 18/52/9 13/39/9 14/41/9 22/59/9 24/63/9 25/65/9 20/55/9 21/58/9
f 12/35/10 33/81/10 36/87/10 35/86/10 30/75/10 31/77/10 28/71/10 11/32/10
f 22/60/2 14/42/2 16/47/2 32/79/2 34/83/2 35/85/2 25/66/2 24/64/2
f 97/249/11 98/252/11 106/275/11 102/264/11 101/261/11 105/273/11
f 56/146/10 55/143/10 72/183/10 75/189/10 74/187/10 79/197/10 80/199/10 77/193/10
f 106/276/12 98/253/12 100/258/12 108/279/12 104/270/12 102/265/12
f 9/26/13 17/49/13 19/53/13 20/55/13 25/65/13 26/67/13 23/61/13 10/29/13
f 38/92/14 37/89/14 39/95/14 40/98/14
f 38/93/4 40/99/4 41/101/4 43/107/4
f 37/90/15 38/94/15 43/108/15 44/110/15
f 39/96/2 37/91/2 44/111/2 42/104/2
f 43/109/7 41/102/7 42/105/7 44/112/7
f 40/100/11 39/97/11 42/106/11 41/103/11
f 46/116/15 45/113/15 47/119/15 48/122/15
f 46/117/16 48/123/16 49/125/16 51/131/16
f 45/114/17 46/118/17 51/132/17 52/134/17
f 47/120/18 45/115/18 52/135/18 50/128/18
f 51/133/11 49/126/11 50/129/11 52/136/11
f 48/124/19 47/121/19 50/130/19 49/127/19
f 54/140/7 53/137/7 55/144/7 56/147/7
f 60/158/8 59/155/8 57/149/8 58/152/8
f 74/188/2 75/190/2 72/184/2 55/145/2 53/138/2 61/161/2 63/165/2 64/167/2
f 66/171/9 58/153/9 57/150/9 62/163/9 65/169/9 64/168/9 69/178/9 68/175/9
f 10/30/2 23/62/2 26/68/2 25/66/2 35/85/2 36/88/2 33/82/2 12/36/2
f 76/191/4 60/159/4 58/154/4 66/172/4 68/176/4 69/177/4 79/198/4 78/195/4
f 32/80/20 16/48/20 15/45/20 27/70/20 29/74/20 30/75/20 35/86/20 34/84/20
f 71/181/20 59/156/20 60/160/20 76/192/20 78/196/20 79/197/20 74/187/20 73/185/20
f 54/141/4 56/148/4 77/194/4 80/200/4 79/198/4 69/177/4 70/179/4 67/173/4
f 62/164/2 57/151/2 59/157/2 71/182/2 73/186/2 74/188/2 64/167/2 65/170/2
f 82/204/14 84/210/14 83/207/14 81/201/14
f 82/205/2 87/219/2 85/213/2 84/211/2
f 81/202/15 88/222/15 87/220/15 82/206/15
f 83/208/4 86/216/4 88/223/4 81/203/4
f 87/221/7 88/224/7 86/217/7 85/214/7
f 84/212/11 85/215/11 86/218/11 83/209/11
f 90/228/15 92/234/15 91/231/15 89/225/15
f 90/229/21 95/243/21 93/237/21 92/235/21
f 89/226/17 96/246/17 95/244/17 90/230/17
f 91/232/22 94/240/22 96/247/22 89/227/22
f 95/245/11 96/248/11 94/241/11 93/238/11
f 92/236/19 93/239/19 94/242/19 91/233/19
f 53/139/13 54/142/13 67/174/13 70/180/13 69/178/13 64/168/13 63/166/13 61/162/13
f 99/255/23 100/259/23 98/254/23 97/250/23
f 108/280/15 100/260/15 99/256/15 107/277/15 103/267/15 104/271/15
f 107/278/24 99/257/24 97/251/24 105/274/24 101/262/24 103/268/24
f 103/269/25 101/263/25 102/266/25 104/272/25
f 109/281/1 110/284/1 112/290/1 111/287/1
f 111/288/2 112/291/2 116/302/2 115/299/2
f 115/300/3 116/303/3 114/296/3 113/293/3
f 113/294/4 114/297/4 110/285/4 109/282/4
f 111/289/5 115/301/5 113/295/5 109/283/5
f 116/304/6 112/292/6 110/286/6 114/298/6
f 117/305/26 118/308/26 120/314/26 119/311/26
f 119/312/14 120/315/14 124/326/14 123/323/14
f 123/324/27 124/327/27 122/320/27 121/317/27
f 121/318/7 122/321/7 118/309/7 117/306/7
f 119/313/2 123/325/2 121/319/2 117/307/2
f 124/328/4 120/316/4 118/310/4 122/322/4
f 125/329/26 126/332/26 128/338/26 127/335/26
f 127/336/14 128/339/14 132/350/14 131/347/14
f 131/348/27 132/351/27 130/344/27 129/341/27
f 129/342/7 130/345/7 126/333/7 125/330/7
f 127/337/2 131/349/2 129/343/2 125/331/2
f 132/352/4 128/340/4 126/334/4 130/346/4
f 133/353/26 134/356/26 136/362/26 135/359/26
f 135/360/14 136/363/14 140/374/14 139/371/14
f 139/372/27 140/375/27 138/368/27 137/365/27
f 137/366/7 138/369/7 134/357/7 133/354/7
f 135/361/2 139/373/2 137/367/2 133/355/2
f 140/376/4 136/364/4 134/358/4 138/370/4
f 30/76/4 20/56/4 19/54/4 17/50/4 9/27/4 11/33/4 28/72/4 31/78/4
