# Blender v3.0.1 OBJ File: 'oje2.blend'
# www.blender.org
mtllib nail-brush.mtl
o Brush_Mesh.001
v 0.070619 0.026517 -0.000000
v 0.061158 0.026517 -0.035310
v 0.035310 0.026517 -0.061158
v -0.000000 0.026517 -0.070619
v -0.035310 0.026517 -0.061158
v -0.061158 0.026517 -0.035310
v -0.070619 0.026517 -0.000000
v -0.061158 0.026517 0.035310
v -0.035310 0.026517 0.061158
v -0.000000 0.026517 0.070619
v 0.035310 0.026517 0.061158
v 0.061158 0.026517 0.035310
v 0.057988 0.131652 -0.000000
v 0.050219 0.131652 -0.028994
v 0.028994 0.131652 -0.050219
v -0.000000 0.131652 -0.057988
v -0.028994 0.131652 -0.050219
v -0.050219 0.131652 -0.028994
v -0.057988 0.131652 -0.000000
v -0.050219 0.131652 0.028994
v -0.028994 0.131652 0.050219
v -0.000000 0.131652 0.057988
v 0.028994 0.131652 0.050219
v 0.050219 0.131652 0.028994
v 0.076729 -0.094290 -0.000000
v 0.066449 -0.094290 -0.038365
v 0.038365 -0.094290 -0.066449
v -0.000000 -0.094290 -0.076729
v -0.038365 -0.094290 -0.066449
v -0.066449 -0.094290 -0.038365
v -0.076729 -0.094290 -0.000000
v -0.066449 -0.094290 0.038364
v -0.038365 -0.094290 0.066449
v -0.000000 -0.094290 0.076729
v 0.038365 -0.094290 0.066449
v 0.066449 -0.094290 0.038365
v 0.076801 -0.096858 -0.000000
v 0.066511 -0.096858 -0.038400
v 0.038400 -0.096857 -0.066511
v -0.000000 -0.096857 -0.076801
v -0.038400 -0.096857 -0.066511
v -0.066511 -0.096858 -0.038400
v -0.076801 -0.096858 -0.000000
v -0.066511 -0.096858 0.038400
v -0.038400 -0.096858 0.066511
v -0.000000 -0.096858 0.076801
v 0.038400 -0.096858 0.066511
v 0.066511 -0.096858 0.038400
v 0.070649 -0.096858 -0.000000
v 0.061184 -0.096858 -0.035324
v 0.035324 -0.096857 -0.061184
v -0.000000 -0.096857 -0.070649
v -0.035324 -0.096857 -0.061184
v -0.061184 -0.096858 -0.035324
v -0.070649 -0.096858 -0.000000
v -0.061184 -0.096858 0.035324
v -0.035324 -0.096858 0.061184
v -0.000000 -0.096858 0.070649
v 0.035324 -0.096858 0.061184
v 0.061184 -0.096858 0.035324
v 0.008829 -0.096857 -0.000000
v 0.007646 -0.096857 -0.004415
v 0.004415 -0.096857 -0.007646
v -0.000000 -0.096857 -0.008829
v -0.004415 -0.096857 -0.007646
v -0.007646 -0.096857 -0.004415
v -0.008829 -0.096857 -0.000000
v -0.007646 -0.096857 0.004414
v -0.004415 -0.096857 0.007646
v -0.000000 -0.096857 0.008829
v 0.004415 -0.096857 0.007646
v 0.007646 -0.096857 0.004415
v 0.053343 0.131652 -0.000000
v 0.046196 0.131652 -0.026671
v 0.026671 0.131652 -0.046196
v -0.000000 0.131652 -0.053343
v -0.026671 0.131652 -0.046196
v -0.046196 0.131652 -0.026671
v -0.053343 0.131652 -0.000000
v -0.046196 0.131652 0.026671
v -0.026671 0.131652 0.046196
v -0.000000 0.131652 0.053343
v 0.026671 0.131652 0.046196
v 0.046196 0.131652 0.026671
v 0.014016 0.131652 -0.000000
v 0.012139 0.131652 -0.007008
v 0.007008 0.131652 -0.012139
v -0.000000 0.131652 -0.014016
v -0.007008 0.131652 -0.012139
v -0.012139 0.131652 -0.007008
v -0.014016 0.131652 -0.000000
v -0.012139 0.131652 0.007008
v -0.007008 0.131652 0.012139
v -0.000000 0.131652 0.014016
v 0.007008 0.131652 0.012139
v 0.012139 0.131652 0.007008
v 0.007646 -0.250539 -0.004415
v 0.008829 -0.250539 -0.000000
v 0.007646 -0.250539 0.004414
v 0.004415 -0.250539 0.007646
v -0.000000 -0.250539 0.008829
v -0.004415 -0.250539 0.007646
v -0.007646 -0.250539 0.004414
v -0.008829 -0.250539 -0.000000
v -0.007646 -0.250539 -0.004415
v -0.004415 -0.250539 -0.007646
v -0.000000 -0.250539 -0.008829
v 0.004415 -0.250539 -0.007646
v 0.015905 -0.286417 -0.009183
v 0.018365 -0.286417 -0.000000
v 0.015905 -0.286417 0.009182
v 0.009183 -0.286417 0.015905
v -0.000000 -0.286417 0.018365
v -0.009183 -0.286417 0.015905
v -0.015905 -0.286417 0.009182
v -0.018365 -0.286417 -0.000000
v -0.015905 -0.286417 -0.009183
v -0.009183 -0.286417 -0.015905
v -0.000000 -0.286417 -0.018365
v 0.009183 -0.286417 -0.015905
v 0.013881 -0.269188 -0.008014
v 0.016028 -0.269188 -0.000000
v 0.013881 -0.269188 0.008014
v 0.008014 -0.269188 0.013881
v -0.000000 -0.269188 0.016028
v -0.008014 -0.269188 0.013881
v -0.013881 -0.269188 0.008014
v -0.016028 -0.269188 -0.000000
v -0.013881 -0.269188 -0.008014
v -0.008014 -0.269188 -0.013881
v -0.000000 -0.269188 -0.016028
v 0.008014 -0.269188 -0.013881
v 0.016456 -0.303643 -0.009501
v 0.019002 -0.303643 -0.000000
v 0.016456 -0.303643 0.009501
v 0.009501 -0.303643 0.016456
v -0.000000 -0.303643 0.019002
v -0.009501 -0.303643 0.016456
v -0.016456 -0.303643 0.009501
v -0.019002 -0.303643 -0.000000
v -0.016456 -0.303643 -0.009501
v -0.009501 -0.303643 -0.016456
v -0.000000 -0.303643 -0.019002
v 0.009501 -0.303643 -0.016456
v 0.016888 -0.322347 -0.009750
v 0.019501 -0.322347 -0.000000
v 0.016888 -0.322347 0.009750
v 0.009750 -0.322347 0.016888
v -0.000000 -0.322347 0.019501
v -0.009750 -0.322347 0.016888
v -0.016888 -0.322347 0.009750
v -0.019501 -0.322347 -0.000000
v -0.016888 -0.322347 -0.009750
v -0.009750 -0.322347 -0.016888
v -0.000000 -0.322347 -0.019501
v 0.009750 -0.322347 -0.016888
v 0.007646 -0.248571 -0.004415
v 0.008829 -0.248571 -0.000000
v 0.007646 -0.248571 0.004414
v 0.004415 -0.248571 0.007646
v -0.000000 -0.248571 0.008829
v -0.004415 -0.248571 0.007646
v -0.007646 -0.248571 0.004414
v -0.008829 -0.248571 -0.000000
v -0.007646 -0.248571 -0.004415
v -0.004415 -0.248571 -0.007646
v -0.000000 -0.248571 -0.008829
v 0.004415 -0.248571 -0.007646
v 0.007646 -0.097686 -0.004415
v 0.008829 -0.097686 -0.000000
v 0.007646 -0.097686 0.004414
v 0.004415 -0.097686 0.007646
v -0.000000 -0.097686 0.008829
v -0.004415 -0.097686 0.007646
v -0.007646 -0.097686 0.004414
v -0.008829 -0.097686 -0.000000
v -0.007646 -0.097686 -0.004415
v -0.004415 -0.097686 -0.007646
v -0.000000 -0.097686 -0.008829
v 0.004415 -0.097686 -0.007646
v 0.010684 -0.096857 -0.000000
v 0.009252 -0.096857 -0.005342
v 0.005342 -0.096857 -0.009252
v -0.000000 -0.096857 -0.010684
v -0.005342 -0.096857 -0.009252
v -0.009252 -0.096857 -0.005342
v -0.010684 -0.096857 -0.000000
v -0.009252 -0.096857 0.005342
v -0.005342 -0.096857 0.009252
v -0.000000 -0.096857 0.010684
v 0.005342 -0.096857 0.009252
v 0.009252 -0.096857 0.005342
vt 0.833333 1.000000
vt 0.833333 1.000000
vt 0.750000 1.000000
vt 0.750000 1.000000
vt 0.916667 1.000000
vt 0.916667 1.000000
vt 0.000000 1.000000
vt 0.000000 1.000000
vt -0.083333 1.000000
vt -0.083333 1.000000
vt 0.083333 1.000000
vt 0.083333 1.000000
vt 0.166667 1.000000
vt 0.166667 1.000000
vt 0.250000 1.000000
vt 0.250000 1.000000
vt 0.333333 1.000000
vt 0.333333 1.000000
vt 0.416667 1.000000
vt 0.416667 1.000000
vt 0.500000 1.000000
vt 0.500000 1.000000
vt 0.583333 1.000000
vt 0.583333 1.000000
vt 0.666667 1.000000
vt 0.666667 1.000000
vt 0.750000 1.000000
vt 0.833333 1.000000
vt 0.833333 1.000000
vt 0.750000 1.000000
vt 0.916667 1.000000
vt 0.916667 1.000000
vt -0.083333 1.000000
vt 0.000000 1.000000
vt 0.000000 1.000000
vt -0.083333 1.000000
vt 0.083333 1.000000
vt 0.083333 1.000000
vt 0.166667 1.000000
vt 0.166667 1.000000
vt 0.250000 1.000000
vt 0.250000 1.000000
vt 0.333333 1.000000
vt 0.333333 1.000000
vt 0.416667 1.000000
vt 0.416667 1.000000
vt 0.500000 1.000000
vt 0.500000 1.000000
vt 0.583333 1.000000
vt 0.583333 1.000000
vt 0.666667 1.000000
vt 0.666667 1.000000
vt 0.750000 1.000000
vt 0.833333 1.000000
vt 0.916667 1.000000
vt -0.083333 1.000000
vt 0.000000 1.000000
vt 0.083333 1.000000
vt 0.166667 1.000000
vt 0.250000 1.000000
vt 0.333333 1.000000
vt 0.416667 1.000000
vt 0.500000 1.000000
vt 0.583333 1.000000
vt 0.666667 1.000000
vt 0.750000 1.000000
vt 0.833333 1.000000
vt 0.916667 1.000000
vt -0.083333 1.000000
vt 0.000000 1.000000
vt 0.083333 1.000000
vt 0.166667 1.000000
vt 0.250000 1.000000
vt 0.333333 1.000000
vt 0.416667 1.000000
vt 0.500000 1.000000
vt 0.583333 1.000000
vt 0.666667 1.000000
vt 0.666667 1.000000
vt 0.583333 1.000000
vt 0.500000 1.000000
vt 0.416667 1.000000
vt 0.333333 1.000000
vt 0.250000 1.000000
vt 0.166667 1.000000
vt 0.083333 1.000000
vt 0.000000 1.000000
vt 0.833333 1.000000
vt 0.833333 1.000000
vt 0.750000 1.000000
vt 0.916667 1.000000
vt 0.000000 1.000000
vt -0.083333 1.000000
vt 0.083333 1.000000
vt 0.166667 1.000000
vt 0.250000 1.000000
vt 0.333333 1.000000
vt 0.416667 1.000000
vt 0.500000 1.000000
vt 0.583333 1.000000
vt 0.666667 1.000000
vt 0.833333 1.000000
vt 0.750000 1.000000
vt 0.916667 1.000000
vt 0.000000 1.000000
vt -0.083333 1.000000
vt 0.083333 1.000000
vt 0.166667 1.000000
vt 0.250000 1.000000
vt 0.333333 1.000000
vt 0.416667 1.000000
vt 0.500000 1.000000
vt 0.583333 1.000000
vt 0.666667 1.000000
vt 0.750000 1.000000
vt 0.750000 1.000000
vt 0.833333 1.000000
vt 0.833333 1.000000
vt 0.666667 1.000000
vt 0.666667 1.000000
vt 0.583333 1.000000
vt 0.583333 1.000000
vt 0.500000 1.000000
vt 0.500000 1.000000
vt 0.416667 1.000000
vt 0.416667 1.000000
vt 0.333333 1.000000
vt 0.333333 1.000000
vt 0.250000 1.000000
vt 0.250000 1.000000
vt 0.166667 1.000000
vt 0.166667 1.000000
vt 0.083333 1.000000
vt 0.083333 1.000000
vt 0.000000 1.000000
vt 0.000000 1.000000
vt -0.083333 1.000000
vt -0.083333 1.000000
vt 0.750000 1.000000
vt 0.750000 1.000000
vt 0.833333 1.000000
vt 0.833333 1.000000
vt 0.666667 1.000000
vt 0.666667 1.000000
vt 0.583333 1.000000
vt 0.583333 1.000000
vt 0.500000 1.000000
vt 0.500000 1.000000
vt 0.416667 1.000000
vt 0.416667 1.000000
vt 0.333333 1.000000
vt 0.333333 1.000000
vt 0.250000 1.000000
vt 0.250000 1.000000
vt 0.166667 1.000000
vt 0.166667 1.000000
vt 0.083333 1.000000
vt 0.083333 1.000000
vt 0.000000 1.000000
vt 0.000000 1.000000
vt -0.083333 1.000000
vt -0.083333 1.000000
vt 0.750000 1.000000
vt 0.833333 1.000000
vt 0.666667 1.000000
vt 0.583333 1.000000
vt 0.500000 1.000000
vt 0.416667 1.000000
vt 0.333333 1.000000
vt 0.250000 1.000000
vt 0.166667 1.000000
vt 0.083333 1.000000
vt 0.000000 1.000000
vt -0.083333 1.000000
vt 0.750000 1.000000
vt 0.833333 1.000000
vt 0.666667 1.000000
vt 0.583333 1.000000
vt 0.500000 1.000000
vt 0.416667 1.000000
vt 0.333333 1.000000
vt 0.250000 1.000000
vt 0.166667 1.000000
vt 0.083333 1.000000
vt 0.000000 1.000000
vt -0.083333 1.000000
vt 0.750000 1.000000
vt -0.083333 1.000000
vt 0.833333 1.000000
vt 0.750000 1.000000
vt 0.666667 1.000000
vt 0.583333 1.000000
vt 0.500000 1.000000
vt 0.416667 1.000000
vt 0.333333 1.000000
vt 0.250000 1.000000
vt 0.166667 1.000000
vt 0.083333 1.000000
vt 0.000000 1.000000
vt -0.083333 1.000000
vt 0.916667 1.000000
vn 0.9656 0.0269 -0.2587
vn 0.7069 0.0269 -0.7068
vn 0.7068 0.0269 -0.7069
vn 0.2587 0.0269 -0.9656
vn -0.2587 0.0269 -0.9656
vn -0.7069 0.0269 -0.7069
vn -0.7069 0.0269 -0.7068
vn -0.9656 0.0269 -0.2587
vn -0.9656 0.0269 0.2587
vn -0.7069 0.0269 0.7069
vn -0.7069 0.0269 0.7068
vn -0.2587 0.0269 0.9656
vn 0.2587 0.0269 0.9656
vn 0.7068 0.0269 0.7069
vn 0.7069 0.0269 0.7069
vn 0.9656 0.0269 0.2587
vn 0.9595 0.1153 -0.2571
vn 0.7024 0.1153 -0.7024
vn 0.2571 0.1153 -0.9595
vn -0.2571 0.1153 -0.9595
vn -0.7024 0.1153 -0.7024
vn -0.9595 0.1153 -0.2571
vn -0.9595 0.1153 0.2571
vn -0.7024 0.1153 0.7024
vn -0.2571 0.1153 0.9595
vn 0.2571 0.1153 0.9595
vn 0.7024 0.1153 0.7024
vn 0.9595 0.1153 0.2571
vn 0.9648 0.0488 -0.2585
vn 0.7063 0.0488 -0.7063
vn 0.2585 0.0488 -0.9648
vn -0.2585 0.0488 -0.9648
vn -0.7063 0.0488 -0.7063
vn -0.9648 0.0488 -0.2585
vn -0.9648 0.0488 0.2585
vn -0.7063 0.0488 0.7063
vn -0.2585 0.0488 0.9648
vn 0.2585 0.0488 0.9648
vn 0.7063 0.0488 0.7063
vn 0.9648 0.0488 0.2585
vn 0.0000 -1.0000 -0.0000
vn 0.0000 1.0000 0.0000
vn 0.9659 0.0000 -0.2588
vn 0.9659 -0.0000 0.2588
vn 0.7071 -0.0000 0.7071
vn 0.2588 -0.0000 0.9659
vn -0.2588 -0.0000 0.9659
vn -0.7071 -0.0000 0.7071
vn -0.9659 -0.0000 0.2588
vn -0.9659 0.0000 -0.2588
vn -0.7071 0.0000 -0.7071
vn -0.2588 0.0000 -0.9659
vn 0.2588 0.0000 -0.9659
vn 0.7071 0.0000 -0.7071
vn 0.9051 0.3494 -0.2425
vn 0.9051 0.3494 0.2425
vn 0.6625 0.3494 0.6626
vn 0.6625 0.3494 0.6625
vn 0.2425 0.3494 0.9051
vn -0.2425 0.3494 0.9051
vn -0.6625 0.3494 0.6625
vn -0.9051 0.3494 0.2425
vn -0.9051 0.3494 -0.2425
vn -0.6625 0.3494 -0.6625
vn -0.6625 0.3494 -0.6626
vn -0.2425 0.3494 -0.9051
vn 0.2425 0.3494 -0.9051
vn 0.6625 0.3494 -0.6625
vn 0.9577 0.1299 -0.2566
vn 0.9577 0.1299 0.2566
vn 0.7011 0.1299 0.7011
vn 0.2566 0.1299 0.9577
vn -0.2566 0.1299 0.9577
vn -0.7011 0.1299 0.7011
vn -0.9577 0.1299 0.2566
vn -0.9577 0.1299 -0.2566
vn -0.7011 0.1299 -0.7011
vn -0.2566 0.1299 -0.9577
vn 0.2566 0.1299 -0.9577
vn 0.7011 0.1299 -0.7011
vn 0.9653 0.0357 -0.2587
vn 0.9653 0.0357 0.2587
vn 0.7067 0.0357 0.7067
vn 0.2587 0.0357 0.9653
vn -0.2587 0.0357 0.9653
vn -0.7067 0.0357 0.7067
vn -0.9653 0.0357 0.2587
vn -0.9653 0.0357 -0.2587
vn -0.7067 0.0357 -0.7067
vn -0.2587 0.0357 -0.9653
vn 0.2587 0.0357 -0.9653
vn 0.7067 0.0357 -0.7067
vn 0.9656 0.0258 -0.2587
vn 0.9656 0.0258 0.2587
vn 0.7069 0.0258 0.7069
vn 0.2587 0.0258 0.9656
vn -0.2587 0.0258 0.9656
vn -0.7069 0.0258 0.7069
vn -0.9656 0.0258 0.2587
vn -0.9656 0.0258 -0.2587
vn -0.7069 0.0258 -0.7069
vn -0.2587 0.0258 -0.9656
vn 0.2587 0.0258 -0.9656
vn 0.7069 0.0258 -0.7069
usemtl 04_-_Default
s off
f 38/1/1 26/2/1 25/3/1
f 25/3/1 37/4/1 38/1/1
f 39/5/2 27/6/2 26/2/2
f 26/2/3 38/1/3 39/5/3
f 40/7/4 28/8/4 27/9/4
f 27/9/4 39/10/4 40/7/4
f 41/11/5 29/12/5 28/8/5
f 28/8/5 40/7/5 41/11/5
f 42/13/6 30/14/6 29/12/6
f 29/12/7 41/11/7 42/13/7
f 43/15/8 31/16/8 30/14/8
f 30/14/8 42/13/8 43/15/8
f 44/17/9 32/18/9 31/16/9
f 31/16/9 43/15/9 44/17/9
f 45/19/10 33/20/10 32/18/10
f 32/18/11 44/17/11 45/19/11
f 46/21/12 34/22/12 33/20/12
f 33/20/12 45/19/12 46/21/12
f 47/23/13 35/24/13 34/22/13
f 34/22/13 46/21/13 47/23/13
f 48/25/14 36/26/14 35/24/14
f 35/24/15 47/23/15 48/25/15
f 37/4/16 25/3/16 36/26/16
f 36/26/16 48/25/16 37/4/16
f 1/27/17 2/28/17 14/29/17
f 14/29/17 13/30/17 1/27/17
f 2/28/18 3/31/18 15/32/18
f 15/32/18 14/29/18 2/28/18
f 3/33/19 4/34/19 16/35/19
f 16/35/19 15/36/19 3/33/19
f 4/34/20 5/37/20 17/38/20
f 17/38/20 16/35/20 4/34/20
f 5/37/21 6/39/21 18/40/21
f 18/40/21 17/38/21 5/37/21
f 6/39/22 7/41/22 19/42/22
f 19/42/22 18/40/22 6/39/22
f 7/41/23 8/43/23 20/44/23
f 20/44/23 19/42/23 7/41/23
f 8/43/24 9/45/24 21/46/24
f 21/46/24 20/44/24 8/43/24
f 9/45/25 10/47/25 22/48/25
f 22/48/25 21/46/25 9/45/25
f 10/47/26 11/49/26 23/50/26
f 23/50/26 22/48/26 10/47/26
f 11/49/27 12/51/27 24/52/27
f 24/52/27 23/50/27 11/49/27
f 12/51/28 1/27/28 13/30/28
f 13/30/28 24/52/28 12/51/28
f 2/28/29 1/27/29 25/3/29
f 25/3/29 26/2/29 2/28/29
f 3/31/30 2/28/30 26/2/30
f 26/2/30 27/6/30 3/31/30
f 4/34/31 3/33/31 27/9/31
f 27/9/31 28/8/31 4/34/31
f 5/37/32 4/34/32 28/8/32
f 28/8/32 29/12/32 5/37/32
f 6/39/33 5/37/33 29/12/33
f 29/12/33 30/14/33 6/39/33
f 7/41/34 6/39/34 30/14/34
f 30/14/34 31/16/34 7/41/34
f 8/43/35 7/41/35 31/16/35
f 31/16/35 32/18/35 8/43/35
f 9/45/36 8/43/36 32/18/36
f 32/18/36 33/20/36 9/45/36
f 10/47/37 9/45/37 33/20/37
f 33/20/37 34/22/37 10/47/37
f 11/49/38 10/47/38 34/22/38
f 34/22/38 35/24/38 11/49/38
f 12/51/39 11/49/39 35/24/39
f 35/24/39 36/26/39 12/51/39
f 1/27/40 12/51/40 36/26/40
f 36/26/40 25/3/40 1/27/40
f 38/1/41 37/4/41 49/53/41
f 49/53/41 50/54/41 38/1/41
f 39/5/41 38/1/41 50/54/41
f 50/54/41 51/55/41 39/5/41
f 40/7/41 39/10/41 51/56/41
f 51/56/41 52/57/41 40/7/41
f 41/11/41 40/7/41 52/57/41
f 52/57/41 53/58/41 41/11/41
f 42/13/41 41/11/41 53/58/41
f 53/58/41 54/59/41 42/13/41
f 43/15/41 42/13/41 54/59/41
f 54/59/41 55/60/41 43/15/41
f 44/17/41 43/15/41 55/60/41
f 55/60/41 56/61/41 44/17/41
f 45/19/41 44/17/41 56/61/41
f 56/61/41 57/62/41 45/19/41
f 46/21/41 45/19/41 57/62/41
f 57/62/41 58/63/41 46/21/41
f 47/23/41 46/21/41 58/63/41
f 58/63/41 59/64/41 47/23/41
f 48/25/41 47/23/41 59/64/41
f 59/64/41 60/65/41 48/25/41
f 37/4/41 48/25/41 60/65/41
f 60/65/41 49/53/41 37/4/41
f 49/53/41 181/66/41 182/67/41
f 182/67/41 50/54/41 49/53/41
f 50/54/41 182/67/41 183/68/41
f 183/68/41 51/55/41 50/54/41
f 51/56/41 183/69/41 184/70/41
f 184/70/41 52/57/41 51/56/41
f 52/57/41 184/70/41 185/71/41
f 185/71/41 53/58/41 52/57/41
f 53/58/41 185/71/41 186/72/41
f 186/72/41 54/59/41 53/58/41
f 54/59/41 186/72/41 187/73/41
f 187/73/41 55/60/41 54/59/41
f 55/60/41 187/73/41 188/74/41
f 188/74/41 56/61/41 55/60/41
f 56/61/41 188/74/41 189/75/41
f 189/75/41 57/62/41 56/61/41
f 57/62/41 189/75/41 190/76/41
f 190/76/41 58/63/41 57/62/41
f 58/63/41 190/76/41 191/77/41
f 191/77/41 59/64/41 58/63/41
f 59/64/41 191/77/41 192/78/41
f 192/78/41 60/65/41 59/64/41
f 60/65/41 192/78/41 181/66/41
f 181/66/41 49/53/41 60/65/41
f 147/79/41 148/80/41 149/81/41
f 149/81/41 150/82/41 151/83/41
f 151/83/41 152/84/41 153/85/41
f 149/81/41 151/83/41 153/85/41
f 153/85/41 154/86/41 155/87/41
f 153/85/41 155/87/41 145/88/41
f 149/81/41 153/85/41 145/88/41
f 147/79/41 149/81/41 145/88/41
f 13/30/42 14/29/42 74/89/42
f 74/89/42 73/90/42 13/30/42
f 14/29/42 15/32/42 75/91/42
f 75/91/42 74/89/42 14/29/42
f 15/36/42 16/35/42 76/92/42
f 76/92/42 75/93/42 15/36/42
f 16/35/42 17/38/42 77/94/42
f 77/94/42 76/92/42 16/35/42
f 17/38/42 18/40/42 78/95/42
f 78/95/42 77/94/42 17/38/42
f 18/40/42 19/42/42 79/96/42
f 79/96/42 78/95/42 18/40/42
f 19/42/42 20/44/42 80/97/42
f 80/97/42 79/96/42 19/42/42
f 20/44/42 21/46/42 81/98/42
f 81/98/42 80/97/42 20/44/42
f 21/46/42 22/48/42 82/99/42
f 82/99/42 81/98/42 21/46/42
f 22/48/42 23/50/42 83/100/42
f 83/100/42 82/99/42 22/48/42
f 23/50/42 24/52/42 84/101/42
f 84/101/42 83/100/42 23/50/42
f 24/52/42 13/30/42 73/90/42
f 73/90/42 84/101/42 24/52/42
f 73/90/42 74/89/42 86/102/42
f 86/102/42 85/103/42 73/90/42
f 74/89/42 75/91/42 87/104/42
f 87/104/42 86/102/42 74/89/42
f 75/93/42 76/92/42 88/105/42
f 88/105/42 87/106/42 75/93/42
f 76/92/42 77/94/42 89/107/42
f 89/107/42 88/105/42 76/92/42
f 77/94/42 78/95/42 90/108/42
f 90/108/42 89/107/42 77/94/42
f 78/95/42 79/96/42 91/109/42
f 91/109/42 90/108/42 78/95/42
f 79/96/42 80/97/42 92/110/42
f 92/110/42 91/109/42 79/96/42
f 80/97/42 81/98/42 93/111/42
f 93/111/42 92/110/42 80/97/42
f 81/98/42 82/99/42 94/112/42
f 94/112/42 93/111/42 81/98/42
f 82/99/42 83/100/42 95/113/42
f 95/113/42 94/112/42 82/99/42
f 83/100/42 84/101/42 96/114/42
f 96/114/42 95/113/42 83/100/42
f 84/101/42 73/90/42 85/103/42
f 85/103/42 96/114/42 84/101/42
f 87/104/42 88/105/42 89/107/42
f 89/107/42 90/108/42 91/109/42
f 91/109/42 92/110/42 93/111/42
f 89/107/42 91/109/42 93/111/42
f 93/111/42 94/112/42 95/113/42
f 95/113/42 96/114/42 85/103/42
f 93/111/42 95/113/42 85/103/42
f 89/107/42 93/111/42 85/103/42
f 87/104/42 89/107/42 85/103/42
f 86/102/42 87/104/42 85/103/42
f 61/115/43 170/116/43 169/117/43
f 169/117/43 62/118/43 61/115/43
f 72/119/44 171/120/44 170/116/44
f 170/116/44 61/115/44 72/119/44
f 71/121/45 172/122/45 171/120/45
f 171/120/45 72/119/45 71/121/45
f 70/123/46 173/124/46 172/122/46
f 172/122/46 71/121/46 70/123/46
f 69/125/47 174/126/47 173/124/47
f 173/124/47 70/123/47 69/125/47
f 68/127/48 175/128/48 174/126/48
f 174/126/48 69/125/48 68/127/48
f 67/129/49 176/130/49 175/128/49
f 175/128/49 68/127/49 67/129/49
f 66/131/50 177/132/50 176/130/50
f 176/130/50 67/129/50 66/131/50
f 65/133/51 178/134/51 177/132/51
f 177/132/51 66/131/51 65/133/51
f 64/135/52 179/136/52 178/134/52
f 178/134/52 65/133/52 64/135/52
f 63/137/53 180/138/53 179/136/53
f 179/136/53 64/135/53 63/137/53
f 62/118/54 169/117/54 180/138/54
f 180/138/54 63/137/54 62/118/54
f 98/139/55 122/140/55 121/141/55
f 121/141/55 97/142/55 98/139/55
f 99/143/56 123/144/56 122/140/56
f 122/140/56 98/139/56 99/143/56
f 100/145/57 124/146/57 123/144/57
f 123/144/58 99/143/58 100/145/58
f 101/147/59 125/148/59 124/146/59
f 124/146/59 100/145/59 101/147/59
f 102/149/60 126/150/60 125/148/60
f 125/148/60 101/147/60 102/149/60
f 103/151/61 127/152/61 126/150/61
f 126/150/61 102/149/61 103/151/61
f 104/153/62 128/154/62 127/152/62
f 127/152/62 103/151/62 104/153/62
f 105/155/63 129/156/63 128/154/63
f 128/154/63 104/153/63 105/155/63
f 106/157/64 130/158/64 129/156/64
f 129/156/65 105/155/65 106/157/65
f 107/159/66 131/160/66 130/158/66
f 130/158/66 106/157/66 107/159/66
f 108/161/67 132/162/67 131/160/67
f 131/160/67 107/159/67 108/161/67
f 97/142/68 121/141/68 132/162/68
f 132/162/68 108/161/68 97/142/68
f 110/163/69 109/164/69 121/141/69
f 121/141/69 122/140/69 110/163/69
f 111/165/70 110/163/70 122/140/70
f 122/140/70 123/144/70 111/165/70
f 112/166/71 111/165/71 123/144/71
f 123/144/71 124/146/71 112/166/71
f 113/167/72 112/166/72 124/146/72
f 124/146/72 125/148/72 113/167/72
f 114/168/73 113/167/73 125/148/73
f 125/148/73 126/150/73 114/168/73
f 115/169/74 114/168/74 126/150/74
f 126/150/74 127/152/74 115/169/74
f 116/170/75 115/169/75 127/152/75
f 127/152/75 128/154/75 116/170/75
f 117/171/76 116/170/76 128/154/76
f 128/154/76 129/156/76 117/171/76
f 118/172/77 117/171/77 129/156/77
f 129/156/77 130/158/77 118/172/77
f 119/173/78 118/172/78 130/158/78
f 130/158/78 131/160/78 119/173/78
f 120/174/79 119/173/79 131/160/79
f 131/160/79 132/162/79 120/174/79
f 109/164/80 120/174/80 132/162/80
f 132/162/80 121/141/80 109/164/80
f 109/164/81 110/163/81 134/175/81
f 134/175/81 133/176/81 109/164/81
f 110/163/82 111/165/82 135/177/82
f 135/177/82 134/175/82 110/163/82
f 111/165/83 112/166/83 136/178/83
f 136/178/83 135/177/83 111/165/83
f 112/166/84 113/167/84 137/179/84
f 137/179/84 136/178/84 112/166/84
f 113/167/85 114/168/85 138/180/85
f 138/180/85 137/179/85 113/167/85
f 114/168/86 115/169/86 139/181/86
f 139/181/86 138/180/86 114/168/86
f 115/169/87 116/170/87 140/182/87
f 140/182/87 139/181/87 115/169/87
f 116/170/88 117/171/88 141/183/88
f 141/183/88 140/182/88 116/170/88
f 117/171/89 118/172/89 142/184/89
f 142/184/89 141/183/89 117/171/89
f 118/172/90 119/173/90 143/185/90
f 143/185/90 142/184/90 118/172/90
f 119/173/91 120/174/91 144/186/91
f 144/186/91 143/185/91 119/173/91
f 120/174/92 109/164/92 133/176/92
f 133/176/92 144/186/92 120/174/92
f 133/176/93 134/175/93 146/187/93
f 146/187/93 145/88/93 133/176/93
f 134/175/94 135/177/94 147/79/94
f 147/79/94 146/187/94 134/175/94
f 135/177/95 136/178/95 148/80/95
f 148/80/95 147/79/95 135/177/95
f 136/178/96 137/179/96 149/81/96
f 149/81/96 148/80/96 136/178/96
f 137/179/97 138/180/97 150/82/97
f 150/82/97 149/81/97 137/179/97
f 138/180/98 139/181/98 151/83/98
f 151/83/98 150/82/98 138/180/98
f 139/181/99 140/182/99 152/84/99
f 152/84/99 151/83/99 139/181/99
f 140/182/100 141/183/100 153/85/100
f 153/85/100 152/84/100 140/182/100
f 141/183/101 142/184/101 154/86/101
f 154/86/101 153/85/101 141/183/101
f 142/184/102 143/185/102 155/87/102
f 155/87/102 154/86/102 142/184/102
f 143/185/103 144/186/103 156/188/103
f 156/188/103 155/87/103 143/185/103
f 144/186/104 133/176/104 145/88/104
f 145/88/104 156/188/104 144/186/104
f 98/139/43 97/142/43 157/189/43
f 157/189/43 158/190/43 98/139/43
f 99/143/44 98/139/44 158/190/44
f 158/190/44 159/191/44 99/143/44
f 100/145/45 99/143/45 159/191/45
f 159/191/45 160/192/45 100/145/45
f 101/147/46 100/145/46 160/192/46
f 160/192/46 161/193/46 101/147/46
f 102/149/47 101/147/47 161/193/47
f 161/193/47 162/194/47 102/149/47
f 103/151/48 102/149/48 162/194/48
f 162/194/48 163/195/48 103/151/48
f 104/153/49 103/151/49 163/195/49
f 163/195/49 164/196/49 104/153/49
f 105/155/50 104/153/50 164/196/50
f 164/196/50 165/197/50 105/155/50
f 106/157/51 105/155/51 165/197/51
f 165/197/51 166/198/51 106/157/51
f 107/159/52 106/157/52 166/198/52
f 166/198/52 167/199/52 107/159/52
f 108/161/53 107/159/53 167/199/53
f 167/199/53 168/200/53 108/161/53
f 97/142/54 108/161/54 168/200/54
f 168/200/54 157/189/54 97/142/54
f 61/115/41 62/118/41 182/67/41
f 182/67/41 181/66/41 61/115/41
f 62/118/41 63/201/41 183/68/41
f 183/68/41 182/67/41 62/118/41
f 63/137/41 64/135/41 184/70/41
f 184/70/41 183/69/41 63/137/41
f 64/135/41 65/133/41 185/71/41
f 185/71/41 184/70/41 64/135/41
f 65/133/41 66/131/41 186/72/41
f 186/72/41 185/71/41 65/133/41
f 66/131/41 67/129/41 187/73/41
f 187/73/41 186/72/41 66/131/41
f 67/129/41 68/127/41 188/74/41
f 188/74/41 187/73/41 67/129/41
f 68/127/41 69/125/41 189/75/41
f 189/75/41 188/74/41 68/127/41
f 69/125/41 70/123/41 190/76/41
f 190/76/41 189/75/41 69/125/41
f 70/123/41 71/121/41 191/77/41
f 191/77/41 190/76/41 70/123/41
f 71/121/41 72/119/41 192/78/41
f 192/78/41 191/77/41 71/121/41
f 72/119/41 61/115/41 181/66/41
f 181/66/41 192/78/41 72/119/41
usemtl Material.001
f 155/87/41 156/188/41 145/88/41
f 146/187/41 147/79/41 145/88/41
usemtl Material.002
f 158/190/43 157/189/43 169/117/43
f 169/117/43 170/116/43 158/190/43
f 159/191/44 158/190/44 170/116/44
f 170/116/44 171/120/44 159/191/44
f 160/192/45 159/191/45 171/120/45
f 171/120/45 172/122/45 160/192/45
f 161/193/46 160/192/46 172/122/46
f 172/122/46 173/124/46 161/193/46
f 162/194/47 161/193/47 173/124/47
f 173/124/47 174/126/47 162/194/47
f 163/195/48 162/194/48 174/126/48
f 174/126/48 175/128/48 163/195/48
f 164/196/49 163/195/49 175/128/49
f 175/128/49 176/130/49 164/196/49
f 165/197/50 164/196/50 176/130/50
f 176/130/50 177/132/50 165/197/50
f 166/198/51 165/197/51 177/132/51
f 177/132/51 178/134/51 166/198/51
f 167/199/52 166/198/52 178/134/52
f 178/134/52 179/136/52 167/199/52
f 168/200/53 167/199/53 179/136/53
f 179/136/53 180/138/53 168/200/53
f 157/189/54 168/200/54 180/138/54
f 180/138/54 169/117/54 157/189/54
