# Blender v3.0.1 OBJ File: 'hand.blend'
# www.blender.org
mtllib isaret-kut.mtl
o 2._finger_küt_Female_Hand.007
v -0.002579 0.007969 -0.038277
v -0.008667 0.005000 -0.100206
v 0.038593 -0.014529 -0.029164
v -0.040537 -0.014355 -0.019259
v 0.026100 -0.006101 -0.085942
v -0.039928 -0.005973 -0.078667
v -0.030187 -0.000132 0.043605
v 0.035754 -0.000277 0.035351
v 0.003535 0.012526 0.041485
v 0.030476 -0.003924 -0.093013
v -0.009500 0.008871 -0.107129
v -0.046570 -0.015893 -0.029708
v -0.005625 0.006366 -0.069849
v 0.035843 -0.015408 -0.015928
v -0.033303 -0.015255 -0.007273
v -0.021954 0.001715 -0.031931
v 0.017619 0.001630 -0.036781
v 0.034472 -0.011192 -0.061118
v -0.043068 -0.011034 -0.052093
v 0.010691 0.001078 -0.098322
v -0.027285 0.001150 -0.094249
v -0.045924 -0.003780 -0.084830
v 0.042292 -0.016050 -0.040193
v 0.034779 -0.005425 0.037216
v 0.003518 0.004743 0.041433
v -0.028497 -0.005286 0.045136
v -0.038491 -0.007954 -0.000153
v 0.038990 -0.008125 -0.009851
v -0.000462 0.009968 -0.011622
v 0.022399 0.008228 0.038696
v -0.015517 0.008312 0.042691
v -0.030899 0.004718 -0.100907
v -0.049612 -0.010897 -0.057842
v 0.012634 0.004638 -0.105459
v -0.024896 0.000957 -0.063635
v 0.014426 0.000877 -0.068186
v 0.039514 -0.011070 -0.067866
v 0.022217 0.001152 0.038841
v -0.015276 0.001234 0.042782
v -0.019879 0.004413 -0.006970
v 0.019412 0.004327 -0.011878
v 0.037167 -0.011221 -0.003035
v -0.034349 -0.011063 0.005917
v -0.033870 -0.004043 0.025197
v -0.017229 0.006362 0.021331
v 0.002005 0.011247 0.018403
v 0.021374 0.006278 0.016880
v 0.037841 -0.004201 0.016221
v 0.036442 -0.008323 0.020562
v -0.030954 -0.008174 0.028997
vt 0.127161 0.639676
vt 0.121391 0.640775
vt 0.121533 0.641101
vt 0.126519 0.638420
vt 0.131844 0.636105
vt 0.131504 0.635739
vt 0.114932 0.637859
vt 0.109015 0.633823
vt 0.108201 0.630533
vt 0.114867 0.635817
vt 0.134979 0.631139
vt 0.133731 0.630573
vt 0.135563 0.625362
vt 0.135958 0.625407
vt 0.132122 0.619338
vt 0.130142 0.619463
vt 0.127648 0.613940
vt 0.124327 0.613519
vt 0.373086 0.080798
vt 0.354722 0.082090
vt 0.358434 0.069199
vt 0.376279 0.068552
vt 0.336357 0.083382
vt 0.340851 0.069319
vt 0.342465 0.056618
vt 0.360225 0.056447
vt 0.379471 0.056306
vt 0.358545 0.043701
vt 0.376241 0.044136
vt 0.341080 0.043880
vt 0.336895 0.029652
vt 0.354953 0.030809
vt 0.373011 0.031965
vt 0.309017 0.037943
vt 0.306999 0.047596
vt 0.304279 0.048503
vt 0.304286 0.041543
vt 0.306004 0.057178
vt 0.303484 0.057106
vt 0.306713 0.066644
vt 0.304079 0.065548
vt 0.308445 0.076039
vt 0.303966 0.072091
vt 0.323740 0.068243
vt 0.324384 0.056873
vt 0.322401 0.079710
vt 0.315227 0.067444
vt 0.315423 0.077875
vt 0.315194 0.057025
vt 0.324013 0.045430
vt 0.322956 0.033798
vt 0.315506 0.046513
vt 0.315986 0.035871
vt 0.295556 0.033255
vt 0.302286 0.035599
vt 0.300756 0.037737
vt 0.295307 0.035253
vt 0.305651 0.036771
vt 0.302521 0.039640
vt 0.302237 0.073687
vt 0.305315 0.076909
vt 0.295191 0.077013
vt 0.300508 0.075284
vt 0.302185 0.077779
vt 0.295924 0.079518
vn -0.1835 0.9329 0.3100
vn -0.3110 0.9158 0.2540
vn -0.2204 0.9521 0.2120
vn -0.1493 0.9465 0.2863
vn 0.0356 0.9455 0.3236
vn 0.0320 0.9601 0.2777
vn -0.3818 0.9015 0.2037
vn -0.5048 0.8341 0.2225
vn -0.6736 0.7170 0.1795
vn -0.3808 0.9151 0.1324
vn 0.2491 0.9311 0.2663
vn 0.2101 0.9447 0.2518
vn 0.3644 0.9123 0.1866
vn 0.2633 0.9503 0.1659
vn 0.4255 0.8967 0.1222
vn 0.4024 0.9138 0.0549
vn 0.5555 0.8242 0.1097
vn 0.6811 0.7315 0.0322
vn -0.3952 0.9179 0.0372
vn -0.4572 0.8893 -0.0132
vn -0.0043 0.9981 -0.0607
vn -0.0009 0.9996 -0.0290
vn 0.3976 0.9166 -0.0416
vn 0.4451 0.8905 -0.0939
vn 0.7984 0.4068 0.4438
vn 0.3889 0.7053 0.5927
vn 0.1627 0.0185 0.9865
vn 0.6162 -0.3663 0.6972
vn 0.0645 0.7646 0.6413
vn 0.1046 -0.0086 0.9945
vn -0.2432 0.7266 0.6426
vn 0.1014 0.0192 0.9947
vn -0.7122 0.3576 0.6040
vn -0.4164 -0.4512 0.7893
vn -0.4478 0.8925 -0.0544
vn -0.0081 0.9974 -0.0720
vn -0.9805 0.1426 0.1350
vn -0.3973 0.9169 -0.0390
vn -0.9592 0.2531 0.1262
vn -0.0041 0.9981 -0.0614
vn 0.4261 0.8966 -0.1202
vn 0.9601 0.2774 -0.0352
vn 0.3922 0.9153 -0.0913
vn 0.9368 0.3498 -0.0025
vn 0.6126 -0.7782 0.1385
vn 0.9547 0.1826 0.2349
vn 0.8663 -0.4810 0.1349
vn -0.6357 -0.7524 0.1726
vn -0.8714 0.0395 0.4891
vn -0.4378 -0.8738 0.2115
usemtl Skin_Female.001
s 1
f 32/1/1 22/2/2 6/3/3 21/4/4
f 11/5/5 32/1/1 21/4/4 2/6/6
f 33/7/7 12/8/8 4/9/9 19/10/10
f 22/2/2 33/7/7 19/10/10 6/3/3
f 34/11/11 11/5/5 2/6/6 20/12/12
f 10/13/13 34/11/11 20/12/12 5/14/14
f 37/15/15 10/13/13 5/14/14 18/16/16
f 23/17/17 37/15/15 18/16/16 3/18/18
usemtl Material
f 6/19/3 19/20/10 35/21/19 21/22/4
f 19/20/10 4/23/9 16/24/20 35/21/19
f 35/21/19 16/24/20 1/25/21 13/26/22
f 21/22/4 35/21/19 13/26/22 2/27/6
f 2/27/6 13/26/22 36/28/23 20/29/12
f 13/26/22 1/25/21 17/30/24 36/28/23
f 36/28/23 17/30/24 3/31/18 18/32/16
f 20/29/12 36/28/23 18/32/16 5/33/14
f 8/34/25 30/35/26 38/36/27 24/37/28
f 30/35/26 9/38/29 25/39/30 38/36/27
f 9/38/29 31/40/31 39/41/32 25/39/30
f 31/40/31 7/42/33 26/43/34 39/41/32
f 1/25/21 16/24/20 40/44/35 29/45/36
f 16/24/20 4/23/9 27/46/37 40/44/35
f 45/47/38 44/48/39 7/42/33 31/40/31
f 46/49/40 45/47/38 31/40/31 9/38/29
f 3/31/18 17/30/24 41/50/41 28/51/42
f 17/30/24 1/25/21 29/45/36 41/50/41
f 47/52/43 46/49/40 9/38/29 30/35/26
f 48/53/44 47/52/43 30/35/26 8/34/25
f 3/54/18 28/55/42 42/56/45 14/57/46
f 48/58/44 8/34/25 24/37/28 49/59/47
f 50/60/48 26/43/34 7/42/33 44/61/39
f 15/62/49 43/63/50 27/64/37 4/65/9
f 43/63/50 50/60/48 44/61/39 27/64/37
f 28/55/42 48/58/44 49/59/47 42/56/45
f 28/51/42 41/50/41 47/52/43 48/53/44
f 41/50/41 29/45/36 46/49/40 47/52/43
f 29/45/36 40/44/35 45/47/38 46/49/40
f 40/44/35 27/46/37 44/48/39 45/47/38
