# Blender 3.3.0
# www.blender.org
mtllib platform2.mtl
g Cylinder.004_Cylinder.004
v 0.000000 0.226360 -11.149555
v 0.000000 -0.226360 -11.149555
v 2.175170 0.226360 -10.935319
v 2.175170 -0.226360 -10.935319
v 4.266750 0.226360 -10.300845
v 4.266750 -0.226360 -10.300845
v 6.194361 0.226360 -9.270516
v 6.194361 -0.226360 -9.270516
v 7.883926 0.226360 -7.883926
v 7.883926 -0.226360 -7.883926
v 9.270516 0.226360 -6.194361
v 9.270516 -0.226360 -6.194361
v 10.300845 0.226360 -4.266750
v 10.300845 -0.226360 -4.266750
v 10.935319 0.226360 -2.175170
v 10.935319 -0.226360 -2.175170
v 11.149555 0.226360 0.000000
v 11.149555 -0.226360 0.000000
v 10.935319 0.226360 2.175170
v 10.935319 -0.226360 2.175170
v 10.300845 0.226360 4.266750
v 10.300845 -0.226360 4.266750
v 9.270516 0.226360 6.194361
v 9.270516 -0.226360 6.194361
v 7.883926 0.226360 7.883926
v 7.883926 -0.226360 7.883926
v 6.194361 0.226360 9.270516
v 6.194361 -0.226360 9.270516
v 4.266750 0.226360 10.300845
v 4.266750 -0.226360 10.300845
v 2.175170 0.226360 10.935319
v 2.175170 -0.226360 10.935319
v 0.000000 0.226360 11.149555
v 0.000000 -0.226360 11.149555
v -2.175170 0.226360 10.935319
v -2.175170 -0.226360 10.935319
v -4.266750 0.226360 10.300845
v -4.266750 -0.226360 10.300845
v -6.194361 0.226360 9.270516
v -6.194361 -0.226360 9.270516
v -7.883926 0.226360 7.883926
v -7.883926 -0.226360 7.883926
v -9.270516 0.226360 6.194361
v -9.270516 -0.226360 6.194361
v -10.300845 0.226360 4.266750
v -10.300845 -0.226360 4.266750
v -10.935319 0.226360 2.175170
v -10.935319 -0.226360 2.175170
v -11.149555 0.226360 0.000000
v -11.149555 -0.226360 0.000000
v -10.935319 0.226360 -2.175170
v -10.935319 -0.226360 -2.175170
v -10.300845 0.226360 -4.266750
v -10.300845 -0.226360 -4.266750
v -9.270516 0.226360 -6.194361
v -9.270516 -0.226360 -6.194361
v -7.883926 0.226360 -7.883926
v -7.883926 -0.226360 -7.883926
v -6.194361 0.226360 -9.270516
v -6.194361 -0.226360 -9.270516
v -4.266750 0.226360 -10.300845
v -4.266750 -0.226360 -10.300845
v -2.175170 0.226360 -10.935319
v -2.175170 -0.226360 -10.935319
v -0.000003 -0.806619 -14.553268
v -0.000003 -1.397545 -14.553268
v 2.839200 -0.806619 -14.273631
v 2.839200 -1.397545 -14.273631
v 5.569294 -0.806619 -13.445466
v 5.569294 -1.397545 -13.445466
v 8.085363 -0.806619 -12.100600
v 8.085363 -1.397545 -12.100600
v 10.290715 -0.806619 -10.290713
v 10.290715 -1.397545 -10.290713
v 12.100602 -0.806619 -8.085361
v 12.100602 -1.397545 -8.085361
v 13.445469 -0.806619 -5.569292
v 13.445469 -1.397545 -5.569292
v 14.273634 -0.806619 -2.839198
v 14.273634 -1.397545 -2.839198
v 14.553271 -0.806619 0.000005
v 14.553271 -1.397545 0.000005
v 14.273634 -0.806619 2.839208
v 14.273634 -1.397545 2.839208
v 13.445469 -0.806619 5.569303
v 13.445469 -1.397545 5.569303
v 12.100602 -0.806619 8.085371
v 12.100602 -1.397545 8.085371
v 10.290715 -0.806619 10.290724
v 10.290715 -1.397545 10.290724
v 8.085363 -0.806619 12.100611
v 8.085363 -1.397545 12.100611
v 5.569294 -0.806619 13.445477
v 5.569294 -1.397545 13.445477
v 2.839200 -0.806619 14.273642
v 2.839200 -1.397545 14.273642
v -0.000003 -0.806619 14.553279
v -0.000003 -1.397545 14.553279
v -2.839206 -0.806619 14.273642
v -2.839206 -1.397545 14.273642
v -5.569300 -0.806619 13.445477
v -5.569300 -1.397545 13.445477
v -8.085368 -0.806619 12.100611
v -8.085368 -1.397545 12.100611
v -10.290721 -0.806619 10.290724
v -10.290721 -1.397545 10.290724
v -12.100608 -0.806619 8.085371
v -12.100608 -1.397545 8.085371
v -13.445474 -0.806619 5.569303
v -13.445474 -1.397545 5.569303
v -14.273640 -0.806619 2.839208
v -14.273640 -1.397545 2.839208
v -14.553276 -0.806619 0.000005
v -14.553276 -1.397545 0.000005
v -14.273640 -0.806619 -2.839198
v -14.273640 -1.397545 -2.839198
v -13.445474 -0.806619 -5.569292
v -13.445474 -1.397545 -5.569292
v -12.100608 -0.806619 -8.085361
v -12.100608 -1.397545 -8.085361
v -10.290721 -0.806619 -10.290713
v -10.290721 -1.397545 -10.290713
v -8.085368 -0.806619 -12.100600
v -8.085368 -1.397545 -12.100600
v -5.569300 -0.806619 -13.445466
v -5.569300 -1.397545 -13.445466
v -2.839206 -0.806619 -14.273631
v -2.839206 -1.397545 -14.273631
v -0.000003 -0.273469 -12.796495
v -0.000003 -0.793062 -12.796495
v 2.496471 -0.273469 -12.550614
v 2.496471 -0.793062 -12.550614
v 4.897007 -0.273469 -11.822419
v 4.897007 -0.793062 -11.822419
v 7.109353 -0.273469 -10.639896
v 7.109353 -0.793062 -10.639896
v 9.048490 -0.273469 -9.048487
v 9.048490 -0.793062 -9.048487
v 10.639898 -0.273469 -7.109350
v 10.639898 -0.793062 -7.109350
v 11.822422 -0.273469 -4.897004
v 11.822422 -0.793062 -4.897004
v 12.550617 -0.273469 -2.496468
v 12.550617 -0.793062 -2.496468
v 12.796498 -0.273469 0.000005
v 12.796498 -0.793062 0.000005
v 12.550617 -0.273469 2.496479
v 12.550617 -0.793062 2.496479
v 11.822422 -0.273469 4.897015
v 11.822422 -0.793062 4.897015
v 10.639898 -0.273469 7.109361
v 10.639898 -0.793062 7.109361
v 9.048490 -0.273469 9.048497
v 9.048490 -0.793062 9.048497
v 7.109353 -0.273469 10.639907
v 7.109353 -0.793062 10.639907
v 4.897007 -0.273469 11.822431
v 4.897007 -0.793062 11.822431
v 2.496471 -0.273469 12.550625
v 2.496471 -0.793062 12.550625
v -0.000003 -0.273469 12.796506
v -0.000003 -0.793062 12.796506
v -2.496476 -0.273469 12.550625
v -2.496476 -0.793062 12.550625
v -4.897012 -0.273469 11.822431
v -4.897012 -0.793062 11.822431
v -7.109358 -0.273469 10.639907
v -7.109358 -0.793062 10.639907
v -9.048495 -0.273469 9.048497
v -9.048495 -0.793062 9.048497
v -10.639904 -0.273469 7.109361
v -10.639904 -0.793062 7.109361
v -11.822428 -0.273469 4.897015
v -11.822428 -0.793062 4.897015
v -12.550622 -0.273469 2.496479
v -12.550622 -0.793062 2.496479
v -12.796503 -0.273469 0.000005
v -12.796503 -0.793062 0.000005
v -12.550622 -0.273469 -2.496468
v -12.550622 -0.793062 -2.496468
v -11.822428 -0.273469 -4.897004
v -11.822428 -0.793062 -4.897004
v -10.639904 -0.273469 -7.109350
v -10.639904 -0.793062 -7.109350
v -9.048495 -0.273469 -9.048487
v -9.048495 -0.793062 -9.048487
v -7.109358 -0.273469 -10.639896
v -7.109358 -0.793062 -10.639896
v -4.897012 -0.273469 -11.822419
v -4.897012 -0.793062 -11.822419
v -2.496476 -0.273469 -12.550614
v -2.496476 -0.793062 -12.550614
vn 0.0980 -0.0000 -0.9952
vn 0.2903 -0.0000 -0.9569
vn 0.4714 -0.0000 -0.8819
vn 0.6344 -0.0000 -0.7730
vn 0.7730 -0.0000 -0.6344
vn 0.8819 -0.0000 -0.4714
vn 0.9569 -0.0000 -0.2903
vn 0.9952 -0.0000 -0.0980
vn 0.9952 -0.0000 0.0980
vn 0.9569 -0.0000 0.2903
vn 0.8819 -0.0000 0.4714
vn 0.7730 -0.0000 0.6344
vn 0.6344 -0.0000 0.7730
vn 0.4714 -0.0000 0.8819
vn 0.2903 -0.0000 0.9569
vn 0.0980 -0.0000 0.9952
vn -0.0980 -0.0000 0.9952
vn -0.2903 -0.0000 0.9569
vn -0.4714 -0.0000 0.8819
vn -0.6344 -0.0000 0.7730
vn -0.7730 -0.0000 0.6344
vn -0.8819 -0.0000 0.4714
vn -0.9569 -0.0000 0.2903
vn -0.9952 -0.0000 0.0980
vn -0.9952 -0.0000 -0.0980
vn -0.9569 -0.0000 -0.2903
vn -0.8819 -0.0000 -0.4714
vn -0.7730 -0.0000 -0.6344
vn -0.6344 -0.0000 -0.7730
vn -0.4714 -0.0000 -0.8819
vn -0.0000 -1.0000 -0.0000
vn -0.2903 -0.0000 -0.9569
vn -0.0980 -0.0000 -0.9952
vn -0.0000 1.0000 -0.0000
vt 1.000000 0.500000
vt 0.000000 0.500000
vt 0.750000 0.490000
vt 1.000000 1.000000
vt 0.250000 0.490000
vt 0.000000 1.000000
vt 0.968750 0.500000
vt 0.796822 0.485388
vt 0.968750 1.000000
vt 0.296822 0.485388
vt 0.937500 0.500000
vt 0.841844 0.471731
vt 0.937500 1.000000
vt 0.341844 0.471731
vt 0.906250 0.500000
vt 0.883337 0.449553
vt 0.906250 1.000000
vt 0.383337 0.449553
vt 0.875000 0.500000
vt 0.919706 0.419706
vt 0.875000 1.000000
vt 0.419706 0.419706
vt 0.843750 0.500000
vt 0.949553 0.383337
vt 0.843750 1.000000
vt 0.449553 0.383337
vt 0.812500 0.500000
vt 0.971731 0.341844
vt 0.812500 1.000000
vt 0.471731 0.341844
vt 0.781250 0.500000
vt 0.985388 0.296822
vt 0.781250 1.000000
vt 0.485388 0.296822
vt 0.750000 0.500000
vt 0.990000 0.250000
vt 0.750000 1.000000
vt 0.490000 0.250000
vt 0.718750 0.500000
vt 0.985388 0.203178
vt 0.718750 1.000000
vt 0.485388 0.203178
vt 0.687500 0.500000
vt 0.971731 0.158156
vt 0.687500 1.000000
vt 0.471731 0.158156
vt 0.656250 0.500000
vt 0.949553 0.116663
vt 0.656250 1.000000
vt 0.449553 0.116663
vt 0.625000 0.500000
vt 0.919706 0.080294
vt 0.625000 1.000000
vt 0.419706 0.080294
vt 0.593750 0.500000
vt 0.883337 0.050447
vt 0.593750 1.000000
vt 0.383337 0.050447
vt 0.562500 0.500000
vt 0.841844 0.028269
vt 0.562500 1.000000
vt 0.341844 0.028269
vt 0.531250 0.500000
vt 0.796822 0.014612
vt 0.531250 1.000000
vt 0.296822 0.014612
vt 0.500000 0.500000
vt 0.750000 0.010000
vt 0.500000 1.000000
vt 0.250000 0.010000
vt 0.468750 0.500000
vt 0.703178 0.014612
vt 0.468750 1.000000
vt 0.203178 0.014612
vt 0.437500 0.500000
vt 0.658156 0.028269
vt 0.437500 1.000000
vt 0.158156 0.028269
vt 0.406250 0.500000
vt 0.616663 0.050447
vt 0.406250 1.000000
vt 0.116663 0.050447
vt 0.375000 0.500000
vt 0.580294 0.080294
vt 0.375000 1.000000
vt 0.080294 0.080294
vt 0.343750 0.500000
vt 0.550447 0.116663
vt 0.343750 1.000000
vt 0.050447 0.116663
vt 0.312500 0.500000
vt 0.528269 0.158156
vt 0.312500 1.000000
vt 0.028269 0.158156
vt 0.281250 0.500000
vt 0.514612 0.203178
vt 0.281250 1.000000
vt 0.014612 0.203178
vt 0.250000 0.500000
vt 0.510000 0.250000
vt 0.250000 1.000000
vt 0.010000 0.250000
vt 0.218750 0.500000
vt 0.514612 0.296822
vt 0.218750 1.000000
vt 0.014612 0.296822
vt 0.187500 0.500000
vt 0.528269 0.341844
vt 0.187500 1.000000
vt 0.028269 0.341844
vt 0.156250 0.500000
vt 0.550447 0.383337
vt 0.156250 1.000000
vt 0.050447 0.383337
vt 0.125000 0.500000
vt 0.580294 0.419706
vt 0.125000 1.000000
vt 0.080294 0.419706
vt 0.093750 0.500000
vt 0.616663 0.449553
vt 0.093750 1.000000
vt 0.116663 0.449553
vt 0.062500 0.500000
vt 0.658156 0.471731
vt 0.158156 0.471731
vt 0.062500 1.000000
vt 0.031250 0.500000
vt 0.703178 0.485388
vt 0.203178 0.485388
vt 0.031250 1.000000
vt 1.000000 0.500000
vt 0.000000 0.500000
vt 0.750000 0.490000
vt 1.000000 1.000000
vt 0.250000 0.490000
vt 0.000000 1.000000
vt 0.968750 0.500000
vt 0.796822 0.485388
vt 0.968750 1.000000
vt 0.296822 0.485388
vt 0.937500 0.500000
vt 0.841844 0.471731
vt 0.937500 1.000000
vt 0.341844 0.471731
vt 0.906250 0.500000
vt 0.883337 0.449553
vt 0.906250 1.000000
vt 0.383337 0.449553
vt 0.875000 0.500000
vt 0.919706 0.419706
vt 0.875000 1.000000
vt 0.419706 0.419706
vt 0.843750 0.500000
vt 0.949553 0.383337
vt 0.843750 1.000000
vt 0.449553 0.383337
vt 0.812500 0.500000
vt 0.971731 0.341844
vt 0.812500 1.000000
vt 0.471731 0.341844
vt 0.781250 0.500000
vt 0.985388 0.296822
vt 0.781250 1.000000
vt 0.485388 0.296822
vt 0.750000 0.500000
vt 0.990000 0.250000
vt 0.750000 1.000000
vt 0.490000 0.250000
vt 0.718750 0.500000
vt 0.985388 0.203178
vt 0.718750 1.000000
vt 0.485388 0.203178
vt 0.687500 0.500000
vt 0.971731 0.158156
vt 0.687500 1.000000
vt 0.471731 0.158156
vt 0.656250 0.500000
vt 0.949553 0.116663
vt 0.656250 1.000000
vt 0.449553 0.116663
vt 0.625000 0.500000
vt 0.919706 0.080294
vt 0.625000 1.000000
vt 0.419706 0.080294
vt 0.593750 0.500000
vt 0.883337 0.050447
vt 0.593750 1.000000
vt 0.383337 0.050447
vt 0.562500 0.500000
vt 0.841844 0.028269
vt 0.562500 1.000000
vt 0.341844 0.028269
vt 0.531250 0.500000
vt 0.796822 0.014612
vt 0.531250 1.000000
vt 0.296822 0.014612
vt 0.500000 0.500000
vt 0.750000 0.010000
vt 0.500000 1.000000
vt 0.250000 0.010000
vt 0.468750 0.500000
vt 0.703178 0.014612
vt 0.468750 1.000000
vt 0.203178 0.014612
vt 0.437500 0.500000
vt 0.658156 0.028269
vt 0.437500 1.000000
vt 0.158156 0.028269
vt 0.406250 0.500000
vt 0.616663 0.050447
vt 0.406250 1.000000
vt 0.116663 0.050447
vt 0.375000 0.500000
vt 0.580294 0.080294
vt 0.375000 1.000000
vt 0.080294 0.080294
vt 0.343750 0.500000
vt 0.550447 0.116663
vt 0.343750 1.000000
vt 0.050447 0.116663
vt 0.312500 0.500000
vt 0.528269 0.158156
vt 0.312500 1.000000
vt 0.028269 0.158156
vt 0.281250 0.500000
vt 0.514612 0.203178
vt 0.281250 1.000000
vt 0.014612 0.203178
vt 0.250000 0.500000
vt 0.510000 0.250000
vt 0.250000 1.000000
vt 0.010000 0.250000
vt 0.218750 0.500000
vt 0.514612 0.296822
vt 0.218750 1.000000
vt 0.014612 0.296822
vt 0.187500 0.500000
vt 0.528269 0.341844
vt 0.187500 1.000000
vt 0.028269 0.341844
vt 0.156250 0.500000
vt 0.550447 0.383337
vt 0.156250 1.000000
vt 0.050447 0.383337
vt 0.125000 0.500000
vt 0.580294 0.419706
vt 0.125000 1.000000
vt 0.080294 0.419706
vt 0.093750 0.500000
vt 0.616663 0.449553
vt 0.093750 1.000000
vt 0.116663 0.449553
vt 0.062500 0.500000
vt 0.658156 0.471731
vt 0.158156 0.471731
vt 0.062500 1.000000
vt 0.031250 0.500000
vt 0.703178 0.485388
vt 0.203178 0.485388
vt 0.031250 1.000000
vt 1.000000 0.500000
vt 0.000000 0.500000
vt 0.750000 0.490000
vt 1.000000 1.000000
vt 0.250000 0.490000
vt 0.000000 1.000000
vt 0.968750 0.500000
vt 0.796822 0.485388
vt 0.968750 1.000000
vt 0.296822 0.485388
vt 0.937500 0.500000
vt 0.841844 0.471731
vt 0.937500 1.000000
vt 0.341844 0.471731
vt 0.906250 0.500000
vt 0.883337 0.449553
vt 0.906250 1.000000
vt 0.383337 0.449553
vt 0.875000 0.500000
vt 0.919706 0.419706
vt 0.875000 1.000000
vt 0.419706 0.419706
vt 0.843750 0.500000
vt 0.949553 0.383337
vt 0.843750 1.000000
vt 0.449553 0.383337
vt 0.812500 0.500000
vt 0.971731 0.341844
vt 0.812500 1.000000
vt 0.471731 0.341844
vt 0.781250 0.500000
vt 0.985388 0.296822
vt 0.781250 1.000000
vt 0.485388 0.296822
vt 0.750000 0.500000
vt 0.990000 0.250000
vt 0.750000 1.000000
vt 0.490000 0.250000
vt 0.718750 0.500000
vt 0.985388 0.203178
vt 0.718750 1.000000
vt 0.485388 0.203178
vt 0.687500 0.500000
vt 0.971731 0.158156
vt 0.687500 1.000000
vt 0.471731 0.158156
vt 0.656250 0.500000
vt 0.949553 0.116663
vt 0.656250 1.000000
vt 0.449553 0.116663
vt 0.625000 0.500000
vt 0.919706 0.080294
vt 0.625000 1.000000
vt 0.419706 0.080294
vt 0.593750 0.500000
vt 0.883337 0.050447
vt 0.593750 1.000000
vt 0.383337 0.050447
vt 0.562500 0.500000
vt 0.841844 0.028269
vt 0.562500 1.000000
vt 0.341844 0.028269
vt 0.531250 0.500000
vt 0.796822 0.014612
vt 0.531250 1.000000
vt 0.296822 0.014612
vt 0.500000 0.500000
vt 0.750000 0.010000
vt 0.500000 1.000000
vt 0.250000 0.010000
vt 0.468750 0.500000
vt 0.703178 0.014612
vt 0.468750 1.000000
vt 0.203178 0.014612
vt 0.437500 0.500000
vt 0.658156 0.028269
vt 0.437500 1.000000
vt 0.158156 0.028269
vt 0.406250 0.500000
vt 0.616663 0.050447
vt 0.406250 1.000000
vt 0.116663 0.050447
vt 0.375000 0.500000
vt 0.580294 0.080294
vt 0.375000 1.000000
vt 0.080294 0.080294
vt 0.343750 0.500000
vt 0.550447 0.116663
vt 0.343750 1.000000
vt 0.050447 0.116663
vt 0.312500 0.500000
vt 0.528269 0.158156
vt 0.312500 1.000000
vt 0.028269 0.158156
vt 0.281250 0.500000
vt 0.514612 0.203178
vt 0.281250 1.000000
vt 0.014612 0.203178
vt 0.250000 0.500000
vt 0.510000 0.250000
vt 0.250000 1.000000
vt 0.010000 0.250000
vt 0.218750 0.500000
vt 0.514612 0.296822
vt 0.218750 1.000000
vt 0.014612 0.296822
vt 0.187500 0.500000
vt 0.528269 0.341844
vt 0.187500 1.000000
vt 0.028269 0.341844
vt 0.156250 0.500000
vt 0.550447 0.383337
vt 0.156250 1.000000
vt 0.050447 0.383337
vt 0.125000 0.500000
vt 0.580294 0.419706
vt 0.125000 1.000000
vt 0.080294 0.419706
vt 0.093750 0.500000
vt 0.616663 0.449553
vt 0.093750 1.000000
vt 0.116663 0.449553
vt 0.062500 0.500000
vt 0.658156 0.471731
vt 0.158156 0.471731
vt 0.062500 1.000000
vt 0.031250 0.500000
vt 0.703178 0.485388
vt 0.203178 0.485388
vt 0.031250 1.000000
s 0
g Cylinder.004_wire_008110135
usemtl wire_008110135
f 4/10/31 6/14/31 8/18/31 10/22/31 12/26/31 14/30/31 16/34/31 18/38/31 20/42/31 22/46/31 24/50/31 26/54/31 28/58/31 30/62/31 32/66/31 34/70/31 36/74/31 38/78/31 40/82/31 42/86/31 44/90/31 46/94/31 48/98/31 50/102/31 52/106/31 54/110/31 56/114/31 58/118/31 60/122/31 62/125/31 64/129/31 2/5/31
f 1/3/34 63/128/34 61/124/34 59/120/34 57/116/34 55/112/34 53/108/34 51/104/34 49/100/34 47/96/34 45/92/34 43/88/34 41/84/34 39/80/34 37/76/34 35/72/34 33/68/34 31/64/34 29/60/34 27/56/34 25/52/34 23/48/34 21/44/34 19/40/34 17/36/34 15/32/34 13/28/34 11/24/34 9/20/34 7/16/34 5/12/34 3/8/34
f 68/140/31 70/144/31 72/148/31 74/152/31 76/156/31 78/160/31 80/164/31 82/168/31 84/172/31 86/176/31 88/180/31 90/184/31 92/188/31 94/192/31 96/196/31 98/200/31 100/204/31 102/208/31 104/212/31 106/216/31 108/220/31 110/224/31 112/228/31 114/232/31 116/236/31 118/240/31 120/244/31 122/248/31 124/252/31 126/255/31 128/259/31 66/135/31
f 65/133/34 127/258/34 125/254/34 123/250/34 121/246/34 119/242/34 117/238/34 115/234/34 113/230/34 111/226/34 109/222/34 107/218/34 105/214/34 103/210/34 101/206/34 99/202/34 97/198/34 95/194/34 93/190/34 91/186/34 89/182/34 87/178/34 85/174/34 83/170/34 81/166/34 79/162/34 77/158/34 75/154/34 73/150/34 71/146/34 69/142/34 67/138/34
f 132/270/31 134/274/31 136/278/31 138/282/31 140/286/31 142/290/31 144/294/31 146/298/31 148/302/31 150/306/31 152/310/31 154/314/31 156/318/31 158/322/31 160/326/31 162/330/31 164/334/31 166/338/31 168/342/31 170/346/31 172/350/31 174/354/31 176/358/31 178/362/31 180/366/31 182/370/31 184/374/31 186/378/31 188/382/31 190/385/31 192/389/31 130/265/31
f 129/263/34 191/388/34 189/384/34 187/380/34 185/376/34 183/372/34 181/368/34 179/364/34 177/360/34 175/356/34 173/352/34 171/348/34 169/344/34 167/340/34 165/336/34 163/332/34 161/328/34 159/324/34 157/320/34 155/316/34 153/312/34 151/308/34 149/304/34 147/300/34 145/296/34 143/292/34 141/288/34 139/284/34 137/280/34 135/276/34 133/272/34 131/268/34
g Cylinder.004_wire_028028177
usemtl wire_028028177
f 1/1/1 3/7/1 4/9/1 2/4/1
f 3/7/2 5/11/2 6/13/2 4/9/2
f 5/11/3 7/15/3 8/17/3 6/13/3
f 7/15/4 9/19/4 10/21/4 8/17/4
f 9/19/5 11/23/5 12/25/5 10/21/5
f 11/23/6 13/27/6 14/29/6 12/25/6
f 13/27/7 15/31/7 16/33/7 14/29/7
f 15/31/8 17/35/8 18/37/8 16/33/8
f 17/35/9 19/39/9 20/41/9 18/37/9
f 19/39/10 21/43/10 22/45/10 20/41/10
f 21/43/11 23/47/11 24/49/11 22/45/11
f 23/47/12 25/51/12 26/53/12 24/49/12
f 25/51/13 27/55/13 28/57/13 26/53/13
f 27/55/14 29/59/14 30/61/14 28/57/14
f 29/59/15 31/63/15 32/65/15 30/61/15
f 31/63/16 33/67/16 34/69/16 32/65/16
f 33/67/17 35/71/17 36/73/17 34/69/17
f 35/71/18 37/75/18 38/77/18 36/73/18
f 37/75/19 39/79/19 40/81/19 38/77/19
f 39/79/20 41/83/20 42/85/20 40/81/20
f 41/83/21 43/87/21 44/89/21 42/85/21
f 43/87/22 45/91/22 46/93/22 44/89/22
f 45/91/23 47/95/23 48/97/23 46/93/23
f 47/95/24 49/99/24 50/101/24 48/97/24
f 49/99/25 51/103/25 52/105/25 50/101/25
f 51/103/26 53/107/26 54/109/26 52/105/26
f 53/107/27 55/111/27 56/113/27 54/109/27
f 55/111/28 57/115/28 58/117/28 56/113/28
f 57/115/29 59/119/29 60/121/29 58/117/29
f 59/119/30 61/123/30 62/126/30 60/121/30
f 61/123/32 63/127/32 64/130/32 62/126/32
f 63/127/33 1/2/33 2/6/33 64/130/33
f 65/131/1 67/137/1 68/139/1 66/134/1
f 67/137/2 69/141/2 70/143/2 68/139/2
f 69/141/3 71/145/3 72/147/3 70/143/3
f 71/145/4 73/149/4 74/151/4 72/147/4
f 73/149/5 75/153/5 76/155/5 74/151/5
f 75/153/6 77/157/6 78/159/6 76/155/6
f 77/157/7 79/161/7 80/163/7 78/159/7
f 79/161/8 81/165/8 82/167/8 80/163/8
f 81/165/9 83/169/9 84/171/9 82/167/9
f 83/169/10 85/173/10 86/175/10 84/171/10
f 85/173/11 87/177/11 88/179/11 86/175/11
f 87/177/12 89/181/12 90/183/12 88/179/12
f 89/181/13 91/185/13 92/187/13 90/183/13
f 91/185/14 93/189/14 94/191/14 92/187/14
f 93/189/15 95/193/15 96/195/15 94/191/15
f 95/193/16 97/197/16 98/199/16 96/195/16
f 97/197/17 99/201/17 100/203/17 98/199/17
f 99/201/18 101/205/18 102/207/18 100/203/18
f 101/205/19 103/209/19 104/211/19 102/207/19
f 103/209/20 105/213/20 106/215/20 104/211/20
f 105/213/21 107/217/21 108/219/21 106/215/21
f 107/217/22 109/221/22 110/223/22 108/219/22
f 109/221/23 111/225/23 112/227/23 110/223/23
f 111/225/24 113/229/24 114/231/24 112/227/24
f 113/229/25 115/233/25 116/235/25 114/231/25
f 115/233/26 117/237/26 118/239/26 116/235/26
f 117/237/27 119/241/27 120/243/27 118/239/27
f 119/241/28 121/245/28 122/247/28 120/243/28
f 121/245/29 123/249/29 124/251/29 122/247/29
f 123/249/30 125/253/30 126/256/30 124/251/30
f 125/253/32 127/257/32 128/260/32 126/256/32
f 127/257/33 65/132/33 66/136/33 128/260/33
f 129/261/1 131/267/1 132/269/1 130/264/1
f 131/267/2 133/271/2 134/273/2 132/269/2
f 133/271/3 135/275/3 136/277/3 134/273/3
f 135/275/4 137/279/4 138/281/4 136/277/4
f 137/279/5 139/283/5 140/285/5 138/281/5
f 139/283/6 141/287/6 142/289/6 140/285/6
f 141/287/7 143/291/7 144/293/7 142/289/7
f 143/291/8 145/295/8 146/297/8 144/293/8
f 145/295/9 147/299/9 148/301/9 146/297/9
f 147/299/10 149/303/10 150/305/10 148/301/10
f 149/303/11 151/307/11 152/309/11 150/305/11
f 151/307/12 153/311/12 154/313/12 152/309/12
f 153/311/13 155/315/13 156/317/13 154/313/13
f 155/315/14 157/319/14 158/321/14 156/317/14
f 157/319/15 159/323/15 160/325/15 158/321/15
f 159/323/16 161/327/16 162/329/16 160/325/16
f 161/327/17 163/331/17 164/333/17 162/329/17
f 163/331/18 165/335/18 166/337/18 164/333/18
f 165/335/19 167/339/19 168/341/19 166/337/19
f 167/339/20 169/343/20 170/345/20 168/341/20
f 169/343/21 171/347/21 172/349/21 170/345/21
f 171/347/22 173/351/22 174/353/22 172/349/22
f 173/351/23 175/355/23 176/357/23 174/353/23
f 175/355/24 177/359/24 178/361/24 176/357/24
f 177/359/25 179/363/25 180/365/25 178/361/25
f 179/363/26 181/367/26 182/369/26 180/365/26
f 181/367/27 183/371/27 184/373/27 182/369/27
f 183/371/28 185/375/28 186/377/28 184/373/28
f 185/375/29 187/379/29 188/381/29 186/377/29
f 187/379/30 189/383/30 190/386/30 188/381/30
f 189/383/32 191/387/32 192/390/32 190/386/32
f 191/387/33 129/262/33 130/266/33 192/390/33
