# Blender 3.3.0
# www.blender.org
mtllib k_tabure.mtl
g chair.016_Cube.215
v -0.099662 -8.287637 4.124576
v -0.288282 1.410922 1.625436
v 0.080363 -8.402291 3.691093
v -0.011690 1.234771 0.959465
v 0.348723 -8.240588 4.298349
v 0.400599 1.483199 1.892429
v 0.528759 -8.355251 3.864857
v 0.677193 1.307046 1.226443
v -3.306006 -8.286937 -1.511773
v -1.149960 1.470596 -0.815138
v -2.868474 -8.402140 -1.342202
v -0.477746 1.293600 -0.554638
v -3.480615 -8.286935 -1.061238
v -1.418214 1.470595 -0.122977
v -3.043064 -8.402143 -0.891675
v -0.746011 1.293604 0.137551
v 3.177952 -8.240583 -3.001754
v 1.594932 1.483206 -1.189242
v 3.018842 -8.355240 -2.560165
v 1.350485 1.307052 -0.510815
v 2.729560 -8.287628 -3.175531
v 0.906051 1.410927 -1.456235
v 2.570450 -8.402284 -2.733943
v 0.661597 1.234781 -0.777779
v 1.279971 1.213338 -3.585422
v 1.279972 1.974302 -3.585426
v 3.657320 1.213337 -0.630253
v 3.657316 1.974306 -0.630244
v 2.286737 1.213338 2.906186
v 2.286734 1.974306 2.906195
v -1.461195 1.213339 3.487457
v -1.461192 1.974305 3.487452
v -3.838539 1.213338 0.532274
v -3.838542 1.974306 0.532283
v -2.467956 1.213337 -3.004166
v -2.467959 1.974306 -3.004157
v -0.850533 1.976294 0.605690
v -0.850533 4.623747 0.605691
v -0.276205 1.976294 -0.876218
v -0.276205 4.623748 -0.876218
v 0.631379 1.976294 1.180020
v 0.631378 4.623747 1.180020
v 1.205707 1.976294 -0.301888
v 1.205707 4.623748 -0.301888
v -0.389574 5.785019 0.311205
v -0.389574 5.928038 0.311205
v 0.241289 5.785019 -0.375267
v 0.241289 5.928038 -0.375267
v 0.419812 5.785019 0.624890
v 0.419812 5.928038 0.624890
v 0.416335 5.785019 -0.307427
v 0.416335 5.928038 -0.307427
v 0.119670 5.406048 0.198277
v 0.119669 5.828923 0.198277
v 0.172124 5.406048 0.263478
v 0.172124 5.828923 0.263478
v 0.141891 5.406048 0.341488
v 0.141891 5.828923 0.341488
v 0.059197 5.406049 0.354311
v 0.059197 5.828923 0.354311
v 0.006753 5.406048 0.289114
v 0.006753 5.828923 0.289114
v 0.036986 5.406048 0.211104
v 0.036986 5.828923 0.211104
v 0.171072 4.623744 0.065646
v 0.171072 5.406048 0.065647
v 0.312674 4.623744 0.241674
v 0.312674 5.406048 0.241674
v 0.231039 4.623744 0.452314
v 0.231039 5.406048 0.452314
v 0.007800 4.623744 0.486927
v 0.007800 5.406048 0.486927
v -0.133811 4.623744 0.310913
v -0.133811 5.406048 0.310913
v -0.052176 4.623744 0.100272
v -0.052176 5.406048 0.100272
vn -0.9279 -0.1099 -0.3563
vn 0.3726 -0.2498 -0.8938
vn 0.9279 0.0849 0.3629
vn -0.3725 0.2248 0.9004
vn 0.0020 -0.9665 0.2565
vn -0.0020 0.9665 -0.2565
vn 0.3584 -0.0126 -0.9335
vn 0.9026 -0.2510 0.3498
vn -0.3642 -0.0126 0.9312
vn -0.9083 0.2258 -0.3520
vn -0.2223 -0.9712 -0.0862
vn 0.2223 0.9712 0.0862
vn 0.9302 0.0849 0.3572
vn -0.3270 -0.2498 0.9114
vn -0.9257 -0.1099 -0.3620
vn 0.3315 0.2248 -0.9163
vn 0.1743 -0.9665 -0.1881
vn -0.1743 0.9665 0.1881
vn 0.7792 -0.0000 -0.6268
vn 0.9324 -0.0000 0.3614
vn 0.1533 -0.0000 0.9882
vn -0.7792 -0.0000 0.6268
vn -0.0000 1.0000 -0.0000
vn -0.9324 -0.0000 -0.3614
vn -0.1533 -0.0000 -0.9882
vn -0.0000 -1.0000 -0.0000
vn 0.3614 -0.0000 -0.9324
vn -0.3614 -0.0000 0.9324
vn -0.7363 -0.0000 -0.6767
vn 1.0000 -0.0000 -0.0037
vn 0.1532 -0.0000 0.9882
vn -0.7791 -0.0000 0.6269
s 1
g chair.016_m_white
usemtl m_white
f 1//1 2//1 4//1 3//1
f 3//2 4//2 8//2 7//2
f 7//3 8//3 6//3 5//3
f 3//5 7//5 5//5 1//5
f 8//6 4//6 2//6 6//6
f 9//7 10//7 12//7 11//7
f 15//9 16//9 14//9 13//9
f 13//10 14//10 10//10 9//10
f 11//11 15//11 13//11 9//11
f 16//12 12//12 10//12 14//12
f 19//14 20//14 24//14 23//14
f 23//15 24//15 22//15 21//15
f 21//16 22//16 18//16 17//16
f 19//17 23//17 21//17 17//17
f 24//18 20//18 18//18 22//18
f 28//23 26//23 36//23 34//23 32//23 30//23
f 25//26 27//26 29//26 31//26 33//26 35//26
f 45//29 46//29 48//29 47//29
f 47//27 48//27 52//27 51//27
f 51//30 52//30 50//30 49//30
f 49//28 50//28 46//28 45//28
f 47//26 51//26 49//26 45//26
f 52//23 48//23 46//23 50//23
f 53//19 54//19 56//19 55//19
f 55//20 56//20 58//20 57//20
f 57//31 58//31 60//31 59//31
f 59//22 60//22 62//22 61//22
f 56//23 54//23 64//23 62//23 60//23 58//23
f 61//24 62//24 64//24 63//24
f 63//25 64//25 54//25 53//25
f 53//26 55//26 57//26 59//26 61//26 63//26
f 65//19 66//19 68//19 67//19
f 67//20 68//20 70//20 69//20
f 69//31 70//31 72//31 71//31
f 71//32 72//32 74//32 73//32
f 68//23 66//23 76//23 74//23 72//23 70//23
f 73//24 74//24 76//24 75//24
f 75//25 76//25 66//25 65//25
f 65//26 67//26 69//26 71//26 73//26 75//26
g chair.016_m_softired
usemtl m_softired
f 5//4 6//4 2//4 1//4
f 11//8 12//8 16//8 15//8
f 17//13 18//13 20//13 19//13
f 25//19 26//19 28//19 27//19
f 27//20 28//20 30//20 29//20
f 29//21 30//21 32//21 31//21
f 31//22 32//22 34//22 33//22
f 33//24 34//24 36//24 35//24
f 35//25 36//25 26//25 25//25
g chair.016_m_red
usemtl m_red
f 37//24 38//24 40//24 39//24
f 39//27 40//27 44//27 43//27
f 43//20 44//20 42//20 41//20
f 41//28 42//28 38//28 37//28
f 39//26 43//26 41//26 37//26
f 44//23 40//23 38//23 42//23
