# Blender 3.3.0
# www.blender.org
mtllib k_zemin.mtl
g Cube.005_Cube.002
v -34.127739 -0.631851 32.310940
v 33.853374 -0.631856 32.310917
v -34.127735 0.631238 32.310940
v 33.853378 0.631233 32.310917
v 33.853371 -0.631856 -20.324415
v -34.127739 0.631238 -19.071604
v -17.248672 0.631236 -35.873028
v -17.039970 -0.631852 -35.873028
v -34.127743 -0.631851 -18.715296
v 33.853374 0.631233 -20.335371
v 18.267193 0.631234 -35.873039
v 18.326065 -0.631854 -35.873039
v 18.347549 0.631234 -35.873039
v 15.384896 -0.631854 -33.591381
vn -0.0000 -1.0000 -0.0000
vn 0.7067 0.0134 -0.7074
vn -0.0000 1.0000 -0.0000
vn -1.0000 -0.0000 -0.0000
vn -0.0000 -0.0000 1.0000
vn 1.0000 -0.0000 -0.0000
vn -0.6983 -0.1562 -0.6985
vn -0.0000 -0.0000 -1.0000
vt 0.890586 0.077489
vt 0.491047 0.940918
vt 0.977845 0.986559
vt 0.968526 0.077489
vt 0.491047 0.986559
vt 0.868038 0.971346
vt 0.983239 0.802049
vt 0.491047 0.934523
vt 0.977845 0.980165
vt 0.077323 0.802049
vt 0.491047 0.980165
vt 0.868038 0.964951
vt 0.968526 0.034827
vt 0.602659 0.925704
vt 0.491129 0.971346
vt 0.983239 0.317980
vt 0.858986 0.934523
vt 0.866814 0.956132
vt 0.758313 0.159695
vt 0.745947 0.956132
vt 0.910177 0.022225
vt 0.744452 0.949737
vt 0.890586 0.036132
vt 0.856434 0.940918
vt 0.866814 0.949737
vt 0.602659 0.919310
vt 0.077323 0.306075
vt 0.491049 0.964951
vt 0.491049 0.919310
vt 0.285027 0.159695
vt 0.491625 0.956132
vt 0.491471 0.925704
vt 0.950724 0.022225
vt 0.491204 0.949737
vt 0.491049 0.956132
vt 0.947352 0.024074
s 0
g Cube.005_zemin_red.001
usemtl zemin_red.001
f 1/1/1 9/23/1 8/21/1 14/36/1 12/33/1 5/13/1 2/4/1
f 11/29/2 10/26/2 5/14/2 12/32/2
f 4/10/3 10/27/3 11/30/3 7/19/3 6/16/3 3/7/3
f 3/8/4 6/17/4 9/24/4 1/2/4
f 2/5/5 4/11/5 3/9/5 1/3/5
f 10/28/6 4/12/6 2/6/6 5/15/6
f 8/22/7 9/25/7 6/18/7 7/20/7
f 12/33/1 14/36/1 8/21/1
f 13/35/8 12/34/8 8/22/8 7/20/8 11/31/8
