# Blender 3.3.0
# www.blender.org
mtllib p_koltuk.mtl
g Cube.126_Cube.170
v 123.801636 8.848459 445.871124
v 123.801636 9.950042 445.871124
v 123.801636 8.848458 454.369354
v 123.801636 9.950041 454.369354
v 115.303406 8.848459 445.871124
v 115.303406 9.950042 445.871124
v 115.303406 8.848458 454.369354
v 115.303406 9.950041 454.369354
v 116.075974 8.848458 454.369354
v 116.848541 8.848458 454.369354
v 117.621109 8.848458 454.369354
v 118.393677 8.848458 454.369354
v 119.166237 8.848458 454.369354
v 119.938805 8.848458 454.369354
v 120.711372 8.848458 454.369354
v 121.483940 8.848458 454.369354
v 122.256500 8.848458 454.369354
v 123.029068 8.848458 454.369354
v 119.938805 9.950041 454.369354
v 119.166237 9.950041 454.369354
v 118.393669 9.950041 454.369354
v 117.621109 9.950041 454.369354
v 116.848541 9.950041 454.369354
v 116.075974 9.950041 454.369354
v 123.029068 8.848459 445.871124
v 122.256500 8.848459 445.871124
v 121.483932 8.848459 445.871124
v 120.711365 8.848459 445.871124
v 119.938805 8.848459 445.871124
v 119.166237 8.848459 445.871124
v 118.393669 8.848459 445.871124
v 117.621101 8.848459 445.871124
v 116.848541 8.848459 445.871124
v 116.075974 8.848459 445.871124
v 116.075974 9.950042 445.871124
v 116.848541 9.950042 445.871124
v 117.621101 9.950042 445.871124
v 118.393669 9.950042 445.871124
v 119.166237 9.950042 445.871124
v 119.938805 9.950042 445.871124
v 123.801636 8.848458 453.596771
v 123.801636 8.848458 452.824219
v 123.801636 8.848458 452.051666
v 123.801636 8.848458 451.279083
v 123.801636 8.848459 450.506531
v 123.801636 8.848459 449.733948
v 123.801636 8.848459 448.961395
v 123.801636 8.848459 448.188812
v 123.801636 8.848459 447.416260
v 123.801636 8.848459 446.643677
v 115.303406 8.848459 446.643707
v 115.303406 8.848459 447.416260
v 115.303406 8.848459 448.188812
v 115.303406 8.848459 448.961395
v 115.303406 8.848459 449.733948
v 115.303406 8.848459 450.506531
v 115.303406 8.848458 451.279083
v 115.303406 8.848458 452.051666
v 115.303406 8.848458 452.824219
v 115.303406 8.848458 453.596802
v 115.303406 9.950041 453.596802
v 115.303406 9.950041 452.824219
v 115.303406 9.950041 452.051666
v 115.303406 9.950041 451.279083
v 115.303406 9.950041 450.506531
v 115.303406 9.950041 449.733948
v 115.303406 9.950042 448.961395
v 115.303406 9.950042 448.188812
v 115.303406 9.950042 447.416260
v 115.303406 9.950042 446.643707
v 119.938805 9.950041 453.596802
v 119.938805 9.950042 446.643677
v 120.711372 9.950041 453.596802
v 120.711372 9.950042 446.643677
v 121.483940 9.950041 453.596771
v 121.483932 9.950042 446.643677
v 122.256500 9.950041 453.596771
v 122.256500 9.950042 446.643677
v 123.029068 9.950041 453.596771
v 123.029068 9.950041 452.824219
v 123.029068 9.950041 452.051666
v 123.029068 9.950041 451.279083
v 123.029068 9.950041 450.506531
v 123.029068 9.950041 449.733948
v 123.029068 9.950042 448.961395
v 123.029068 9.950042 448.188812
v 123.029068 9.950042 447.416260
v 123.029068 9.950042 446.643677
v 123.029068 8.848458 453.596771
v 123.029068 8.848459 446.643677
v 116.075974 8.848458 453.596802
v 116.075974 8.848459 446.643707
v 124.725906 3.927134 445.887451
v 124.725906 3.927135 444.946838
v 123.785294 3.927133 455.293610
v 124.725906 3.927133 455.293610
v 114.379135 3.927133 454.352997
v 114.379135 3.927133 455.293640
v 115.319748 3.927135 444.946838
v 114.379135 3.927135 444.946869
v 115.319756 3.927133 455.293640
v 123.785286 3.927135 444.946838
v 123.785294 3.927134 445.887451
v 115.319748 3.927134 445.887482
v 124.725906 3.927133 454.352997
v 114.379135 3.927134 445.887482
v 123.785294 3.927133 454.352997
v 115.319748 3.927133 454.352997
v 123.801636 13.208070 453.596771
v 123.801636 13.208070 454.369354
v 123.029068 13.208071 445.871124
v 123.801636 13.208071 445.871124
v 123.029068 13.208070 454.369354
v 122.256500 13.208070 454.369354
v 121.483940 13.208070 454.369354
v 120.711372 13.208070 454.369354
v 119.938805 13.208070 454.369354
v 119.938805 13.208071 445.871124
v 120.711372 13.208071 445.871124
v 121.483932 13.208071 445.871124
v 122.256500 13.208071 445.871124
v 119.938805 13.208071 446.643677
v 120.711372 13.208071 446.643677
v 121.483932 13.208071 446.643677
v 122.256500 13.208071 446.643677
v 123.029068 13.208071 446.643677
v 123.801636 13.208071 446.643677
v 123.801636 13.208071 447.416260
v 123.801636 13.208071 448.188812
v 123.801636 13.208071 448.961395
v 123.801636 13.208071 449.733948
v 123.801636 13.208071 450.506531
v 123.801636 13.208070 451.279083
v 123.801636 13.208070 452.051666
v 123.801636 13.208070 452.824219
v 119.938805 13.208070 453.596802
v 120.711372 13.208070 453.596802
v 121.483940 13.208070 453.596802
v 122.256500 13.208070 453.596802
v 123.029068 13.208070 453.596802
v 123.029068 13.208070 452.824219
v 123.029068 13.208070 452.051666
v 123.029068 13.208070 451.279083
v 123.029068 13.208071 450.506531
v 123.029068 13.208071 449.733948
v 123.029068 13.208071 448.961395
v 123.029068 13.208071 448.188812
v 123.029068 13.208071 447.416260
vn -0.0000 -0.1519 -0.9884
vn 0.9828 0.1846 -0.0000
vn -1.0000 -0.0000 -0.0000
vn -0.9828 0.1846 -0.0000
vn -0.0000 -1.0000 -0.0000
vn -0.0000 -0.0000 -1.0000
vn -0.0000 0.1846 0.9828
vn -0.0000 1.0000 -0.0000
vn -0.0000 -0.1519 0.9884
vn -0.0000 0.1846 -0.9828
vn -0.9884 -0.1519 -0.0000
vn 0.9884 -0.1519 -0.0000
vn 1.0000 -0.0000 -0.0000
vn -0.0000 -0.0000 1.0000
vt 0.375000 1.000000
vt 0.375000 0.000000
vt 0.625000 1.000000
vt 0.625000 0.000000
vt 0.375000 0.250000
vt 0.625000 0.250000
vt 0.375000 0.750000
vt 0.625000 0.750000
vt 0.375000 0.500000
vt 0.625000 0.500000
vt 0.352273 0.500000
vt 0.375000 0.477273
vt 0.329545 0.500000
vt 0.375000 0.454545
vt 0.306818 0.500000
vt 0.375000 0.431818
vt 0.284091 0.500000
vt 0.375000 0.409091
vt 0.261364 0.500000
vt 0.375000 0.386364
vt 0.238636 0.500000
vt 0.375000 0.363636
vt 0.215909 0.500000
vt 0.375000 0.340909
vt 0.193182 0.500000
vt 0.375000 0.318182
vt 0.170455 0.500000
vt 0.375000 0.295455
vt 0.147727 0.500000
vt 0.375000 0.272727
vt 0.761364 0.500000
vt 0.625000 0.363636
vt 0.738636 0.500000
vt 0.625000 0.386364
vt 0.715909 0.500000
vt 0.625000 0.409091
vt 0.693182 0.500000
vt 0.625000 0.431818
vt 0.670455 0.500000
vt 0.625000 0.454545
vt 0.647727 0.500000
vt 0.625000 0.477273
vt 0.375000 0.977273
vt 0.147727 0.750000
vt 0.170455 0.750000
vt 0.375000 0.954545
vt 0.193182 0.750000
vt 0.375000 0.931818
vt 0.215909 0.750000
vt 0.375000 0.909091
vt 0.238636 0.750000
vt 0.375000 0.886364
vt 0.261364 0.750000
vt 0.375000 0.863636
vt 0.284091 0.750000
vt 0.375000 0.840909
vt 0.306818 0.750000
vt 0.375000 0.818182
vt 0.329545 0.750000
vt 0.375000 0.795455
vt 0.375000 0.772727
vt 0.352273 0.750000
vt 0.625000 0.772727
vt 0.647727 0.750000
vt 0.625000 0.795455
vt 0.670455 0.750000
vt 0.625000 0.818182
vt 0.693182 0.750000
vt 0.625000 0.840909
vt 0.715909 0.750000
vt 0.625000 0.863636
vt 0.738636 0.750000
vt 0.625000 0.886364
vt 0.761364 0.750000
vt 0.125000 0.522727
vt 0.375000 0.227273
vt 0.125000 0.545455
vt 0.375000 0.204545
vt 0.125000 0.568182
vt 0.375000 0.181818
vt 0.125000 0.590909
vt 0.375000 0.159091
vt 0.125000 0.613636
vt 0.375000 0.136364
vt 0.125000 0.636364
vt 0.375000 0.113636
vt 0.125000 0.659091
vt 0.375000 0.090909
vt 0.125000 0.681818
vt 0.375000 0.068182
vt 0.125000 0.704545
vt 0.375000 0.045455
vt 0.125000 0.727273
vt 0.375000 0.022727
vt 0.375000 0.727273
vt 0.375000 0.704545
vt 0.375000 0.681818
vt 0.375000 0.659091
vt 0.375000 0.636364
vt 0.375000 0.613636
vt 0.375000 0.590909
vt 0.375000 0.568182
vt 0.375000 0.545455
vt 0.375000 0.522727
vt 0.625000 0.522727
vt 0.625000 0.545455
vt 0.625000 0.568182
vt 0.625000 0.590909
vt 0.625000 0.613636
vt 0.625000 0.636364
vt 0.625000 0.659091
vt 0.625000 0.681818
vt 0.625000 0.704545
vt 0.625000 0.727273
vt 0.761364 0.522727
vt 0.761364 0.727273
vt 0.784091 0.522727
vt 0.784091 0.727273
vt 0.806818 0.522727
vt 0.806818 0.727273
vt 0.829545 0.522727
vt 0.829545 0.727273
vt 0.852273 0.522727
vt 0.852273 0.545455
vt 0.852273 0.568182
vt 0.852273 0.590909
vt 0.852273 0.613636
vt 0.852273 0.636364
vt 0.852273 0.659091
vt 0.852273 0.681818
vt 0.852273 0.704545
vt 0.852273 0.727273
vt 0.147727 0.522727
vt 0.147727 0.727273
vt 0.352273 0.522727
vt 0.352273 0.727273
vt 0.375000 0.022727
vt 0.125000 0.727273
vt 0.375000 0.000000
vt 0.125000 0.750000
vt 0.375000 1.000000
vt 0.147727 0.500000
vt 0.375000 0.272727
vt 0.125000 0.500000
vt 0.375000 0.250000
vt 0.375000 0.522727
vt 0.375000 0.500000
vt 0.375000 0.772727
vt 0.352273 0.750000
vt 0.375000 0.750000
vt 0.375000 0.477273
vt 0.352273 0.500000
vt 0.375000 0.977273
vt 0.147727 0.750000
vt 0.147727 0.727273
vt 0.352273 0.727273
vt 0.125000 0.522727
vt 0.375000 0.227273
vt 0.375000 0.727273
vt 0.147727 0.522727
vt 0.352273 0.522727
vt 0.625000 0.227273
vt 0.875000 0.522727
vt 0.625000 0.250000
vt 0.875000 0.500000
vt 0.625000 0.977273
vt 0.852273 0.750000
vt 0.625000 1.000000
vt 0.625000 0.000000
vt 0.875000 0.750000
vt 0.625000 0.272727
vt 0.852273 0.500000
vt 0.625000 0.295455
vt 0.829545 0.500000
vt 0.625000 0.318182
vt 0.806818 0.500000
vt 0.625000 0.340909
vt 0.784091 0.500000
vt 0.625000 0.363636
vt 0.761364 0.500000
vt 0.625000 0.886364
vt 0.761364 0.750000
vt 0.625000 0.909091
vt 0.784091 0.750000
vt 0.625000 0.931818
vt 0.806818 0.750000
vt 0.625000 0.954545
vt 0.829545 0.750000
vt 0.761364 0.727273
vt 0.784091 0.727273
vt 0.806818 0.727273
vt 0.829545 0.727273
vt 0.852273 0.727273
vt 0.625000 0.022727
vt 0.875000 0.727273
vt 0.625000 0.045455
vt 0.875000 0.704545
vt 0.625000 0.068182
vt 0.875000 0.681818
vt 0.625000 0.090909
vt 0.875000 0.659091
vt 0.625000 0.113636
vt 0.875000 0.636364
vt 0.625000 0.136364
vt 0.875000 0.613636
vt 0.625000 0.159091
vt 0.875000 0.590909
vt 0.625000 0.181818
vt 0.875000 0.568182
vt 0.625000 0.204545
vt 0.875000 0.545455
vt 0.761364 0.522727
vt 0.784091 0.522727
vt 0.806818 0.522727
vt 0.829545 0.522727
vt 0.852273 0.522727
vt 0.852273 0.545455
vt 0.852273 0.568182
vt 0.852273 0.590909
vt 0.852273 0.613636
vt 0.852273 0.636364
vt 0.852273 0.659091
vt 0.852273 0.681818
vt 0.852273 0.704545
s 1
g Cube.126_m_koyupembe
usemtl m_koyupembe
f 89/133/1 41/75/1 105/157/1 107/160/1
f 1/2/2 50/94/2 93/137/2 94/139/2
f 70/114/3 6/8/3 5/7/3 51/95/3 52/96/3 53/97/3 54/98/3 55/99/3 56/100/3 57/101/3 58/102/3 59/103/3 60/104/3 7/9/3 8/10/3 61/105/3 62/106/3 63/107/3 64/108/3 65/109/3 66/110/3 67/111/3 68/112/3 69/113/3
f 7/9/4 60/104/4 97/146/4 98/147/4
f 26/45/5 25/44/5 90/134/5 50/93/5 49/91/5 48/89/5 47/87/5 46/85/5 45/83/5 44/81/5 43/79/5 42/77/5 41/75/5 89/133/5 18/29/5 17/27/5 16/25/5 15/23/5 14/21/5 13/19/5 12/17/5 11/15/5 10/13/5 9/11/5 91/135/5 60/104/5 59/103/5 58/102/5 57/101/5 56/100/5 55/99/5 54/98/5 53/97/5 52/96/5 51/95/5 92/136/5 34/62/5 33/59/5 32/57/5 31/55/5 30/53/5 29/51/5 28/49/5 27/47/5
f 2/3/6 1/1/6 25/43/6 26/46/6 27/48/6 28/50/6 29/52/6 30/54/6 31/56/6 32/58/6 33/60/6 34/61/6 5/7/6 6/8/6 35/63/6 36/65/6 37/67/6 38/69/6 39/71/6 40/73/6 118/181/6 119/183/6 120/185/6 121/187/6 111/166/6 112/168/6
f 9/12/7 7/9/7 98/147/7 101/151/7
f 104/156/5 106/159/5 100/150/5 99/149/5
f 93/138/5 103/155/5 102/154/5 94/140/5
f 96/144/5 95/142/5 107/160/5 105/157/5
f 101/152/5 98/147/5 97/146/5 108/161/5
f 51/95/4 5/7/4 100/150/4 106/159/4
f 60/104/1 91/135/1 108/161/1 97/146/1
f 50/93/9 90/134/9 103/155/9 93/138/9
f 25/43/10 1/1/10 94/141/10 102/153/10
f 18/29/11 89/133/11 107/160/11 95/142/11
f 5/7/10 34/61/10 99/148/10 100/150/10
f 90/134/11 25/44/11 102/154/11 103/155/11
f 41/76/2 3/5/2 96/145/2 105/158/2
f 92/136/9 51/95/9 106/159/9 104/156/9
f 91/135/12 9/11/12 101/152/12 108/161/12
f 3/5/7 18/30/7 95/143/7 96/145/7
f 34/62/12 92/136/12 104/156/12 99/149/12
f 4/6/13 3/5/13 41/76/13 42/78/13 43/80/13 44/82/13 45/84/13 46/86/13 47/88/13 48/90/13 49/92/13 50/94/13 1/2/13 2/4/13 112/169/13 127/194/13 128/196/13 129/198/13 130/200/13 131/202/13 132/204/13 133/206/13 134/208/13 135/210/13 109/162/13 110/164/13
f 75/119/6 73/117/6 71/115/6 136/212/6 137/213/6 138/214/6 139/215/6 140/216/6 79/123/6 77/121/6
f 40/74/3 72/116/3 122/189/3 118/182/3
f 71/115/3 19/31/3 117/180/3 136/212/3
f 127/195/8 112/170/8 111/167/8 121/188/8 120/186/8 119/184/8 118/182/8 122/189/8 123/190/8 124/191/8 125/192/8 126/193/8 148/224/8 147/223/8 146/222/8 145/221/8 144/220/8 143/219/8 142/218/8 141/217/8 140/216/8 139/215/8 138/214/8 137/213/8 136/212/8 117/180/8 116/178/8 115/176/8 114/174/8 113/172/8 110/165/8 109/163/8 135/211/8 134/209/8 133/207/8 132/205/8 131/203/8 130/201/8 129/199/8 128/197/8
g Cube.126_m_white
usemtl m_white
f 35/64/8 6/8/8 70/114/8 69/113/8 68/112/8 67/111/8 66/110/8 65/109/8 64/108/8 63/107/8 62/106/8 61/105/8 8/10/8 24/41/8 23/39/8 22/37/8 21/35/8 20/33/8 19/31/8 71/115/8 73/117/8 75/119/8 77/121/8 79/123/8 80/124/8 81/125/8 82/126/8 83/127/8 84/128/8 85/129/8 86/130/8 87/131/8 88/132/8 78/122/8 76/120/8 74/118/8 72/116/8 40/74/8 39/72/8 38/70/8 37/68/8 36/66/8
f 83/127/3 82/126/3 81/125/3 80/124/3 79/123/3 140/216/3 141/217/3 142/218/3 143/219/3 144/220/3 145/221/3 146/222/3 147/223/3 148/224/3 126/193/3 88/132/3 87/131/3 86/130/3 85/129/3 84/128/3
f 24/42/14 8/10/14 7/9/14 9/12/14 10/14/14 11/16/14 12/18/14 13/20/14 14/22/14 15/24/14 16/26/14 17/28/14 18/30/14 3/5/14 4/6/14 110/164/14 113/171/14 114/173/14 115/175/14 116/177/14 117/179/14 19/32/14 20/34/14 21/36/14 22/38/14 23/40/14
f 78/122/14 88/132/14 126/193/14 125/192/14 124/191/14 123/190/14 122/189/14 72/116/14 74/118/14 76/120/14
