# Blender 3.3.0
# www.blender.org
mtllib y_zemin.mtl
g Cube.145_Cube.194
v -68.026703 1.717070 482.850128
v 0.033272 1.717066 482.850098
v -68.026695 2.980159 482.850128
v 0.033276 2.980153 482.850098
v 0.033272 1.717066 430.307617
v -68.026695 2.980159 431.560425
v -51.147633 2.980157 414.759003
v -50.938931 1.717070 414.759003
v -68.026703 1.717070 431.916718
v 0.033276 2.980153 430.296631
v -15.631767 2.980155 414.758972
v -15.572895 1.717066 414.758972
v -15.551411 2.980155 414.758972
v -18.514063 1.717066 417.040649
vn -0.0000 -1.0000 -0.0000
vn 0.7049 0.0134 -0.7091
vn -0.0000 1.0000 -0.0000
vn -1.0000 -0.0000 -0.0000
vn -0.0000 -0.0000 1.0000
vn 1.0000 -0.0000 -0.0000
vn -0.6983 -0.1562 -0.6985
vn -0.0000 -0.0000 -1.0000
vt -0.975249 -5.400996
vt -0.975249 6.400996
vt -3.925748 3.450498
vt -3.925748 0.500000
vt -0.975249 -2.450498
vt -0.492659 1.598653
vt -0.975249 3.450498
vt -0.492659 -1.530990
vt -0.975249 0.500000
vt 1.302489 -2.450498
vt 1.245891 1.598653
vt 1.248283 3.450498
vt 1.814297 0.816992
vt 1.975249 2.713580
vt 1.975249 -4.654967
vt 4.925748 2.704469
vt 1.232866 6.400996
vt 1.232866 -5.400996
vt 1.288644 -1.530990
vt 1.302963 0.500000
vt 1.814297 -0.814853
vt 1.975249 1.175144
vt 1.975249 -3.123070
vt 4.925748 1.172572
vt 1.975249 1.171663
vt 1.876526 -3.250590
s 0
g Cube.145_zemin_yeşil
usemtl zemin_yeşil
f 1/1/1 9/18/1 8/15/1 14/26/1 12/23/1 5/10/1 2/5/1
f 11/22/2 10/20/2 5/10/2 12/23/2
f 4/8/3 10/19/3 11/21/3 7/13/3 6/11/3 3/6/3
f 3/7/4 6/12/4 9/17/4 1/2/4
f 2/4/5 4/9/5 3/7/5 1/3/5
f 10/20/6 4/9/6 2/5/6 5/10/6
f 8/15/7 9/18/7 6/12/7 7/14/7
f 12/23/1 14/26/1 8/15/1
f 13/25/8 12/24/8 8/16/8 7/14/8 11/22/8
