# Blender 3.3.0
# www.blender.org
mtllib s_duvar.mtl
g Cube.137_Cube.184
v 51.640751 -20.552357 57.563778
v 51.640751 18.437794 57.563778
v -16.441219 -20.552357 57.563797
v -16.441219 18.437794 57.563797
v -16.441236 -20.552366 6.408950
v 0.617569 -20.552370 -10.649866
v 0.617571 18.437780 -10.649870
v -16.441236 18.437784 6.408947
v 36.079609 -20.552370 -10.649878
v 51.640732 -20.552366 4.911236
v 51.640732 18.437784 4.911232
v 36.079609 18.437780 -10.649881
v -14.493832 18.437794 57.563797
v 49.693363 18.437794 57.563778
v -14.493832 -20.552357 57.563797
v 49.693363 -20.552357 57.563778
v 49.693344 18.437784 5.755979
v 1.589072 18.437780 -8.914920
v 35.022427 18.437780 -8.914930
v -14.493849 18.437784 7.168014
v -14.493849 -20.552366 7.168015
v 35.022427 -20.552370 -8.914927
v 49.693344 -20.552366 5.755982
v 1.589070 -20.552370 -8.914916
v -3.946995 4.563827 -6.085300
v -3.946997 -19.211300 -6.085297
v -3.946995 -7.740361 -6.085299
v -3.946995 -6.907113 -6.085299
v -4.128918 5.367448 -5.903379
v -8.398870 -7.740360 -1.633424
v -7.815518 -7.740360 -2.216776
v -8.398868 -6.907112 -1.633423
v -7.815516 -6.907112 -2.216774
v -12.267390 -19.211298 2.235102
v -8.398870 -19.211298 -1.633422
v -7.815518 -19.211298 -2.216773
v -5.298559 9.880696 -4.733736
v -8.398868 4.563827 -1.633425
v -7.815516 4.563827 -2.216776
v -7.905058 5.367448 -2.127234
v -8.134467 11.758184 -1.897827
v -11.020718 5.367449 0.988425
v -12.267390 -7.740359 2.235101
v -12.267390 -6.907111 2.235101
v -12.267388 4.563828 2.235099
v -12.140018 5.367449 2.107728
v -10.970375 9.880697 0.938083
v -3.945331 9.880696 -3.380511
v -7.045641 4.563828 -0.280200
v -6.462290 4.563828 -0.863551
v -8.076618 5.367449 0.750780
v -6.781239 11.758184 -0.544600
v -10.914163 -6.907111 3.588327
v -10.914163 4.563828 3.588324
v -10.914163 -7.740359 3.588327
v -10.786792 5.367449 3.460953
v -9.617148 9.880697 2.291311
v -2.593771 -19.211298 -4.732072
v -2.593769 -7.740361 -4.732072
v -2.593769 -6.907113 -4.732072
v -2.593769 4.563827 -4.732075
v -2.775690 5.367448 -4.550152
v -6.462292 -19.211298 -0.863548
v -7.045641 -7.740360 -0.280197
v -6.462290 -7.740360 -0.863549
v -6.462290 -6.907112 -0.863549
v -7.045641 -6.907112 -0.280197
v -10.914165 -19.211298 3.588329
v -7.045643 -19.211298 -0.280197
v 10.583239 -2.362228 -10.649874
v 10.583239 14.356092 -10.649873
v 5.279822 -2.362228 -10.649872
v 5.279822 14.356092 -10.649871
v 10.583240 -2.362227 -8.914923
v 10.583240 14.356092 -8.914922
v 5.279822 -2.362227 -8.914921
v 5.279822 14.356092 -8.914920
v 16.725664 -2.362228 -10.649876
v 11.422247 -2.362228 -10.649874
v 16.725664 14.356092 -10.649875
v 11.422247 14.356092 -10.649873
v 16.725664 14.356092 -8.914924
v 11.422248 14.356092 -8.914922
v 16.725664 -2.362227 -8.914925
v 11.422248 -2.362227 -8.914923
v -12.140018 5.367449 2.107728
v -11.020718 5.367449 0.988425
v -7.905058 5.367448 -2.127234
v -4.128918 5.367448 -5.903379
v -5.298559 9.880696 -4.733736
v -8.134467 11.758184 -1.897827
v -10.970375 9.880697 0.938083
v -8.076618 5.367449 0.750780
v -10.786792 5.367449 3.460953
v -2.775690 5.367448 -4.550152
v -9.617148 9.880697 2.291311
v -6.781239 11.758184 -0.544600
v -3.945331 9.880696 -3.380511
v -11.945016 5.560090 1.912726
v -11.020718 5.560089 0.988425
v -7.905058 5.560089 -2.127234
v -4.323919 5.560088 -5.708377
v -5.407142 9.739881 -4.625153
v -8.134467 11.545481 -1.897827
v -10.861792 9.739882 0.829500
v -8.076618 5.560089 0.750780
v -10.591790 5.560090 3.265951
v -2.970691 5.560088 -4.355150
v -9.508565 9.739882 2.182727
v -6.781239 11.545481 -0.544600
v -4.053914 9.739881 -3.271927
v -7.615516 4.280984 -2.416777
v -7.615516 -6.624269 -2.416775
v -4.146996 -6.624270 -5.885299
v -4.146996 4.280984 -5.885299
v -6.262290 4.280985 -1.063552
v -2.793769 4.280984 -4.532074
v -2.793769 -6.624270 -4.532072
v -6.262290 -6.624269 -1.063550
v -12.067389 -6.624269 2.035100
v -8.598867 -6.624269 -1.433422
v -8.598867 4.280984 -1.433424
v -12.067388 4.280985 2.035098
v -10.714162 4.280985 3.388324
v -7.245642 4.280985 -0.080199
v -10.714162 -6.624269 3.388326
v -7.245642 -6.624269 -0.080197
v -7.615518 -18.928455 -2.416775
v -4.146997 -18.928457 -5.885296
v -4.146996 -8.023204 -5.885299
v -7.615518 -8.023203 -2.416776
v -6.262290 -8.023203 -1.063549
v -2.793769 -8.023204 -4.532072
v -2.793771 -18.928455 -4.532071
v -6.262291 -18.928455 -1.063549
v -12.067389 -18.928455 2.035101
v -8.598869 -18.928455 -1.433421
v -8.598869 -8.023203 -1.433423
v -12.067389 -8.023203 2.035101
v -10.714164 -18.928455 3.388328
v -10.714162 -8.023202 3.388326
v -7.245644 -18.928455 -0.080196
v -7.245642 -8.023203 -0.080196
v 5.562665 14.073250 -10.649871
v 5.562665 -2.079385 -10.649872
v 10.300396 14.073250 -10.649873
v 10.300396 -2.079385 -10.649874
v 11.705090 -2.079385 -10.649874
v 16.442822 -2.079385 -10.649876
v 16.442822 14.073250 -10.649875
v 11.705090 14.073250 -10.649873
v 5.562665 -2.079385 -8.914921
v 5.562665 14.073250 -8.914920
v 10.300397 14.073250 -8.914922
v 11.705091 14.073250 -8.914922
v 16.442822 14.073250 -8.914924
v 16.442822 -2.079385 -8.914925
v 11.705091 -2.079385 -8.914923
v 10.300397 -2.079385 -8.914923
vn -0.0000 -0.0000 -1.0000
vn -0.0000 -0.0000 1.0000
vn -0.0000 1.0000 -0.0000
vn -1.0000 -0.0000 -0.0000
vn -0.7071 -0.0000 -0.7071
vn 1.0000 -0.0000 -0.0000
vn 0.7071 -0.0000 -0.7071
vn -0.0000 -1.0000 -0.0000
vn 0.7071 -0.0000 0.7071
vn -0.7071 -0.0000 0.7071
vn 0.6639 -0.3441 -0.6639
vn -0.6639 -0.3441 0.6639
vn -0.2998 -0.9057 0.2998
vn 0.2998 -0.9057 -0.2998
vt 0.473706 0.778609
vt 0.226408 0.163127
vt 0.701519 0.921965
vt 0.403200 0.778609
vt 0.795900 0.880922
vt 0.226408 0.270502
vt 0.473706 0.731816
vt 0.754006 0.014613
vt 0.795900 0.921965
vt 0.403200 0.731816
vt 0.701519 0.880922
vt 0.754006 0.121989
vt 0.358349 0.014613
vt 0.795900 0.947215
vt 0.663425 0.731815
vt 0.226408 0.014613
vt 0.772251 0.955635
vt 0.663425 0.802321
vt 0.725167 0.914592
vt 0.226408 0.121989
vt 0.701519 0.906172
vt 0.358349 0.121989
vt 0.483325 0.731815
vt 0.754006 0.163127
vt 0.723090 0.955635
vt 0.633649 0.163127
vt 0.701519 0.947954
vt 0.795900 0.906911
vt 0.633649 0.270502
vt 0.483325 0.802321
vt 0.774328 0.914592
vt 0.754006 0.270502
vt 0.403200 0.741704
vt 0.704218 0.880922
vt 0.239828 0.419015
vt 0.403200 0.768718
vt 0.793200 0.880922
vt 0.754006 0.567530
vt 0.473706 0.741704
vt 0.793200 0.921965
vt 0.239828 0.311640
vt 0.473706 0.768718
vt 0.704218 0.921965
vt 0.754006 0.460155
vt 0.793200 0.906494
vt 0.353301 0.567530
vt 0.726514 0.913736
vt 0.754004 0.600038
vt 0.754006 0.419015
vt 0.772862 0.913736
vt 0.495415 0.600038
vt 0.239828 0.567530
vt 0.704218 0.905797
vt 0.629611 0.419015
vt 0.793200 0.946840
vt 0.629611 0.311640
vt 0.724556 0.954779
vt 0.495415 0.707411
vt 0.239828 0.460155
vt 0.704218 0.947537
vt 0.353301 0.460155
vt 0.770904 0.954779
vt 0.754004 0.707411
vt 0.754006 0.311640
vt 0.261713 0.083781
vt 0.261713 0.018307
vt 0.261713 0.049897
vt 0.643778 0.958988
vt 0.261713 0.052191
vt 0.263119 0.085995
vt 0.437166 0.844192
vt 0.296145 0.049897
vt 0.291635 0.049897
vt 0.663426 0.958988
vt 0.507894 0.957004
vt 0.296145 0.052191
vt 0.291635 0.052191
vt 0.326068 0.018307
vt 0.296145 0.018307
vt 0.291635 0.018307
vt 0.272167 0.098423
vt 0.437166 0.844192
vt 0.296145 0.083781
vt 0.291635 0.083781
vt 0.292326 0.085995
vt 0.437166 0.844192
vt 0.294101 0.103594
vt 0.437166 0.844192
vt 0.316424 0.085995
vt 0.437166 0.844192
vt 0.326068 0.049897
vt 0.527542 0.957004
vt 0.326068 0.052191
vt 0.326068 0.083781
vt 0.325083 0.085995
vt 0.437166 0.844192
vt 0.316035 0.098423
vt 0.437166 0.844192
vt 0.711201 0.395450
vt 0.484009 0.829334
vt 0.687218 0.380808
vt 0.691732 0.380808
vt 0.679246 0.383021
vt 0.484009 0.829334
vt 0.689266 0.400620
vt 0.484009 0.829334
vt 0.657300 0.349218
vt 0.657300 0.380808
vt 0.657300 0.346924
vt 0.658284 0.383021
vt 0.484009 0.829334
vt 0.667332 0.395450
vt 0.484009 0.829334
vt 0.721651 0.315334
vt 0.721651 0.346924
vt 0.721651 0.349218
vt 0.721651 0.380808
vt 0.720244 0.383021
vt 0.484009 0.829334
vt 0.691732 0.315334
vt 0.687218 0.346924
vt 0.691732 0.346924
vt 0.691732 0.349218
vt 0.687218 0.349218
vt 0.657300 0.315334
vt 0.687218 0.315334
vt 0.612813 0.764708
vt 0.612813 0.794940
vt 0.639747 0.764708
vt 0.639747 0.794940
vt 0.684441 0.657318
vt 0.684441 0.611278
vt 0.725459 0.657318
vt 0.725459 0.611278
vt 0.581617 0.764708
vt 0.608552 0.764708
vt 0.581617 0.794940
vt 0.608552 0.794940
vt 0.636931 0.611278
vt 0.677950 0.611278
vt 0.636931 0.657318
vt 0.677950 0.657318
vt 0.433019 0.817178
vt 0.437166 0.844192
vt 0.438705 0.817178
vt 0.437166 0.844192
vt 0.352505 0.868869
vt 0.437166 0.844192
vt 0.336682 0.868869
vt 0.454528 0.817178
vt 0.437166 0.844192
vt 0.473707 0.817178
vt 0.437166 0.844192
vt 0.467766 0.809017
vt 0.453363 0.805622
vt 0.437166 0.844192
vt 0.438960 0.809017
vt 0.437166 0.844192
vt 0.484009 0.829334
vt 0.375521 0.868870
vt 0.446784 0.844191
vt 0.484009 0.829334
vt 0.362123 0.872027
vt 0.484009 0.829334
vt 0.473707 0.844191
vt 0.484009 0.829334
vt 0.369778 0.878608
vt 0.484009 0.829334
vt 0.384575 0.878608
vt 0.453363 0.855748
vt 0.484009 0.829334
vt 0.467766 0.852353
vt 0.434011 0.816829
vt 0.376663 0.810232
vt 0.345407 0.764385
vt 0.438705 0.816829
vt 0.381645 0.810232
vt 0.352505 0.869218
vt 0.398443 0.810232
vt 0.336682 0.869218
vt 0.454528 0.816829
vt 0.417749 0.810232
vt 0.350711 0.731814
vt 0.472715 0.816829
vt 0.341362 0.731814
vt 0.417749 0.837245
vt 0.467214 0.809272
vt 0.453363 0.806006
vt 0.403046 0.837245
vt 0.439512 0.809272
vt 0.354755 0.764385
vt 0.388343 0.837245
vt 0.375601 0.869208
vt 0.395875 0.805622
vt 0.446784 0.844540
vt 0.382316 0.805622
vt 0.341362 0.769941
vt 0.363168 0.872139
vt 0.423402 0.805622
vt 0.354755 0.737372
vt 0.472715 0.844540
vt 0.350711 0.769941
vt 0.393996 0.841857
vt 0.370256 0.878234
vt 0.408699 0.841857
vt 0.384487 0.878234
vt 0.453363 0.855363
vt 0.345407 0.737372
vt 0.423402 0.841857
vt 0.467214 0.852098
vt 0.290088 0.083002
vt 0.703746 0.380029
vt 0.384575 0.910231
vt 0.473706 0.918585
vt 0.703746 0.349998
vt 0.290088 0.052971
vt 0.455007 0.918585
vt 0.263260 0.052971
vt 0.365876 0.910231
vt 0.263260 0.083002
vt 0.378922 0.905621
vt 0.693279 0.380029
vt 0.273726 0.083002
vt 0.360223 0.905621
vt 0.720107 0.380029
vt 0.273726 0.052971
vt 0.449354 0.923197
vt 0.720107 0.349998
vt 0.468053 0.923197
vt 0.693279 0.349998
vt 0.526526 0.957515
vt 0.399050 0.909304
vt 0.473706 0.957083
vt 0.324520 0.052971
vt 0.508910 0.957515
vt 0.417749 0.909304
vt 0.297692 0.052971
vt 0.576784 0.931464
vt 0.297692 0.083002
vt 0.453986 0.957083
vt 0.595484 0.931464
vt 0.324520 0.083002
vt 0.658847 0.380029
vt 0.453986 0.950209
vt 0.589828 0.926854
vt 0.308159 0.083002
vt 0.571131 0.926854
vt 0.685671 0.380029
vt 0.404703 0.904694
vt 0.473706 0.950209
vt 0.658847 0.349998
vt 0.308159 0.052971
vt 0.423402 0.904694
vt 0.685671 0.349998
vt 0.537161 0.931464
vt 0.703746 0.316113
vt 0.290088 0.019086
vt 0.555860 0.931464
vt 0.263260 0.019086
vt 0.263260 0.049117
vt 0.623801 0.926852
vt 0.644794 0.958477
vt 0.290088 0.049117
vt 0.703746 0.346144
vt 0.605102 0.926852
vt 0.662410 0.958477
vt 0.610755 0.931464
vt 0.693279 0.346144
vt 0.273726 0.049117
vt 0.629454 0.931464
vt 0.720107 0.346144
vt 0.273726 0.019086
vt 0.561513 0.926854
vt 0.720107 0.316113
vt 0.542814 0.926854
vt 0.693279 0.316113
vt 0.663426 0.926852
vt 0.669314 0.316113
vt 0.324520 0.019086
vt 0.644726 0.926852
vt 0.297692 0.019086
vt 0.360025 0.841856
vt 0.297692 0.049117
vt 0.669314 0.346144
vt 0.378725 0.841856
vt 0.324520 0.049117
vt 0.657771 0.931464
vt 0.658847 0.316113
vt 0.658847 0.346144
vt 0.373069 0.837246
vt 0.308159 0.019086
vt 0.639073 0.931464
vt 0.685671 0.316113
vt 0.685671 0.346144
vt 0.308159 0.049117
vt 0.354372 0.837246
vt 0.364373 0.740626
vt 0.503481 0.926854
vt 0.638311 0.794428
vt 0.423402 0.936318
vt 0.393582 0.740626
vt 0.638311 0.765220
vt 0.394193 0.868870
vt 0.527543 0.926854
vt 0.614250 0.794428
vt 0.614250 0.765220
vt 0.423402 0.868870
vt 0.399340 0.936318
vt 0.342983 0.808758
vt 0.393582 0.776452
vt 0.607115 0.765220
vt 0.473706 0.882764
vt 0.367044 0.808758
vt 0.583054 0.765220
vt 0.444497 0.882764
vt 0.384575 0.937245
vt 0.583054 0.794428
vt 0.607115 0.794428
vt 0.364373 0.776452
vt 0.360513 0.937245
vt 0.423402 0.939455
vt 0.393582 0.731814
vt 0.723270 0.656539
vt 0.364373 0.731814
vt 0.503481 0.929991
vt 0.723270 0.612056
vt 0.394193 0.877679
vt 0.527543 0.929991
vt 0.686627 0.612056
vt 0.675763 0.612056
vt 0.364373 0.767640
vt 0.360513 0.940382
vt 0.639120 0.612056
vt 0.444497 0.891572
vt 0.384575 0.940382
vt 0.639120 0.656539
vt 0.473706 0.891572
vt 0.367044 0.805622
vt 0.675763 0.656539
vt 0.342983 0.805622
vt 0.393582 0.767640
vt 0.423402 0.877679
vt 0.399340 0.939455
vt 0.686627 0.656539
s 1
g Cube.137_wall_yellow
usemtl wall_yellow
f 21/55/8 15/40/8 3/9/8 5/14/8 6/17/8 9/25/8 10/27/8 1/3/8 16/43/8 23/60/8 22/57/8 24/62/8
f 18/48/2 24/63/2 76/133/2 77/134/2
f 76/133/2 24/63/2 22/58/2 19/51/2 18/48/2 77/134/2 75/132/2 83/140/2 82/139/2 84/141/2 85/142/2 74/131/2
f 75/132/2 74/131/2 85/142/2 83/140/2
f 13/35/6 15/41/6 21/56/6 20/54/6
f 51/103/9 56/110/9 54/108/9 49/101/9 50/102/9 61/117/9 62/118/9
f 64/121/9 65/122/9 59/115/9 58/114/9 24/64/9 18/49/9 20/54/9 21/56/9 68/125/9 55/109/9 53/107/9 54/108/9 56/110/9 57/112/9 52/105/9 48/99/9 62/118/9 61/117/9 60/116/9 66/123/9 50/102/9 49/101/9 67/124/9
f 69/126/9 68/125/9 21/56/9 24/64/9 58/114/9 63/120/9 65/122/9 64/121/9
f 53/107/9 55/109/9 64/121/9 67/124/9
f 16/44/4 14/38/4 17/46/4 23/61/4
f 23/61/10 17/46/10 19/52/10 22/59/10
f 43/91/5 30/72/5 138/283/5 139/286/5
f 36/80/5 31/73/5 131/263/5 128/257/5
f 27/67/5 26/66/5 129/259/5 130/260/5
f 37/82/3 29/71/3 89/151/3 90/153/3
f 52/106/3 57/113/3 96/166/3 97/168/3
f 29/71/3 40/86/3 88/148/3 89/151/3
f 57/113/3 56/111/3 94/162/3 96/166/3
f 56/111/3 51/104/3 93/159/3 94/162/3
f 51/104/3 62/119/3 95/164/3 93/159/3
f 70/127/1 72/129/1 145/302/1 147/306/1
f 79/136/1 81/138/1 151/318/1 148/311/1
f 71/128/1 70/127/1 147/306/1 146/305/1
f 81/138/1 80/137/1 150/317/1 151/318/1
f 87/145/5 86/143/5 99/173/5 100/176/5
f 86/143/5 92/157/5 105/190/5 99/173/5
f 92/157/5 91/155/5 104/188/5 105/190/5
f 91/155/5 90/154/5 103/187/5 104/188/5
f 48/100/3 52/106/3 97/168/3 98/171/3
f 41/88/3 37/82/3 90/153/3 91/156/3
f 62/119/3 48/100/3 98/171/3 95/164/3
f 42/90/3 46/96/3 86/144/3 87/146/3
f 47/98/3 41/88/3 91/156/3 92/158/3
f 40/86/3 42/90/3 87/146/3 88/148/3
f 46/96/3 47/98/3 92/158/3 86/144/3
f 88/149/5 87/147/5 100/178/5 101/180/5
f 89/152/5 88/150/5 101/181/5 102/184/5
f 90/154/5 89/152/5 102/184/5 103/187/5
f 26/66/5 36/80/5 128/257/5 129/259/5
f 31/74/5 27/68/5 130/262/5 131/266/5
f 35/79/5 34/78/5 136/279/5 137/281/5
f 34/78/5 43/91/5 139/286/5 136/279/5
f 30/72/5 35/79/5 137/281/5 138/283/5
f 72/129/1 73/130/1 144/299/1 145/302/1
f 78/135/1 79/136/1 148/311/1 149/314/1
f 80/137/1 78/135/1 149/314/1 150/317/1
f 73/130/1 71/128/1 146/305/1 144/299/1
g Cube.137_m_babyblue
usemtl m_babyblue
f 6/15/1 7/18/1 73/130/1 72/129/1
f 71/128/1 73/130/1 7/18/1 12/30/1 9/23/1 6/15/1 72/129/1 70/127/1 79/136/1 78/135/1 80/137/1 81/138/1
f 79/136/1 70/127/1 71/128/1 81/138/1
f 4/10/2 3/7/2 15/39/2 13/33/2
f 1/1/2 2/4/2 14/36/2 16/42/2
f 17/45/3 14/37/3 2/5/3 11/28/3 12/31/3 7/19/3 8/21/3 4/11/3 13/34/3 20/53/3 18/47/3 19/50/3
f 3/8/4 4/12/4 8/22/4 5/13/4
f 36/80/5 26/66/5 6/16/5 5/13/5 34/78/5 35/79/5 30/72/5 43/91/5 44/93/5 32/76/5 38/83/5 45/94/5 46/95/5 42/89/5 40/85/5 39/84/5 33/77/5 28/69/5 27/67/5 31/73/5
f 43/91/5 34/78/5 5/13/5 8/22/5 7/20/5 6/16/5 26/66/5 27/67/5 28/69/5 25/65/5 39/84/5 40/85/5 29/70/5 37/81/5 41/87/5 47/97/5 46/95/5 45/94/5 44/93/5
f 10/26/6 11/29/6 2/6/6 1/2/6
f 9/24/7 12/32/7 11/29/7 10/26/7
f 64/121/9 55/109/9 141/289/9 143/294/9
f 55/109/9 68/125/9 140/288/9 141/289/9
f 69/126/9 64/121/9 143/294/9 142/293/9
f 59/115/9 65/122/9 132/268/9 133/271/9
f 63/120/9 58/114/9 134/274/9 135/276/9
f 49/101/9 54/108/9 124/243/9 125/248/9
f 32/75/5 44/92/5 120/231/5 121/235/5
f 45/94/5 38/83/5 122/239/5 123/242/5
f 54/108/9 53/107/9 126/251/9 124/243/9
f 33/77/5 39/84/5 112/211/5 113/216/5
f 60/116/9 61/117/9 117/225/9 118/228/9
f 50/102/9 66/123/9 119/230/9 116/222/9
f 39/84/5 25/65/5 115/220/5 112/211/5
f 85/142/2 84/141/2 157/336/2 158/339/2
f 84/141/2 82/139/2 156/333/2 157/336/2
f 82/139/2 83/140/2 155/330/2 156/333/2
f 83/140/2 85/142/2 158/339/2 155/330/2
f 94/163/9 93/160/9 106/193/9 107/198/9
f 95/165/9 98/172/9 111/210/9 108/201/9
f 106/194/3 108/199/3 102/182/3 101/179/3 100/177/3
f 106/194/3 100/177/3 99/174/3 107/196/3
f 105/191/11 109/202/11 107/197/11 99/175/11
f 111/208/12 103/185/12 102/183/12 108/200/12
f 110/205/13 104/189/13 103/186/13 111/209/13
f 109/203/14 105/192/14 104/189/14 110/205/14
f 93/161/9 95/165/9 108/201/9 106/195/9
f 96/167/9 94/163/9 107/198/9 109/204/9
f 97/169/9 96/167/9 109/204/9 110/206/9
f 98/172/9 97/170/9 110/207/9 111/210/9
f 114/218/10 118/226/10 117/223/10 115/220/10
f 114/217/3 113/214/3 119/229/3 118/227/3
f 112/212/7 116/222/7 119/230/7 113/215/7
f 116/221/8 112/213/8 115/219/8 117/224/8
f 61/117/9 50/102/9 116/222/9 117/225/9
f 25/65/5 28/69/5 114/218/5 115/220/5
f 66/123/9 60/116/9 118/228/9 119/230/9
f 28/69/5 33/77/5 113/216/5 114/218/5
f 121/237/10 127/252/10 125/246/10 122/239/10
f 121/236/3 120/232/3 126/249/3 127/253/3
f 123/240/7 124/244/7 126/250/7 120/233/7
f 123/241/8 122/238/8 125/247/8 124/245/8
f 67/124/9 49/101/9 125/248/9 127/254/9
f 38/83/5 32/76/5 121/237/5 122/239/5
f 44/93/5 45/94/5 123/242/5 120/234/5
f 53/107/9 67/124/9 127/254/9 126/251/9
f 129/259/10 134/272/10 133/269/10 130/260/10
f 129/258/3 128/255/3 135/275/3 134/273/3
f 131/264/7 132/268/7 135/276/7 128/256/7
f 131/265/8 130/261/8 133/270/8 132/267/8
f 65/122/9 63/120/9 135/276/9 132/268/9
f 58/114/9 59/115/9 133/271/9 134/274/9
f 137/281/10 142/291/10 143/295/10 138/283/10
f 137/280/3 136/277/3 140/287/3 142/292/3
f 139/284/7 141/289/7 140/288/7 136/278/7
f 139/285/8 138/282/8 143/296/8 141/290/8
f 68/125/9 69/126/9 142/293/9 140/288/9
f 146/303/4 147/307/4 159/342/4 154/327/4
f 159/343/3 147/308/3 145/300/3 152/321/3
f 144/297/6 153/324/6 152/322/6 145/301/6
f 144/298/8 146/304/8 154/328/8 153/325/8
f 150/315/4 149/312/4 157/337/4 156/334/4
f 157/338/3 149/313/3 148/309/3 158/340/3
f 151/319/6 155/331/6 158/341/6 148/310/6
f 151/320/8 150/316/8 156/335/8 155/332/8
f 77/134/2 76/133/2 152/323/2 153/326/2
f 76/133/2 74/131/2 159/344/2 152/323/2
f 74/131/2 75/132/2 154/329/2 159/344/2
f 75/132/2 77/134/2 153/326/2 154/329/2
