# Blender 3.3.0
# www.blender.org
mtllib p_zemin.mtl
g Cube.129_Cube.174
v 78.917084 1.574415 482.907776
v 146.983337 1.574411 482.907745
v 78.917084 2.837504 482.907776
v 146.983337 2.837499 482.907745
v 146.983337 1.574411 430.265381
v 78.917084 2.837504 431.518188
v 95.780937 2.837502 414.716766
v 95.989639 1.574415 414.716766
v 78.917084 1.574415 431.874481
v 146.983337 2.837499 430.254395
v 131.296799 2.837501 414.716736
v 131.355682 1.574411 414.716736
v 131.377167 2.837501 414.716736
v 128.414505 1.574411 416.998413
vn -0.0000 -1.0000 -0.0000
vn 0.7045 0.0133 -0.7096
vn -0.0000 1.0000 -0.0000
vn -1.0000 -0.0000 -0.0000
vn -0.0000 -0.0000 1.0000
vn 1.0000 -0.0000 -0.0000
vn -0.6987 -0.1562 -0.6982
vn -0.0000 -0.0000 -1.0000
vt 0.912939 0.292872
vt 0.757430 0.049405
vt 0.762898 0.535187
vt 0.912939 0.390660
vt 0.762898 0.921452
vt 0.838279 0.348202
vt 0.176648 0.882341
vt 0.762898 0.049405
vt 0.757430 0.535187
vt 0.176648 0.131570
vt 0.757430 0.921452
vt 0.843748 0.348202
vt 0.946516 0.390660
vt 0.957183 0.053787
vt 0.838279 0.049469
vt 0.428303 0.882341
vt 0.762898 0.341032
vt 0.510581 0.696333
vt 0.762898 0.436377
vt 0.926135 0.097175
vt 0.757430 0.436377
vt 0.956434 0.317400
vt 0.928235 0.096720
vt 0.945490 0.292872
vt 0.757430 0.339010
vt 0.959282 0.053787
vt 0.434492 0.131570
vt 0.843748 0.049404
vt 0.959282 0.019602
vt 0.510581 0.304592
vt 0.926135 0.019777
vt 0.957183 0.019730
vt 0.956434 0.368208
vt 0.928235 0.019649
vt 0.926135 0.019602
vt 0.954978 0.363982
s 0
g Cube.129_zemin_pembe
usemtl zemin_pembe
f 1/1/1 9/24/1 8/22/1 14/36/1 12/33/1 5/13/1 2/4/1
f 11/29/2 10/26/2 5/14/2 12/32/2
f 4/10/3 10/27/3 11/30/3 7/18/3 6/16/3 3/7/3
f 3/8/4 6/17/4 9/25/4 1/2/4
f 2/5/5 4/11/5 3/9/5 1/3/5
f 10/28/6 4/12/6 2/6/6 5/15/6
f 8/21/7 9/25/7 6/17/7 7/19/7
f 12/33/1 14/36/1 8/22/1
f 13/35/8 12/34/8 8/23/8 7/20/8 11/31/8
