# Blender 3.3.0
# www.blender.org
mtllib p_tabure.mtl
g liquid_soap.011_Cube.161
v 86.052345 13.012417 440.907837
v 86.052345 15.659870 440.907837
v 86.995613 13.012417 442.186951
v 86.995613 15.659870 442.186951
v 84.773224 13.012417 441.851105
v 84.773224 15.659870 441.851105
v 85.716484 13.012417 443.130219
v 85.716484 15.659870 443.130219
v 86.053902 16.821142 441.454834
v 86.053902 16.964161 441.454834
v 86.295326 16.821142 442.355347
v 86.295326 16.964161 442.355347
v 85.355278 16.821142 441.970032
v 85.355278 16.964161 441.970032
v 86.144234 16.821142 442.466766
v 86.144234 16.964161 442.466766
v 85.876305 16.442171 441.945282
v 85.876305 16.865046 441.945282
v 85.793144 16.442171 441.954620
v 85.793144 16.865046 441.954620
v 85.743492 16.442171 441.887299
v 85.743492 16.865046 441.887299
v 85.776985 16.442171 441.810608
v 85.776985 16.865046 441.810608
v 85.860138 16.442171 441.801270
v 85.860138 16.865046 441.801270
v 85.909790 16.442171 441.868591
v 85.909790 16.865046 441.868591
v 85.960724 15.659866 442.059753
v 85.960724 16.442171 442.059753
v 85.736221 15.659866 442.084961
v 85.736221 16.442171 442.084961
v 85.602150 15.659866 441.903137
v 85.602150 16.442171 441.903137
v 85.692574 15.659866 441.696136
v 85.692574 16.442171 441.696136
v 85.917068 15.659866 441.670929
v 85.917068 16.442171 441.670929
v 86.051147 15.659866 441.852722
v 86.051147 16.442171 441.852722
vn 0.8048 -0.0000 -0.5935
vn 0.5935 -0.0000 0.8048
vn -0.8048 -0.0000 0.5935
vn -0.5935 -0.0000 -0.8048
vn -0.0000 -1.0000 -0.0000
vn -0.0000 1.0000 -0.0000
vn 0.9659 -0.0000 -0.2589
vn -0.5328 -0.0000 0.8462
vn 0.1116 -0.0000 0.9938
vn -0.9164 -0.0000 -0.4003
vn -0.1115 -0.0000 -0.9938
vn 0.9164 -0.0000 0.4002
vn -0.1116 -0.0000 -0.9938
s 1
g liquid_soap.011_m_white
usemtl m_white
f 9//7 10//7 12//7 11//7
f 11//2 12//2 16//2 15//2
f 15//8 16//8 14//8 13//8
f 13//4 14//4 10//4 9//4
f 11//5 15//5 13//5 9//5
f 16//6 12//6 10//6 14//6
f 17//9 18//9 20//9 19//9
f 19//3 20//3 22//3 21//3
f 21//10 22//10 24//10 23//10
f 23//11 24//11 26//11 25//11
f 20//6 18//6 28//6 26//6 24//6 22//6
f 25//1 26//1 28//1 27//1
f 27//12 28//12 18//12 17//12
f 17//5 19//5 21//5 23//5 25//5 27//5
f 29//9 30//9 32//9 31//9
f 31//3 32//3 34//3 33//3
f 33//10 34//10 36//10 35//10
f 35//13 36//13 38//13 37//13
f 32//6 30//6 40//6 38//6 36//6 34//6
f 37//1 38//1 40//1 39//1
f 39//12 40//12 30//12 29//12
f 29//5 31//5 33//5 35//5 37//5 39//5
g liquid_soap.011_m_koyupembe
usemtl m_koyupembe
f 1//1 2//1 4//1 3//1
f 3//2 4//2 8//2 7//2
f 7//3 8//3 6//3 5//3
f 5//4 6//4 2//4 1//4
f 3//5 7//5 5//5 1//5
f 8//6 4//6 2//6 6//6
g chair.012_Cube.172
v 85.719910 2.748485 446.560760
v 85.531296 12.447043 444.061615
v 85.899940 2.633831 446.127258
v 85.807884 12.270893 443.395630
v 86.168297 2.795533 446.734528
v 86.220177 12.519320 444.328613
v 86.348335 2.680871 446.301025
v 86.496765 12.343167 443.662628
v 82.513565 2.749184 440.924408
v 84.669617 12.506718 441.621033
v 82.951103 2.633982 441.093964
v 85.341827 12.329721 441.881531
v 82.338959 2.749187 441.374939
v 84.401360 12.506716 442.313202
v 82.776512 2.633979 441.544495
v 85.073563 12.329725 442.573730
v 88.997528 2.795538 439.434418
v 87.414505 12.519327 441.246948
v 88.838417 2.680881 439.876007
v 87.170059 12.343174 441.925354
v 88.549133 2.748493 439.260651
v 86.725624 12.447048 440.979950
v 88.390022 2.633838 439.702240
v 86.481171 12.270903 441.658386
v 87.099548 12.249459 438.850739
v 87.099548 13.010424 438.850739
v 89.476898 12.249458 441.805908
v 89.476891 13.010427 441.805939
v 88.106316 12.249459 445.342346
v 88.106308 13.010427 445.342377
v 84.358383 12.249460 445.923645
v 84.358383 13.010427 445.923615
v 81.981033 12.249459 442.968445
v 81.981033 13.010427 442.968445
v 83.351616 12.249458 439.432007
v 83.351616 13.010427 439.432007
vn -0.9279 -0.1099 -0.3563
vn 0.3726 -0.2498 -0.8938
vn 0.9279 0.0849 0.3629
vn -0.3725 0.2248 0.9004
vn 0.0020 -0.9665 0.2565
vn -0.0020 0.9665 -0.2565
vn 0.3584 -0.0126 -0.9335
vn 0.9026 -0.2510 0.3498
vn -0.3642 -0.0126 0.9312
vn -0.9083 0.2258 -0.3520
vn -0.2223 -0.9712 -0.0862
vn 0.2223 0.9712 0.0862
vn 0.9302 0.0849 0.3572
vn -0.3270 -0.2498 0.9114
vn -0.9257 -0.1099 -0.3620
vn 0.3315 0.2248 -0.9163
vn 0.1743 -0.9665 -0.1881
vn -0.1743 0.9665 0.1881
vn 0.7792 -0.0000 -0.6268
vn 0.9324 -0.0000 0.3614
vn 0.1533 -0.0000 0.9882
vn -0.7792 -0.0000 0.6268
vn -0.0000 1.0000 -0.0000
vn -0.9324 -0.0000 -0.3614
vn -0.1533 -0.0000 -0.9882
vn -0.0000 -1.0000 -0.0000
s 1
g chair.012_m_beyaz
usemtl m_beyaz
f 41//14 42//14 44//14 43//14
f 43//15 44//15 48//15 47//15
f 47//16 48//16 46//16 45//16
f 45//17 46//17 42//17 41//17
f 43//18 47//18 45//18 41//18
f 48//19 44//19 42//19 46//19
f 49//20 50//20 52//20 51//20
f 51//21 52//21 56//21 55//21
f 55//22 56//22 54//22 53//22
f 53//23 54//23 50//23 49//23
f 51//24 55//24 53//24 49//24
f 56//25 52//25 50//25 54//25
f 57//26 58//26 60//26 59//26
f 59//27 60//27 64//27 63//27
f 63//28 64//28 62//28 61//28
f 61//29 62//29 58//29 57//29
f 59//30 63//30 61//30 57//30
f 64//31 60//31 58//31 62//31
f 65//32 66//32 68//32 67//32
f 67//33 68//33 70//33 69//33
f 69//34 70//34 72//34 71//34
f 71//35 72//35 74//35 73//35
f 68//36 66//36 76//36 74//36 72//36 70//36
f 73//37 74//37 76//37 75//37
f 75//38 76//38 66//38 65//38
f 65//39 67//39 69//39 71//39 73//39 75//39
