# Blender 3.3.0
# www.blender.org
mtllib b_duvar.mtl
g Cube.149_Cube.198
v 51.444374 -20.632994 58.100204
v 51.444374 18.357157 58.100204
v -16.637596 -20.632994 58.100235
v -16.637596 18.357157 58.100235
v -16.637596 -20.633005 6.945387
v 0.421211 -20.633007 -10.113436
v 0.421211 18.357141 -10.113436
v -16.637596 18.357145 6.945387
v 35.883247 -20.633007 -10.113451
v 51.444374 -20.633005 5.447676
v 51.444374 18.357145 5.447660
v 35.883247 18.357141 -10.113451
v -14.690208 18.357157 58.100235
v 49.496986 18.357157 58.100204
v -14.690208 -20.632994 58.100235
v 49.496986 -20.632994 58.100204
v 49.496986 18.357145 6.292418
v 1.392708 18.357141 -8.378496
v 34.826057 18.357141 -8.378496
v -14.690208 18.357145 7.704451
v -14.690208 -20.633005 7.704451
v 34.826057 -20.633007 -8.378496
v 49.496986 -20.633005 6.292418
v 1.392708 -20.633007 -8.378481
v -4.143364 4.483189 -5.548861
v -4.143364 -19.291937 -5.548861
v -4.143364 -7.820998 -5.548861
v -4.143364 -6.987750 -5.548861
v -4.325279 5.286810 -5.366945
v -8.595238 -7.820997 -1.096987
v -8.011894 -7.820997 -1.680346
v -8.595238 -6.987749 -1.096987
v -8.011894 -6.987749 -1.680346
v -12.463768 -19.291935 2.771528
v -8.595238 -19.291937 -1.096987
v -8.011894 -19.291937 -1.680346
v -5.494926 9.800058 -4.197298
v -8.595238 4.483189 -1.096987
v -8.011894 4.483189 -1.680346
v -8.101433 5.286810 -1.590807
v -8.330833 11.677546 -1.361391
v -11.217094 5.286812 1.524855
v -12.463768 -7.820997 2.771528
v -12.463768 -6.987749 2.771528
v -12.463768 4.483191 2.771528
v -12.336388 5.286812 2.644163
v -11.166740 9.800060 1.474516
v -4.141685 9.800058 -2.844072
v -7.241997 4.483191 0.256239
v -6.658653 4.483191 -0.327120
v -8.272972 5.286812 1.287214
v -6.977592 11.677549 -0.008165
v -11.110527 -6.987748 4.124754
v -11.110527 4.483191 4.124754
v -11.110527 -7.820996 4.124754
v -10.983147 5.286812 3.997389
v -9.813530 9.800060 2.827742
v -2.790123 -19.291937 -4.195635
v -2.790123 -7.820998 -4.195635
v -2.790123 -6.987750 -4.195635
v -2.790123 4.483189 -4.195635
v -2.972069 5.286810 -4.013720
v -6.658653 -19.291937 -0.327120
v -7.241997 -7.820997 0.256239
v -6.658653 -7.820997 -0.327120
v -6.658653 -6.987749 -0.327120
v -7.241997 -6.987749 0.256239
v -11.110527 -19.291935 4.124769
v -7.241997 -19.291937 0.256239
v 10.386879 -2.442865 -10.113436
v 10.386879 14.275457 -10.113436
v 5.083443 -2.442865 -10.113436
v 5.083443 14.275457 -10.113436
v 10.386879 -2.442865 -8.378496
v 10.386879 14.275457 -8.378481
v 5.083443 -2.442865 -8.378496
v 5.083443 14.275457 -8.378481
v 16.529305 -2.442865 -10.113451
v 11.225868 -2.442865 -10.113436
v 16.529305 14.275457 -10.113436
v 11.225868 14.275457 -10.113436
v 16.529305 14.275457 -8.378496
v 11.225868 14.275457 -8.378481
v 16.529305 -2.442865 -8.378496
v 11.225868 -2.442865 -8.378496
v -12.336388 5.286812 2.644163
v -11.217094 5.286812 1.524855
v -8.101433 5.286810 -1.590807
v -4.325279 5.286810 -5.366945
v -5.494926 9.800058 -4.197298
v -8.330833 11.677546 -1.361391
v -11.166740 9.800060 1.474516
v -8.272972 5.286812 1.287214
v -10.983147 5.286812 3.997389
v -2.972069 5.286810 -4.013720
v -9.813530 9.800060 2.827742
v -6.977592 11.677549 -0.008165
v -4.141685 9.800058 -2.844072
v -12.141380 5.479452 2.449156
v -11.217094 5.479452 1.524855
v -8.101433 5.479450 -1.590807
v -4.520287 5.479450 -5.171938
v -5.603508 9.659243 -4.088717
v -8.330833 11.464842 -1.361391
v -11.058159 9.659245 1.365934
v -8.272972 5.479452 1.287214
v -10.788139 5.479452 3.802382
v -3.167046 5.479450 -3.818712
v -9.704918 9.659245 2.719160
v -6.977592 11.464846 -0.008165
v -4.250267 9.659243 -2.735491
v -7.811882 4.200346 -1.880342
v -7.811882 -6.704906 -1.880342
v -4.343376 -6.704907 -5.348864
v -4.343376 4.200346 -5.348864
v -6.458641 4.200346 -0.527117
v -2.990135 4.200346 -3.995638
v -2.990135 -6.704906 -3.995638
v -6.458641 -6.704906 -0.527117
v -12.263756 -6.704906 2.571531
v -8.795219 -6.704906 -0.896990
v -8.795219 4.200346 -0.896990
v -12.263756 4.200348 2.571531
v -10.910515 4.200348 3.924757
v -7.442009 4.200348 0.456236
v -10.910515 -6.704906 3.924757
v -7.442009 -6.704906 0.456236
v -7.811882 -19.009094 -1.880342
v -4.343376 -19.009094 -5.348864
v -4.343376 -8.103841 -5.348864
v -7.811882 -8.103840 -1.880342
v -6.458641 -8.103840 -0.527117
v -2.990135 -8.103840 -3.995638
v -2.990135 -19.009094 -3.995638
v -6.458672 -19.009092 -0.527117
v -12.263756 -19.009092 2.571531
v -8.795219 -19.009092 -0.896990
v -8.795219 -8.103840 -0.896990
v -12.263756 -8.103840 2.571531
v -10.910515 -19.009092 3.924757
v -10.910515 -8.103839 3.924757
v -7.442009 -19.009092 0.456236
v -7.442009 -8.103840 0.456236
v 5.366310 13.992613 -10.113436
v 5.366310 -2.160023 -10.113436
v 10.104042 13.992613 -10.113436
v 10.104042 -2.160023 -10.113436
v 11.508736 -2.160023 -10.113436
v 16.246468 -2.160023 -10.113451
v 16.246468 13.992613 -10.113436
v 11.508736 13.992613 -10.113436
v 5.366310 -2.160023 -8.378496
v 5.366310 13.992613 -8.378481
v 10.104042 13.992613 -8.378481
v 11.508736 13.992613 -8.378481
v 16.246468 13.992613 -8.378496
v 16.246468 -2.160023 -8.378496
v 11.508736 -2.160023 -8.378496
v 10.104042 -2.160023 -8.378496
v 17.678734 -2.912455 -8.829008
v 4.646111 -2.912455 -8.829004
v 17.678734 13.979742 -8.829008
v 4.646112 13.979742 -8.829006
v 17.678730 -2.912455 -9.556618
v 4.646110 -2.912455 -9.556616
v 17.678734 13.979742 -9.556620
v 4.646111 13.979742 -9.556616
v -2.394905 -19.858997 -5.819170
v -11.610355 -19.858997 3.396290
v -2.394905 11.996677 -5.819174
v -11.610355 11.996677 3.396287
v -2.909405 -19.858997 -6.333668
v -12.124855 -19.858997 2.881792
v -2.909405 11.996677 -6.333672
v -12.124855 11.996677 2.881788
vn -0.0000 -0.0000 -1.0000
vn -0.0000 -0.0000 1.0000
vn -0.0000 1.0000 -0.0000
vn -1.0000 -0.0000 -0.0000
vn -0.7071 -0.0000 -0.7071
vn 1.0000 -0.0000 -0.0000
vn 0.7071 -0.0000 -0.7071
vn -0.0000 -1.0000 -0.0000
vn 0.7071 -0.0000 0.7071
vn -0.7071 -0.0000 0.7071
vn 0.6639 -0.3441 -0.6639
vn -0.6639 -0.3441 0.6639
vn -0.2998 -0.9057 0.2998
vn 0.2998 -0.9057 -0.2998
vn 0.7071 -0.0001 0.7071
vt 0.758090 0.236301
vt 0.638675 0.490452
vt 0.322702 0.016041
vt 0.758090 0.424486
vt 0.503522 0.489536
vt 0.729306 0.490452
vt 0.751568 0.016039
vt 0.525783 0.016041
vt 0.322702 0.489536
vt 0.751568 0.204224
vt 0.503522 0.016041
vt 0.616414 0.016041
vt 0.525783 0.371811
vt 0.203795 0.489536
vt 0.616414 0.769161
vt 0.525783 0.490452
vt 0.164143 0.370895
vt 0.525783 0.769161
vt 0.344963 0.134682
vt 0.616414 0.490452
vt 0.384616 0.016041
vt 0.616414 0.371811
vt 0.616414 0.522530
vt 0.638675 0.016041
vt 0.164143 0.124264
vt 0.638675 0.124264
vt 0.200314 0.016041
vt 0.381135 0.489536
vt 0.729306 0.124264
vt 0.525783 0.522530
vt 0.344963 0.381310
vt 0.729306 0.016041
vt 0.758091 0.204224
vt 0.503522 0.029583
vt 0.164143 0.521614
vt 0.751567 0.424486
vt 0.503522 0.475990
vt 0.367665 0.521618
vt 0.758091 0.016039
vt 0.322702 0.475990
vt 0.254773 0.521614
vt 0.751567 0.236301
vt 0.322702 0.029583
vt 0.277034 0.521618
vt 0.383098 0.475990
vt 0.367665 0.881927
vt 0.389926 0.856171
vt 0.348996 0.141438
vt 0.896928 0.680479
vt 0.164143 0.983959
vt 0.348996 0.373959
vt 0.896928 0.928430
vt 0.389926 0.754137
vt 0.386380 0.029583
vt 0.164143 0.872105
vt 0.205560 0.475990
vt 0.254773 0.872105
vt 0.168176 0.131615
vt 0.993572 0.928430
vt 0.480557 0.754137
vt 0.202277 0.029583
vt 0.277034 0.881927
vt 0.480557 0.856171
vt 0.168176 0.364140
vt 0.993572 0.680479
vt 0.254773 0.983959
vt 0.584165 0.458706
vt 0.780351 0.246289
vt 0.528901 0.458706
vt 0.780351 0.016039
vt 0.555564 0.458706
vt 0.780351 0.071404
vt 0.557501 0.458706
vt 0.780351 0.190925
vt 0.586032 0.457439
vt 0.502819 0.561478
vt 0.638675 0.914431
vt 0.555564 0.427746
vt 0.555564 0.431801
vt 0.793308 0.071404
vt 0.793308 0.333732
vt 0.557501 0.427746
vt 0.557501 0.431801
vt 0.793308 0.190925
vt 0.528901 0.400841
vt 0.651632 0.859066
vt 0.638675 0.859066
vt 0.528901 0.427746
vt 0.528901 0.431801
vt 0.793308 0.016039
vt 0.596524 0.449306
vt 0.502819 0.561478
vt 0.793308 0.278367
vt 0.584165 0.427746
vt 0.584165 0.431801
vt 0.793308 0.246289
vt 0.586032 0.431179
vt 0.502819 0.561478
vt 0.600888 0.429585
vt 0.502819 0.561478
vt 0.586032 0.409512
vt 0.502819 0.561478
vt 0.555564 0.400841
vt 0.651632 0.914431
vt 0.557501 0.400841
vt 0.780353 0.333732
vt 0.584165 0.400841
vt 0.780353 0.278367
vt 0.586032 0.401726
vt 0.502819 0.561478
vt 0.596524 0.409859
vt 0.502819 0.561478
vt 0.184033 0.945469
vt 0.502819 0.593557
vt 0.196392 0.923904
vt 0.651632 0.823109
vt 0.196392 0.927963
vt 0.653586 0.823109
vt 0.648180 0.826988
vt 0.502819 0.593557
vt 0.179669 0.925743
vt 0.502819 0.593557
vt 0.223056 0.896999
vt 0.638677 0.767744
vt 0.196392 0.896999
vt 0.638677 0.823109
vt 0.224992 0.896999
vt 0.638677 0.763723
vt 0.639103 0.826988
vt 0.194524 0.897888
vt 0.502819 0.593557
vt 0.184033 0.906021
vt 0.502819 0.593557
vt 0.251656 0.954868
vt 0.780351 0.158846
vt 0.224992 0.954868
vt 0.780351 0.103482
vt 0.223056 0.954868
vt 0.666545 0.767744
vt 0.196392 0.954868
vt 0.666545 0.823109
vt 0.665936 0.826988
vt 0.194524 0.953602
vt 0.502819 0.593557
vt 0.251656 0.927963
vt 0.793308 0.158846
vt 0.224992 0.923904
vt 0.651632 0.763723
vt 0.224992 0.927963
vt 0.793308 0.103482
vt 0.223056 0.927963
vt 0.653586 0.767744
vt 0.223056 0.923904
vt 0.651632 0.767744
vt 0.638677 0.708359
vt 0.251656 0.896999
vt 0.651632 0.708359
vt 0.251656 0.923904
vt 0.574133 0.699852
vt 0.535271 0.699852
vt 0.574133 0.736736
vt 0.535271 0.736736
vt 0.948485 0.747183
vt 0.438275 0.584167
vt 0.907045 0.747183
vt 0.399414 0.584167
vt 0.948485 0.707851
vt 0.438275 0.547283
vt 0.907045 0.707851
vt 0.399414 0.547283
vt 0.574133 0.657133
vt 0.574133 0.694017
vt 0.535271 0.657133
vt 0.535271 0.694017
vt 0.907045 0.792736
vt 0.399414 0.626886
vt 0.907045 0.753405
vt 0.399414 0.590002
vt 0.948485 0.792736
vt 0.438275 0.626886
vt 0.948485 0.753405
vt 0.438275 0.590002
vt 0.502819 0.521614
vt 0.602165 0.856955
vt 0.502819 0.561478
vt 0.502819 0.529400
vt 0.502819 0.561478
vt 0.602165 0.849171
vt 0.502819 0.561478
vt 0.602165 0.827501
vt 0.502819 0.561478
vt 0.602165 0.801239
vt 0.502819 0.561478
vt 0.591674 0.809374
vt 0.587310 0.829098
vt 0.502819 0.561478
vt 0.591674 0.848820
vt 0.502819 0.561478
vt 0.502819 0.593557
vt 0.401409 0.903294
vt 0.773905 0.641743
vt 0.502819 0.593557
vt 0.395942 0.888248
vt 0.502819 0.593557
vt 0.780116 0.676281
vt 0.502819 0.593557
vt 0.389926 0.907860
vt 0.502819 0.593557
vt 0.392163 0.929062
vt 0.768918 0.676281
vt 0.502819 0.593557
vt 0.401367 0.939350
vt 0.503267 0.522970
vt 0.802390 0.821968
vt 0.601717 0.855598
vt 0.503267 0.529400
vt 0.802390 0.829794
vt 0.601717 0.849171
vt 0.802390 0.856169
vt 0.601717 0.827501
vt 0.802390 0.886484
vt 0.774318 0.931729
vt 0.601717 0.802595
vt 0.774318 0.953263
vt 0.450466 0.892258
vt 0.592001 0.810129
vt 0.587805 0.829098
vt 0.450466 0.915345
vt 0.592001 0.848064
vt 0.450466 0.938434
vt 0.401052 0.903854
vt 0.807559 0.847269
vt 0.773485 0.642069
vt 0.807559 0.825977
vt 0.601717 0.846188
vt 0.395978 0.889889
vt 0.807559 0.890493
vt 0.778564 0.928436
vt 0.779468 0.675335
vt 0.592001 0.838654
vt 0.455635 0.934425
vt 0.390407 0.908054
vt 0.455635 0.911337
vt 0.392558 0.928444
vt 0.769097 0.675335
vt 0.778564 0.949971
vt 0.455635 0.888248
vt 0.401409 0.938339
vt 0.792639 0.244924
vt 0.277034 0.947376
vt 0.304465 0.914005
vt 0.792639 0.192290
vt 0.661343 0.769110
vt 0.304465 0.943369
vt 0.781021 0.192290
vt 0.661343 0.821743
vt 0.277034 0.918014
vt 0.781021 0.244924
vt 0.788107 0.244924
vt 0.282203 0.943368
vt 0.654256 0.821743
vt 0.282203 0.914005
vt 0.665875 0.821743
vt 0.309633 0.947376
vt 0.665875 0.769110
vt 0.309633 0.918015
vt 0.788107 0.192290
vt 0.654256 0.769110
vt 0.807547 0.675114
vt 0.781022 0.332366
vt 0.792639 0.332366
vt 0.807547 0.645752
vt 0.558159 0.426353
vt 0.792639 0.279733
vt 0.483065 0.917612
vt 0.583507 0.426353
vt 0.483065 0.888248
vt 0.781022 0.279733
vt 0.639346 0.821743
vt 0.785555 0.279733
vt 0.477896 0.892258
vt 0.583507 0.416943
vt 0.477896 0.921619
vt 0.650963 0.821743
vt 0.802378 0.671106
vt 0.785555 0.332366
vt 0.639346 0.769110
vt 0.558159 0.416943
vt 0.802378 0.641743
vt 0.650963 0.769110
vt 0.751567 0.456566
vt 0.428204 0.888248
vt 0.792639 0.017405
vt 0.785555 0.157481
vt 0.751567 0.485929
vt 0.781021 0.017405
vt 0.785555 0.104847
vt 0.331895 0.918014
vt 0.781021 0.070038
vt 0.428204 0.940884
vt 0.331895 0.947376
vt 0.792639 0.070038
vt 0.423671 0.940884
vt 0.337063 0.943368
vt 0.792639 0.104847
vt 0.337063 0.914005
vt 0.781021 0.104847
vt 0.756736 0.489937
vt 0.781021 0.157481
vt 0.756736 0.460575
vt 0.423671 0.888248
vt 0.792639 0.157481
vt 0.752057 0.927559
vt 0.650963 0.860432
vt 0.752057 0.898197
vt 0.639345 0.860432
vt 0.529559 0.426353
vt 0.639345 0.913065
vt 0.592478 0.918398
vt 0.554906 0.426353
vt 0.592478 0.889034
vt 0.650963 0.913065
vt 0.639346 0.709724
vt 0.746888 0.923552
vt 0.646431 0.860432
vt 0.250998 0.898392
vt 0.639346 0.762358
vt 0.646431 0.913065
vt 0.587310 0.893044
vt 0.650963 0.709724
vt 0.529559 0.416943
vt 0.746888 0.894188
vt 0.250998 0.922516
vt 0.650963 0.762358
vt 0.554906 0.416943
vt 0.587310 0.922405
vt 0.780129 0.786319
vt 0.363359 0.914005
vt 0.535929 0.734770
vt 0.556111 0.956908
vt 0.780129 0.708359
vt 0.573475 0.734770
vt 0.774728 0.522530
vt 0.363359 0.946957
vt 0.535929 0.701818
vt 0.573475 0.701818
vt 0.774728 0.600491
vt 0.556111 0.923958
vt 0.529816 0.956908
vt 0.780129 0.818398
vt 0.573475 0.692049
vt 0.688806 0.831077
vt 0.529816 0.923958
vt 0.573475 0.659100
vt 0.688806 0.909037
vt 0.802390 0.922571
vt 0.535929 0.659100
vt 0.535929 0.692049
vt 0.780129 0.896358
vt 0.802390 0.955521
vt 0.552078 0.956908
vt 0.774318 0.708359
vt 0.437618 0.549250
vt 0.774318 0.786319
vt 0.359325 0.914005
vt 0.400072 0.549250
vt 0.768918 0.522530
vt 0.359325 0.946957
vt 0.400072 0.582201
vt 0.400072 0.591969
vt 0.774318 0.896358
vt 0.806423 0.955521
vt 0.400072 0.624920
vt 0.694617 0.909037
vt 0.806423 0.922571
vt 0.437618 0.624920
vt 0.694617 0.831077
vt 0.525783 0.923958
vt 0.437618 0.591969
vt 0.525783 0.956908
vt 0.774318 0.818398
vt 0.768918 0.600491
vt 0.552078 0.923958
vt 0.437618 0.582201
vt 0.525783 0.891880
vt 0.782043 0.456450
vt 0.799428 0.522531
vt 0.525783 0.801241
vt 0.782043 0.365810
vt 0.802390 0.708359
vt 0.565048 0.891880
vt 0.718570 0.831077
vt 0.799428 0.604060
vt 0.565048 0.801241
vt 0.718570 0.921717
vt 0.802390 0.789889
vt 0.728071 0.798998
vt 0.780351 0.456450
vt 0.796991 0.522531
vt 0.728071 0.708359
vt 0.780351 0.365810
vt 0.804827 0.708359
vt 0.716878 0.831077
vt 0.688806 0.798998
vt 0.796991 0.604060
vt 0.716878 0.921717
vt 0.688807 0.708359
vt 0.804827 0.789889
vt 0.638675 0.522530
vt 0.806271 0.445349
vt 0.752055 0.708359
vt 0.669543 0.522530
vt 0.806271 0.367334
vt 0.744932 0.522530
vt 0.638675 0.676281
vt 0.815571 0.095577
vt 0.752055 0.862110
vt 0.669543 0.676281
vt 0.815571 0.017563
vt 0.744932 0.676281
vt 0.722670 0.522530
vt 0.804305 0.443825
vt 0.750332 0.708359
vt 0.691803 0.522530
vt 0.804305 0.365810
vt 0.746655 0.522530
vt 0.817537 0.094053
vt 0.722670 0.676281
vt 0.750332 0.862110
vt 0.817537 0.016039
vt 0.691803 0.676281
vt 0.746655 0.676281
s 1
g Cube.149_m_y覺rt覺kduvar
usemtl m_y覺rt覺kduvar
f 21/56/8 15/40/8 3/9/8 5/14/8 6/17/8 9/25/8 10/27/8 1/3/8 16/43/8 23/61/8 22/58/8 24/64/8
f 18/49/2 24/65/2 76/167/2 77/169/2
f 76/167/2 24/65/2 22/59/2 19/52/2 18/49/2 77/169/2 75/165/2 83/177/2 82/175/2 84/179/2 85/181/2 74/163/2
f 75/166/2 74/164/2 85/182/2 83/178/2
f 13/35/6 15/41/6 21/57/6 20/55/6
f 51/119/9 56/129/9 54/126/9 49/116/9 50/118/9 61/141/9 62/142/9
f 64/147/9 65/149/9 59/136/9 58/134/9 24/66/9 18/50/9 20/55/9 21/57/9 68/156/9 55/127/9 53/123/9 54/125/9 56/130/9 57/132/9 52/121/9 48/113/9 62/143/9 61/140/9 60/138/9 66/151/9 50/117/9 49/115/9 67/153/9
f 69/158/9 68/156/9 21/57/9 24/66/9 58/134/9 63/145/9 65/149/9 64/147/9
f 53/124/9 55/128/9 64/148/9 67/154/9
f 16/44/4 14/38/4 17/46/4 23/62/4
f 23/63/10 17/47/10 19/53/10 22/60/10
f 43/104/5 30/77/5 138/318/5 139/322/5
f 36/90/5 31/80/5 131/302/5 128/293/5
f 27/72/5 26/70/5 129/296/5 130/299/5
f 37/92/3 29/76/3 89/191/3 90/193/3
f 52/122/3 57/133/3 96/206/3 97/208/3
f 29/76/3 40/98/3 88/189/3 89/191/3
f 57/133/3 56/131/3 94/202/3 96/206/3
f 56/131/3 51/120/3 93/199/3 94/202/3
f 51/120/3 62/144/3 95/204/3 93/199/3
f 70/159/1 72/161/1 145/342/1 147/346/1
f 79/172/1 81/174/1 151/358/1 148/351/1
f 71/160/1 70/159/1 147/346/1 146/345/1
f 81/174/1 80/173/1 150/357/1 151/358/1
f 87/186/5 86/183/5 99/213/5 100/216/5
f 86/184/5 92/197/5 105/229/5 99/215/5
f 92/197/5 91/195/5 104/227/5 105/229/5
f 91/195/5 90/194/5 103/226/5 104/227/5
f 48/114/3 52/122/3 97/208/3 98/211/3
f 41/100/3 37/92/3 90/193/3 91/196/3
f 62/144/3 48/114/3 98/211/3 95/204/3
f 42/102/3 46/110/3 86/185/3 87/187/3
f 47/112/3 41/100/3 91/196/3 92/198/3
f 40/98/3 42/102/3 87/187/3 88/189/3
f 46/110/3 47/112/3 92/198/3 86/185/3
f 88/190/5 87/188/5 100/218/5 101/220/5
f 89/192/5 88/190/5 101/220/5 102/223/5
f 90/194/5 89/192/5 102/223/5 103/226/5
f 26/70/5 36/90/5 128/293/5 129/296/5
f 31/80/5 27/72/5 130/299/5 131/302/5
f 35/87/5 34/86/5 136/314/5 137/316/5
f 34/86/5 43/104/5 139/322/5 136/314/5
f 30/78/5 35/88/5 137/317/5 138/320/5
f 72/161/1 73/162/1 144/339/1 145/342/1
f 78/171/1 79/172/1 148/351/1 149/354/1
f 80/173/1 78/171/1 149/354/1 150/357/1
f 73/162/1 71/160/1 146/345/1 144/339/1
g Cube.149_m_black
usemtl m_black
f 6/15/1 7/18/1 73/162/1 72/161/1
f 71/160/1 73/162/1 7/18/1 12/30/1 9/23/1 6/15/1 72/161/1 70/159/1 79/172/1 78/171/1 80/173/1 81/174/1
f 79/172/1 70/159/1 71/160/1 81/174/1
f 4/10/2 3/7/2 15/39/2 13/33/2
f 1/1/2 2/4/2 14/36/2 16/42/2
f 17/45/3 14/37/3 2/5/3 11/28/3 12/31/3 7/19/3 8/21/3 4/11/3 13/34/3 20/54/3 18/48/3 19/51/3
f 3/8/4 4/12/4 8/22/4 5/13/4
f 36/89/5 26/69/5 6/16/5 5/13/5 34/85/5 35/88/5 30/78/5 43/103/5 44/105/5 32/82/5 38/94/5 45/107/5 46/109/5 42/101/5 40/97/5 39/95/5 33/83/5 28/73/5 27/71/5 31/79/5
f 43/103/5 34/85/5 5/13/5 8/22/5 7/20/5 6/16/5 26/69/5 27/71/5 28/73/5 25/67/5 39/95/5 40/97/5 29/75/5 37/91/5 41/99/5 47/111/5 46/109/5 45/107/5 44/105/5
f 10/26/6 11/29/6 2/6/6 1/2/6
f 9/24/7 12/32/7 11/29/7 10/26/7
f 64/148/9 55/128/9 141/327/9 143/334/9
f 55/128/9 68/155/9 140/323/9 141/327/9
f 69/157/9 64/148/9 143/334/9 142/330/9
f 59/137/9 65/150/9 132/305/9 133/307/9
f 63/146/9 58/135/9 134/309/9 135/312/9
f 49/116/9 54/126/9 124/279/9 125/284/9
f 32/81/5 44/106/5 120/270/5 121/271/5
f 45/108/5 38/93/5 122/274/5 123/278/5
f 54/126/9 53/124/9 126/287/9 124/279/9
f 33/84/5 39/96/5 112/249/5 113/252/5
f 60/139/9 61/141/9 117/263/9 118/265/9
f 50/118/9 66/152/9 119/268/9 116/261/9
f 39/96/5 25/68/5 115/258/5 112/249/5
f 85/182/2 84/180/2 157/376/2 158/379/2
f 84/180/2 82/176/2 156/373/2 157/376/2
f 82/176/2 83/178/2 155/370/2 156/373/2
f 83/178/2 85/182/2 158/379/2 155/370/2
f 94/203/9 93/200/9 106/231/9 107/236/9
f 95/205/9 98/210/9 111/245/9 108/239/9
f 106/232/3 108/237/3 102/221/3 101/219/3 100/217/3
f 106/232/3 100/217/3 99/214/3 107/234/3
f 105/229/11 109/240/11 107/235/11 99/215/11
f 111/246/12 103/224/12 102/222/12 108/238/12
f 110/243/13 104/228/13 103/225/13 111/247/13
f 109/241/14 105/230/14 104/228/14 110/243/14
f 93/201/9 95/205/15 108/239/15 106/233/9
f 96/207/9 94/203/9 107/236/9 109/242/9
f 97/209/9 96/207/9 109/242/9 110/244/9
f 98/212/9 97/209/9 110/244/9 111/248/9
f 114/253/10 118/265/10 117/263/10 115/256/10
f 114/254/3 113/251/3 119/266/3 118/264/3
f 112/249/7 116/259/7 119/267/7 113/252/7
f 116/260/8 112/250/8 115/257/8 117/262/8
f 61/141/9 50/118/9 116/261/9 117/263/9
f 25/68/5 28/74/5 114/255/5 115/258/5
f 66/152/9 60/139/9 118/265/9 119/268/9
f 28/74/5 33/84/5 113/252/5 114/255/5
f 121/273/10 127/288/10 125/282/10 122/276/10
f 121/272/3 120/269/3 126/285/3 127/289/3
f 123/278/7 124/280/7 126/286/7 120/270/7
f 123/277/8 122/275/8 125/283/8 124/281/8
f 67/154/9 49/116/9 125/284/9 127/290/9
f 38/94/5 32/82/5 121/273/5 122/276/5
f 44/106/5 45/108/5 123/278/5 120/270/5
f 53/124/9 67/154/9 127/290/9 126/287/9
f 129/294/10 134/309/10 133/307/10 130/297/10
f 129/295/3 128/291/3 135/310/3 134/308/3
f 131/300/7 132/303/7 135/311/7 128/292/7
f 131/301/8 130/298/8 133/306/8 132/304/8
f 65/150/9 63/146/9 135/312/9 132/305/9
f 58/135/9 59/137/9 133/307/9 134/309/9
f 137/317/10 142/331/10 143/335/10 138/320/10
f 137/315/3 136/313/3 140/324/3 142/332/3
f 139/322/7 141/328/7 140/325/7 136/314/7
f 139/321/8 138/319/8 143/336/8 141/329/8
f 68/156/9 69/158/9 142/333/9 140/326/9
f 146/343/4 147/347/4 159/382/4 154/367/4
f 159/383/3 147/348/3 145/340/3 152/361/3
f 144/337/6 153/364/6 152/362/6 145/341/6
f 144/338/8 146/344/8 154/368/8 153/365/8
f 150/355/4 149/352/4 157/377/4 156/374/4
f 157/378/3 149/353/3 148/349/3 158/380/3
f 151/359/6 155/371/6 158/381/6 148/350/6
f 151/360/8 150/356/8 156/375/8 155/372/8
f 77/170/2 76/168/2 152/363/2 153/366/2
f 76/168/2 74/164/2 159/384/2 152/363/2
f 74/164/2 75/166/2 154/369/2 159/384/2
f 75/166/2 77/170/2 153/366/2 154/369/2
g Cube.149_m_cam
usemtl m_cam
f 160/385/1 161/388/1 163/394/1 162/391/1
f 162/392/8 163/395/8 167/406/8 166/403/8
f 166/404/2 167/407/2 165/400/2 164/397/2
f 164/398/3 165/401/3 161/389/3 160/386/3
f 162/393/4 166/405/4 164/399/4 160/387/4
f 167/408/6 163/396/6 161/390/6 165/402/6
f 168/409/5 169/412/5 171/418/5 170/415/5
f 170/416/8 171/419/8 175/430/8 174/427/8
f 174/428/9 175/431/9 173/424/9 172/421/9
f 172/422/3 173/425/3 169/413/3 168/410/3
f 170/417/10 174/429/10 172/423/10 168/411/10
f 175/432/7 171/420/7 169/414/7 173/426/7
