# Blender 3.3.0
# www.blender.org
mtllib b_koltuk.mtl
g Cube.147_Mesh
v 2.165108 3.753842 -3.998882
v 6.018613 -0.954499 0.961687
v 6.429491 -2.270976 0.666799
v -1.817646 -0.911250 0.814306
v -0.150731 -1.415498 -1.630777
v 2.261031 -1.126367 6.345544
v 1.464430 -2.059344 -3.467128
v -0.104635 4.301112 -4.588836
v -0.444277 -2.986095 -4.710834
v -2.240682 5.580656 0.768488
v -4.546944 -1.235437 0.552585
v -4.390905 -1.282100 0.345553
v -2.199001 4.731340 -0.898093
v 1.713364 -2.024895 -3.052068
v -1.060183 4.298474 -2.616989
v 0.838562 -3.291554 -2.870814
v 5.596773 -0.846138 0.602383
v -2.744832 5.130311 1.666844
v 2.485291 -1.679164 -2.361233
v -1.364502 4.690611 1.173112
v 1.674941 3.661027 -3.126855
v 1.625643 4.282288 -3.588758
v 0.206114 4.164682 -3.696461
v -2.078110 4.761143 0.095190
v -1.624149 5.296414 0.973190
v -1.951475 -0.389911 3.371309
v 1.463210 3.930127 -4.615993
v 6.387061 -1.399824 0.804188
v 2.067123 0.208042 6.123490
v 6.094938 -2.267768 1.255017
v 6.177353 -1.730266 1.261997
v -0.802840 -3.630580 -4.020252
v -5.071445 -1.789291 1.472845
v -1.107989 3.908882 -5.921087
v -5.309614 4.297192 -0.078501
v 6.322176 -1.159552 0.332127
v -2.993559 -0.723137 2.758855
v 1.877592 -0.673875 6.444697
v 5.871758 -2.553006 0.774085
v -0.665113 2.508281 -6.117126
v -2.017088 3.875750 -0.435153
v -0.066810 3.284616 -3.019776
v -1.345086 4.006934 1.681869
v 2.129962 3.350442 -3.195763
v 2.287928 3.274940 -3.499773
v -1.264710 3.626827 -1.905542
v -0.671893 3.408244 -2.553133
v 1.643958 2.988930 -4.481129
v -1.822072 -0.870666 1.569449
v -1.178771 -0.598468 2.482703
v 2.203959 -1.727962 -2.910969
v -1.075048 -1.047364 -0.708473
v -2.781373 5.583240 1.168192
v -2.108736 5.511651 1.573814
v -4.664314 -1.200339 0.708312
v -1.670138 4.478128 2.004867
v -1.863868 5.167245 1.809533
v 2.336376 -0.294670 6.265612
v -3.058012 5.206689 -0.534124
v -0.797358 3.432230 -6.214435
v -5.235922 4.972025 -0.391111
v -4.958838 -2.260329 1.454527
v 0.837664 -1.670722 -2.004214
v -1.497091 -1.064546 0.024809
v 2.076541 -1.533263 -1.808360
v 2.378956 -1.539769 -2.031810
v -1.158781 -0.352403 2.769200
v 1.591215 4.333941 -4.189296
v 1.821755 -1.387645 6.099246
v 1.809358 0.278269 5.616850
v 6.381304 -1.969534 0.299799
v -1.507376 -0.418369 3.243474
v -3.438520 -2.136977 2.328904
v -1.446027 4.878701 1.443278
v 2.041666 4.066486 -3.566913
v -1.736916 3.723861 -1.139098
v 0.586280 3.241952 -3.235977
v -0.524152 -2.437346 -4.785038
v -4.546944 -1.235438 0.552585
v -4.390905 -1.282099 0.345553
v -4.390905 -1.282100 0.345553
v -2.061066 4.562668 2.132166
v 2.357556 -0.768059 6.331838
v -5.069404 5.116813 -0.672285
v -4.777732 -2.459918 1.259217
v -4.332149 -1.299670 0.267594
v -0.524303 -3.426991 -4.478657
v -9.600850 -4.288110 -5.529018
v -6.590492 -4.238255 -5.950347
v -9.651285 -4.290193 -6.102588
v -6.671574 -4.240200 -6.525475
v -9.591283 -4.856678 -5.527833
v -6.580933 -4.806825 -5.949772
v -9.641716 -4.858762 -6.101402
v -6.662015 -4.808770 -6.524899
v -5.400405 -4.288101 0.037505
v -3.556674 -4.238246 -2.379194
v -5.839648 -4.290184 -0.334773
v -4.018800 -4.240191 -2.731024
v -5.392768 -4.856669 0.031618
v -3.549475 -4.806816 -2.385508
v -5.832013 -4.858752 -0.340660
v -4.011600 -4.808761 -2.737338
v -0.731260 -4.288114 -11.725945
v -2.509378 -4.238259 -9.260571
v -0.282170 -4.290196 -11.365607
v -2.037963 -4.240204 -8.921287
v -0.738736 -4.856682 -11.719856
v -2.516406 -4.806828 -9.254066
v -0.289646 -4.858765 -11.359518
v -2.044990 -4.808774 -8.914782
vn 0.7006 -0.3690 -0.6108
vn -0.5342 -0.2746 -0.7995
vn 0.6373 -0.5241 -0.5650
vn 0.8759 0.2615 -0.4054
vn 0.7864 0.6066 -0.1166
vn 0.9761 0.1914 -0.1032
vn 0.2800 -0.9599 0.0096
vn 0.9371 -0.2970 0.1832
vn 0.7622 -0.3548 0.5414
vn 0.8447 0.3790 0.3780
vn 0.6089 0.4572 0.6482
vn 0.7829 0.3082 0.5405
vn 0.9004 0.4038 0.1619
vn 0.7869 0.5508 -0.2781
vn 0.9046 -0.3842 0.1845
vn 0.3760 -0.1921 0.9065
vn 0.1989 0.7173 0.6677
vn -0.3078 0.9071 0.2871
vn -0.4384 0.4551 0.7751
vn 0.2808 0.7904 0.5444
vn 0.1267 0.9801 -0.1530
vn 0.2855 0.7536 0.5920
vn 0.2189 0.8470 0.4844
vn 0.3868 0.8683 -0.3105
vn 0.7431 0.5012 0.4434
vn 0.8931 0.3012 -0.3341
vn 0.5277 0.3320 -0.7819
vn 0.8378 0.0763 0.5406
vn 0.6977 0.6549 0.2904
vn 0.8933 0.2421 0.3787
vn 0.8211 0.5240 -0.2264
vn 0.6893 0.2864 0.6655
vn 0.3583 0.6803 0.6394
vn 0.6824 0.0303 0.7304
vn 0.4811 -0.3210 0.8158
vn 0.7951 -0.2207 -0.5649
vn -0.9348 -0.1634 -0.3154
vn -0.2510 0.0313 0.9675
vn -0.5775 0.1960 0.7925
vn -0.8941 -0.3173 -0.3159
vn -0.1088 0.9903 0.0861
vn 0.1422 -0.9891 0.0387
vn -0.1913 -0.7464 0.6374
vn -0.1649 -0.8678 0.4687
vn 0.1707 0.9443 -0.2815
vn 0.7317 -0.5124 -0.4495
vn 0.6569 -0.0781 -0.7499
vn 0.0365 0.3306 0.9431
vn 0.1804 0.4254 0.8868
vn -0.6223 -0.1931 -0.7586
vn -0.6209 -0.0649 -0.7812
vn 0.7912 0.3119 0.5260
vn -0.8321 -0.1875 -0.5220
vn 0.8048 0.1755 0.5670
vn -0.8048 -0.1756 -0.5670
vn -0.8056 -0.1753 -0.5659
vn -0.7836 0.1001 -0.6132
vn -0.8048 -0.1755 -0.5670
vn -0.7741 -0.1852 -0.6054
vn 0.0031 -0.3367 0.9416
vn 0.0673 0.3407 0.9378
vn 0.8965 0.1616 0.4124
vn 0.8884 0.0022 0.4591
vn 0.8041 0.0199 0.5941
vn 0.9474 0.1914 0.2565
vn 0.7509 0.2632 0.6057
vn 0.5199 0.3260 0.7896
vn 0.6909 0.2704 0.6704
vn 0.5265 0.6275 0.5736
vn 0.7085 0.2625 0.6550
vn 0.5592 0.5360 0.6325
vn 0.2873 0.9259 -0.2452
vn 0.1818 0.9714 -0.1525
vn 0.7843 0.5803 0.2193
vn 0.8113 -0.5839 -0.0308
vn -0.8313 0.1176 -0.5433
vn -0.9208 0.0403 -0.3879
vn -0.9331 -0.0935 -0.3471
vn -0.7206 0.0853 -0.6881
vn -0.7141 -0.4499 -0.5364
vn -0.8004 -0.4230 -0.4248
vn 0.9762 0.1541 0.1526
vn 0.6996 0.5389 0.4692
vn 0.8577 0.3452 0.3810
vn -0.6223 -0.3851 -0.6815
vn 0.8077 0.2406 0.5383
vn 0.8754 0.2212 0.4298
vn -0.0171 0.9999 -0.0021
vn -0.0167 0.9999 -0.0011
vn -0.1406 -0.0044 -0.9901
vn -0.1405 -0.0034 -0.9901
vn 0.0167 -0.9999 0.0011
vn 0.0171 -0.9999 0.0021
vn 0.1386 0.0034 0.9903
vn 0.1387 0.0044 0.9903
vn -0.9960 -0.0166 0.0876
vn 0.9901 0.0165 -0.1396
vn -0.0132 0.9999 0.0107
vn -0.0130 0.9999 0.0108
vn -0.0136 0.9999 0.0105
vn -0.7963 -0.0043 -0.6049
vn -0.7962 -0.0035 -0.6050
vn -0.7963 -0.0044 -0.6049
vn 0.0130 -0.9999 -0.0108
vn 0.0132 -0.9999 -0.0107
vn 0.0136 -0.9999 -0.0105
vn 0.7950 0.0035 0.6066
vn 0.7951 0.0043 0.6065
vn 0.7951 0.0044 0.6064
vn -0.6464 -0.0166 0.7628
vn 0.6056 0.0165 -0.7956
vn 0.0129 0.9999 -0.0111
vn 0.0127 0.9999 -0.0112
vn 0.0134 0.9999 -0.0109
vn 0.8122 -0.0035 0.5833
vn 0.8122 -0.0043 0.5834
vn 0.8121 -0.0044 0.5835
vn -0.0127 -0.9999 0.0112
vn -0.0129 -0.9999 0.0111
vn -0.0134 -0.9999 0.0109
vn -0.8110 0.0042 -0.5850
vn -0.8111 0.0035 -0.5849
vn -0.8110 0.0044 -0.5850
vn 0.6257 -0.0166 -0.7799
vn -0.5840 0.0165 0.8116
vn -0.0167 0.9999 -0.0010
vn 0.0167 -0.9999 0.0010
vn 0.1386 0.0033 0.9903
vn -0.0126 0.9999 0.0110
vn -0.7962 -0.0034 -0.6051
vn 0.0126 -0.9999 -0.0110
vn 0.7950 0.0033 0.6066
vn 0.0123 0.9999 -0.0114
vn 0.8123 -0.0034 0.5833
vn -0.0123 -0.9999 0.0114
vn -0.8111 0.0033 -0.5848
vt 0.624988 0.772348
vt 0.646914 0.750297
vt 0.837562 0.718947
vt 0.868998 0.743509
vt 0.625000 0.996906
vt 0.625000 0.003582
vt 0.825647 0.573400
vt 0.824203 0.666648
vt 0.875000 0.513278
vt 0.625000 0.237003
vt 0.611426 0.956271
vt 0.831786 0.750454
vt 0.564986 0.696023
vt 0.378997 0.974270
vt 0.624729 0.530268
vt 0.168214 0.530239
vt 0.168214 0.538649
vt 0.628662 0.581672
vt 0.618964 0.963942
vt 0.831786 0.734866
vt 0.625566 0.643868
vt 0.555974 0.024956
vt 0.832397 0.715301
vt 0.631228 0.498704
vt 0.621468 0.479774
vt 0.624999 0.956784
vt 0.829861 0.742373
vt 0.663340 0.540657
vt 0.660751 0.713618
vt 0.637811 0.719542
vt 0.630678 0.692174
vt 0.644888 0.553199
vt 0.637169 0.535460
vt 0.624870 0.293558
vt 0.830403 0.504278
vt 0.618138 0.756600
vt 0.848291 0.732440
vt 0.625000 0.978393
vt 0.625000 0.291257
vt 0.836552 0.509381
vt 0.875000 0.724591
vt 0.625000 0.025910
vt 0.858235 0.720239
vt 0.375000 0.018711
vt 0.134180 0.726519
vt 0.375000 1.000000
vt 0.377744 0.270269
vt 0.168214 0.499916
vt 0.375000 0.731126
vt 0.375000 0.471936
vt 0.168214 0.500000
vt 0.341982 0.500000
vt 0.625000 0.961536
vt 0.835750 0.746088
vt 0.611006 0.292778
vt 0.831786 0.502021
vt 0.871274 0.500000
vt 0.625000 0.259772
vt 0.625000 0.018569
vt 0.375100 0.792560
vt 0.323524 0.686677
vt 0.668105 0.573333
vt 0.668405 0.679778
vt 0.682589 0.532195
vt 0.668760 0.726648
vt 0.666897 0.738909
vt 0.664278 0.626513
vt 0.667103 0.655720
vt 0.618143 0.798939
vt 0.829766 0.555826
vt 0.829203 0.536799
vt 0.624081 0.953536
vt 0.820079 0.626483
vt 0.621307 0.512845
vt 0.633736 0.514193
vt 0.375000 0.287960
vt 0.375000 0.319375
vt 0.168214 0.523913
vt 0.671130 0.515723
vt 0.645806 0.515121
vt 0.625000 0.271607
vt 0.850408 0.513218
vt 0.575724 0.556281
vt 0.375000 0.757806
vt 0.375000 0.499403
vt 0.375005 0.248927
vt 0.829332 0.698323
vt 0.824097 0.601926
vt 0.826752 0.718474
vt 0.827067 0.728873
vt 0.823726 0.531624
vt 0.625635 0.733049
vt 0.625000 0.232673
vt 0.832424 0.514287
vt 0.625000 0.983724
vt 0.827375 0.514504
vt 0.550730 0.234095
vt 0.655337 0.531691
vt 0.643958 0.730411
vt 0.667199 0.597338
vt 0.669074 0.696652
vt 0.168214 0.686391
vt 0.375253 0.957251
vt 0.168214 0.530239
vt 0.168214 0.538649
vt 0.168214 0.538649
vt 0.624927 0.460220
vt 0.665906 0.504022
vt 0.864289 0.513598
vt 0.375000 0.514481
vt 0.375000 0.235432
vt 0.138532 0.519203
vt 0.375000 0.381182
vt 0.169952 0.540446
vt 0.375003 0.000000
vt 0.374997 0.995714
vt 0.375000 0.000000
vt 0.375000 1.000000
vt 0.625000 0.000000
vt 0.625000 1.000000
vt 0.875000 0.750000
vt 0.375000 0.250000
vt 0.625000 0.250000
vt 0.875000 0.500000
vt 0.375000 0.750000
vt 0.625000 0.750000
vt 0.375000 0.500000
vt 0.625000 0.500000
vt 0.375000 0.000000
vt 0.375000 1.000000
vt 0.625000 0.000000
vt 0.625000 1.000000
vt 0.875000 0.750000
vt 0.375000 0.250000
vt 0.625000 0.250000
vt 0.875000 0.500000
vt 0.375000 0.750000
vt 0.625000 0.750000
vt 0.375000 0.500000
vt 0.625000 0.500000
vt 0.375000 0.000000
vt 0.375000 1.000000
vt 0.625000 0.000000
vt 0.625000 1.000000
vt 0.875000 0.750000
vt 0.375000 0.250000
vt 0.625000 0.250000
vt 0.875000 0.500000
vt 0.375000 0.750000
vt 0.625000 0.750000
vt 0.375000 0.500000
vt 0.625000 0.500000
s 1
g Cube.147_oje_gri
usemtl oje_gri
f 14/19/1 9/14/2 7/11/3
f 24/32/4 25/33/5 20/28/6
f 39/59/7 3/6/8 30/42/9
f 64/88/10 5/8/11 52/73/12
f 4/7/13 49/70/14 64/88/10
f 19/27/15 65/89/16 63/87/17
f 53/74/18 18/25/19 54/75/20
f 8/13/21 23/31/22 22/30/23
f 68/92/24 22/30/23 75/99/25
f 68/92/24 1/1/26 27/36/27
f 30/41/9 3/4/8 31/43/28
f 2/3/29 28/37/30 36/54/31
f 58/82/32 2/3/29 29/40/33
f 58/82/32 83/109/34 31/43/28
f 6/9/35 31/43/28 83/109/34
f 71/95/36 36/53/31 28/38/30
f 9/14/2 14/19/1 71/95/36
f 33/47/37 38/58/38 37/55/39
f 62/86/40 38/58/38 33/47/37
f 38/58/38 29/39/33 37/55/39
f 37/56/39 29/40/33 70/94/41
f 16/22/42 69/93/43 73/97/44
f 16/22/42 3/6/8 39/59/7
f 63/87/17 49/70/14 17/23/45
f 1/1/26 19/26/15 51/72/46
f 48/69/47 51/72/46 7/11/3
f 77/101/48 21/29/49 23/31/22
f 27/36/27 40/60/50 60/84/51
f 37/55/39 18/25/19 33/47/37
f 79/104/52 81/106/53 80/105/54
f 86/114/55 81/106/53 55/78/56
f 55/78/56 79/104/52 11/16/57
f 11/16/57 80/105/54 12/17/58
f 51/72/46 19/26/15 7/11/3
f 40/60/50 9/14/2 78/103/59
f 26/34/60 82/107/61 18/25/19
f 43/64/62 67/91/63 20/28/6
f 66/90/64 45/66/65 44/65/66
f 21/29/49 65/89/16 44/65/66
f 65/89/16 66/90/64 44/65/66
f 5/8/11 42/63/67 47/68/68
f 48/69/47 7/11/3 9/14/2
f 72/96/69 67/91/63 56/79/70
f 82/108/61 57/80/71 18/24/19
f 70/94/41 17/23/45 49/70/14
f 38/57/38 6/9/35 83/109/34
f 5/8/11 49/70/14 63/87/17
f 10/15/72 25/33/5 59/83/73
f 59/83/73 24/32/4 13/18/74
f 54/75/20 25/33/5 10/15/72
f 59/83/73 25/33/5 24/32/4
f 72/96/69 50/71/75 67/91/63
f 53/74/18 84/110/76 61/85/77
f 18/25/19 35/50/78 33/47/37
f 8/13/21 34/49/79 84/110/76
f 16/22/42 73/97/44 32/44/80
f 73/97/44 85/111/81 32/44/80
f 68/92/24 60/84/51 34/49/79
f 73/97/44 62/86/40 85/111/81
f 40/61/50 34/49/79 60/84/51
f 12/17/58 85/112/81 11/16/57
f 78/102/59 85/112/81 86/114/55
f 62/86/40 55/76/56 85/111/81
f 33/47/37 55/76/56 62/86/40
f 35/50/78 86/113/55 55/77/56
f 84/110/76 34/49/79 40/61/50
f 35/50/78 18/25/19 61/85/77
f 68/92/24 27/36/27 60/84/51
f 41/62/82 13/18/74 24/32/4
f 84/110/76 10/15/72 59/83/73
f 15/21/83 59/83/73 13/18/74
f 17/23/45 2/3/29 36/54/31
f 30/42/9 69/93/43 39/59/7
f 15/21/83 23/31/22 8/13/21
f 65/89/16 19/27/15 66/90/64
f 14/20/1 19/27/15 63/87/17
f 14/20/1 7/12/3 19/27/15
f 10/15/72 53/74/18 54/75/20
f 68/92/24 8/13/21 22/30/23
f 68/92/24 75/99/25 1/1/26
f 48/69/47 27/36/27 1/1/26
f 72/96/69 49/70/14 50/71/75
f 31/43/28 3/4/8 28/37/30
f 58/82/32 28/37/30 2/3/29
f 58/82/32 31/43/28 28/37/30
f 31/43/28 6/9/35 30/41/9
f 25/33/5 57/80/71 74/98/84
f 38/58/38 58/81/32 29/39/33
f 71/95/36 14/19/1 36/53/31
f 71/95/36 28/38/30 3/5/8
f 87/116/85 9/14/2 71/95/36
f 3/5/8 87/116/85 71/95/36
f 72/96/69 37/56/39 70/94/41
f 16/22/42 39/59/7 69/93/43
f 14/20/1 63/87/17 17/23/45
f 14/20/1 17/23/45 36/54/31
f 16/22/42 87/115/85 3/6/8
f 48/69/47 1/1/26 51/72/46
f 74/98/84 43/64/62 20/28/6
f 46/67/86 13/18/74 76/100/87
f 74/98/84 56/79/70 43/64/62
f 25/33/5 74/98/84 20/28/6
f 75/99/25 44/65/66 45/66/65
f 21/29/49 75/99/25 22/30/23
f 21/29/49 44/65/66 75/99/25
f 75/99/25 45/66/65 1/2/26
f 23/31/22 47/68/68 42/63/67
f 46/67/86 47/68/68 15/21/83
f 13/18/74 41/62/82 76/100/87
f 49/70/14 41/62/82 24/32/4
f 42/63/67 77/101/48 23/31/22
f 23/31/22 21/29/49 22/30/23
f 27/36/27 48/69/47 40/60/50
f 49/70/14 20/28/6 50/71/75
f 64/88/10 41/62/82 4/7/13
f 79/104/52 55/78/56 81/106/53
f 80/105/54 81/106/53 86/114/55
f 12/17/58 80/105/54 86/114/55
f 11/16/57 79/104/52 80/105/54
f 40/60/50 48/69/47 9/14/2
f 18/25/19 37/55/39 26/34/60
f 56/79/70 67/91/63 43/64/62
f 20/28/6 67/91/63 50/71/75
f 66/90/64 19/27/15 45/66/65
f 45/66/65 19/27/15 1/2/26
f 77/101/48 5/8/11 63/87/17
f 76/100/87 64/88/10 52/73/12
f 52/73/12 5/8/11 47/68/68
f 46/67/86 52/73/12 47/68/68
f 76/100/87 52/73/12 46/67/86
f 21/29/49 63/87/17 65/89/16
f 56/79/70 26/35/60 72/96/69
f 38/58/38 73/97/44 69/93/43
f 82/108/61 56/79/70 57/80/71
f 18/24/19 57/80/71 54/75/20
f 56/79/70 74/98/84 57/80/71
f 72/96/69 70/94/41 49/70/14
f 2/3/29 70/94/41 29/40/33
f 69/93/43 6/10/35 38/58/38
f 35/52/78 84/110/76 86/114/55
f 58/82/32 38/57/38 83/109/34
f 37/56/39 72/96/69 26/35/60
f 18/25/19 53/74/18 61/85/77
f 53/74/18 10/15/72 84/110/76
f 59/83/73 8/13/21 84/110/76
f 87/115/85 16/22/42 32/44/80
f 8/13/21 68/92/24 34/49/79
f 32/45/80 85/112/81 78/102/59
f 40/61/50 86/114/55 84/110/76
f 78/102/59 86/114/55 40/61/50
f 11/16/57 85/112/81 55/78/56
f 12/17/58 86/114/55 85/112/81
f 33/48/37 35/51/78 55/78/56
f 9/14/2 87/116/85 78/103/59
f 87/116/85 32/46/80 78/103/59
f 5/8/11 64/88/10 49/70/14
f 15/21/83 8/13/21 59/83/73
f 30/42/9 6/10/35 69/93/43
f 25/33/5 54/75/20 57/80/71
f 46/67/86 15/21/83 13/18/74
f 23/31/22 15/21/83 47/68/68
f 49/70/14 4/7/13 41/62/82
f 49/70/14 24/32/4 20/28/6
f 64/88/10 76/100/87 41/62/82
f 77/101/48 42/63/67 5/8/11
f 21/29/49 77/101/48 63/87/17
f 56/79/70 82/108/61 26/35/60
f 38/58/38 62/86/40 73/97/44
f 2/3/29 17/23/45 70/94/41
f 35/52/78 61/85/77 84/110/76
g Cube.147_m_koyuahşap
usemtl m_koyuahşap
f 88/117/88 91/123/89 90/122/88
f 90/122/90 95/128/91 94/127/90
f 95/128/92 92/125/93 94/127/93
f 93/126/94 88/118/95 92/125/95
f 90/122/96 92/125/96 88/118/96
f 91/124/97 93/126/97 95/128/97
f 96/129/98 99/135/99 98/134/100
f 98/134/101 103/140/102 102/139/103
f 103/140/104 100/137/105 102/139/106
f 101/138/107 96/130/108 100/137/109
f 98/134/110 100/137/110 96/130/110
f 99/136/111 101/138/111 103/140/111
f 104/141/112 107/147/113 106/146/114
f 107/147/115 110/151/116 106/146/117
f 111/152/118 108/149/119 110/151/120
f 108/149/121 105/144/122 104/142/123
f 110/151/124 104/142/124 106/146/124
f 111/152/125 105/145/125 109/150/125
f 88/117/88 89/119/126 91/123/89
f 90/122/90 91/123/91 95/128/91
f 95/128/92 93/126/127 92/125/93
f 93/126/94 89/120/128 88/118/95
f 90/122/96 94/127/96 92/125/96
f 91/124/97 89/121/97 93/126/97
f 96/129/98 97/131/129 99/135/99
f 98/134/101 99/135/130 103/140/102
f 103/140/104 101/138/131 100/137/105
f 101/138/107 97/132/132 96/130/108
f 98/134/110 102/139/110 100/137/110
f 99/136/111 97/133/111 101/138/111
f 104/141/112 105/143/133 107/147/113
f 107/147/115 111/152/134 110/151/116
f 111/152/118 109/150/135 108/149/119
f 108/149/121 109/150/136 105/144/122
f 110/151/124 108/149/124 104/142/124
f 111/152/125 107/148/125 105/145/125
