# Blender 3.3.0
# www.blender.org
mtllib b_tabure.mtl
g chair.015_Mesh
v 7.281282 -0.696137 -4.897433
v -1.844602 1.248641 -1.253341
v 7.357304 -1.022988 -4.549798
v -1.727808 0.746475 -0.719265
v 7.100565 -1.041651 -5.182776
v -2.122243 0.717809 -1.691747
v 7.176591 -1.368519 -4.835137
v -2.005448 0.215636 -1.157656
v 8.432098 0.524667 1.366298
v -1.554080 1.310317 1.318476
v 8.409964 0.145439 1.067709
v -1.588084 0.727671 0.859753
v 8.463561 0.821807 0.986577
v -1.505739 1.766814 0.735106
v 8.441426 0.442557 0.687989
v -1.539747 1.184187 0.276361
v 6.590728 -5.856253 0.969923
v -2.337471 -1.314629 0.905560
v 6.727864 -5.605981 0.580025
v -2.126782 -0.930128 0.306547
v 6.771444 -5.510733 1.255272
v -2.059827 -0.783798 1.343964
v 6.908579 -5.260460 0.865375
v -1.849145 -0.399279 0.744927
v -1.890060 -1.826295 3.240453
v -2.618421 -1.627552 3.335626
v -2.693350 -3.104034 -0.239047
v -3.421715 -2.905280 -0.143885
v -2.446370 -0.771662 -3.219641
v -3.174733 -0.572909 -3.124480
v -1.396098 2.838448 -2.720735
v -2.124461 3.037191 -2.625562
v -0.592808 4.116176 0.758777
v -1.321171 4.314930 0.853938
v -0.839788 1.783805 3.739371
v -1.568153 1.982558 3.834533
vn 0.3858 0.7128 0.5858
vn 0.3858 0.7127 0.5858
vn 0.1691 -0.6787 0.7147
vn 0.1692 -0.6787 0.7147
vn -0.3622 -0.7173 -0.5952
vn -0.1455 0.6741 -0.7241
vn 0.9140 -0.1762 -0.3655
vn -0.9140 0.1762 0.3655
vn -0.0522 -0.6159 0.7861
vn -0.0329 -0.7858 -0.6176
vn 0.0780 0.6139 -0.7855
vn 0.0587 0.7838 0.6182
vn 0.9968 -0.0762 0.0229
vn -0.9968 0.0762 -0.0229
vn -0.3626 -0.7211 -0.5904
vn 0.2952 0.5118 -0.8068
vn 0.2952 0.5119 -0.8068
vn 0.3854 0.7090 0.5906
vn -0.2724 -0.5240 0.8070
vn 0.8829 -0.4694 0.0092
vn -0.8829 0.4694 -0.0092
vn -0.1975 -0.9046 0.3778
vn -0.2822 -0.7441 -0.6056
vn -0.0847 0.1605 -0.9834
vn 0.1975 0.9046 -0.3778
vn -0.9572 0.2612 0.1251
vn 0.2822 0.7441 0.6056
vn 0.0847 -0.1605 0.9834
vn 0.9572 -0.2612 -0.1251
s 1
g chair.015_m_açıkahşap
usemtl m_açıkahşap
f 1//1 4//2 3//1
f 4//3 7//4 3//4
f 8//5 5//5 7//5
f 5//6 2//6 1//6
f 3//7 5//7 1//7
f 4//8 6//8 8//8
f 9//9 12//9 11//9
f 12//10 15//10 11//10
f 16//11 13//11 15//11
f 13//12 10//12 9//12
f 11//13 13//13 9//13
f 16//14 10//14 14//14
f 17//15 20//15 19//15
f 20//16 23//17 19//17
f 24//18 21//18 23//18
f 22//19 17//19 21//19
f 23//20 17//20 19//20
f 20//21 22//21 24//21
f 26//22 27//22 25//22
f 28//23 29//23 27//23
f 30//24 31//24 29//24
f 31//25 34//25 33//25
f 26//26 34//26 30//26
f 33//27 36//27 35//27
f 35//28 26//28 25//28
f 27//29 31//29 35//29
f 1//1 2//2 4//2
f 4//3 8//3 7//4
f 8//5 6//5 5//5
f 5//6 6//6 2//6
f 3//7 7//7 5//7
f 4//8 2//8 6//8
f 9//9 10//9 12//9
f 12//10 16//10 15//10
f 16//11 14//11 13//11
f 13//12 14//12 10//12
f 11//13 15//13 13//13
f 16//14 12//14 10//14
f 17//15 18//15 20//15
f 20//16 24//16 23//17
f 24//18 22//18 21//18
f 22//19 18//19 17//19
f 23//20 21//20 17//20
f 20//21 18//21 22//21
f 26//22 28//22 27//22
f 28//23 30//23 29//23
f 30//24 32//24 31//24
f 31//25 32//25 34//25
f 30//26 28//26 26//26
f 26//26 36//26 34//26
f 34//26 32//26 30//26
f 33//27 34//27 36//27
f 35//28 36//28 26//28
f 35//29 25//29 27//29
f 27//29 29//29 31//29
f 31//29 33//29 35//29
