# Blender 3.3.0
# www.blender.org
mtllib b_zemin.mtl
g Cube.156_Mesh
v -33.790482 -16.876539 1.529990
v 34.267139 -16.876543 1.529969
v -33.790478 -15.613450 1.529990
v 34.267143 -15.613456 1.529969
v 34.267139 -16.876543 -50.818558
v -33.790478 -15.613450 -49.565746
v -16.911415 -15.613452 -66.367165
v -16.702713 -16.876539 -66.367165
v -33.790482 -16.876539 -49.209438
v 34.267143 -15.613456 -50.829514
v 18.604450 -15.613454 -66.367180
v 18.663322 -16.876543 -66.367180
v 18.684807 -15.613454 -66.367180
v 15.722155 -16.876543 -64.085526
vn -0.0000 -1.0000 -0.0000
vn 0.7039 0.0328 -0.7096
vn -0.0000 1.0000 -0.0000
vn -1.0000 -0.0000 -0.0000
vn -0.0000 -0.0000 1.0000
vn 1.0000 -0.0000 -0.0000
vn -0.7007 -0.1158 -0.7040
vn -0.0000 -0.0000 -1.0000
vn 0.7058 -0.0061 -0.7083
vn -0.6949 -0.1952 -0.6921
vt -0.420051 4.180204
vt -0.420051 -3.180204
vt -2.260153 2.340102
vt -2.260153 0.500000
vt -0.420051 -1.340102
vt 0.729604 1.190447
vt -0.420051 2.340102
vt 0.729604 1.649655
vt -0.420051 0.500000
vt 1.000479 -1.340102
vt 0.383539 1.190447
vt 0.966673 2.340102
vt 0.270396 1.305139
vt 1.420051 1.880517
vt 1.420051 -2.714936
vt 3.260153 1.874834
vt 0.957058 4.180204
vt 0.957058 -3.180204
vt 1.000774 0.500000
vt 0.375029 1.649655
vt 0.270396 1.544577
vt 1.420051 0.921059
vt 1.420051 -1.759557
vt 3.260153 0.919455
vt 1.420051 0.918888
vt 1.358482 -1.839086
s 0
g Cube.156_zemin_kötü
usemtl zemin_kötü
f 9/18/1 14/26/1 5/10/1
f 10/19/2 12/23/2 11/22/2
f 10/20/3 7/13/3 3/6/3
f 3/7/4 9/17/4 1/1/4
f 4/9/6 5/10/6 10/19/6
f 8/15/7 6/12/7 7/14/7
f 12/23/1 14/26/1 8/15/1
f 12/24/8 7/14/8 11/22/8
f 2/5/1 1/2/1 9/18/1
f 9/18/1 8/15/1 14/26/1
f 14/26/1 12/23/1 5/10/1
f 5/10/1 2/5/1 9/18/1
f 10/19/9 5/10/9 12/23/9
f 3/6/3 4/8/3 10/20/3
f 10/20/3 11/21/3 7/13/3
f 7/13/3 6/11/3 3/6/3
f 3/7/4 6/12/4 9/17/4
f 4/9/6 2/5/6 5/10/6
f 8/15/10 9/18/10 6/12/10
f 11/22/8 13/25/8 12/24/8
f 12/24/8 8/16/8 7/14/8
g Cube.156_m_black
usemtl m_black
f 4/9/5 1/3/5 2/4/5
f 4/9/5 3/7/5 1/3/5
