# Blender 3.3.0
# www.blender.org
mtllib queen.mtl
g Cube_Cube
v -67.513229 -3.310379 61.580502
v -67.513229 -0.462952 67.406998
v -74.309669 -0.462952 61.580502
v -67.513229 280.305817 67.406998
v -67.513229 283.153259 61.580502
v -74.309669 280.305817 61.580502
v -67.513229 -3.310379 -54.176006
v -74.309669 -0.462952 -54.176006
v -67.513229 -0.462952 -60.002506
v -67.513229 283.153259 -54.176006
v -67.513229 280.305817 -60.002506
v -74.309669 280.305817 -54.176006
v 67.513229 -3.310379 61.580502
v 74.309669 -0.462952 61.580502
v 67.513229 -0.462952 67.406998
v 67.513229 283.153259 61.580502
v 67.513229 280.305817 67.406998
v 74.309669 280.305817 61.580502
v 67.513229 -3.310379 -54.176006
v 67.513229 -0.462952 -60.002506
v 74.309669 -0.462952 -54.176006
v 67.513229 283.153259 -54.176006
v 74.309669 280.305817 -54.176006
v 67.513229 280.305817 -60.002506
vn -0.0000 -0.0000 1.0000
vn 1.0000 -0.0000 -0.0000
vn -0.0000 1.0000 -0.0000
vn -1.0000 -0.0000 -0.0000
vn -0.0000 -0.0000 -1.0000
vn -0.3523 -0.8409 0.4109
vn -0.3523 0.8409 0.4109
vn -0.3523 -0.8409 -0.4109
vn -0.3523 0.8409 -0.4109
vn 0.3523 -0.8409 0.4109
vn 0.3523 0.8409 0.4109
vn 0.3523 -0.8409 -0.4109
vn 0.3523 0.8409 -0.4109
vn -0.3864 -0.9223 -0.0000
vn -0.6509 -0.0000 0.7592
vn -0.3864 0.9223 -0.0000
vn -0.6509 -0.0000 -0.7592
vn -0.0000 -0.8985 -0.4391
vn -0.0000 0.8984 -0.4391
vn 0.6509 -0.0000 -0.7592
vn 0.3864 -0.9223 -0.0000
vn 0.3864 0.9223 -0.0000
vn 0.6509 -0.0000 0.7592
vn -0.0000 -0.8985 0.4391
vn -0.0000 0.8984 0.4391
vn -0.0000 -1.0000 -0.0000
vt 0.136433 0.738567
vt 0.386433 0.988567
vt 0.386433 0.000000
vt 0.136433 0.750000
vt 0.125000 0.738567
vt 0.386433 0.011433
vt 0.613567 0.000000
vt 0.613567 0.988567
vt 0.863567 0.738567
vt 0.625000 0.011433
vt 0.625000 0.988567
vt 0.613567 0.011433
vt 0.136433 0.511433
vt 0.125000 0.511433
vt 0.386433 0.238567
vt 0.386433 0.261433
vt 0.136433 0.500000
vt 0.863567 0.511433
vt 0.625000 0.238567
vt 0.625000 0.261433
vt 0.613567 0.250000
vt 0.613567 0.261433
vt 0.613567 0.238567
vt 0.363567 0.738567
vt 0.375000 0.738567
vt 0.386433 0.738567
vt 0.386433 0.761433
vt 0.363567 0.750000
vt 0.636433 0.738567
vt 0.625000 0.761433
vt 0.613567 0.761433
vt 0.613567 0.750000
vt 0.613567 0.738567
vt 0.363567 0.511433
vt 0.363567 0.500000
vt 0.386433 0.488567
vt 0.375000 0.511433
vt 0.386433 0.511433
vt 0.625000 0.488567
vt 0.636433 0.511433
vt 0.613567 0.500000
vt 0.613567 0.511433
vt 0.613567 0.488567
s 0
g off
g Cube_pinkkkk
usemtl pinkkkk
f 15/27/1 17/31/1 4/8/1 2/2/1
f 21/38/2 23/42/2 18/33/2 14/26/2
f 22/40/3 10/18/3 5/9/3 16/29/3
f 3/6/4 6/12/4 12/23/4 8/15/4
f 9/16/5 11/22/5 24/43/5 20/36/5
f 1/1/6 2/4/6 3/5/6
f 7/13/8 8/14/8 9/17/8
f 13/24/10 14/25/10 15/28/10
f 19/34/12 20/35/12 21/37/12
f 7/13/14 1/1/14 3/5/14 8/14/14
f 19/34/18 7/13/18 9/17/18 20/35/18
f 13/24/21 19/34/21 21/38/21 14/26/21
f 1/1/24 13/24/24 15/28/24 2/4/24
f 7/13/26 19/34/26 13/24/26 1/1/26
g Cube_yellow
usemtl yellow
f 4/7/7 5/10/7 6/12/7
f 10/19/9 11/21/9 12/23/9
f 16/30/11 17/31/11 18/32/11
f 22/39/13 23/41/13 24/43/13
f 2/3/15 4/7/15 6/12/15 3/6/15
f 5/10/16 10/19/16 12/23/16 6/12/16
f 11/22/17 9/16/17 8/15/17 12/23/17
f 10/20/19 22/39/19 24/43/19 11/22/19
f 23/42/20 21/38/20 20/36/20 24/43/20
f 22/40/22 16/29/22 18/33/22 23/42/22
f 17/31/23 15/27/23 14/26/23 18/33/23
f 16/30/25 5/11/25 4/8/25 17/31/25
