# Blender 3.3.0
# www.blender.org
mtllib k_tablo.mtl
g Plane.018_Plane.019
v 41.910416 19.091728 416.667053
v 51.376572 19.091728 416.831726
v 41.910416 35.396736 416.667053
v 51.376572 35.396736 416.831726
v 41.904892 35.396736 417.123413
v 41.904892 19.091728 417.123413
v 51.371048 19.091728 417.288086
v 51.371048 35.396736 417.288086
v 41.910416 35.396736 416.667053
v 51.376572 35.396736 416.831726
v 51.371048 35.396736 417.288086
v 41.904892 35.396736 417.123413
v 41.910416 19.091728 416.667053
v 41.910416 35.396736 416.667053
v 51.376572 35.396736 416.831726
v 51.376572 19.091728 416.831726
v 41.904892 19.091728 417.123413
v 51.371048 19.091728 417.288086
v 51.371048 35.396736 417.288086
v 41.904892 35.396736 417.123413
v 41.910416 35.396736 416.667053
v 51.376572 35.396736 416.831726
v 51.371048 35.396736 417.288086
v 41.904892 35.396736 417.123413
v 41.910416 19.091728 416.667053
v 41.910416 35.396736 416.667053
v 51.376572 35.396736 416.831726
v 51.376572 19.091728 416.831726
v 41.904892 19.091728 417.123413
v 51.371048 19.091728 417.288086
v 51.371048 35.396736 417.288086
v 41.904892 35.396736 417.123413
v 41.910416 35.396736 416.667053
v 51.376572 35.396736 416.831726
v 51.371048 35.396736 417.288086
v 41.904892 35.396736 417.123413
v 41.910416 19.091728 416.667053
v 41.910416 35.396736 416.667053
v 51.376572 35.396736 416.831726
v 51.376572 19.091728 416.831726
v 41.904892 19.091728 417.123413
v 51.371048 19.091728 417.288086
v 51.371048 35.396736 417.288086
v 41.904892 35.396736 417.123413
v 41.910416 35.396736 416.667053
v 51.376572 35.396736 416.831726
v 51.371048 35.396736 417.288086
v 41.904892 35.396736 417.123413
v 41.634064 18.822647 416.663727
v 41.520248 35.396736 416.662323
v 51.766735 35.396736 416.836456
v 51.651993 18.821739 416.835052
v 41.629471 18.821739 417.120087
v 51.647400 18.822647 417.291412
v 51.761215 35.396736 417.292816
v 41.514729 35.396736 417.118683
v 41.910416 35.777916 416.667053
v 51.376572 35.777916 416.831726
v 51.371048 35.777916 417.288086
v 41.904892 35.777916 417.123413
vn 0.0174 -0.0000 -0.9998
vn -0.0174 -0.0000 0.9998
vn -0.0121 -0.0000 0.9999
vn -0.9922 -0.1244 -0.0120
vn 0.9999 -0.0000 0.0148
vn 0.0172 -0.0000 -0.9999
vn -0.6318 0.6413 0.4354
vn 0.0121 -0.0000 -0.9999
vn -0.0120 -0.1009 0.9948
vn 0.9999 -0.0069 0.0111
vn -0.9999 -0.0069 -0.0111
vn -0.0000 -1.0000 -0.0000
vn -0.0000 1.0000 -0.0000
vn -0.6211 0.6413 -0.4505
vn 0.6211 0.6413 0.4505
vn 0.6318 0.6413 -0.4354
vn -0.0172 -0.0000 0.9999
vt 0.479286 0.819116
vt 0.479286 0.838550
vt 0.605202 0.818969
vt 0.479286 0.838550
vt 0.479286 0.009864
vt 0.479286 0.838550
vt 0.605202 0.009717
vt 0.479286 0.838550
vt 0.617829 0.819115
vt 0.491913 0.838550
vt 0.617829 0.009863
vt 0.491913 0.838550
vt 0.743746 0.009717
vt 0.491913 0.838550
vt 0.743746 0.818969
vt 0.491913 0.838550
vt 0.479286 0.838550
vt 0.479286 0.838550
vt 0.491913 0.838550
vt 0.491913 0.838550
vt 0.479286 0.838550
vt 0.479286 0.838550
vt 0.479286 0.838550
vt 0.479286 0.838550
vt 0.491913 0.838550
vt 0.491913 0.838550
vt 0.491913 0.838550
vt 0.491913 0.838550
vt 0.479286 0.838550
vt 0.479286 0.838550
vt 0.491913 0.838550
vt 0.491913 0.838550
vt 0.479286 0.838550
vt 0.479286 0.838550
vt 0.479286 0.838550
vt 0.479286 0.838550
vt 0.491913 0.838550
vt 0.491913 0.838550
vt 0.491913 0.838550
vt 0.491913 0.838550
vt 0.479286 0.838550
vt 0.479286 0.838550
vt 0.491913 0.838550
vt 0.491913 0.838550
vt 0.479286 0.838550
vt 0.186511 0.837930
vt 0.479286 0.838550
vt 0.186630 0.028678
vt 0.479286 0.838550
vt 0.312546 0.028636
vt 0.479286 0.838550
vt 0.312427 0.837888
vt 0.491913 0.838550
vt 0.461351 0.837888
vt 0.491913 0.838550
vt 0.335434 0.837930
vt 0.491913 0.838550
vt 0.335553 0.028678
vt 0.491913 0.838550
vt 0.461469 0.028636
vt 0.479286 0.838550
vt 0.186630 0.028678
vt 0.479286 0.838550
vt 0.312546 0.028636
vt 0.491913 0.838550
vt 0.335553 0.028678
vt 0.491913 0.838550
vt 0.461469 0.028636
vt 0.756373 0.009762
vt 0.812490 0.495603
vt 0.182833 0.851287
vt 0.756373 0.832388
vt 0.793793 0.009717
vt 0.181440 0.028680
vt 0.775070 0.009717
vt 0.793767 0.506593
vt 0.317736 0.028634
vt 0.316089 0.851287
vt 0.775070 0.832388
vt 0.812490 0.009809
vt 0.762442 0.009717
vt 0.818560 0.495511
vt 0.465012 0.851287
vt 0.781139 0.832343
vt 0.818560 0.009717
vt 0.331757 0.851287
vt 0.781139 0.009717
vt 0.799836 0.506641
vt 0.330363 0.028680
vt 0.466658 0.028634
vt 0.762442 0.832388
vt 0.799863 0.009765
vt 0.793767 0.028636
vt 0.186633 0.009760
vt 0.793793 0.487674
vt 0.312549 0.009717
vt 0.799863 0.487722
vt 0.335555 0.009760
vt 0.461472 0.009717
vt 0.799836 0.028683
s 1
g Plane.018_tablo_red
usemtl tablo_red
f 1/1/1 3/5/1 4/7/1 2/3/1
f 6/11/2 7/13/2 8/15/2 5/9/2
f 2/4/3 4/8/3 15/23/3 16/24/3
f 4/8/3 10/18/3 22/30/3 15/23/3
f 5/10/3 8/16/3 11/19/3 12/20/3
f 10/18/3 9/17/3 21/29/3 22/30/3
f 8/16/3 7/14/3 18/26/3 19/27/3
f 9/17/3 3/6/3 14/22/3 21/29/3
f 4/8/3 3/6/3 9/17/3 10/18/3
f 7/14/3 6/12/3 17/25/3 18/26/3
f 18/26/3 17/25/3 29/37/3 30/38/3
f 21/29/3 14/22/3 26/34/3 33/41/3
f 13/21/3 16/24/3 28/36/3 25/33/3
f 17/25/3 20/28/3 32/40/3 29/37/3
f 20/28/3 24/32/3 36/44/3 32/40/3
f 16/24/3 15/23/3 27/35/3 28/36/3
f 11/19/3 8/16/3 19/27/3 23/31/3
f 12/20/3 11/19/3 23/31/3 24/32/3
f 1/2/3 2/4/3 16/24/3 13/21/3
f 5/10/3 12/20/3 24/32/3 20/28/3
f 3/6/3 1/2/3 13/21/3 14/22/3
f 6/12/3 5/10/3 20/28/3 17/25/3
f 33/41/3 26/34/3 38/47/4 45/61/5
f 25/33/3 28/36/3 40/51/3 37/45/3
f 29/37/3 32/40/3 44/59/3 41/53/3
f 32/40/3 36/44/3 48/67/3 44/59/3
f 28/36/3 27/35/3 39/49/3 40/51/3
f 36/44/3 35/43/3 47/65/3 48/67/3
f 22/30/3 21/29/3 33/41/3 34/42/3
f 15/23/3 22/30/3 34/42/3 27/35/3
f 14/22/3 13/21/3 25/33/3 26/34/3
f 23/31/3 19/27/3 31/39/3 35/43/3
f 19/27/3 18/26/3 30/38/3 31/39/3
f 24/32/3 23/31/3 35/43/3 36/44/3
f 37/46/6 40/52/6 52/78/6 49/71/6
f 40/52/8 39/50/8 51/77/8 52/78/8
f 30/38/3 29/37/3 41/53/3 42/55/3
f 34/42/3 33/41/3 45/61/3 46/63/3
f 27/35/3 34/42/3 46/63/5 39/49/9
f 26/34/3 25/33/3 37/45/3 38/47/3
f 35/43/3 31/39/3 43/57/3 47/65/3
f 31/39/3 30/38/3 42/55/3 43/57/3
f 45/62/5 38/48/4 50/74/14 57/94/14
f 46/64/1 45/62/1 57/94/1 58/96/1
f 39/50/9 46/64/5 58/96/16 51/77/16
f 38/48/8 37/46/8 49/71/8 50/74/8
g Plane.018_m_white
usemtl m_white
f 41/54/3 44/60/3 56/90/3 53/83/3
f 44/60/3 48/68/3 60/99/7 56/90/7
f 48/68/2 47/66/2 59/98/2 60/99/2
f 43/58/3 42/56/3 54/86/3 55/89/3
f 52/79/10 51/75/10 55/87/10 54/84/10
f 50/72/11 49/69/11 53/81/11 56/91/11
f 49/70/12 52/80/12 54/85/12 53/82/12
f 58/95/13 57/93/13 60/100/13 59/97/13
f 50/73/14 56/92/7 60/100/7 57/93/14
f 55/88/15 51/76/16 58/95/16 59/97/15
f 42/56/17 41/54/17 53/83/17 54/86/17
f 47/66/3 43/58/3 55/89/15 59/98/15
