# Blender v3.0.1 OBJ File: 'hand.blend'
# www.blender.org
mtllib orta-oval-deneme2.mtl
o 3._finger_oval_Female_Hand.006
v -0.000394 0.007969 -0.038361
v -0.003056 0.005000 -0.100536
v 0.041817 -0.014529 -0.026924
v -0.042604 -0.014355 -0.021573
v 0.032200 -0.006101 -0.084320
v -0.036787 -0.005973 -0.080808
v -0.034456 -0.000132 0.036975
v 0.035058 -0.000277 0.032494
v 0.000927 0.012526 0.048837
v 0.037162 -0.003924 -0.091131
v -0.003512 0.008871 -0.107495
v -0.046577 -0.015893 -0.032306
v -0.001691 0.006366 -0.070056
v 0.038180 -0.015408 -0.013866
v -0.034686 -0.015255 -0.009167
v -0.020887 0.001715 -0.033127
v 0.020490 0.001630 -0.035721
v 0.039427 -0.011192 -0.059061
v -0.043292 -0.011034 -0.054497
v 0.016932 0.001078 -0.097555
v -0.022739 0.001150 -0.095647
v -0.042649 -0.003780 -0.087302
v 0.046310 -0.016050 -0.037726
v 0.033935 -0.005425 0.034301
v 0.000912 0.004743 0.048784
v -0.032791 -0.005286 0.038600
v -0.039929 -0.007954 0.004631
v 0.041652 -0.008125 -0.000637
v 0.000793 0.009968 -0.004646
v 0.020705 0.008228 0.043935
v -0.018899 0.008312 0.044816
v -0.026099 0.004718 -0.102500
v -0.048073 -0.010897 -0.060567
v 0.019371 0.004638 -0.104571
v -0.022068 0.000957 -0.064947
v 0.019030 0.000877 -0.067256
v 0.045060 -0.011070 -0.065512
v 0.020508 0.001152 0.044069
v -0.018653 0.001234 0.044922
v -0.019642 0.004413 -0.001104
v 0.021444 0.004327 -0.003772
v 0.039357 -0.011221 0.006066
v -0.035987 -0.011063 0.010926
vt 0.127161 0.639676
vt 0.121391 0.640775
vt 0.121533 0.641101
vt 0.126519 0.638420
vt 0.131844 0.636105
vt 0.131504 0.635739
vt 0.114932 0.637859
vt 0.109015 0.633823
vt 0.108201 0.630533
vt 0.114867 0.635817
vt 0.134979 0.631139
vt 0.133731 0.630573
vt 0.135563 0.625362
vt 0.135958 0.625407
vt 0.132122 0.619338
vt 0.130142 0.619463
vt 0.127648 0.613940
vt 0.124327 0.613519
vt 0.373086 0.080798
vt 0.354722 0.082090
vt 0.358434 0.069199
vt 0.376279 0.068552
vt 0.336357 0.083382
vt 0.340851 0.069319
vt 0.342465 0.056618
vt 0.360225 0.056447
vt 0.379471 0.056306
vt 0.358545 0.043701
vt 0.376241 0.044136
vt 0.341080 0.043880
vt 0.336895 0.029652
vt 0.354953 0.030809
vt 0.373011 0.031965
vt 0.309017 0.037943
vt 0.306999 0.047596
vt 0.304279 0.048503
vt 0.304286 0.041543
vt 0.306004 0.057178
vt 0.303484 0.057106
vt 0.306713 0.066644
vt 0.304079 0.065548
vt 0.308445 0.076039
vt 0.303966 0.072091
vt 0.323740 0.068243
vt 0.324384 0.056873
vt 0.322401 0.079710
vt 0.324013 0.045430
vt 0.322956 0.033798
vt 0.295556 0.033255
vt 0.302286 0.035599
vt 0.300756 0.037737
vt 0.295307 0.035253
vt 0.300508 0.075284
vt 0.302185 0.077779
vt 0.295191 0.077013
vt 0.295924 0.079518
vn -0.1963 0.9347 0.2964
vn -0.3231 0.9181 0.2295
vn -0.2245 0.9551 0.1931
vn -0.1590 0.9481 0.2755
vn 0.0163 0.9455 0.3253
vn 0.0153 0.9606 0.2776
vn -0.4018 0.8973 0.1830
vn -0.6022 0.7781 0.1785
vn -0.6421 0.7495 0.1611
vn -0.4056 0.9076 0.1080
vn 0.2273 0.9332 0.2782
vn 0.1894 0.9461 0.2628
vn 0.3482 0.9156 0.2011
vn 0.2449 0.9523 0.1820
vn 0.4153 0.8982 0.1438
vn 0.3850 0.9196 0.0784
vn 0.5381 0.8307 0.1431
vn 0.6523 0.7543 0.0746
vn -0.3749 0.9270 0.0111
vn -0.4238 0.9055 -0.0240
vn -0.0011 0.9986 -0.0525
vn 0.0007 0.9996 -0.0290
vn 0.3869 0.9219 -0.0190
vn 0.4343 0.8988 -0.0595
vn 0.8503 0.4185 0.3191
vn 0.4935 0.6411 0.5878
vn 0.4230 -0.0355 0.9055
vn 0.7243 -0.3748 0.5787
vn 0.0125 0.7229 0.6908
vn 0.0210 -0.0124 0.9997
vn -0.4399 0.6624 0.6064
vn -0.2984 -0.0368 0.9537
vn -0.8466 0.3437 0.4063
vn -0.5989 -0.4823 0.6393
vn -0.4063 0.9107 -0.0748
vn -0.0002 0.9978 -0.0666
vn -0.9891 0.1126 0.0954
vn 0.4101 0.9076 -0.0898
vn 0.9760 0.2162 0.0264
vn 0.6350 -0.7411 0.2181
vn 0.9528 0.0241 0.3026
vn -0.5048 -0.8381 0.2066
vn -0.8583 -0.0909 0.5051
usemtl Skin_Female.001
s 1
f 32/1/1 22/2/2 6/3/3 21/4/4
f 11/5/5 32/1/1 21/4/4 2/6/6
f 33/7/7 12/8/8 4/9/9 19/10/10
f 22/2/2 33/7/7 19/10/10 6/3/3
f 34/11/11 11/5/5 2/6/6 20/12/12
f 10/13/13 34/11/11 20/12/12 5/14/14
f 37/15/15 10/13/13 5/14/14 18/16/16
f 23/17/17 37/15/15 18/16/16 3/18/18
usemtl Skin_Female.005
f 6/19/3 19/20/10 35/21/19 21/22/4
f 19/20/10 4/23/9 16/24/20 35/21/19
f 35/21/19 16/24/20 1/25/21 13/26/22
f 21/22/4 35/21/19 13/26/22 2/27/6
f 2/27/6 13/26/22 36/28/23 20/29/12
f 13/26/22 1/25/21 17/30/24 36/28/23
f 36/28/23 17/30/24 3/31/18 18/32/16
f 20/29/12 36/28/23 18/32/16 5/33/14
f 8/34/25 30/35/26 38/36/27 24/37/28
f 30/35/26 9/38/29 25/39/30 38/36/27
f 9/38/29 31/40/31 39/41/32 25/39/30
f 31/40/31 7/42/33 26/43/34 39/41/32
f 1/25/21 16/24/20 40/44/35 29/45/36
f 16/24/20 4/23/9 27/46/37 40/44/35
f 40/44/35 27/46/37 7/42/33 31/40/31
f 29/45/36 40/44/35 31/40/31 9/38/29
f 3/31/18 17/30/24 41/47/38 28/48/39
f 17/30/24 1/25/21 29/45/36 41/47/38
f 41/47/38 29/45/36 9/38/29 30/35/26
f 28/48/39 41/47/38 30/35/26 8/34/25
f 3/49/18 28/50/39 42/51/40 14/52/41
f 28/50/39 8/34/25 24/37/28 42/51/40
f 43/53/42 26/43/34 7/42/33 27/54/37
f 15/55/43 43/53/42 27/54/37 4/56/9
